M48
; DRILL file {KiCad 5.1.5-52549c5~84~ubuntu19.10.1} date Di 17 Dez 2019 23:34:42 CET
; FORMAT={-:-/ absolute / inch / decimal}
; #@! TF.CreationDate,2019-12-17T23:34:42+01:00
; #@! TF.GenerationSoftware,Kicad,Pcbnew,5.1.5-52549c5~84~ubuntu19.10.1
; #@! TF.FileFunction,Plated,1,2,PTH
FMAT,2
INCH
T1C0.0079
T2C0.0374
T3C0.0394
T4C0.0787
T5C0.0866
%
G90
G05
T1
X3.1988Y-3.1496
X3.248Y-3.1496
X3.2937Y-3.9661
X3.2943Y-3.6683
X3.2972Y-3.1496
X3.3189Y-4.2756
X3.3386Y-4.2756
X3.3465Y-3.1496
X3.3877Y-3.7944
X3.3932Y-4.1569
X3.3937Y-3.8268
X3.3957Y-3.1496
X3.4252Y-3.7323
X3.436Y-3.5728
X3.4449Y-4.065
X3.4449Y-4.0945
X3.4449Y-4.124
X3.4452Y-3.1378
X3.4459Y-3.7961
X3.4646Y-2.8445
X3.4646Y-3.6516
X3.4646Y-3.7697
X3.4843Y-2.8445
X3.4941Y-3.1496
X3.5039Y-2.8445
X3.5433Y-3.1496
X3.6057Y-3.7663
X3.6319Y-3.248
X3.6345Y-3.2771
X3.6364Y-3.3054
X3.6375Y-3.333
X3.6516Y-3.1467
X3.6909Y-4.1339
X3.75Y-3.8878
X3.75Y-3.9173
X3.75Y-3.9469
X3.75Y-3.9764
X3.7559Y-4.1339
X3.8484Y-3.376
X3.8892Y-2.6608
X3.9055Y-2.6772
X3.9055Y-2.7008
X3.9075Y-3.1654
X3.9075Y-3.189
X3.9105Y-3.2149
X3.9173Y-3.248
X3.9272Y-3.6909
X3.9311Y-3.1358
X3.9665Y-3.061
X3.9685Y-2.9213
X3.9764Y-2.5433
X4.0059Y-3.2598
X4.0157Y-3.061
X4.0256Y-2.9921
X4.0472Y-3.5157
X4.0748Y-3.189
X4.0846Y-3.8878
X4.0846Y-3.9272
X4.0846Y-3.9567
X4.0846Y-3.9862
X4.124Y-3.1703
X4.1417Y-3.2205
X4.1437Y-2.9429
X4.1437Y-2.9685
X4.1437Y-2.9921
X4.1732Y-3.1496
X4.2224Y-3.1398
X4.2283Y-2.9222
X4.2362Y-2.7008
X4.2362Y-2.8504
X4.2421Y-3.6909
X4.2717Y-3.1496
X4.3071Y-2.9921
X4.311Y-2.7264
X4.3209Y-3.1496
X4.3701Y-2.5463
X4.3701Y-3.1496
X4.3701Y-3.5138
X4.3937Y-2.9685
X4.399Y-3.8878
X4.399Y-3.9272
X4.399Y-3.9567
X4.399Y-3.9862
X4.416Y-4.1437
X4.4193Y-3.1496
X4.4193Y-3.5138
X4.4291Y-4.124
X4.4882Y-3.1496
X4.5669Y-2.9134
X4.5768Y-3.1496
X4.6161Y-4.0256
X4.626Y-2.9498
X4.626Y-3.8484
X4.6358Y-3.6516
X4.6378Y-2.6959
X4.6378Y-2.748
X4.6654Y-2.9724
X4.6693Y-2.7165
X4.6949Y-3.9961
X4.7087Y-2.6772
X4.7146Y-3.8878
X4.7146Y-3.9173
X4.7146Y-3.9469
X4.7244Y-3.0217
X4.7598Y-3.4567
X4.7795Y-3.4567
X4.8425Y-4.2913
X4.8504Y-3.5472
X4.8622Y-4.2913
X4.8819Y-4.2913
X4.9016Y-4.0748
X4.9213Y-4.0748
X4.9409Y-4.0748
X4.9848Y-3.1333
X4.9896Y-3.1759
X5.0522Y-3.1811
X5.0522Y-3.2047
X5.0522Y-3.2362
X5.0671Y-2.9722
X5.189Y-3.3346
X5.1969Y-3.2559
X5.1969Y-3.2874
X5.2008Y-3.1535
X5.2008Y-3.3602
X5.2067Y-3.189
X5.2116Y-2.7254
X5.2207Y-2.9058
X5.2677Y-2.4331
X5.2717Y-3.3839
X5.2913Y-3.3839
X5.3307Y-2.8031
X5.3307Y-2.8228
X5.3465Y-2.9921
X5.3663Y-2.9722
X5.3971Y-2.9956
X5.5748Y-2.7008
T2
X3.878Y-3.75
X3.878Y-3.8484
X3.878Y-3.9469
X3.878Y-4.0453
X4.1929Y-3.75
X4.1929Y-3.8484
X4.1929Y-3.9469
X4.1929Y-4.0453
X4.5079Y-3.7795
X4.5079Y-3.878
X4.5079Y-3.9764
X3.525Y-4.425
X3.6234Y-4.425
X3.7219Y-4.425
X4.75Y-4.425
X4.8484Y-4.425
X4.9469Y-4.425
X5.0453Y-4.425
X5.1437Y-4.425
X5.2421Y-4.425
X4.05Y-4.425
X4.1484Y-4.425
X4.2469Y-4.425
X4.3453Y-4.425
X4.4437Y-4.425
X3.2545Y-3.6329
X3.2545Y-3.7313
X3.2545Y-3.8297
X3.2545Y-3.9281
X3.2545Y-4.0266
X3.2545Y-4.125
X3.563Y-3.6329
X3.563Y-3.7313
X3.563Y-3.8297
X3.563Y-3.9281
X3.563Y-4.0266
X3.563Y-4.125
T3
X5.1575Y-2.7756
X5.2559Y-2.7756
X3.422Y-2.4823
X3.422Y-2.5823
X3.522Y-2.4823
X3.522Y-2.5823
X3.622Y-2.4823
X3.622Y-2.5823
X3.722Y-2.4823
X3.722Y-2.5823
X3.822Y-2.4823
X3.822Y-2.5823
X3.922Y-2.4823
X3.922Y-2.5823
X4.022Y-2.4823
X4.022Y-2.5823
X4.122Y-2.4823
X4.122Y-2.5823
X4.222Y-2.4823
X4.222Y-2.5823
X4.322Y-2.4823
X4.322Y-2.5823
X4.422Y-2.4823
X4.422Y-2.5823
X4.522Y-2.4823
X4.522Y-2.5823
X4.622Y-2.4823
X4.622Y-2.5823
X4.722Y-2.4823
X4.722Y-2.5823
X4.822Y-2.4823
X4.822Y-2.5823
X4.922Y-2.4823
X4.922Y-2.5823
X5.022Y-2.4823
X5.022Y-2.5823
X5.122Y-2.4823
X5.122Y-2.5823
X5.222Y-2.4823
X5.222Y-2.5823
X5.322Y-2.4823
X5.322Y-2.5823
X4.8031Y-2.7756
X4.9016Y-2.7756
X4.0453Y-2.7366
X4.0453Y-2.8366
T4
X5.2953Y-4.0748
X5.2953Y-3.6713
T5
X5.4724Y-4.0748
X5.4724Y-3.6713
T0
M30
