G04 #@! TF.GenerationSoftware,KiCad,Pcbnew,5.1.5-52549c5~84~ubuntu19.10.1*
G04 #@! TF.CreationDate,2019-12-17T23:34:37+01:00*
G04 #@! TF.ProjectId,pi-hat,70692d68-6174-42e6-9b69-6361645f7063,rev?*
G04 #@! TF.SameCoordinates,Original*
G04 #@! TF.FileFunction,Legend,Top*
G04 #@! TF.FilePolarity,Positive*
%FSLAX46Y46*%
G04 Gerber Fmt 4.6, Leading zero omitted, Abs format (unit mm)*
G04 Created by KiCad (PCBNEW 5.1.5-52549c5~84~ubuntu19.10.1) date 2019-12-17 23:34:37*
%MOMM*%
%LPD*%
G04 APERTURE LIST*
%ADD10C,0.300000*%
%ADD11C,0.127000*%
%ADD12C,0.100000*%
%ADD13C,0.120000*%
%ADD14C,0.010000*%
%ADD15C,0.150000*%
%ADD16C,0.125000*%
G04 APERTURE END LIST*
D10*
X123621428Y-100078571D02*
X123121428Y-99364285D01*
X122764285Y-100078571D02*
X122764285Y-98578571D01*
X123335714Y-98578571D01*
X123478571Y-98650000D01*
X123550000Y-98721428D01*
X123621428Y-98864285D01*
X123621428Y-99078571D01*
X123550000Y-99221428D01*
X123478571Y-99292857D01*
X123335714Y-99364285D01*
X122764285Y-99364285D01*
X124264285Y-100078571D02*
X124264285Y-99078571D01*
X124264285Y-98578571D02*
X124192857Y-98650000D01*
X124264285Y-98721428D01*
X124335714Y-98650000D01*
X124264285Y-98578571D01*
X124264285Y-98721428D01*
X125621428Y-99078571D02*
X125621428Y-100292857D01*
X125550000Y-100435714D01*
X125478571Y-100507142D01*
X125335714Y-100578571D01*
X125121428Y-100578571D01*
X124978571Y-100507142D01*
X125621428Y-100007142D02*
X125478571Y-100078571D01*
X125192857Y-100078571D01*
X125050000Y-100007142D01*
X124978571Y-99935714D01*
X124907142Y-99792857D01*
X124907142Y-99364285D01*
X124978571Y-99221428D01*
X125050000Y-99150000D01*
X125192857Y-99078571D01*
X125478571Y-99078571D01*
X125621428Y-99150000D01*
X126335714Y-100078571D02*
X126335714Y-98578571D01*
X126978571Y-100078571D02*
X126978571Y-99292857D01*
X126907142Y-99150000D01*
X126764285Y-99078571D01*
X126550000Y-99078571D01*
X126407142Y-99150000D01*
X126335714Y-99221428D01*
X127478571Y-99078571D02*
X128050000Y-99078571D01*
X127692857Y-98578571D02*
X127692857Y-99864285D01*
X127764285Y-100007142D01*
X127907142Y-100078571D01*
X128050000Y-100078571D01*
X124564285Y-97978571D02*
X123850000Y-97978571D01*
X123850000Y-96478571D01*
X125635714Y-97907142D02*
X125492857Y-97978571D01*
X125207142Y-97978571D01*
X125064285Y-97907142D01*
X124992857Y-97764285D01*
X124992857Y-97192857D01*
X125064285Y-97050000D01*
X125207142Y-96978571D01*
X125492857Y-96978571D01*
X125635714Y-97050000D01*
X125707142Y-97192857D01*
X125707142Y-97335714D01*
X124992857Y-97478571D01*
X126135714Y-96978571D02*
X126707142Y-96978571D01*
X126350000Y-97978571D02*
X126350000Y-96692857D01*
X126421428Y-96550000D01*
X126564285Y-96478571D01*
X126707142Y-96478571D01*
X126992857Y-96978571D02*
X127564285Y-96978571D01*
X127207142Y-96478571D02*
X127207142Y-97764285D01*
X127278571Y-97907142D01*
X127421428Y-97978571D01*
X127564285Y-97978571D01*
X95619047Y-82154761D02*
X95619047Y-82535714D01*
X96380952Y-82154761D02*
X96380952Y-82535714D01*
X96952380Y-82154761D02*
X98095238Y-82154761D01*
X97523809Y-84154761D02*
X97523809Y-82154761D01*
X98761904Y-84154761D02*
X98761904Y-82154761D01*
X99619047Y-84154761D02*
X99619047Y-83107142D01*
X99523809Y-82916666D01*
X99333333Y-82821428D01*
X99047619Y-82821428D01*
X98857142Y-82916666D01*
X98761904Y-83011904D01*
X101333333Y-84059523D02*
X101142857Y-84154761D01*
X100761904Y-84154761D01*
X100571428Y-84059523D01*
X100476190Y-83869047D01*
X100476190Y-83107142D01*
X100571428Y-82916666D01*
X100761904Y-82821428D01*
X101142857Y-82821428D01*
X101333333Y-82916666D01*
X101428571Y-83107142D01*
X101428571Y-83297619D01*
X100476190Y-83488095D01*
X104380952Y-82154761D02*
X104380952Y-83583333D01*
X104285714Y-83869047D01*
X104095238Y-84059523D01*
X103809523Y-84154761D01*
X103619047Y-84154761D01*
X106190476Y-82821428D02*
X106190476Y-84154761D01*
X105333333Y-82821428D02*
X105333333Y-83869047D01*
X105428571Y-84059523D01*
X105619047Y-84154761D01*
X105904761Y-84154761D01*
X106095238Y-84059523D01*
X106190476Y-83964285D01*
X107142857Y-84154761D02*
X107142857Y-82154761D01*
X107333333Y-83392857D02*
X107904761Y-84154761D01*
X107904761Y-82821428D02*
X107142857Y-83583333D01*
X109523809Y-84059523D02*
X109333333Y-84154761D01*
X108952380Y-84154761D01*
X108761904Y-84059523D01*
X108666666Y-83869047D01*
X108666666Y-83107142D01*
X108761904Y-82916666D01*
X108952380Y-82821428D01*
X109333333Y-82821428D01*
X109523809Y-82916666D01*
X109619047Y-83107142D01*
X109619047Y-83297619D01*
X108666666Y-83488095D01*
X110476190Y-84154761D02*
X110476190Y-82154761D01*
X110476190Y-82916666D02*
X110666666Y-82821428D01*
X111047619Y-82821428D01*
X111238095Y-82916666D01*
X111333333Y-83011904D01*
X111428571Y-83202380D01*
X111428571Y-83773809D01*
X111333333Y-83964285D01*
X111238095Y-84059523D01*
X111047619Y-84154761D01*
X110666666Y-84154761D01*
X110476190Y-84059523D01*
X112571428Y-84154761D02*
X112380952Y-84059523D01*
X112285714Y-83964285D01*
X112190476Y-83773809D01*
X112190476Y-83202380D01*
X112285714Y-83011904D01*
X112380952Y-82916666D01*
X112571428Y-82821428D01*
X112857142Y-82821428D01*
X113047619Y-82916666D01*
X113142857Y-83011904D01*
X113238095Y-83202380D01*
X113238095Y-83773809D01*
X113142857Y-83964285D01*
X113047619Y-84059523D01*
X112857142Y-84154761D01*
X112571428Y-84154761D01*
X113904761Y-84154761D02*
X114952380Y-82821428D01*
X113904761Y-82821428D02*
X114952380Y-84154761D01*
X115619047Y-82154761D02*
X115619047Y-82535714D01*
X116380952Y-82154761D02*
X116380952Y-82535714D01*
X95238095Y-87454761D02*
X95238095Y-85454761D01*
X95238095Y-86216666D02*
X95428571Y-86121428D01*
X95809523Y-86121428D01*
X96000000Y-86216666D01*
X96095238Y-86311904D01*
X96190476Y-86502380D01*
X96190476Y-87073809D01*
X96095238Y-87264285D01*
X96000000Y-87359523D01*
X95809523Y-87454761D01*
X95428571Y-87454761D01*
X95238095Y-87359523D01*
X96857142Y-86121428D02*
X97333333Y-87454761D01*
X97809523Y-86121428D02*
X97333333Y-87454761D01*
X97142857Y-87930952D01*
X97047619Y-88026190D01*
X96857142Y-88121428D01*
X100095238Y-87454761D02*
X100095238Y-85454761D01*
X100761904Y-86883333D01*
X101428571Y-85454761D01*
X101428571Y-87454761D01*
X103238095Y-87454761D02*
X103238095Y-86407142D01*
X103142857Y-86216666D01*
X102952380Y-86121428D01*
X102571428Y-86121428D01*
X102380952Y-86216666D01*
X103238095Y-87359523D02*
X103047619Y-87454761D01*
X102571428Y-87454761D01*
X102380952Y-87359523D01*
X102285714Y-87169047D01*
X102285714Y-86978571D01*
X102380952Y-86788095D01*
X102571428Y-86692857D01*
X103047619Y-86692857D01*
X103238095Y-86597619D01*
X104000000Y-85454761D02*
X105333333Y-85454761D01*
X104000000Y-87454761D01*
X105333333Y-87454761D01*
X106952380Y-87454761D02*
X106952380Y-85454761D01*
X106952380Y-87359523D02*
X106761904Y-87454761D01*
X106380952Y-87454761D01*
X106190476Y-87359523D01*
X106095238Y-87264285D01*
X106000000Y-87073809D01*
X106000000Y-86502380D01*
X106095238Y-86311904D01*
X106190476Y-86216666D01*
X106380952Y-86121428D01*
X106761904Y-86121428D01*
X106952380Y-86216666D01*
X108666666Y-87359523D02*
X108476190Y-87454761D01*
X108095238Y-87454761D01*
X107904761Y-87359523D01*
X107809523Y-87169047D01*
X107809523Y-86407142D01*
X107904761Y-86216666D01*
X108095238Y-86121428D01*
X108476190Y-86121428D01*
X108666666Y-86216666D01*
X108761904Y-86407142D01*
X108761904Y-86597619D01*
X107809523Y-86788095D01*
X109619047Y-87454761D02*
X109619047Y-86121428D01*
X109619047Y-86502380D02*
X109714285Y-86311904D01*
X109809523Y-86216666D01*
X110000000Y-86121428D01*
X110190476Y-86121428D01*
X110857142Y-87454761D02*
X110857142Y-85454761D01*
X111523809Y-86883333D01*
X112190476Y-85454761D01*
X112190476Y-87454761D01*
X113142857Y-87454761D02*
X113142857Y-86121428D01*
X113142857Y-85454761D02*
X113047619Y-85550000D01*
X113142857Y-85645238D01*
X113238095Y-85550000D01*
X113142857Y-85454761D01*
X113142857Y-85645238D01*
X114095238Y-86121428D02*
X114095238Y-87454761D01*
X114095238Y-86311904D02*
X114190476Y-86216666D01*
X114380952Y-86121428D01*
X114666666Y-86121428D01*
X114857142Y-86216666D01*
X114952380Y-86407142D01*
X114952380Y-87454761D01*
X116761904Y-87454761D02*
X116761904Y-85454761D01*
X116761904Y-87359523D02*
X116571428Y-87454761D01*
X116190476Y-87454761D01*
X116000000Y-87359523D01*
X115904761Y-87264285D01*
X115809523Y-87073809D01*
X115809523Y-86502380D01*
X115904761Y-86311904D01*
X116000000Y-86216666D01*
X116190476Y-86121428D01*
X116571428Y-86121428D01*
X116761904Y-86216666D01*
D11*
X141169428Y-73869000D02*
X141096857Y-73832714D01*
X140988000Y-73832714D01*
X140879142Y-73869000D01*
X140806571Y-73941571D01*
X140770285Y-74014142D01*
X140734000Y-74159285D01*
X140734000Y-74268142D01*
X140770285Y-74413285D01*
X140806571Y-74485857D01*
X140879142Y-74558428D01*
X140988000Y-74594714D01*
X141060571Y-74594714D01*
X141169428Y-74558428D01*
X141205714Y-74522142D01*
X141205714Y-74268142D01*
X141060571Y-74268142D01*
X141532285Y-74594714D02*
X141532285Y-73832714D01*
X141967714Y-74594714D01*
X141967714Y-73832714D01*
X142330571Y-74594714D02*
X142330571Y-73832714D01*
X142512000Y-73832714D01*
X142620857Y-73869000D01*
X142693428Y-73941571D01*
X142729714Y-74014142D01*
X142766000Y-74159285D01*
X142766000Y-74268142D01*
X142729714Y-74413285D01*
X142693428Y-74485857D01*
X142620857Y-74558428D01*
X142512000Y-74594714D01*
X142330571Y-74594714D01*
X140157428Y-76377000D02*
X140520285Y-76377000D01*
X140084857Y-76594714D02*
X140338857Y-75832714D01*
X140592857Y-76594714D01*
X141246000Y-75869000D02*
X141173428Y-75832714D01*
X141064571Y-75832714D01*
X140955714Y-75869000D01*
X140883142Y-75941571D01*
X140846857Y-76014142D01*
X140810571Y-76159285D01*
X140810571Y-76268142D01*
X140846857Y-76413285D01*
X140883142Y-76485857D01*
X140955714Y-76558428D01*
X141064571Y-76594714D01*
X141137142Y-76594714D01*
X141246000Y-76558428D01*
X141282285Y-76522142D01*
X141282285Y-76268142D01*
X141137142Y-76268142D01*
X141608857Y-76594714D02*
X141608857Y-75832714D01*
X142044285Y-76594714D01*
X142044285Y-75832714D01*
X142407142Y-76594714D02*
X142407142Y-75832714D01*
X142588571Y-75832714D01*
X142697428Y-75869000D01*
X142770000Y-75941571D01*
X142806285Y-76014142D01*
X142842571Y-76159285D01*
X142842571Y-76268142D01*
X142806285Y-76413285D01*
X142770000Y-76485857D01*
X142697428Y-76558428D01*
X142588571Y-76594714D01*
X142407142Y-76594714D01*
D12*
X78546356Y-63817611D02*
G75*
G02X81546356Y-60817611I3000000J0D01*
G01*
X78546356Y-63817611D02*
X78546356Y-113817611D01*
X140546356Y-60817611D02*
X81546356Y-60817611D01*
X140546356Y-60817611D02*
G75*
G02X143546356Y-63817611I0J-3000000D01*
G01*
X143546356Y-113817611D02*
X143546356Y-63817611D01*
X81546356Y-116817611D02*
G75*
G02X78546356Y-113817611I0J3000000D01*
G01*
X81546356Y-116817611D02*
X140546356Y-116817611D01*
X143546356Y-113817611D02*
G75*
G02X140546356Y-116817611I-3000000J0D01*
G01*
D13*
X94000000Y-73700000D02*
G75*
G03X94000000Y-73700000I-1200000J0D01*
G01*
X107910000Y-90596078D02*
X107910000Y-90078922D01*
X106490000Y-90596078D02*
X106490000Y-90078922D01*
X105785000Y-89265000D02*
X103500000Y-89265000D01*
X105785000Y-90735000D02*
X105785000Y-89265000D01*
X103500000Y-90735000D02*
X105785000Y-90735000D01*
D14*
G36*
X88703910Y-82242348D02*
G01*
X88782454Y-82242778D01*
X88839298Y-82243942D01*
X88878105Y-82246207D01*
X88902538Y-82249940D01*
X88916262Y-82255506D01*
X88922940Y-82263273D01*
X88926236Y-82273605D01*
X88926556Y-82274943D01*
X88931562Y-82299079D01*
X88940829Y-82346701D01*
X88953392Y-82412741D01*
X88968287Y-82492128D01*
X88984551Y-82579796D01*
X88985119Y-82582875D01*
X89001410Y-82668789D01*
X89016652Y-82744696D01*
X89029861Y-82806045D01*
X89040054Y-82848282D01*
X89046248Y-82866855D01*
X89046543Y-82867184D01*
X89064788Y-82876253D01*
X89102405Y-82891367D01*
X89151271Y-82909262D01*
X89151543Y-82909358D01*
X89213093Y-82932493D01*
X89285657Y-82961965D01*
X89354057Y-82991597D01*
X89357294Y-82993062D01*
X89468702Y-83043626D01*
X89715399Y-82875160D01*
X89791077Y-82823803D01*
X89859631Y-82777889D01*
X89917088Y-82740030D01*
X89959476Y-82712837D01*
X89982825Y-82698921D01*
X89985042Y-82697889D01*
X90002010Y-82702484D01*
X90033701Y-82724655D01*
X90081352Y-82765447D01*
X90146198Y-82825905D01*
X90212397Y-82890227D01*
X90276214Y-82953612D01*
X90333329Y-83011451D01*
X90380305Y-83060175D01*
X90413703Y-83096210D01*
X90430085Y-83115984D01*
X90430694Y-83117002D01*
X90432505Y-83130572D01*
X90425683Y-83152733D01*
X90408540Y-83186478D01*
X90379393Y-83234800D01*
X90336555Y-83300692D01*
X90279448Y-83385517D01*
X90228766Y-83460177D01*
X90183461Y-83527140D01*
X90146150Y-83582516D01*
X90119452Y-83622420D01*
X90105985Y-83642962D01*
X90105137Y-83644356D01*
X90106781Y-83664038D01*
X90119245Y-83702293D01*
X90140048Y-83751889D01*
X90147462Y-83767728D01*
X90179814Y-83838290D01*
X90214328Y-83918353D01*
X90242365Y-83987629D01*
X90262568Y-84039045D01*
X90278615Y-84078119D01*
X90287888Y-84098541D01*
X90289041Y-84100114D01*
X90306096Y-84102721D01*
X90346298Y-84109863D01*
X90404302Y-84120523D01*
X90474763Y-84133685D01*
X90552335Y-84148333D01*
X90631672Y-84163449D01*
X90707431Y-84178018D01*
X90774264Y-84191022D01*
X90826828Y-84201445D01*
X90859776Y-84208270D01*
X90867857Y-84210199D01*
X90876205Y-84214962D01*
X90882506Y-84225718D01*
X90887045Y-84246098D01*
X90890104Y-84279734D01*
X90891967Y-84330255D01*
X90892918Y-84401292D01*
X90893240Y-84496476D01*
X90893257Y-84535492D01*
X90893257Y-84852799D01*
X90817057Y-84867839D01*
X90774663Y-84875995D01*
X90711400Y-84887899D01*
X90634962Y-84902116D01*
X90553043Y-84917210D01*
X90530400Y-84921355D01*
X90454806Y-84936053D01*
X90388953Y-84950505D01*
X90338366Y-84963375D01*
X90308574Y-84973322D01*
X90303612Y-84976287D01*
X90291426Y-84997283D01*
X90273953Y-85037967D01*
X90254577Y-85090322D01*
X90250734Y-85101600D01*
X90225339Y-85171523D01*
X90193817Y-85250418D01*
X90162969Y-85321266D01*
X90162817Y-85321595D01*
X90111447Y-85432733D01*
X90280399Y-85681253D01*
X90449352Y-85929772D01*
X90232429Y-86147058D01*
X90166819Y-86211726D01*
X90106979Y-86268733D01*
X90056267Y-86315033D01*
X90018046Y-86347584D01*
X89995675Y-86363343D01*
X89992466Y-86364343D01*
X89973626Y-86356469D01*
X89935180Y-86334578D01*
X89881330Y-86301267D01*
X89816276Y-86259131D01*
X89745940Y-86211943D01*
X89674555Y-86163810D01*
X89610908Y-86121928D01*
X89559041Y-86088871D01*
X89522995Y-86067218D01*
X89506867Y-86059543D01*
X89487189Y-86066037D01*
X89449875Y-86083150D01*
X89402621Y-86107326D01*
X89397612Y-86110013D01*
X89333977Y-86141927D01*
X89290341Y-86157579D01*
X89263202Y-86157745D01*
X89249057Y-86143204D01*
X89248975Y-86143000D01*
X89241905Y-86125779D01*
X89225042Y-86084899D01*
X89199695Y-86023525D01*
X89167171Y-85944819D01*
X89128778Y-85851947D01*
X89085822Y-85748072D01*
X89044222Y-85647502D01*
X88998504Y-85536516D01*
X88956526Y-85433703D01*
X88919548Y-85342215D01*
X88888827Y-85265201D01*
X88865622Y-85205815D01*
X88851190Y-85167209D01*
X88846743Y-85152800D01*
X88857896Y-85136272D01*
X88887069Y-85109930D01*
X88925971Y-85080887D01*
X89036757Y-84989039D01*
X89123351Y-84883759D01*
X89184716Y-84767266D01*
X89219815Y-84641776D01*
X89227608Y-84509507D01*
X89221943Y-84448457D01*
X89191078Y-84321795D01*
X89137920Y-84209941D01*
X89065767Y-84114001D01*
X88977917Y-84035076D01*
X88877665Y-83974270D01*
X88768310Y-83932687D01*
X88653147Y-83911428D01*
X88535475Y-83911599D01*
X88418590Y-83934301D01*
X88305789Y-83980638D01*
X88200369Y-84051713D01*
X88156368Y-84091911D01*
X88071979Y-84195129D01*
X88013222Y-84307925D01*
X87979704Y-84427010D01*
X87971035Y-84549095D01*
X87986823Y-84670893D01*
X88026678Y-84789116D01*
X88090207Y-84900475D01*
X88177021Y-85001684D01*
X88274029Y-85080887D01*
X88314437Y-85111162D01*
X88342982Y-85137219D01*
X88353257Y-85152825D01*
X88347877Y-85169843D01*
X88332575Y-85210500D01*
X88308612Y-85271642D01*
X88277244Y-85350119D01*
X88239732Y-85442780D01*
X88197333Y-85546472D01*
X88155663Y-85647526D01*
X88109690Y-85758607D01*
X88067107Y-85861541D01*
X88029221Y-85953165D01*
X87997340Y-86030316D01*
X87972771Y-86089831D01*
X87956820Y-86128544D01*
X87950910Y-86143000D01*
X87936948Y-86157685D01*
X87909940Y-86157642D01*
X87866413Y-86142099D01*
X87802890Y-86110284D01*
X87802388Y-86110013D01*
X87754560Y-86085323D01*
X87715897Y-86067338D01*
X87694095Y-86059614D01*
X87693133Y-86059543D01*
X87676721Y-86067378D01*
X87640487Y-86089165D01*
X87588474Y-86122328D01*
X87524725Y-86164291D01*
X87454060Y-86211943D01*
X87382116Y-86260191D01*
X87317274Y-86302151D01*
X87263735Y-86335227D01*
X87225697Y-86356821D01*
X87207533Y-86364343D01*
X87190808Y-86354457D01*
X87157180Y-86326826D01*
X87110010Y-86284495D01*
X87052658Y-86230505D01*
X86988484Y-86167899D01*
X86967497Y-86146983D01*
X86750499Y-85929623D01*
X86915668Y-85687220D01*
X86965864Y-85612781D01*
X87009919Y-85545972D01*
X87045362Y-85490665D01*
X87069719Y-85450729D01*
X87080522Y-85430036D01*
X87080838Y-85428563D01*
X87075143Y-85409058D01*
X87059826Y-85369822D01*
X87037537Y-85317430D01*
X87021893Y-85282355D01*
X86992641Y-85215201D01*
X86965094Y-85147358D01*
X86943737Y-85090034D01*
X86937935Y-85072572D01*
X86921452Y-85025938D01*
X86905340Y-84989905D01*
X86896490Y-84976287D01*
X86876960Y-84967952D01*
X86834334Y-84956137D01*
X86774145Y-84942181D01*
X86701922Y-84927422D01*
X86669600Y-84921355D01*
X86587522Y-84906273D01*
X86508795Y-84891669D01*
X86441109Y-84878980D01*
X86392160Y-84869642D01*
X86382943Y-84867839D01*
X86306743Y-84852799D01*
X86306743Y-84535492D01*
X86306914Y-84431154D01*
X86307616Y-84352213D01*
X86309134Y-84295038D01*
X86311749Y-84255999D01*
X86315746Y-84231465D01*
X86321409Y-84217805D01*
X86329020Y-84211389D01*
X86332143Y-84210199D01*
X86350978Y-84205980D01*
X86392588Y-84197562D01*
X86451630Y-84185961D01*
X86522757Y-84172195D01*
X86600625Y-84157280D01*
X86679887Y-84142232D01*
X86755198Y-84128069D01*
X86821213Y-84115806D01*
X86872587Y-84106461D01*
X86903975Y-84101050D01*
X86910959Y-84100114D01*
X86917285Y-84087596D01*
X86931290Y-84054246D01*
X86950355Y-84006377D01*
X86957634Y-83987629D01*
X86986996Y-83915195D01*
X87021571Y-83835170D01*
X87052537Y-83767728D01*
X87075323Y-83716159D01*
X87090482Y-83673785D01*
X87095542Y-83647834D01*
X87094736Y-83644356D01*
X87084041Y-83627936D01*
X87059620Y-83591417D01*
X87024095Y-83538687D01*
X86980087Y-83473635D01*
X86930217Y-83400151D01*
X86920356Y-83385645D01*
X86862492Y-83299704D01*
X86819956Y-83234261D01*
X86791054Y-83186304D01*
X86774090Y-83152820D01*
X86767367Y-83130795D01*
X86769190Y-83117217D01*
X86769236Y-83117131D01*
X86783586Y-83099297D01*
X86815323Y-83064817D01*
X86861010Y-83017268D01*
X86917204Y-82960222D01*
X86980468Y-82897255D01*
X86987602Y-82890227D01*
X87067330Y-82813020D01*
X87128857Y-82756330D01*
X87173421Y-82719110D01*
X87202257Y-82700315D01*
X87214958Y-82697889D01*
X87233494Y-82708471D01*
X87271961Y-82732916D01*
X87326386Y-82768612D01*
X87392798Y-82812947D01*
X87467225Y-82863311D01*
X87484601Y-82875160D01*
X87731297Y-83043626D01*
X87842706Y-82993062D01*
X87910457Y-82963595D01*
X87983183Y-82933959D01*
X88045703Y-82910330D01*
X88048457Y-82909358D01*
X88097360Y-82891457D01*
X88135057Y-82876320D01*
X88153425Y-82867210D01*
X88153456Y-82867184D01*
X88159285Y-82850717D01*
X88169192Y-82810219D01*
X88182195Y-82750242D01*
X88197309Y-82675340D01*
X88213552Y-82590064D01*
X88214881Y-82582875D01*
X88231175Y-82495014D01*
X88246133Y-82415260D01*
X88258791Y-82348681D01*
X88268186Y-82300347D01*
X88273354Y-82275325D01*
X88273444Y-82274943D01*
X88276589Y-82264299D01*
X88282704Y-82256262D01*
X88295453Y-82250467D01*
X88318500Y-82246547D01*
X88355509Y-82244135D01*
X88410144Y-82242865D01*
X88486067Y-82242371D01*
X88586944Y-82242286D01*
X88600000Y-82242286D01*
X88703910Y-82242348D01*
G37*
X88703910Y-82242348D02*
X88782454Y-82242778D01*
X88839298Y-82243942D01*
X88878105Y-82246207D01*
X88902538Y-82249940D01*
X88916262Y-82255506D01*
X88922940Y-82263273D01*
X88926236Y-82273605D01*
X88926556Y-82274943D01*
X88931562Y-82299079D01*
X88940829Y-82346701D01*
X88953392Y-82412741D01*
X88968287Y-82492128D01*
X88984551Y-82579796D01*
X88985119Y-82582875D01*
X89001410Y-82668789D01*
X89016652Y-82744696D01*
X89029861Y-82806045D01*
X89040054Y-82848282D01*
X89046248Y-82866855D01*
X89046543Y-82867184D01*
X89064788Y-82876253D01*
X89102405Y-82891367D01*
X89151271Y-82909262D01*
X89151543Y-82909358D01*
X89213093Y-82932493D01*
X89285657Y-82961965D01*
X89354057Y-82991597D01*
X89357294Y-82993062D01*
X89468702Y-83043626D01*
X89715399Y-82875160D01*
X89791077Y-82823803D01*
X89859631Y-82777889D01*
X89917088Y-82740030D01*
X89959476Y-82712837D01*
X89982825Y-82698921D01*
X89985042Y-82697889D01*
X90002010Y-82702484D01*
X90033701Y-82724655D01*
X90081352Y-82765447D01*
X90146198Y-82825905D01*
X90212397Y-82890227D01*
X90276214Y-82953612D01*
X90333329Y-83011451D01*
X90380305Y-83060175D01*
X90413703Y-83096210D01*
X90430085Y-83115984D01*
X90430694Y-83117002D01*
X90432505Y-83130572D01*
X90425683Y-83152733D01*
X90408540Y-83186478D01*
X90379393Y-83234800D01*
X90336555Y-83300692D01*
X90279448Y-83385517D01*
X90228766Y-83460177D01*
X90183461Y-83527140D01*
X90146150Y-83582516D01*
X90119452Y-83622420D01*
X90105985Y-83642962D01*
X90105137Y-83644356D01*
X90106781Y-83664038D01*
X90119245Y-83702293D01*
X90140048Y-83751889D01*
X90147462Y-83767728D01*
X90179814Y-83838290D01*
X90214328Y-83918353D01*
X90242365Y-83987629D01*
X90262568Y-84039045D01*
X90278615Y-84078119D01*
X90287888Y-84098541D01*
X90289041Y-84100114D01*
X90306096Y-84102721D01*
X90346298Y-84109863D01*
X90404302Y-84120523D01*
X90474763Y-84133685D01*
X90552335Y-84148333D01*
X90631672Y-84163449D01*
X90707431Y-84178018D01*
X90774264Y-84191022D01*
X90826828Y-84201445D01*
X90859776Y-84208270D01*
X90867857Y-84210199D01*
X90876205Y-84214962D01*
X90882506Y-84225718D01*
X90887045Y-84246098D01*
X90890104Y-84279734D01*
X90891967Y-84330255D01*
X90892918Y-84401292D01*
X90893240Y-84496476D01*
X90893257Y-84535492D01*
X90893257Y-84852799D01*
X90817057Y-84867839D01*
X90774663Y-84875995D01*
X90711400Y-84887899D01*
X90634962Y-84902116D01*
X90553043Y-84917210D01*
X90530400Y-84921355D01*
X90454806Y-84936053D01*
X90388953Y-84950505D01*
X90338366Y-84963375D01*
X90308574Y-84973322D01*
X90303612Y-84976287D01*
X90291426Y-84997283D01*
X90273953Y-85037967D01*
X90254577Y-85090322D01*
X90250734Y-85101600D01*
X90225339Y-85171523D01*
X90193817Y-85250418D01*
X90162969Y-85321266D01*
X90162817Y-85321595D01*
X90111447Y-85432733D01*
X90280399Y-85681253D01*
X90449352Y-85929772D01*
X90232429Y-86147058D01*
X90166819Y-86211726D01*
X90106979Y-86268733D01*
X90056267Y-86315033D01*
X90018046Y-86347584D01*
X89995675Y-86363343D01*
X89992466Y-86364343D01*
X89973626Y-86356469D01*
X89935180Y-86334578D01*
X89881330Y-86301267D01*
X89816276Y-86259131D01*
X89745940Y-86211943D01*
X89674555Y-86163810D01*
X89610908Y-86121928D01*
X89559041Y-86088871D01*
X89522995Y-86067218D01*
X89506867Y-86059543D01*
X89487189Y-86066037D01*
X89449875Y-86083150D01*
X89402621Y-86107326D01*
X89397612Y-86110013D01*
X89333977Y-86141927D01*
X89290341Y-86157579D01*
X89263202Y-86157745D01*
X89249057Y-86143204D01*
X89248975Y-86143000D01*
X89241905Y-86125779D01*
X89225042Y-86084899D01*
X89199695Y-86023525D01*
X89167171Y-85944819D01*
X89128778Y-85851947D01*
X89085822Y-85748072D01*
X89044222Y-85647502D01*
X88998504Y-85536516D01*
X88956526Y-85433703D01*
X88919548Y-85342215D01*
X88888827Y-85265201D01*
X88865622Y-85205815D01*
X88851190Y-85167209D01*
X88846743Y-85152800D01*
X88857896Y-85136272D01*
X88887069Y-85109930D01*
X88925971Y-85080887D01*
X89036757Y-84989039D01*
X89123351Y-84883759D01*
X89184716Y-84767266D01*
X89219815Y-84641776D01*
X89227608Y-84509507D01*
X89221943Y-84448457D01*
X89191078Y-84321795D01*
X89137920Y-84209941D01*
X89065767Y-84114001D01*
X88977917Y-84035076D01*
X88877665Y-83974270D01*
X88768310Y-83932687D01*
X88653147Y-83911428D01*
X88535475Y-83911599D01*
X88418590Y-83934301D01*
X88305789Y-83980638D01*
X88200369Y-84051713D01*
X88156368Y-84091911D01*
X88071979Y-84195129D01*
X88013222Y-84307925D01*
X87979704Y-84427010D01*
X87971035Y-84549095D01*
X87986823Y-84670893D01*
X88026678Y-84789116D01*
X88090207Y-84900475D01*
X88177021Y-85001684D01*
X88274029Y-85080887D01*
X88314437Y-85111162D01*
X88342982Y-85137219D01*
X88353257Y-85152825D01*
X88347877Y-85169843D01*
X88332575Y-85210500D01*
X88308612Y-85271642D01*
X88277244Y-85350119D01*
X88239732Y-85442780D01*
X88197333Y-85546472D01*
X88155663Y-85647526D01*
X88109690Y-85758607D01*
X88067107Y-85861541D01*
X88029221Y-85953165D01*
X87997340Y-86030316D01*
X87972771Y-86089831D01*
X87956820Y-86128544D01*
X87950910Y-86143000D01*
X87936948Y-86157685D01*
X87909940Y-86157642D01*
X87866413Y-86142099D01*
X87802890Y-86110284D01*
X87802388Y-86110013D01*
X87754560Y-86085323D01*
X87715897Y-86067338D01*
X87694095Y-86059614D01*
X87693133Y-86059543D01*
X87676721Y-86067378D01*
X87640487Y-86089165D01*
X87588474Y-86122328D01*
X87524725Y-86164291D01*
X87454060Y-86211943D01*
X87382116Y-86260191D01*
X87317274Y-86302151D01*
X87263735Y-86335227D01*
X87225697Y-86356821D01*
X87207533Y-86364343D01*
X87190808Y-86354457D01*
X87157180Y-86326826D01*
X87110010Y-86284495D01*
X87052658Y-86230505D01*
X86988484Y-86167899D01*
X86967497Y-86146983D01*
X86750499Y-85929623D01*
X86915668Y-85687220D01*
X86965864Y-85612781D01*
X87009919Y-85545972D01*
X87045362Y-85490665D01*
X87069719Y-85450729D01*
X87080522Y-85430036D01*
X87080838Y-85428563D01*
X87075143Y-85409058D01*
X87059826Y-85369822D01*
X87037537Y-85317430D01*
X87021893Y-85282355D01*
X86992641Y-85215201D01*
X86965094Y-85147358D01*
X86943737Y-85090034D01*
X86937935Y-85072572D01*
X86921452Y-85025938D01*
X86905340Y-84989905D01*
X86896490Y-84976287D01*
X86876960Y-84967952D01*
X86834334Y-84956137D01*
X86774145Y-84942181D01*
X86701922Y-84927422D01*
X86669600Y-84921355D01*
X86587522Y-84906273D01*
X86508795Y-84891669D01*
X86441109Y-84878980D01*
X86392160Y-84869642D01*
X86382943Y-84867839D01*
X86306743Y-84852799D01*
X86306743Y-84535492D01*
X86306914Y-84431154D01*
X86307616Y-84352213D01*
X86309134Y-84295038D01*
X86311749Y-84255999D01*
X86315746Y-84231465D01*
X86321409Y-84217805D01*
X86329020Y-84211389D01*
X86332143Y-84210199D01*
X86350978Y-84205980D01*
X86392588Y-84197562D01*
X86451630Y-84185961D01*
X86522757Y-84172195D01*
X86600625Y-84157280D01*
X86679887Y-84142232D01*
X86755198Y-84128069D01*
X86821213Y-84115806D01*
X86872587Y-84106461D01*
X86903975Y-84101050D01*
X86910959Y-84100114D01*
X86917285Y-84087596D01*
X86931290Y-84054246D01*
X86950355Y-84006377D01*
X86957634Y-83987629D01*
X86986996Y-83915195D01*
X87021571Y-83835170D01*
X87052537Y-83767728D01*
X87075323Y-83716159D01*
X87090482Y-83673785D01*
X87095542Y-83647834D01*
X87094736Y-83644356D01*
X87084041Y-83627936D01*
X87059620Y-83591417D01*
X87024095Y-83538687D01*
X86980087Y-83473635D01*
X86930217Y-83400151D01*
X86920356Y-83385645D01*
X86862492Y-83299704D01*
X86819956Y-83234261D01*
X86791054Y-83186304D01*
X86774090Y-83152820D01*
X86767367Y-83130795D01*
X86769190Y-83117217D01*
X86769236Y-83117131D01*
X86783586Y-83099297D01*
X86815323Y-83064817D01*
X86861010Y-83017268D01*
X86917204Y-82960222D01*
X86980468Y-82897255D01*
X86987602Y-82890227D01*
X87067330Y-82813020D01*
X87128857Y-82756330D01*
X87173421Y-82719110D01*
X87202257Y-82700315D01*
X87214958Y-82697889D01*
X87233494Y-82708471D01*
X87271961Y-82732916D01*
X87326386Y-82768612D01*
X87392798Y-82812947D01*
X87467225Y-82863311D01*
X87484601Y-82875160D01*
X87731297Y-83043626D01*
X87842706Y-82993062D01*
X87910457Y-82963595D01*
X87983183Y-82933959D01*
X88045703Y-82910330D01*
X88048457Y-82909358D01*
X88097360Y-82891457D01*
X88135057Y-82876320D01*
X88153425Y-82867210D01*
X88153456Y-82867184D01*
X88159285Y-82850717D01*
X88169192Y-82810219D01*
X88182195Y-82750242D01*
X88197309Y-82675340D01*
X88213552Y-82590064D01*
X88214881Y-82582875D01*
X88231175Y-82495014D01*
X88246133Y-82415260D01*
X88258791Y-82348681D01*
X88268186Y-82300347D01*
X88273354Y-82275325D01*
X88273444Y-82274943D01*
X88276589Y-82264299D01*
X88282704Y-82256262D01*
X88295453Y-82250467D01*
X88318500Y-82246547D01*
X88355509Y-82244135D01*
X88410144Y-82242865D01*
X88486067Y-82242371D01*
X88586944Y-82242286D01*
X88600000Y-82242286D01*
X88703910Y-82242348D01*
G36*
X91753595Y-86966966D02*
G01*
X91811021Y-87004497D01*
X91838719Y-87038096D01*
X91860662Y-87099064D01*
X91862405Y-87147308D01*
X91858457Y-87211816D01*
X91709686Y-87276934D01*
X91637349Y-87310202D01*
X91590084Y-87336964D01*
X91565507Y-87360144D01*
X91561237Y-87382667D01*
X91574889Y-87407455D01*
X91589943Y-87423886D01*
X91633746Y-87450235D01*
X91681389Y-87452081D01*
X91725145Y-87431546D01*
X91757289Y-87390752D01*
X91763038Y-87376347D01*
X91790576Y-87331356D01*
X91822258Y-87312182D01*
X91865714Y-87295779D01*
X91865714Y-87357966D01*
X91861872Y-87400283D01*
X91846823Y-87435969D01*
X91815280Y-87476943D01*
X91810592Y-87482267D01*
X91775506Y-87518720D01*
X91745347Y-87538283D01*
X91707615Y-87547283D01*
X91676335Y-87550230D01*
X91620385Y-87550965D01*
X91580555Y-87541660D01*
X91555708Y-87527846D01*
X91516656Y-87497467D01*
X91489625Y-87464613D01*
X91472517Y-87423294D01*
X91463238Y-87367521D01*
X91459693Y-87291305D01*
X91459410Y-87252622D01*
X91460372Y-87206247D01*
X91548007Y-87206247D01*
X91549023Y-87231126D01*
X91551556Y-87235200D01*
X91568274Y-87229665D01*
X91604249Y-87215017D01*
X91652331Y-87194190D01*
X91662386Y-87189714D01*
X91723152Y-87158814D01*
X91756632Y-87131657D01*
X91763990Y-87106220D01*
X91746391Y-87080481D01*
X91731856Y-87069109D01*
X91679410Y-87046364D01*
X91630322Y-87050122D01*
X91589227Y-87077884D01*
X91560758Y-87127152D01*
X91551631Y-87166257D01*
X91548007Y-87206247D01*
X91460372Y-87206247D01*
X91461285Y-87162249D01*
X91468196Y-87095384D01*
X91481884Y-87046695D01*
X91504096Y-87010849D01*
X91536574Y-86982513D01*
X91550733Y-86973355D01*
X91615053Y-86949507D01*
X91685473Y-86948006D01*
X91753595Y-86966966D01*
G37*
X91753595Y-86966966D02*
X91811021Y-87004497D01*
X91838719Y-87038096D01*
X91860662Y-87099064D01*
X91862405Y-87147308D01*
X91858457Y-87211816D01*
X91709686Y-87276934D01*
X91637349Y-87310202D01*
X91590084Y-87336964D01*
X91565507Y-87360144D01*
X91561237Y-87382667D01*
X91574889Y-87407455D01*
X91589943Y-87423886D01*
X91633746Y-87450235D01*
X91681389Y-87452081D01*
X91725145Y-87431546D01*
X91757289Y-87390752D01*
X91763038Y-87376347D01*
X91790576Y-87331356D01*
X91822258Y-87312182D01*
X91865714Y-87295779D01*
X91865714Y-87357966D01*
X91861872Y-87400283D01*
X91846823Y-87435969D01*
X91815280Y-87476943D01*
X91810592Y-87482267D01*
X91775506Y-87518720D01*
X91745347Y-87538283D01*
X91707615Y-87547283D01*
X91676335Y-87550230D01*
X91620385Y-87550965D01*
X91580555Y-87541660D01*
X91555708Y-87527846D01*
X91516656Y-87497467D01*
X91489625Y-87464613D01*
X91472517Y-87423294D01*
X91463238Y-87367521D01*
X91459693Y-87291305D01*
X91459410Y-87252622D01*
X91460372Y-87206247D01*
X91548007Y-87206247D01*
X91549023Y-87231126D01*
X91551556Y-87235200D01*
X91568274Y-87229665D01*
X91604249Y-87215017D01*
X91652331Y-87194190D01*
X91662386Y-87189714D01*
X91723152Y-87158814D01*
X91756632Y-87131657D01*
X91763990Y-87106220D01*
X91746391Y-87080481D01*
X91731856Y-87069109D01*
X91679410Y-87046364D01*
X91630322Y-87050122D01*
X91589227Y-87077884D01*
X91560758Y-87127152D01*
X91551631Y-87166257D01*
X91548007Y-87206247D01*
X91460372Y-87206247D01*
X91461285Y-87162249D01*
X91468196Y-87095384D01*
X91481884Y-87046695D01*
X91504096Y-87010849D01*
X91536574Y-86982513D01*
X91550733Y-86973355D01*
X91615053Y-86949507D01*
X91685473Y-86948006D01*
X91753595Y-86966966D01*
G36*
X91252600Y-86958752D02*
G01*
X91269948Y-86966334D01*
X91311356Y-86999128D01*
X91346765Y-87046547D01*
X91368664Y-87097151D01*
X91372229Y-87122098D01*
X91360279Y-87156927D01*
X91334067Y-87175357D01*
X91305964Y-87186516D01*
X91293095Y-87188572D01*
X91286829Y-87173649D01*
X91274456Y-87141175D01*
X91269028Y-87126502D01*
X91238590Y-87075744D01*
X91194520Y-87050427D01*
X91138010Y-87051206D01*
X91133825Y-87052203D01*
X91103655Y-87066507D01*
X91081476Y-87094393D01*
X91066327Y-87139287D01*
X91057250Y-87204615D01*
X91053286Y-87293804D01*
X91052914Y-87341261D01*
X91052730Y-87416071D01*
X91051522Y-87467069D01*
X91048309Y-87499471D01*
X91042109Y-87518495D01*
X91031940Y-87529356D01*
X91016819Y-87537272D01*
X91015946Y-87537670D01*
X90986828Y-87549981D01*
X90972403Y-87554514D01*
X90970186Y-87540809D01*
X90968289Y-87502925D01*
X90966847Y-87445715D01*
X90965998Y-87374027D01*
X90965829Y-87321565D01*
X90966692Y-87220047D01*
X90970070Y-87143032D01*
X90977142Y-87086023D01*
X90989088Y-87044526D01*
X91007090Y-87014043D01*
X91032327Y-86990080D01*
X91057247Y-86973355D01*
X91117171Y-86951097D01*
X91186911Y-86946076D01*
X91252600Y-86958752D01*
G37*
X91252600Y-86958752D02*
X91269948Y-86966334D01*
X91311356Y-86999128D01*
X91346765Y-87046547D01*
X91368664Y-87097151D01*
X91372229Y-87122098D01*
X91360279Y-87156927D01*
X91334067Y-87175357D01*
X91305964Y-87186516D01*
X91293095Y-87188572D01*
X91286829Y-87173649D01*
X91274456Y-87141175D01*
X91269028Y-87126502D01*
X91238590Y-87075744D01*
X91194520Y-87050427D01*
X91138010Y-87051206D01*
X91133825Y-87052203D01*
X91103655Y-87066507D01*
X91081476Y-87094393D01*
X91066327Y-87139287D01*
X91057250Y-87204615D01*
X91053286Y-87293804D01*
X91052914Y-87341261D01*
X91052730Y-87416071D01*
X91051522Y-87467069D01*
X91048309Y-87499471D01*
X91042109Y-87518495D01*
X91031940Y-87529356D01*
X91016819Y-87537272D01*
X91015946Y-87537670D01*
X90986828Y-87549981D01*
X90972403Y-87554514D01*
X90970186Y-87540809D01*
X90968289Y-87502925D01*
X90966847Y-87445715D01*
X90965998Y-87374027D01*
X90965829Y-87321565D01*
X90966692Y-87220047D01*
X90970070Y-87143032D01*
X90977142Y-87086023D01*
X90989088Y-87044526D01*
X91007090Y-87014043D01*
X91032327Y-86990080D01*
X91057247Y-86973355D01*
X91117171Y-86951097D01*
X91186911Y-86946076D01*
X91252600Y-86958752D01*
G36*
X90744876Y-86956335D02*
G01*
X90786667Y-86975344D01*
X90819469Y-86998378D01*
X90843503Y-87024133D01*
X90860097Y-87057358D01*
X90870577Y-87102800D01*
X90876271Y-87165207D01*
X90878507Y-87249327D01*
X90878743Y-87304721D01*
X90878743Y-87520826D01*
X90841774Y-87537670D01*
X90812656Y-87549981D01*
X90798231Y-87554514D01*
X90795472Y-87541025D01*
X90793282Y-87504653D01*
X90791942Y-87451542D01*
X90791657Y-87409372D01*
X90790434Y-87348447D01*
X90787136Y-87300115D01*
X90782321Y-87270518D01*
X90778496Y-87264229D01*
X90752783Y-87270652D01*
X90712418Y-87287125D01*
X90665679Y-87309458D01*
X90620845Y-87333457D01*
X90586193Y-87354930D01*
X90570002Y-87369685D01*
X90569938Y-87369845D01*
X90571330Y-87397152D01*
X90583818Y-87423219D01*
X90605743Y-87444392D01*
X90637743Y-87451474D01*
X90665092Y-87450649D01*
X90703826Y-87450042D01*
X90724158Y-87459116D01*
X90736369Y-87483092D01*
X90737909Y-87487613D01*
X90743203Y-87521806D01*
X90729047Y-87542568D01*
X90692148Y-87552462D01*
X90652289Y-87554292D01*
X90580562Y-87540727D01*
X90543432Y-87521355D01*
X90497576Y-87475845D01*
X90473256Y-87419983D01*
X90471073Y-87360957D01*
X90491629Y-87305953D01*
X90522549Y-87271486D01*
X90553420Y-87252189D01*
X90601942Y-87227759D01*
X90658485Y-87202985D01*
X90667910Y-87199199D01*
X90730019Y-87171791D01*
X90765822Y-87147634D01*
X90777337Y-87123619D01*
X90766580Y-87096635D01*
X90748114Y-87075543D01*
X90704469Y-87049572D01*
X90656446Y-87047624D01*
X90612406Y-87067637D01*
X90580709Y-87107551D01*
X90576549Y-87117848D01*
X90552327Y-87155724D01*
X90516965Y-87183842D01*
X90472343Y-87206917D01*
X90472343Y-87141485D01*
X90474969Y-87101506D01*
X90486230Y-87069997D01*
X90511199Y-87036378D01*
X90535169Y-87010484D01*
X90572441Y-86973817D01*
X90601401Y-86954121D01*
X90632505Y-86946220D01*
X90667713Y-86944914D01*
X90744876Y-86956335D01*
G37*
X90744876Y-86956335D02*
X90786667Y-86975344D01*
X90819469Y-86998378D01*
X90843503Y-87024133D01*
X90860097Y-87057358D01*
X90870577Y-87102800D01*
X90876271Y-87165207D01*
X90878507Y-87249327D01*
X90878743Y-87304721D01*
X90878743Y-87520826D01*
X90841774Y-87537670D01*
X90812656Y-87549981D01*
X90798231Y-87554514D01*
X90795472Y-87541025D01*
X90793282Y-87504653D01*
X90791942Y-87451542D01*
X90791657Y-87409372D01*
X90790434Y-87348447D01*
X90787136Y-87300115D01*
X90782321Y-87270518D01*
X90778496Y-87264229D01*
X90752783Y-87270652D01*
X90712418Y-87287125D01*
X90665679Y-87309458D01*
X90620845Y-87333457D01*
X90586193Y-87354930D01*
X90570002Y-87369685D01*
X90569938Y-87369845D01*
X90571330Y-87397152D01*
X90583818Y-87423219D01*
X90605743Y-87444392D01*
X90637743Y-87451474D01*
X90665092Y-87450649D01*
X90703826Y-87450042D01*
X90724158Y-87459116D01*
X90736369Y-87483092D01*
X90737909Y-87487613D01*
X90743203Y-87521806D01*
X90729047Y-87542568D01*
X90692148Y-87552462D01*
X90652289Y-87554292D01*
X90580562Y-87540727D01*
X90543432Y-87521355D01*
X90497576Y-87475845D01*
X90473256Y-87419983D01*
X90471073Y-87360957D01*
X90491629Y-87305953D01*
X90522549Y-87271486D01*
X90553420Y-87252189D01*
X90601942Y-87227759D01*
X90658485Y-87202985D01*
X90667910Y-87199199D01*
X90730019Y-87171791D01*
X90765822Y-87147634D01*
X90777337Y-87123619D01*
X90766580Y-87096635D01*
X90748114Y-87075543D01*
X90704469Y-87049572D01*
X90656446Y-87047624D01*
X90612406Y-87067637D01*
X90580709Y-87107551D01*
X90576549Y-87117848D01*
X90552327Y-87155724D01*
X90516965Y-87183842D01*
X90472343Y-87206917D01*
X90472343Y-87141485D01*
X90474969Y-87101506D01*
X90486230Y-87069997D01*
X90511199Y-87036378D01*
X90535169Y-87010484D01*
X90572441Y-86973817D01*
X90601401Y-86954121D01*
X90632505Y-86946220D01*
X90667713Y-86944914D01*
X90744876Y-86956335D01*
G36*
X90379833Y-86958663D02*
G01*
X90382048Y-86996850D01*
X90383784Y-87054886D01*
X90384899Y-87128180D01*
X90385257Y-87205055D01*
X90385257Y-87465196D01*
X90339326Y-87511127D01*
X90307675Y-87539429D01*
X90279890Y-87550893D01*
X90241915Y-87550168D01*
X90226840Y-87548321D01*
X90179726Y-87542948D01*
X90140756Y-87539869D01*
X90131257Y-87539585D01*
X90099233Y-87541445D01*
X90053432Y-87546114D01*
X90035674Y-87548321D01*
X89992057Y-87551735D01*
X89962745Y-87544320D01*
X89933680Y-87521427D01*
X89923188Y-87511127D01*
X89877257Y-87465196D01*
X89877257Y-86978602D01*
X89914226Y-86961758D01*
X89946059Y-86949282D01*
X89964683Y-86944914D01*
X89969458Y-86958718D01*
X89973921Y-86997286D01*
X89977775Y-87056356D01*
X89980722Y-87131663D01*
X89982143Y-87195286D01*
X89986114Y-87445657D01*
X90020759Y-87450556D01*
X90052268Y-87447131D01*
X90067708Y-87436041D01*
X90072023Y-87415308D01*
X90075708Y-87371145D01*
X90078469Y-87309146D01*
X90080012Y-87234909D01*
X90080235Y-87196706D01*
X90080457Y-86976783D01*
X90126166Y-86960849D01*
X90158518Y-86950015D01*
X90176115Y-86944962D01*
X90176623Y-86944914D01*
X90178388Y-86958648D01*
X90180329Y-86996730D01*
X90182282Y-87054482D01*
X90184084Y-87127227D01*
X90185343Y-87195286D01*
X90189314Y-87445657D01*
X90276400Y-87445657D01*
X90280396Y-87217240D01*
X90284392Y-86988822D01*
X90326847Y-86966868D01*
X90358192Y-86951793D01*
X90376744Y-86944951D01*
X90377279Y-86944914D01*
X90379833Y-86958663D01*
G37*
X90379833Y-86958663D02*
X90382048Y-86996850D01*
X90383784Y-87054886D01*
X90384899Y-87128180D01*
X90385257Y-87205055D01*
X90385257Y-87465196D01*
X90339326Y-87511127D01*
X90307675Y-87539429D01*
X90279890Y-87550893D01*
X90241915Y-87550168D01*
X90226840Y-87548321D01*
X90179726Y-87542948D01*
X90140756Y-87539869D01*
X90131257Y-87539585D01*
X90099233Y-87541445D01*
X90053432Y-87546114D01*
X90035674Y-87548321D01*
X89992057Y-87551735D01*
X89962745Y-87544320D01*
X89933680Y-87521427D01*
X89923188Y-87511127D01*
X89877257Y-87465196D01*
X89877257Y-86978602D01*
X89914226Y-86961758D01*
X89946059Y-86949282D01*
X89964683Y-86944914D01*
X89969458Y-86958718D01*
X89973921Y-86997286D01*
X89977775Y-87056356D01*
X89980722Y-87131663D01*
X89982143Y-87195286D01*
X89986114Y-87445657D01*
X90020759Y-87450556D01*
X90052268Y-87447131D01*
X90067708Y-87436041D01*
X90072023Y-87415308D01*
X90075708Y-87371145D01*
X90078469Y-87309146D01*
X90080012Y-87234909D01*
X90080235Y-87196706D01*
X90080457Y-86976783D01*
X90126166Y-86960849D01*
X90158518Y-86950015D01*
X90176115Y-86944962D01*
X90176623Y-86944914D01*
X90178388Y-86958648D01*
X90180329Y-86996730D01*
X90182282Y-87054482D01*
X90184084Y-87127227D01*
X90185343Y-87195286D01*
X90189314Y-87445657D01*
X90276400Y-87445657D01*
X90280396Y-87217240D01*
X90284392Y-86988822D01*
X90326847Y-86966868D01*
X90358192Y-86951793D01*
X90376744Y-86944951D01*
X90377279Y-86944914D01*
X90379833Y-86958663D01*
G36*
X89790117Y-87065358D02*
G01*
X89789933Y-87173837D01*
X89789219Y-87257287D01*
X89787675Y-87319704D01*
X89785001Y-87365085D01*
X89780894Y-87397429D01*
X89775055Y-87420733D01*
X89767182Y-87438995D01*
X89761221Y-87449418D01*
X89711855Y-87505945D01*
X89649264Y-87541377D01*
X89580013Y-87554090D01*
X89510668Y-87542463D01*
X89469375Y-87521568D01*
X89426025Y-87485422D01*
X89396481Y-87441276D01*
X89378655Y-87383462D01*
X89370463Y-87306313D01*
X89369302Y-87249714D01*
X89369458Y-87245647D01*
X89470857Y-87245647D01*
X89471476Y-87310550D01*
X89474314Y-87353514D01*
X89480840Y-87381622D01*
X89492523Y-87401953D01*
X89506483Y-87417288D01*
X89553365Y-87446890D01*
X89603701Y-87449419D01*
X89651276Y-87424705D01*
X89654979Y-87421356D01*
X89670783Y-87403935D01*
X89680693Y-87383209D01*
X89686058Y-87352362D01*
X89688228Y-87304577D01*
X89688571Y-87251748D01*
X89687827Y-87185381D01*
X89684748Y-87141106D01*
X89678061Y-87112009D01*
X89666496Y-87091173D01*
X89657013Y-87080107D01*
X89612960Y-87052198D01*
X89562224Y-87048843D01*
X89513796Y-87070159D01*
X89504450Y-87078073D01*
X89488540Y-87095647D01*
X89478610Y-87116587D01*
X89473278Y-87147782D01*
X89471163Y-87196122D01*
X89470857Y-87245647D01*
X89369458Y-87245647D01*
X89372810Y-87158568D01*
X89384726Y-87090086D01*
X89407135Y-87038600D01*
X89442124Y-86998443D01*
X89469375Y-86977861D01*
X89518907Y-86955625D01*
X89576316Y-86945304D01*
X89629682Y-86948067D01*
X89659543Y-86959212D01*
X89671261Y-86962383D01*
X89679037Y-86950557D01*
X89684465Y-86918866D01*
X89688571Y-86870593D01*
X89693067Y-86816829D01*
X89699313Y-86784482D01*
X89710676Y-86765985D01*
X89730528Y-86753770D01*
X89743000Y-86748362D01*
X89790171Y-86728601D01*
X89790117Y-87065358D01*
G37*
X89790117Y-87065358D02*
X89789933Y-87173837D01*
X89789219Y-87257287D01*
X89787675Y-87319704D01*
X89785001Y-87365085D01*
X89780894Y-87397429D01*
X89775055Y-87420733D01*
X89767182Y-87438995D01*
X89761221Y-87449418D01*
X89711855Y-87505945D01*
X89649264Y-87541377D01*
X89580013Y-87554090D01*
X89510668Y-87542463D01*
X89469375Y-87521568D01*
X89426025Y-87485422D01*
X89396481Y-87441276D01*
X89378655Y-87383462D01*
X89370463Y-87306313D01*
X89369302Y-87249714D01*
X89369458Y-87245647D01*
X89470857Y-87245647D01*
X89471476Y-87310550D01*
X89474314Y-87353514D01*
X89480840Y-87381622D01*
X89492523Y-87401953D01*
X89506483Y-87417288D01*
X89553365Y-87446890D01*
X89603701Y-87449419D01*
X89651276Y-87424705D01*
X89654979Y-87421356D01*
X89670783Y-87403935D01*
X89680693Y-87383209D01*
X89686058Y-87352362D01*
X89688228Y-87304577D01*
X89688571Y-87251748D01*
X89687827Y-87185381D01*
X89684748Y-87141106D01*
X89678061Y-87112009D01*
X89666496Y-87091173D01*
X89657013Y-87080107D01*
X89612960Y-87052198D01*
X89562224Y-87048843D01*
X89513796Y-87070159D01*
X89504450Y-87078073D01*
X89488540Y-87095647D01*
X89478610Y-87116587D01*
X89473278Y-87147782D01*
X89471163Y-87196122D01*
X89470857Y-87245647D01*
X89369458Y-87245647D01*
X89372810Y-87158568D01*
X89384726Y-87090086D01*
X89407135Y-87038600D01*
X89442124Y-86998443D01*
X89469375Y-86977861D01*
X89518907Y-86955625D01*
X89576316Y-86945304D01*
X89629682Y-86948067D01*
X89659543Y-86959212D01*
X89671261Y-86962383D01*
X89679037Y-86950557D01*
X89684465Y-86918866D01*
X89688571Y-86870593D01*
X89693067Y-86816829D01*
X89699313Y-86784482D01*
X89710676Y-86765985D01*
X89730528Y-86753770D01*
X89743000Y-86748362D01*
X89790171Y-86728601D01*
X89790117Y-87065358D01*
G36*
X89129926Y-86949755D02*
G01*
X89195858Y-86974084D01*
X89249273Y-87017117D01*
X89270164Y-87047409D01*
X89292939Y-87102994D01*
X89292466Y-87143186D01*
X89268562Y-87170217D01*
X89259717Y-87174813D01*
X89221530Y-87189144D01*
X89202028Y-87185472D01*
X89195422Y-87161407D01*
X89195086Y-87148114D01*
X89182992Y-87099210D01*
X89151471Y-87064999D01*
X89107659Y-87048476D01*
X89058695Y-87052634D01*
X89018894Y-87074227D01*
X89005450Y-87086544D01*
X88995921Y-87101487D01*
X88989485Y-87124075D01*
X88985317Y-87159328D01*
X88982597Y-87212266D01*
X88980502Y-87287907D01*
X88979960Y-87311857D01*
X88977981Y-87393790D01*
X88975731Y-87451455D01*
X88972357Y-87489608D01*
X88967006Y-87513004D01*
X88958824Y-87526398D01*
X88946959Y-87534545D01*
X88939362Y-87538144D01*
X88907102Y-87550452D01*
X88888111Y-87554514D01*
X88881836Y-87540948D01*
X88878006Y-87499934D01*
X88876600Y-87430999D01*
X88877598Y-87333669D01*
X88877908Y-87318657D01*
X88880101Y-87229859D01*
X88882693Y-87165019D01*
X88886382Y-87119067D01*
X88891864Y-87086935D01*
X88899835Y-87063553D01*
X88910993Y-87043852D01*
X88916830Y-87035410D01*
X88950296Y-86998057D01*
X88987727Y-86969003D01*
X88992309Y-86966467D01*
X89059426Y-86946443D01*
X89129926Y-86949755D01*
G37*
X89129926Y-86949755D02*
X89195858Y-86974084D01*
X89249273Y-87017117D01*
X89270164Y-87047409D01*
X89292939Y-87102994D01*
X89292466Y-87143186D01*
X89268562Y-87170217D01*
X89259717Y-87174813D01*
X89221530Y-87189144D01*
X89202028Y-87185472D01*
X89195422Y-87161407D01*
X89195086Y-87148114D01*
X89182992Y-87099210D01*
X89151471Y-87064999D01*
X89107659Y-87048476D01*
X89058695Y-87052634D01*
X89018894Y-87074227D01*
X89005450Y-87086544D01*
X88995921Y-87101487D01*
X88989485Y-87124075D01*
X88985317Y-87159328D01*
X88982597Y-87212266D01*
X88980502Y-87287907D01*
X88979960Y-87311857D01*
X88977981Y-87393790D01*
X88975731Y-87451455D01*
X88972357Y-87489608D01*
X88967006Y-87513004D01*
X88958824Y-87526398D01*
X88946959Y-87534545D01*
X88939362Y-87538144D01*
X88907102Y-87550452D01*
X88888111Y-87554514D01*
X88881836Y-87540948D01*
X88878006Y-87499934D01*
X88876600Y-87430999D01*
X88877598Y-87333669D01*
X88877908Y-87318657D01*
X88880101Y-87229859D01*
X88882693Y-87165019D01*
X88886382Y-87119067D01*
X88891864Y-87086935D01*
X88899835Y-87063553D01*
X88910993Y-87043852D01*
X88916830Y-87035410D01*
X88950296Y-86998057D01*
X88987727Y-86969003D01*
X88992309Y-86966467D01*
X89059426Y-86946443D01*
X89129926Y-86949755D01*
G36*
X88639744Y-86950968D02*
G01*
X88696616Y-86972087D01*
X88697267Y-86972493D01*
X88732440Y-86998380D01*
X88758407Y-87028633D01*
X88776670Y-87068058D01*
X88788732Y-87121462D01*
X88796096Y-87193651D01*
X88800264Y-87289432D01*
X88800629Y-87303078D01*
X88805876Y-87508842D01*
X88761716Y-87531678D01*
X88729763Y-87547110D01*
X88710470Y-87554423D01*
X88709578Y-87554514D01*
X88706239Y-87541022D01*
X88703587Y-87504626D01*
X88701956Y-87451452D01*
X88701600Y-87408393D01*
X88701592Y-87338641D01*
X88698403Y-87294837D01*
X88687288Y-87273944D01*
X88663501Y-87272925D01*
X88622296Y-87288741D01*
X88560086Y-87317815D01*
X88514341Y-87341963D01*
X88490813Y-87362913D01*
X88483896Y-87385747D01*
X88483886Y-87386877D01*
X88495299Y-87426212D01*
X88529092Y-87447462D01*
X88580809Y-87450539D01*
X88618061Y-87450006D01*
X88637703Y-87460735D01*
X88649952Y-87486505D01*
X88657002Y-87519337D01*
X88646842Y-87537966D01*
X88643017Y-87540632D01*
X88607001Y-87551340D01*
X88556566Y-87552856D01*
X88504626Y-87545759D01*
X88467822Y-87532788D01*
X88416938Y-87489585D01*
X88388014Y-87429446D01*
X88382286Y-87382462D01*
X88386657Y-87340082D01*
X88402475Y-87305488D01*
X88433797Y-87274763D01*
X88484678Y-87243990D01*
X88559176Y-87209252D01*
X88563714Y-87207288D01*
X88630821Y-87176287D01*
X88672232Y-87150862D01*
X88689981Y-87128014D01*
X88686107Y-87104745D01*
X88662643Y-87078056D01*
X88655627Y-87071914D01*
X88608630Y-87048100D01*
X88559933Y-87049103D01*
X88517522Y-87072451D01*
X88489384Y-87115675D01*
X88486769Y-87124160D01*
X88461308Y-87165308D01*
X88429001Y-87185128D01*
X88382286Y-87204770D01*
X88382286Y-87153950D01*
X88396496Y-87080082D01*
X88438675Y-87012327D01*
X88460624Y-86989661D01*
X88510517Y-86960569D01*
X88573967Y-86947400D01*
X88639744Y-86950968D01*
G37*
X88639744Y-86950968D02*
X88696616Y-86972087D01*
X88697267Y-86972493D01*
X88732440Y-86998380D01*
X88758407Y-87028633D01*
X88776670Y-87068058D01*
X88788732Y-87121462D01*
X88796096Y-87193651D01*
X88800264Y-87289432D01*
X88800629Y-87303078D01*
X88805876Y-87508842D01*
X88761716Y-87531678D01*
X88729763Y-87547110D01*
X88710470Y-87554423D01*
X88709578Y-87554514D01*
X88706239Y-87541022D01*
X88703587Y-87504626D01*
X88701956Y-87451452D01*
X88701600Y-87408393D01*
X88701592Y-87338641D01*
X88698403Y-87294837D01*
X88687288Y-87273944D01*
X88663501Y-87272925D01*
X88622296Y-87288741D01*
X88560086Y-87317815D01*
X88514341Y-87341963D01*
X88490813Y-87362913D01*
X88483896Y-87385747D01*
X88483886Y-87386877D01*
X88495299Y-87426212D01*
X88529092Y-87447462D01*
X88580809Y-87450539D01*
X88618061Y-87450006D01*
X88637703Y-87460735D01*
X88649952Y-87486505D01*
X88657002Y-87519337D01*
X88646842Y-87537966D01*
X88643017Y-87540632D01*
X88607001Y-87551340D01*
X88556566Y-87552856D01*
X88504626Y-87545759D01*
X88467822Y-87532788D01*
X88416938Y-87489585D01*
X88388014Y-87429446D01*
X88382286Y-87382462D01*
X88386657Y-87340082D01*
X88402475Y-87305488D01*
X88433797Y-87274763D01*
X88484678Y-87243990D01*
X88559176Y-87209252D01*
X88563714Y-87207288D01*
X88630821Y-87176287D01*
X88672232Y-87150862D01*
X88689981Y-87128014D01*
X88686107Y-87104745D01*
X88662643Y-87078056D01*
X88655627Y-87071914D01*
X88608630Y-87048100D01*
X88559933Y-87049103D01*
X88517522Y-87072451D01*
X88489384Y-87115675D01*
X88486769Y-87124160D01*
X88461308Y-87165308D01*
X88429001Y-87185128D01*
X88382286Y-87204770D01*
X88382286Y-87153950D01*
X88396496Y-87080082D01*
X88438675Y-87012327D01*
X88460624Y-86989661D01*
X88510517Y-86960569D01*
X88573967Y-86947400D01*
X88639744Y-86950968D01*
G36*
X87975886Y-86851289D02*
G01*
X87980139Y-86910613D01*
X87985025Y-86945572D01*
X87991795Y-86960820D01*
X88001702Y-86961015D01*
X88004914Y-86959195D01*
X88047644Y-86946015D01*
X88103227Y-86946785D01*
X88159737Y-86960333D01*
X88195082Y-86977861D01*
X88231321Y-87005861D01*
X88257813Y-87037549D01*
X88275999Y-87077813D01*
X88287322Y-87131543D01*
X88293222Y-87203626D01*
X88295143Y-87298951D01*
X88295177Y-87317237D01*
X88295200Y-87522646D01*
X88249491Y-87538580D01*
X88217027Y-87549420D01*
X88199215Y-87554468D01*
X88198691Y-87554514D01*
X88196937Y-87540828D01*
X88195444Y-87503076D01*
X88194326Y-87446224D01*
X88193697Y-87375234D01*
X88193600Y-87332073D01*
X88193398Y-87246973D01*
X88192358Y-87185981D01*
X88189831Y-87144177D01*
X88185164Y-87116642D01*
X88177707Y-87098456D01*
X88166811Y-87084698D01*
X88160007Y-87078073D01*
X88113272Y-87051375D01*
X88062272Y-87049375D01*
X88016001Y-87071955D01*
X88007444Y-87080107D01*
X87994893Y-87095436D01*
X87986188Y-87113618D01*
X87980631Y-87139909D01*
X87977526Y-87179562D01*
X87976176Y-87237832D01*
X87975886Y-87318173D01*
X87975886Y-87522646D01*
X87930177Y-87538580D01*
X87897713Y-87549420D01*
X87879901Y-87554468D01*
X87879377Y-87554514D01*
X87878037Y-87540623D01*
X87876828Y-87501439D01*
X87875801Y-87440700D01*
X87875002Y-87362141D01*
X87874481Y-87269498D01*
X87874286Y-87166509D01*
X87874286Y-86769342D01*
X87921457Y-86749444D01*
X87968629Y-86729547D01*
X87975886Y-86851289D01*
G37*
X87975886Y-86851289D02*
X87980139Y-86910613D01*
X87985025Y-86945572D01*
X87991795Y-86960820D01*
X88001702Y-86961015D01*
X88004914Y-86959195D01*
X88047644Y-86946015D01*
X88103227Y-86946785D01*
X88159737Y-86960333D01*
X88195082Y-86977861D01*
X88231321Y-87005861D01*
X88257813Y-87037549D01*
X88275999Y-87077813D01*
X88287322Y-87131543D01*
X88293222Y-87203626D01*
X88295143Y-87298951D01*
X88295177Y-87317237D01*
X88295200Y-87522646D01*
X88249491Y-87538580D01*
X88217027Y-87549420D01*
X88199215Y-87554468D01*
X88198691Y-87554514D01*
X88196937Y-87540828D01*
X88195444Y-87503076D01*
X88194326Y-87446224D01*
X88193697Y-87375234D01*
X88193600Y-87332073D01*
X88193398Y-87246973D01*
X88192358Y-87185981D01*
X88189831Y-87144177D01*
X88185164Y-87116642D01*
X88177707Y-87098456D01*
X88166811Y-87084698D01*
X88160007Y-87078073D01*
X88113272Y-87051375D01*
X88062272Y-87049375D01*
X88016001Y-87071955D01*
X88007444Y-87080107D01*
X87994893Y-87095436D01*
X87986188Y-87113618D01*
X87980631Y-87139909D01*
X87977526Y-87179562D01*
X87976176Y-87237832D01*
X87975886Y-87318173D01*
X87975886Y-87522646D01*
X87930177Y-87538580D01*
X87897713Y-87549420D01*
X87879901Y-87554468D01*
X87879377Y-87554514D01*
X87878037Y-87540623D01*
X87876828Y-87501439D01*
X87875801Y-87440700D01*
X87875002Y-87362141D01*
X87874481Y-87269498D01*
X87874286Y-87166509D01*
X87874286Y-86769342D01*
X87921457Y-86749444D01*
X87968629Y-86729547D01*
X87975886Y-86851289D01*
G36*
X86768303Y-86931239D02*
G01*
X86825527Y-86969735D01*
X86869749Y-87025335D01*
X86896167Y-87096086D01*
X86901510Y-87148162D01*
X86900903Y-87169893D01*
X86895822Y-87186531D01*
X86881855Y-87201437D01*
X86854589Y-87217973D01*
X86809612Y-87239498D01*
X86742511Y-87269374D01*
X86742171Y-87269524D01*
X86680407Y-87297813D01*
X86629759Y-87322933D01*
X86595404Y-87342179D01*
X86582518Y-87352848D01*
X86582514Y-87352934D01*
X86593872Y-87376166D01*
X86620431Y-87401774D01*
X86650923Y-87420221D01*
X86666370Y-87423886D01*
X86708515Y-87411212D01*
X86744808Y-87379471D01*
X86762517Y-87344572D01*
X86779552Y-87318845D01*
X86812922Y-87289546D01*
X86852149Y-87264235D01*
X86886756Y-87250471D01*
X86893993Y-87249714D01*
X86902139Y-87262160D01*
X86902630Y-87293972D01*
X86896643Y-87336866D01*
X86885357Y-87382558D01*
X86869950Y-87422761D01*
X86869171Y-87424322D01*
X86822804Y-87489062D01*
X86762711Y-87533097D01*
X86694465Y-87554711D01*
X86623638Y-87552185D01*
X86555804Y-87523804D01*
X86552788Y-87521808D01*
X86499427Y-87473448D01*
X86464340Y-87410352D01*
X86444922Y-87327387D01*
X86442316Y-87304078D01*
X86437701Y-87194055D01*
X86443233Y-87142748D01*
X86582514Y-87142748D01*
X86584324Y-87174753D01*
X86594222Y-87184093D01*
X86618898Y-87177105D01*
X86657795Y-87160587D01*
X86701275Y-87139881D01*
X86702356Y-87139333D01*
X86739209Y-87119949D01*
X86754000Y-87107013D01*
X86750353Y-87093451D01*
X86734995Y-87075632D01*
X86695923Y-87049845D01*
X86653846Y-87047950D01*
X86616103Y-87066717D01*
X86590034Y-87102915D01*
X86582514Y-87142748D01*
X86443233Y-87142748D01*
X86447194Y-87106027D01*
X86471550Y-87036212D01*
X86505456Y-86987302D01*
X86566653Y-86937878D01*
X86634063Y-86913359D01*
X86702880Y-86911797D01*
X86768303Y-86931239D01*
G37*
X86768303Y-86931239D02*
X86825527Y-86969735D01*
X86869749Y-87025335D01*
X86896167Y-87096086D01*
X86901510Y-87148162D01*
X86900903Y-87169893D01*
X86895822Y-87186531D01*
X86881855Y-87201437D01*
X86854589Y-87217973D01*
X86809612Y-87239498D01*
X86742511Y-87269374D01*
X86742171Y-87269524D01*
X86680407Y-87297813D01*
X86629759Y-87322933D01*
X86595404Y-87342179D01*
X86582518Y-87352848D01*
X86582514Y-87352934D01*
X86593872Y-87376166D01*
X86620431Y-87401774D01*
X86650923Y-87420221D01*
X86666370Y-87423886D01*
X86708515Y-87411212D01*
X86744808Y-87379471D01*
X86762517Y-87344572D01*
X86779552Y-87318845D01*
X86812922Y-87289546D01*
X86852149Y-87264235D01*
X86886756Y-87250471D01*
X86893993Y-87249714D01*
X86902139Y-87262160D01*
X86902630Y-87293972D01*
X86896643Y-87336866D01*
X86885357Y-87382558D01*
X86869950Y-87422761D01*
X86869171Y-87424322D01*
X86822804Y-87489062D01*
X86762711Y-87533097D01*
X86694465Y-87554711D01*
X86623638Y-87552185D01*
X86555804Y-87523804D01*
X86552788Y-87521808D01*
X86499427Y-87473448D01*
X86464340Y-87410352D01*
X86444922Y-87327387D01*
X86442316Y-87304078D01*
X86437701Y-87194055D01*
X86443233Y-87142748D01*
X86582514Y-87142748D01*
X86584324Y-87174753D01*
X86594222Y-87184093D01*
X86618898Y-87177105D01*
X86657795Y-87160587D01*
X86701275Y-87139881D01*
X86702356Y-87139333D01*
X86739209Y-87119949D01*
X86754000Y-87107013D01*
X86750353Y-87093451D01*
X86734995Y-87075632D01*
X86695923Y-87049845D01*
X86653846Y-87047950D01*
X86616103Y-87066717D01*
X86590034Y-87102915D01*
X86582514Y-87142748D01*
X86443233Y-87142748D01*
X86447194Y-87106027D01*
X86471550Y-87036212D01*
X86505456Y-86987302D01*
X86566653Y-86937878D01*
X86634063Y-86913359D01*
X86702880Y-86911797D01*
X86768303Y-86931239D01*
G36*
X85641115Y-86921962D02*
G01*
X85709145Y-86957733D01*
X85759351Y-87015301D01*
X85777185Y-87052312D01*
X85791063Y-87107882D01*
X85798167Y-87178096D01*
X85798840Y-87254727D01*
X85793427Y-87329552D01*
X85782270Y-87394342D01*
X85765714Y-87440873D01*
X85760626Y-87448887D01*
X85700355Y-87508707D01*
X85628769Y-87544535D01*
X85551092Y-87555020D01*
X85472548Y-87538810D01*
X85450689Y-87529092D01*
X85408122Y-87499143D01*
X85370763Y-87459433D01*
X85367232Y-87454397D01*
X85352881Y-87430124D01*
X85343394Y-87404178D01*
X85337790Y-87370022D01*
X85335086Y-87321119D01*
X85334299Y-87250935D01*
X85334286Y-87235200D01*
X85334322Y-87230192D01*
X85479429Y-87230192D01*
X85480273Y-87296430D01*
X85483596Y-87340386D01*
X85490583Y-87368779D01*
X85502416Y-87388325D01*
X85508457Y-87394857D01*
X85543186Y-87419680D01*
X85576903Y-87418548D01*
X85610995Y-87397016D01*
X85631329Y-87374029D01*
X85643371Y-87340478D01*
X85650134Y-87287569D01*
X85650598Y-87281399D01*
X85651752Y-87185513D01*
X85639688Y-87114299D01*
X85614570Y-87068194D01*
X85576560Y-87047635D01*
X85562992Y-87046514D01*
X85527364Y-87052152D01*
X85502994Y-87071686D01*
X85488093Y-87109042D01*
X85480875Y-87168150D01*
X85479429Y-87230192D01*
X85334322Y-87230192D01*
X85334826Y-87160413D01*
X85337096Y-87108159D01*
X85342068Y-87071949D01*
X85350713Y-87045299D01*
X85364005Y-87021722D01*
X85366943Y-87017338D01*
X85416313Y-86958249D01*
X85470109Y-86923947D01*
X85535602Y-86910331D01*
X85557842Y-86909665D01*
X85641115Y-86921962D01*
G37*
X85641115Y-86921962D02*
X85709145Y-86957733D01*
X85759351Y-87015301D01*
X85777185Y-87052312D01*
X85791063Y-87107882D01*
X85798167Y-87178096D01*
X85798840Y-87254727D01*
X85793427Y-87329552D01*
X85782270Y-87394342D01*
X85765714Y-87440873D01*
X85760626Y-87448887D01*
X85700355Y-87508707D01*
X85628769Y-87544535D01*
X85551092Y-87555020D01*
X85472548Y-87538810D01*
X85450689Y-87529092D01*
X85408122Y-87499143D01*
X85370763Y-87459433D01*
X85367232Y-87454397D01*
X85352881Y-87430124D01*
X85343394Y-87404178D01*
X85337790Y-87370022D01*
X85335086Y-87321119D01*
X85334299Y-87250935D01*
X85334286Y-87235200D01*
X85334322Y-87230192D01*
X85479429Y-87230192D01*
X85480273Y-87296430D01*
X85483596Y-87340386D01*
X85490583Y-87368779D01*
X85502416Y-87388325D01*
X85508457Y-87394857D01*
X85543186Y-87419680D01*
X85576903Y-87418548D01*
X85610995Y-87397016D01*
X85631329Y-87374029D01*
X85643371Y-87340478D01*
X85650134Y-87287569D01*
X85650598Y-87281399D01*
X85651752Y-87185513D01*
X85639688Y-87114299D01*
X85614570Y-87068194D01*
X85576560Y-87047635D01*
X85562992Y-87046514D01*
X85527364Y-87052152D01*
X85502994Y-87071686D01*
X85488093Y-87109042D01*
X85480875Y-87168150D01*
X85479429Y-87230192D01*
X85334322Y-87230192D01*
X85334826Y-87160413D01*
X85337096Y-87108159D01*
X85342068Y-87071949D01*
X85350713Y-87045299D01*
X85364005Y-87021722D01*
X85366943Y-87017338D01*
X85416313Y-86958249D01*
X85470109Y-86923947D01*
X85535602Y-86910331D01*
X85557842Y-86909665D01*
X85641115Y-86921962D01*
G36*
X87316093Y-86927780D02*
G01*
X87362672Y-86954723D01*
X87395057Y-86981466D01*
X87418742Y-87009484D01*
X87435059Y-87043748D01*
X87445339Y-87089227D01*
X87450914Y-87150892D01*
X87453116Y-87233711D01*
X87453371Y-87293246D01*
X87453371Y-87512391D01*
X87391686Y-87540044D01*
X87330000Y-87567697D01*
X87322743Y-87327670D01*
X87319744Y-87238028D01*
X87316598Y-87172962D01*
X87312701Y-87128026D01*
X87307447Y-87098770D01*
X87300231Y-87080748D01*
X87290450Y-87069511D01*
X87287312Y-87067079D01*
X87239761Y-87048083D01*
X87191697Y-87055600D01*
X87163086Y-87075543D01*
X87151447Y-87089675D01*
X87143391Y-87108220D01*
X87138271Y-87136334D01*
X87135441Y-87179173D01*
X87134256Y-87241895D01*
X87134057Y-87307261D01*
X87134018Y-87389268D01*
X87132614Y-87447316D01*
X87127914Y-87486465D01*
X87117987Y-87511780D01*
X87100903Y-87528323D01*
X87074732Y-87541156D01*
X87039775Y-87554491D01*
X87001596Y-87569007D01*
X87006141Y-87311389D01*
X87007971Y-87218519D01*
X87010112Y-87149889D01*
X87013181Y-87100711D01*
X87017794Y-87066198D01*
X87024568Y-87041562D01*
X87034119Y-87022016D01*
X87045634Y-87004770D01*
X87101190Y-86949680D01*
X87168980Y-86917822D01*
X87242713Y-86910191D01*
X87316093Y-86927780D01*
G37*
X87316093Y-86927780D02*
X87362672Y-86954723D01*
X87395057Y-86981466D01*
X87418742Y-87009484D01*
X87435059Y-87043748D01*
X87445339Y-87089227D01*
X87450914Y-87150892D01*
X87453116Y-87233711D01*
X87453371Y-87293246D01*
X87453371Y-87512391D01*
X87391686Y-87540044D01*
X87330000Y-87567697D01*
X87322743Y-87327670D01*
X87319744Y-87238028D01*
X87316598Y-87172962D01*
X87312701Y-87128026D01*
X87307447Y-87098770D01*
X87300231Y-87080748D01*
X87290450Y-87069511D01*
X87287312Y-87067079D01*
X87239761Y-87048083D01*
X87191697Y-87055600D01*
X87163086Y-87075543D01*
X87151447Y-87089675D01*
X87143391Y-87108220D01*
X87138271Y-87136334D01*
X87135441Y-87179173D01*
X87134256Y-87241895D01*
X87134057Y-87307261D01*
X87134018Y-87389268D01*
X87132614Y-87447316D01*
X87127914Y-87486465D01*
X87117987Y-87511780D01*
X87100903Y-87528323D01*
X87074732Y-87541156D01*
X87039775Y-87554491D01*
X87001596Y-87569007D01*
X87006141Y-87311389D01*
X87007971Y-87218519D01*
X87010112Y-87149889D01*
X87013181Y-87100711D01*
X87017794Y-87066198D01*
X87024568Y-87041562D01*
X87034119Y-87022016D01*
X87045634Y-87004770D01*
X87101190Y-86949680D01*
X87168980Y-86917822D01*
X87242713Y-86910191D01*
X87316093Y-86927780D01*
G36*
X86199744Y-86919918D02*
G01*
X86255201Y-86947568D01*
X86304148Y-86998480D01*
X86317629Y-87017338D01*
X86332314Y-87042015D01*
X86341842Y-87068816D01*
X86347293Y-87104587D01*
X86349747Y-87156169D01*
X86350286Y-87224267D01*
X86347852Y-87317588D01*
X86339394Y-87387657D01*
X86323174Y-87439931D01*
X86297454Y-87479869D01*
X86260497Y-87512929D01*
X86257782Y-87514886D01*
X86221360Y-87534908D01*
X86177502Y-87544815D01*
X86121724Y-87547257D01*
X86031048Y-87547257D01*
X86031010Y-87635283D01*
X86030166Y-87684308D01*
X86025024Y-87713065D01*
X86011587Y-87730311D01*
X85985858Y-87744808D01*
X85979679Y-87747769D01*
X85950764Y-87761648D01*
X85928376Y-87770414D01*
X85911729Y-87771171D01*
X85900036Y-87761023D01*
X85892510Y-87737073D01*
X85888366Y-87696426D01*
X85886815Y-87636186D01*
X85887071Y-87553455D01*
X85888349Y-87445339D01*
X85888748Y-87413000D01*
X85890185Y-87301524D01*
X85891472Y-87228603D01*
X86030971Y-87228603D01*
X86031755Y-87290499D01*
X86035240Y-87330997D01*
X86043124Y-87357708D01*
X86057105Y-87378244D01*
X86066597Y-87388260D01*
X86105404Y-87417567D01*
X86139763Y-87419952D01*
X86175216Y-87395750D01*
X86176114Y-87394857D01*
X86190539Y-87376153D01*
X86199313Y-87350732D01*
X86203739Y-87311584D01*
X86205118Y-87251697D01*
X86205143Y-87238430D01*
X86201812Y-87155901D01*
X86190969Y-87098691D01*
X86171340Y-87063766D01*
X86141650Y-87048094D01*
X86124491Y-87046514D01*
X86083766Y-87053926D01*
X86055832Y-87078330D01*
X86039017Y-87122980D01*
X86031650Y-87191130D01*
X86030971Y-87228603D01*
X85891472Y-87228603D01*
X85891708Y-87215245D01*
X85893677Y-87150333D01*
X85896450Y-87102958D01*
X85900388Y-87069290D01*
X85905849Y-87045498D01*
X85913192Y-87027753D01*
X85922777Y-87012224D01*
X85926887Y-87006381D01*
X85981405Y-86951185D01*
X86050336Y-86919890D01*
X86130072Y-86911165D01*
X86199744Y-86919918D01*
G37*
X86199744Y-86919918D02*
X86255201Y-86947568D01*
X86304148Y-86998480D01*
X86317629Y-87017338D01*
X86332314Y-87042015D01*
X86341842Y-87068816D01*
X86347293Y-87104587D01*
X86349747Y-87156169D01*
X86350286Y-87224267D01*
X86347852Y-87317588D01*
X86339394Y-87387657D01*
X86323174Y-87439931D01*
X86297454Y-87479869D01*
X86260497Y-87512929D01*
X86257782Y-87514886D01*
X86221360Y-87534908D01*
X86177502Y-87544815D01*
X86121724Y-87547257D01*
X86031048Y-87547257D01*
X86031010Y-87635283D01*
X86030166Y-87684308D01*
X86025024Y-87713065D01*
X86011587Y-87730311D01*
X85985858Y-87744808D01*
X85979679Y-87747769D01*
X85950764Y-87761648D01*
X85928376Y-87770414D01*
X85911729Y-87771171D01*
X85900036Y-87761023D01*
X85892510Y-87737073D01*
X85888366Y-87696426D01*
X85886815Y-87636186D01*
X85887071Y-87553455D01*
X85888349Y-87445339D01*
X85888748Y-87413000D01*
X85890185Y-87301524D01*
X85891472Y-87228603D01*
X86030971Y-87228603D01*
X86031755Y-87290499D01*
X86035240Y-87330997D01*
X86043124Y-87357708D01*
X86057105Y-87378244D01*
X86066597Y-87388260D01*
X86105404Y-87417567D01*
X86139763Y-87419952D01*
X86175216Y-87395750D01*
X86176114Y-87394857D01*
X86190539Y-87376153D01*
X86199313Y-87350732D01*
X86203739Y-87311584D01*
X86205118Y-87251697D01*
X86205143Y-87238430D01*
X86201812Y-87155901D01*
X86190969Y-87098691D01*
X86171340Y-87063766D01*
X86141650Y-87048094D01*
X86124491Y-87046514D01*
X86083766Y-87053926D01*
X86055832Y-87078330D01*
X86039017Y-87122980D01*
X86031650Y-87191130D01*
X86030971Y-87228603D01*
X85891472Y-87228603D01*
X85891708Y-87215245D01*
X85893677Y-87150333D01*
X85896450Y-87102958D01*
X85900388Y-87069290D01*
X85905849Y-87045498D01*
X85913192Y-87027753D01*
X85922777Y-87012224D01*
X85926887Y-87006381D01*
X85981405Y-86951185D01*
X86050336Y-86919890D01*
X86130072Y-86911165D01*
X86199744Y-86919918D01*
D13*
X130600000Y-91500000D02*
G75*
G03X130600000Y-91500000I-1200000J0D01*
G01*
X126000000Y-91700000D02*
G75*
G03X126000000Y-91700000I-1200000J0D01*
G01*
X94100000Y-78100000D02*
G75*
G03X94100000Y-78100000I-1200000J0D01*
G01*
X99000000Y-78100000D02*
G75*
G03X99000000Y-78100000I-1200000J0D01*
G01*
X143000000Y-107500000D02*
X143000000Y-108500000D01*
X143000000Y-98500000D02*
X143000000Y-99500000D01*
X133000000Y-98500000D02*
X143000000Y-98500000D01*
X133000000Y-108500000D02*
X133000000Y-98500000D01*
X143000000Y-108500000D02*
X133000000Y-108500000D01*
X136110000Y-85258578D02*
X136110000Y-84741422D01*
X134690000Y-85258578D02*
X134690000Y-84741422D01*
D15*
X132738000Y-85903000D02*
X133813000Y-85903000D01*
X132738000Y-76178000D02*
X128088000Y-76178000D01*
X132738000Y-86128000D02*
X128088000Y-86128000D01*
X132738000Y-76178000D02*
X132738000Y-76503000D01*
X128088000Y-76178000D02*
X128088000Y-76503000D01*
X128088000Y-86128000D02*
X128088000Y-85803000D01*
X132738000Y-86128000D02*
X132738000Y-85903000D01*
D13*
X79915000Y-107625000D02*
X81165000Y-107625000D01*
X79915000Y-106375000D02*
X79915000Y-107625000D01*
X85415000Y-90475000D02*
X85415000Y-98525000D01*
X82465000Y-90475000D02*
X85415000Y-90475000D01*
X82465000Y-89725000D02*
X82465000Y-90475000D01*
X85415000Y-106575000D02*
X85415000Y-98525000D01*
X82465000Y-106575000D02*
X85415000Y-106575000D01*
X82465000Y-107325000D02*
X82465000Y-106575000D01*
X80215000Y-89725000D02*
X80215000Y-91525000D01*
X80965000Y-89725000D02*
X80215000Y-89725000D01*
X80965000Y-91525000D02*
X80965000Y-89725000D01*
X80215000Y-91525000D02*
X80965000Y-91525000D01*
X80215000Y-105525000D02*
X80215000Y-107325000D01*
X80965000Y-105525000D02*
X80215000Y-105525000D01*
X80965000Y-107325000D02*
X80965000Y-105525000D01*
X80215000Y-107325000D02*
X80965000Y-107325000D01*
X80215000Y-93025000D02*
X80215000Y-104025000D01*
X80965000Y-93025000D02*
X80215000Y-93025000D01*
X80965000Y-104025000D02*
X80965000Y-93025000D01*
X80215000Y-104025000D02*
X80965000Y-104025000D01*
X80205000Y-89715000D02*
X80205000Y-107335000D01*
X86175000Y-89715000D02*
X80205000Y-89715000D01*
X86175000Y-107335000D02*
X86175000Y-89715000D01*
X80205000Y-107335000D02*
X86175000Y-107335000D01*
X87750000Y-107625000D02*
X89000000Y-107625000D01*
X87750000Y-106375000D02*
X87750000Y-107625000D01*
X93250000Y-90475000D02*
X93250000Y-98525000D01*
X90300000Y-90475000D02*
X93250000Y-90475000D01*
X90300000Y-89725000D02*
X90300000Y-90475000D01*
X93250000Y-106575000D02*
X93250000Y-98525000D01*
X90300000Y-106575000D02*
X93250000Y-106575000D01*
X90300000Y-107325000D02*
X90300000Y-106575000D01*
X88050000Y-89725000D02*
X88050000Y-91525000D01*
X88800000Y-89725000D02*
X88050000Y-89725000D01*
X88800000Y-91525000D02*
X88800000Y-89725000D01*
X88050000Y-91525000D02*
X88800000Y-91525000D01*
X88050000Y-105525000D02*
X88050000Y-107325000D01*
X88800000Y-105525000D02*
X88050000Y-105525000D01*
X88800000Y-107325000D02*
X88800000Y-105525000D01*
X88050000Y-107325000D02*
X88800000Y-107325000D01*
X88050000Y-93025000D02*
X88050000Y-104025000D01*
X88800000Y-93025000D02*
X88050000Y-93025000D01*
X88800000Y-104025000D02*
X88800000Y-93025000D01*
X88050000Y-104025000D02*
X88800000Y-104025000D01*
X88040000Y-89715000D02*
X88040000Y-107335000D01*
X94010000Y-89715000D02*
X88040000Y-89715000D01*
X94010000Y-107335000D02*
X94010000Y-89715000D01*
X88040000Y-107335000D02*
X94010000Y-107335000D01*
X89446500Y-71850000D02*
X89446500Y-73050000D01*
X85446500Y-71850000D02*
X89446500Y-71850000D01*
X89446500Y-76650000D02*
X86746500Y-76650000D01*
X89446500Y-75450000D02*
X89446500Y-76650000D01*
X143000000Y-97250000D02*
X143000000Y-98250000D01*
X143000000Y-88250000D02*
X143000000Y-89250000D01*
X133000000Y-88250000D02*
X143000000Y-88250000D01*
X133000000Y-98250000D02*
X133000000Y-88250000D01*
X143000000Y-98250000D02*
X133000000Y-98250000D01*
X124158578Y-76590000D02*
X123641422Y-76590000D01*
X124158578Y-78010000D02*
X123641422Y-78010000D01*
X124158578Y-79090000D02*
X123641422Y-79090000D01*
X124158578Y-80510000D02*
X123641422Y-80510000D01*
X140890000Y-70541422D02*
X140890000Y-71058578D01*
X142310000Y-70541422D02*
X142310000Y-71058578D01*
X138490000Y-70541422D02*
X138490000Y-71058578D01*
X139910000Y-70541422D02*
X139910000Y-71058578D01*
X142960000Y-86458578D02*
X142960000Y-85941422D01*
X141540000Y-86458578D02*
X141540000Y-85941422D01*
X140960000Y-86458578D02*
X140960000Y-85941422D01*
X139540000Y-86458578D02*
X139540000Y-85941422D01*
X131321078Y-96540000D02*
X130803922Y-96540000D01*
X131321078Y-97960000D02*
X130803922Y-97960000D01*
X138710000Y-81008578D02*
X138710000Y-80491422D01*
X137290000Y-81008578D02*
X137290000Y-80491422D01*
X136710000Y-81008578D02*
X136710000Y-80491422D01*
X135290000Y-81008578D02*
X135290000Y-80491422D01*
X136741422Y-78710000D02*
X137258578Y-78710000D01*
X136741422Y-77290000D02*
X137258578Y-77290000D01*
X130803922Y-100210000D02*
X131321078Y-100210000D01*
X130803922Y-98790000D02*
X131321078Y-98790000D01*
X122390000Y-82403922D02*
X122390000Y-82921078D01*
X123810000Y-82403922D02*
X123810000Y-82921078D01*
X124290000Y-82403922D02*
X124290000Y-82921078D01*
X125710000Y-82403922D02*
X125710000Y-82921078D01*
X125710000Y-87096078D02*
X125710000Y-86578922D01*
X124290000Y-87096078D02*
X124290000Y-86578922D01*
X123810000Y-87096078D02*
X123810000Y-86578922D01*
X122390000Y-87096078D02*
X122390000Y-86578922D01*
X138110000Y-85258578D02*
X138110000Y-84741422D01*
X136690000Y-85258578D02*
X136690000Y-84741422D01*
X107391422Y-73210000D02*
X107908578Y-73210000D01*
X107391422Y-71790000D02*
X107908578Y-71790000D01*
X93570000Y-69356422D02*
X93570000Y-69873578D01*
X94990000Y-69356422D02*
X94990000Y-69873578D01*
X91270000Y-69356422D02*
X91270000Y-69873578D01*
X92690000Y-69356422D02*
X92690000Y-69873578D01*
X107391422Y-71195000D02*
X107908578Y-71195000D01*
X107391422Y-69775000D02*
X107908578Y-69775000D01*
X107391422Y-69210000D02*
X107908578Y-69210000D01*
X107391422Y-67790000D02*
X107908578Y-67790000D01*
X127446500Y-103600000D02*
X127446500Y-104800000D01*
X123446500Y-103600000D02*
X127446500Y-103600000D01*
X127446500Y-108400000D02*
X124746500Y-108400000D01*
X127446500Y-107200000D02*
X127446500Y-108400000D01*
X117800000Y-109645000D02*
X117800000Y-110895000D01*
X119050000Y-109645000D02*
X117800000Y-109645000D01*
X134950000Y-115145000D02*
X126900000Y-115145000D01*
X134950000Y-112195000D02*
X134950000Y-115145000D01*
X135700000Y-112195000D02*
X134950000Y-112195000D01*
X118850000Y-115145000D02*
X126900000Y-115145000D01*
X118850000Y-112195000D02*
X118850000Y-115145000D01*
X118100000Y-112195000D02*
X118850000Y-112195000D01*
X135700000Y-109945000D02*
X133900000Y-109945000D01*
X135700000Y-110695000D02*
X135700000Y-109945000D01*
X133900000Y-110695000D02*
X135700000Y-110695000D01*
X133900000Y-109945000D02*
X133900000Y-110695000D01*
X119900000Y-109945000D02*
X118100000Y-109945000D01*
X119900000Y-110695000D02*
X119900000Y-109945000D01*
X118100000Y-110695000D02*
X119900000Y-110695000D01*
X118100000Y-109945000D02*
X118100000Y-110695000D01*
X132400000Y-109945000D02*
X121400000Y-109945000D01*
X132400000Y-110695000D02*
X132400000Y-109945000D01*
X121400000Y-110695000D02*
X132400000Y-110695000D01*
X121400000Y-109945000D02*
X121400000Y-110695000D01*
X135710000Y-109935000D02*
X118090000Y-109935000D01*
X135710000Y-115905000D02*
X135710000Y-109935000D01*
X118090000Y-115905000D02*
X135710000Y-115905000D01*
X118090000Y-109935000D02*
X118090000Y-115905000D01*
X99000000Y-73500000D02*
G75*
G03X99000000Y-73500000I-1200000J0D01*
G01*
X95750000Y-105600000D02*
X97000000Y-105600000D01*
X95750000Y-104350000D02*
X95750000Y-105600000D01*
X101250000Y-93450000D02*
X101250000Y-99000000D01*
X98300000Y-93450000D02*
X101250000Y-93450000D01*
X98300000Y-92700000D02*
X98300000Y-93450000D01*
X101250000Y-104550000D02*
X101250000Y-99000000D01*
X98300000Y-104550000D02*
X101250000Y-104550000D01*
X98300000Y-105300000D02*
X98300000Y-104550000D01*
X96050000Y-92700000D02*
X96050000Y-94500000D01*
X96800000Y-92700000D02*
X96050000Y-92700000D01*
X96800000Y-94500000D02*
X96800000Y-92700000D01*
X96050000Y-94500000D02*
X96800000Y-94500000D01*
X96050000Y-103500000D02*
X96050000Y-105300000D01*
X96800000Y-103500000D02*
X96050000Y-103500000D01*
X96800000Y-105300000D02*
X96800000Y-103500000D01*
X96050000Y-105300000D02*
X96800000Y-105300000D01*
X96050000Y-96000000D02*
X96050000Y-102000000D01*
X96800000Y-96000000D02*
X96050000Y-96000000D01*
X96800000Y-102000000D02*
X96800000Y-96000000D01*
X96050000Y-102000000D02*
X96800000Y-102000000D01*
X96040000Y-92690000D02*
X96040000Y-105310000D01*
X102010000Y-92690000D02*
X96040000Y-92690000D01*
X102010000Y-105310000D02*
X102010000Y-92690000D01*
X96040000Y-105310000D02*
X102010000Y-105310000D01*
D15*
X115725000Y-73175000D02*
X115725000Y-73125000D01*
X111575000Y-73175000D02*
X111575000Y-73030000D01*
X111575000Y-68025000D02*
X111575000Y-68170000D01*
X115725000Y-68025000D02*
X115725000Y-68170000D01*
X115725000Y-73175000D02*
X111575000Y-73175000D01*
X115725000Y-68025000D02*
X111575000Y-68025000D01*
X115725000Y-73125000D02*
X117125000Y-73125000D01*
D13*
X104080000Y-68180000D02*
X101420000Y-68180000D01*
X104080000Y-70780000D02*
X104080000Y-68180000D01*
X101420000Y-70780000D02*
X101420000Y-68180000D01*
X104080000Y-70780000D02*
X101420000Y-70780000D01*
X104080000Y-72050000D02*
X104080000Y-73380000D01*
X104080000Y-73380000D02*
X102750000Y-73380000D01*
X80940000Y-70220000D02*
X80940000Y-73170000D01*
X84160000Y-72020000D02*
X84160000Y-70220000D01*
X128150000Y-67750000D02*
X128150000Y-69000000D01*
X129400000Y-67750000D02*
X128150000Y-67750000D01*
X135300000Y-73250000D02*
X132250000Y-73250000D01*
X135300000Y-70300000D02*
X135300000Y-73250000D01*
X136050000Y-70300000D02*
X135300000Y-70300000D01*
X129200000Y-73250000D02*
X132250000Y-73250000D01*
X129200000Y-70300000D02*
X129200000Y-73250000D01*
X128450000Y-70300000D02*
X129200000Y-70300000D01*
X136050000Y-68050000D02*
X134250000Y-68050000D01*
X136050000Y-68800000D02*
X136050000Y-68050000D01*
X134250000Y-68800000D02*
X136050000Y-68800000D01*
X134250000Y-68050000D02*
X134250000Y-68800000D01*
X130250000Y-68050000D02*
X128450000Y-68050000D01*
X130250000Y-68800000D02*
X130250000Y-68050000D01*
X128450000Y-68800000D02*
X130250000Y-68800000D01*
X128450000Y-68050000D02*
X128450000Y-68800000D01*
X132750000Y-68050000D02*
X131750000Y-68050000D01*
X132750000Y-68800000D02*
X132750000Y-68050000D01*
X131750000Y-68800000D02*
X132750000Y-68800000D01*
X131750000Y-68050000D02*
X131750000Y-68800000D01*
X136060000Y-68040000D02*
X128440000Y-68040000D01*
X136060000Y-74010000D02*
X136060000Y-68040000D01*
X128440000Y-74010000D02*
X136060000Y-74010000D01*
X128440000Y-68040000D02*
X128440000Y-74010000D01*
X119150000Y-67750000D02*
X119150000Y-69000000D01*
X120400000Y-67750000D02*
X119150000Y-67750000D01*
X126300000Y-73250000D02*
X123250000Y-73250000D01*
X126300000Y-70300000D02*
X126300000Y-73250000D01*
X127050000Y-70300000D02*
X126300000Y-70300000D01*
X120200000Y-73250000D02*
X123250000Y-73250000D01*
X120200000Y-70300000D02*
X120200000Y-73250000D01*
X119450000Y-70300000D02*
X120200000Y-70300000D01*
X127050000Y-68050000D02*
X125250000Y-68050000D01*
X127050000Y-68800000D02*
X127050000Y-68050000D01*
X125250000Y-68800000D02*
X127050000Y-68800000D01*
X125250000Y-68050000D02*
X125250000Y-68800000D01*
X121250000Y-68050000D02*
X119450000Y-68050000D01*
X121250000Y-68800000D02*
X121250000Y-68050000D01*
X119450000Y-68800000D02*
X121250000Y-68800000D01*
X119450000Y-68050000D02*
X119450000Y-68800000D01*
X123750000Y-68050000D02*
X122750000Y-68050000D01*
X123750000Y-68800000D02*
X123750000Y-68050000D01*
X122750000Y-68800000D02*
X123750000Y-68800000D01*
X122750000Y-68050000D02*
X122750000Y-68800000D01*
X127060000Y-68040000D02*
X119440000Y-68040000D01*
X127060000Y-74010000D02*
X127060000Y-68040000D01*
X119440000Y-74010000D02*
X127060000Y-74010000D01*
X119440000Y-68040000D02*
X119440000Y-74010000D01*
X111750000Y-103850000D02*
X113000000Y-103850000D01*
X111750000Y-102600000D02*
X111750000Y-103850000D01*
X117250000Y-94200000D02*
X117250000Y-98500000D01*
X114300000Y-94200000D02*
X117250000Y-94200000D01*
X114300000Y-93450000D02*
X114300000Y-94200000D01*
X117250000Y-102800000D02*
X117250000Y-98500000D01*
X114300000Y-102800000D02*
X117250000Y-102800000D01*
X114300000Y-103550000D02*
X114300000Y-102800000D01*
X112050000Y-93450000D02*
X112050000Y-95250000D01*
X112800000Y-93450000D02*
X112050000Y-93450000D01*
X112800000Y-95250000D02*
X112800000Y-93450000D01*
X112050000Y-95250000D02*
X112800000Y-95250000D01*
X112050000Y-101750000D02*
X112050000Y-103550000D01*
X112800000Y-101750000D02*
X112050000Y-101750000D01*
X112800000Y-103550000D02*
X112800000Y-101750000D01*
X112050000Y-103550000D02*
X112800000Y-103550000D01*
X112050000Y-96750000D02*
X112050000Y-100250000D01*
X112800000Y-96750000D02*
X112050000Y-96750000D01*
X112800000Y-100250000D02*
X112800000Y-96750000D01*
X112050000Y-100250000D02*
X112800000Y-100250000D01*
X112040000Y-93440000D02*
X112040000Y-103560000D01*
X118010000Y-93440000D02*
X112040000Y-93440000D01*
X118010000Y-103560000D02*
X118010000Y-93440000D01*
X112040000Y-103560000D02*
X118010000Y-103560000D01*
X103750000Y-105600000D02*
X105000000Y-105600000D01*
X103750000Y-104350000D02*
X103750000Y-105600000D01*
X109250000Y-93450000D02*
X109250000Y-99000000D01*
X106300000Y-93450000D02*
X109250000Y-93450000D01*
X106300000Y-92700000D02*
X106300000Y-93450000D01*
X109250000Y-104550000D02*
X109250000Y-99000000D01*
X106300000Y-104550000D02*
X109250000Y-104550000D01*
X106300000Y-105300000D02*
X106300000Y-104550000D01*
X104050000Y-92700000D02*
X104050000Y-94500000D01*
X104800000Y-92700000D02*
X104050000Y-92700000D01*
X104800000Y-94500000D02*
X104800000Y-92700000D01*
X104050000Y-94500000D02*
X104800000Y-94500000D01*
X104050000Y-103500000D02*
X104050000Y-105300000D01*
X104800000Y-103500000D02*
X104050000Y-103500000D01*
X104800000Y-105300000D02*
X104800000Y-103500000D01*
X104050000Y-105300000D02*
X104800000Y-105300000D01*
X104050000Y-96000000D02*
X104050000Y-102000000D01*
X104800000Y-96000000D02*
X104050000Y-96000000D01*
X104800000Y-102000000D02*
X104800000Y-96000000D01*
X104050000Y-102000000D02*
X104800000Y-102000000D01*
X104040000Y-92690000D02*
X104040000Y-105310000D01*
X110010000Y-92690000D02*
X104040000Y-92690000D01*
X110010000Y-105310000D02*
X110010000Y-92690000D01*
X104040000Y-105310000D02*
X110010000Y-105310000D01*
X86685000Y-109645000D02*
X86685000Y-110895000D01*
X87935000Y-109645000D02*
X86685000Y-109645000D01*
X96335000Y-115145000D02*
X92035000Y-115145000D01*
X96335000Y-112195000D02*
X96335000Y-115145000D01*
X97085000Y-112195000D02*
X96335000Y-112195000D01*
X87735000Y-115145000D02*
X92035000Y-115145000D01*
X87735000Y-112195000D02*
X87735000Y-115145000D01*
X86985000Y-112195000D02*
X87735000Y-112195000D01*
X97085000Y-109945000D02*
X95285000Y-109945000D01*
X97085000Y-110695000D02*
X97085000Y-109945000D01*
X95285000Y-110695000D02*
X97085000Y-110695000D01*
X95285000Y-109945000D02*
X95285000Y-110695000D01*
X88785000Y-109945000D02*
X86985000Y-109945000D01*
X88785000Y-110695000D02*
X88785000Y-109945000D01*
X86985000Y-110695000D02*
X88785000Y-110695000D01*
X86985000Y-109945000D02*
X86985000Y-110695000D01*
X93785000Y-109945000D02*
X90285000Y-109945000D01*
X93785000Y-110695000D02*
X93785000Y-109945000D01*
X90285000Y-110695000D02*
X93785000Y-110695000D01*
X90285000Y-109945000D02*
X90285000Y-110695000D01*
X97095000Y-109935000D02*
X86975000Y-109935000D01*
X97095000Y-115905000D02*
X97095000Y-109935000D01*
X86975000Y-115905000D02*
X97095000Y-115905000D01*
X86975000Y-109935000D02*
X86975000Y-115905000D01*
X100020000Y-109645000D02*
X100020000Y-110895000D01*
X101270000Y-109645000D02*
X100020000Y-109645000D01*
X114670000Y-115145000D02*
X107870000Y-115145000D01*
X114670000Y-112195000D02*
X114670000Y-115145000D01*
X115420000Y-112195000D02*
X114670000Y-112195000D01*
X101070000Y-115145000D02*
X107870000Y-115145000D01*
X101070000Y-112195000D02*
X101070000Y-115145000D01*
X100320000Y-112195000D02*
X101070000Y-112195000D01*
X115420000Y-109945000D02*
X113620000Y-109945000D01*
X115420000Y-110695000D02*
X115420000Y-109945000D01*
X113620000Y-110695000D02*
X115420000Y-110695000D01*
X113620000Y-109945000D02*
X113620000Y-110695000D01*
X102120000Y-109945000D02*
X100320000Y-109945000D01*
X102120000Y-110695000D02*
X102120000Y-109945000D01*
X100320000Y-110695000D02*
X102120000Y-110695000D01*
X100320000Y-109945000D02*
X100320000Y-110695000D01*
X112120000Y-109945000D02*
X103620000Y-109945000D01*
X112120000Y-110695000D02*
X112120000Y-109945000D01*
X103620000Y-110695000D02*
X112120000Y-110695000D01*
X103620000Y-109945000D02*
X103620000Y-110695000D01*
X115430000Y-109935000D02*
X100310000Y-109935000D01*
X115430000Y-115905000D02*
X115430000Y-109935000D01*
X100310000Y-115905000D02*
X115430000Y-115905000D01*
X100310000Y-109935000D02*
X100310000Y-115905000D01*
X86840000Y-68020000D02*
X86840000Y-68950000D01*
X86840000Y-71180000D02*
X86840000Y-70250000D01*
X86840000Y-71180000D02*
X89000000Y-71180000D01*
X86840000Y-68020000D02*
X88300000Y-68020000D01*
D16*
X94726190Y-74330952D02*
X94726190Y-74045238D01*
X95226190Y-74188095D02*
X94726190Y-74188095D01*
X95226190Y-73878571D02*
X94726190Y-73878571D01*
X94726190Y-73688095D01*
X94750000Y-73640476D01*
X94773809Y-73616666D01*
X94821428Y-73592857D01*
X94892857Y-73592857D01*
X94940476Y-73616666D01*
X94964285Y-73640476D01*
X94988095Y-73688095D01*
X94988095Y-73878571D01*
X94892857Y-73164285D02*
X95226190Y-73164285D01*
X94702380Y-73283333D02*
X95059523Y-73402380D01*
X95059523Y-73092857D01*
X108826190Y-90621428D02*
X108588095Y-90788095D01*
X108826190Y-90907142D02*
X108326190Y-90907142D01*
X108326190Y-90716666D01*
X108350000Y-90669047D01*
X108373809Y-90645238D01*
X108421428Y-90621428D01*
X108492857Y-90621428D01*
X108540476Y-90645238D01*
X108564285Y-90669047D01*
X108588095Y-90716666D01*
X108588095Y-90907142D01*
X108826190Y-90145238D02*
X108826190Y-90430952D01*
X108826190Y-90288095D02*
X108326190Y-90288095D01*
X108397619Y-90335714D01*
X108445238Y-90383333D01*
X108469047Y-90430952D01*
X108492857Y-89716666D02*
X108826190Y-89716666D01*
X108302380Y-89835714D02*
X108659523Y-89954761D01*
X108659523Y-89645238D01*
X103930952Y-91526190D02*
X103930952Y-91026190D01*
X104050000Y-91026190D01*
X104121428Y-91050000D01*
X104169047Y-91097619D01*
X104192857Y-91145238D01*
X104216666Y-91240476D01*
X104216666Y-91311904D01*
X104192857Y-91407142D01*
X104169047Y-91454761D01*
X104121428Y-91502380D01*
X104050000Y-91526190D01*
X103930952Y-91526190D01*
X104692857Y-91526190D02*
X104407142Y-91526190D01*
X104550000Y-91526190D02*
X104550000Y-91026190D01*
X104502380Y-91097619D01*
X104454761Y-91145238D01*
X104407142Y-91169047D01*
X131226190Y-92130952D02*
X131226190Y-91845238D01*
X131726190Y-91988095D02*
X131226190Y-91988095D01*
X131726190Y-91678571D02*
X131226190Y-91678571D01*
X131226190Y-91488095D01*
X131250000Y-91440476D01*
X131273809Y-91416666D01*
X131321428Y-91392857D01*
X131392857Y-91392857D01*
X131440476Y-91416666D01*
X131464285Y-91440476D01*
X131488095Y-91488095D01*
X131488095Y-91678571D01*
X131226190Y-90964285D02*
X131226190Y-91059523D01*
X131250000Y-91107142D01*
X131273809Y-91130952D01*
X131345238Y-91178571D01*
X131440476Y-91202380D01*
X131630952Y-91202380D01*
X131678571Y-91178571D01*
X131702380Y-91154761D01*
X131726190Y-91107142D01*
X131726190Y-91011904D01*
X131702380Y-90964285D01*
X131678571Y-90940476D01*
X131630952Y-90916666D01*
X131511904Y-90916666D01*
X131464285Y-90940476D01*
X131440476Y-90964285D01*
X131416666Y-91011904D01*
X131416666Y-91107142D01*
X131440476Y-91154761D01*
X131464285Y-91178571D01*
X131511904Y-91202380D01*
X126526190Y-92230952D02*
X126526190Y-91945238D01*
X127026190Y-92088095D02*
X126526190Y-92088095D01*
X127026190Y-91778571D02*
X126526190Y-91778571D01*
X126526190Y-91588095D01*
X126550000Y-91540476D01*
X126573809Y-91516666D01*
X126621428Y-91492857D01*
X126692857Y-91492857D01*
X126740476Y-91516666D01*
X126764285Y-91540476D01*
X126788095Y-91588095D01*
X126788095Y-91778571D01*
X126526190Y-91040476D02*
X126526190Y-91278571D01*
X126764285Y-91302380D01*
X126740476Y-91278571D01*
X126716666Y-91230952D01*
X126716666Y-91111904D01*
X126740476Y-91064285D01*
X126764285Y-91040476D01*
X126811904Y-91016666D01*
X126930952Y-91016666D01*
X126978571Y-91040476D01*
X127002380Y-91064285D01*
X127026190Y-91111904D01*
X127026190Y-91230952D01*
X127002380Y-91278571D01*
X126978571Y-91302380D01*
X94726190Y-78730952D02*
X94726190Y-78445238D01*
X95226190Y-78588095D02*
X94726190Y-78588095D01*
X95226190Y-78278571D02*
X94726190Y-78278571D01*
X94726190Y-78088095D01*
X94750000Y-78040476D01*
X94773809Y-78016666D01*
X94821428Y-77992857D01*
X94892857Y-77992857D01*
X94940476Y-78016666D01*
X94964285Y-78040476D01*
X94988095Y-78088095D01*
X94988095Y-78278571D01*
X94726190Y-77826190D02*
X94726190Y-77516666D01*
X94916666Y-77683333D01*
X94916666Y-77611904D01*
X94940476Y-77564285D01*
X94964285Y-77540476D01*
X95011904Y-77516666D01*
X95130952Y-77516666D01*
X95178571Y-77540476D01*
X95202380Y-77564285D01*
X95226190Y-77611904D01*
X95226190Y-77754761D01*
X95202380Y-77802380D01*
X95178571Y-77826190D01*
X99526190Y-78730952D02*
X99526190Y-78445238D01*
X100026190Y-78588095D02*
X99526190Y-78588095D01*
X100026190Y-78278571D02*
X99526190Y-78278571D01*
X99526190Y-78088095D01*
X99550000Y-78040476D01*
X99573809Y-78016666D01*
X99621428Y-77992857D01*
X99692857Y-77992857D01*
X99740476Y-78016666D01*
X99764285Y-78040476D01*
X99788095Y-78088095D01*
X99788095Y-78278571D01*
X100026190Y-77516666D02*
X100026190Y-77802380D01*
X100026190Y-77659523D02*
X99526190Y-77659523D01*
X99597619Y-77707142D01*
X99645238Y-77754761D01*
X99669047Y-77802380D01*
D15*
X131652380Y-108109523D02*
X132366666Y-108109523D01*
X132509523Y-108157142D01*
X132604761Y-108252380D01*
X132652380Y-108395238D01*
X132652380Y-108490476D01*
X132652380Y-107109523D02*
X132652380Y-107680952D01*
X132652380Y-107395238D02*
X131652380Y-107395238D01*
X131795238Y-107490476D01*
X131890476Y-107585714D01*
X131938095Y-107680952D01*
X131985714Y-106252380D02*
X132652380Y-106252380D01*
X131604761Y-106490476D02*
X132319047Y-106728571D01*
X132319047Y-106109523D01*
D16*
X135316666Y-87378571D02*
X135292857Y-87402380D01*
X135221428Y-87426190D01*
X135173809Y-87426190D01*
X135102380Y-87402380D01*
X135054761Y-87354761D01*
X135030952Y-87307142D01*
X135007142Y-87211904D01*
X135007142Y-87140476D01*
X135030952Y-87045238D01*
X135054761Y-86997619D01*
X135102380Y-86950000D01*
X135173809Y-86926190D01*
X135221428Y-86926190D01*
X135292857Y-86950000D01*
X135316666Y-86973809D01*
X135792857Y-87426190D02*
X135507142Y-87426190D01*
X135650000Y-87426190D02*
X135650000Y-86926190D01*
X135602380Y-86997619D01*
X135554761Y-87045238D01*
X135507142Y-87069047D01*
D15*
X129361904Y-86552380D02*
X129361904Y-87361904D01*
X129409523Y-87457142D01*
X129457142Y-87504761D01*
X129552380Y-87552380D01*
X129742857Y-87552380D01*
X129838095Y-87504761D01*
X129885714Y-87457142D01*
X129933333Y-87361904D01*
X129933333Y-86552380D01*
X130933333Y-87552380D02*
X130361904Y-87552380D01*
X130647619Y-87552380D02*
X130647619Y-86552380D01*
X130552380Y-86695238D01*
X130457142Y-86790476D01*
X130361904Y-86838095D01*
X131314285Y-86647619D02*
X131361904Y-86600000D01*
X131457142Y-86552380D01*
X131695238Y-86552380D01*
X131790476Y-86600000D01*
X131838095Y-86647619D01*
X131885714Y-86742857D01*
X131885714Y-86838095D01*
X131838095Y-86980952D01*
X131266666Y-87552380D01*
X131885714Y-87552380D01*
X86452380Y-106933333D02*
X87166666Y-106933333D01*
X87309523Y-106980952D01*
X87404761Y-107076190D01*
X87452380Y-107219047D01*
X87452380Y-107314285D01*
X86547619Y-106504761D02*
X86500000Y-106457142D01*
X86452380Y-106361904D01*
X86452380Y-106123809D01*
X86500000Y-106028571D01*
X86547619Y-105980952D01*
X86642857Y-105933333D01*
X86738095Y-105933333D01*
X86880952Y-105980952D01*
X87452380Y-106552380D01*
X87452380Y-105933333D01*
X94252380Y-106933333D02*
X94966666Y-106933333D01*
X95109523Y-106980952D01*
X95204761Y-107076190D01*
X95252380Y-107219047D01*
X95252380Y-107314285D01*
X94585714Y-106028571D02*
X95252380Y-106028571D01*
X94204761Y-106266666D02*
X94919047Y-106504761D01*
X94919047Y-105885714D01*
X85161904Y-77252380D02*
X85161904Y-78061904D01*
X85209523Y-78157142D01*
X85257142Y-78204761D01*
X85352380Y-78252380D01*
X85542857Y-78252380D01*
X85638095Y-78204761D01*
X85685714Y-78157142D01*
X85733333Y-78061904D01*
X85733333Y-77252380D01*
X86733333Y-78252380D02*
X86161904Y-78252380D01*
X86447619Y-78252380D02*
X86447619Y-77252380D01*
X86352380Y-77395238D01*
X86257142Y-77490476D01*
X86161904Y-77538095D01*
X87352380Y-77252380D02*
X87447619Y-77252380D01*
X87542857Y-77300000D01*
X87590476Y-77347619D01*
X87638095Y-77442857D01*
X87685714Y-77633333D01*
X87685714Y-77871428D01*
X87638095Y-78061904D01*
X87590476Y-78157142D01*
X87542857Y-78204761D01*
X87447619Y-78252380D01*
X87352380Y-78252380D01*
X87257142Y-78204761D01*
X87209523Y-78157142D01*
X87161904Y-78061904D01*
X87114285Y-77871428D01*
X87114285Y-77633333D01*
X87161904Y-77442857D01*
X87209523Y-77347619D01*
X87257142Y-77300000D01*
X87352380Y-77252380D01*
X131652380Y-90309523D02*
X132366666Y-90309523D01*
X132509523Y-90357142D01*
X132604761Y-90452380D01*
X132652380Y-90595238D01*
X132652380Y-90690476D01*
X132652380Y-89309523D02*
X132652380Y-89880952D01*
X132652380Y-89595238D02*
X131652380Y-89595238D01*
X131795238Y-89690476D01*
X131890476Y-89785714D01*
X131938095Y-89880952D01*
X131652380Y-88976190D02*
X131652380Y-88357142D01*
X132033333Y-88690476D01*
X132033333Y-88547619D01*
X132080952Y-88452380D01*
X132128571Y-88404761D01*
X132223809Y-88357142D01*
X132461904Y-88357142D01*
X132557142Y-88404761D01*
X132604761Y-88452380D01*
X132652380Y-88547619D01*
X132652380Y-88833333D01*
X132604761Y-88928571D01*
X132557142Y-88976190D01*
D16*
X126326190Y-77621428D02*
X126088095Y-77788095D01*
X126326190Y-77907142D02*
X125826190Y-77907142D01*
X125826190Y-77716666D01*
X125850000Y-77669047D01*
X125873809Y-77645238D01*
X125921428Y-77621428D01*
X125992857Y-77621428D01*
X126040476Y-77645238D01*
X126064285Y-77669047D01*
X126088095Y-77716666D01*
X126088095Y-77907142D01*
X126326190Y-77145238D02*
X126326190Y-77430952D01*
X126326190Y-77288095D02*
X125826190Y-77288095D01*
X125897619Y-77335714D01*
X125945238Y-77383333D01*
X125969047Y-77430952D01*
X125826190Y-76978571D02*
X125826190Y-76669047D01*
X126016666Y-76835714D01*
X126016666Y-76764285D01*
X126040476Y-76716666D01*
X126064285Y-76692857D01*
X126111904Y-76669047D01*
X126230952Y-76669047D01*
X126278571Y-76692857D01*
X126302380Y-76716666D01*
X126326190Y-76764285D01*
X126326190Y-76907142D01*
X126302380Y-76954761D01*
X126278571Y-76978571D01*
X126326190Y-80121428D02*
X126088095Y-80288095D01*
X126326190Y-80407142D02*
X125826190Y-80407142D01*
X125826190Y-80216666D01*
X125850000Y-80169047D01*
X125873809Y-80145238D01*
X125921428Y-80121428D01*
X125992857Y-80121428D01*
X126040476Y-80145238D01*
X126064285Y-80169047D01*
X126088095Y-80216666D01*
X126088095Y-80407142D01*
X126326190Y-79645238D02*
X126326190Y-79930952D01*
X126326190Y-79788095D02*
X125826190Y-79788095D01*
X125897619Y-79835714D01*
X125945238Y-79883333D01*
X125969047Y-79930952D01*
X125873809Y-79454761D02*
X125850000Y-79430952D01*
X125826190Y-79383333D01*
X125826190Y-79264285D01*
X125850000Y-79216666D01*
X125873809Y-79192857D01*
X125921428Y-79169047D01*
X125969047Y-79169047D01*
X126040476Y-79192857D01*
X126326190Y-79478571D01*
X126326190Y-79169047D01*
X141278571Y-68776190D02*
X141111904Y-68538095D01*
X140992857Y-68776190D02*
X140992857Y-68276190D01*
X141183333Y-68276190D01*
X141230952Y-68300000D01*
X141254761Y-68323809D01*
X141278571Y-68371428D01*
X141278571Y-68442857D01*
X141254761Y-68490476D01*
X141230952Y-68514285D01*
X141183333Y-68538095D01*
X140992857Y-68538095D01*
X141754761Y-68776190D02*
X141469047Y-68776190D01*
X141611904Y-68776190D02*
X141611904Y-68276190D01*
X141564285Y-68347619D01*
X141516666Y-68395238D01*
X141469047Y-68419047D01*
X142230952Y-68776190D02*
X141945238Y-68776190D01*
X142088095Y-68776190D02*
X142088095Y-68276190D01*
X142040476Y-68347619D01*
X141992857Y-68395238D01*
X141945238Y-68419047D01*
X138878571Y-68826190D02*
X138711904Y-68588095D01*
X138592857Y-68826190D02*
X138592857Y-68326190D01*
X138783333Y-68326190D01*
X138830952Y-68350000D01*
X138854761Y-68373809D01*
X138878571Y-68421428D01*
X138878571Y-68492857D01*
X138854761Y-68540476D01*
X138830952Y-68564285D01*
X138783333Y-68588095D01*
X138592857Y-68588095D01*
X139354761Y-68826190D02*
X139069047Y-68826190D01*
X139211904Y-68826190D02*
X139211904Y-68326190D01*
X139164285Y-68397619D01*
X139116666Y-68445238D01*
X139069047Y-68469047D01*
X139664285Y-68326190D02*
X139711904Y-68326190D01*
X139759523Y-68350000D01*
X139783333Y-68373809D01*
X139807142Y-68421428D01*
X139830952Y-68516666D01*
X139830952Y-68635714D01*
X139807142Y-68730952D01*
X139783333Y-68778571D01*
X139759523Y-68802380D01*
X139711904Y-68826190D01*
X139664285Y-68826190D01*
X139616666Y-68802380D01*
X139592857Y-68778571D01*
X139569047Y-68730952D01*
X139545238Y-68635714D01*
X139545238Y-68516666D01*
X139569047Y-68421428D01*
X139592857Y-68373809D01*
X139616666Y-68350000D01*
X139664285Y-68326190D01*
X142216666Y-84376190D02*
X142050000Y-84138095D01*
X141930952Y-84376190D02*
X141930952Y-83876190D01*
X142121428Y-83876190D01*
X142169047Y-83900000D01*
X142192857Y-83923809D01*
X142216666Y-83971428D01*
X142216666Y-84042857D01*
X142192857Y-84090476D01*
X142169047Y-84114285D01*
X142121428Y-84138095D01*
X141930952Y-84138095D01*
X142454761Y-84376190D02*
X142550000Y-84376190D01*
X142597619Y-84352380D01*
X142621428Y-84328571D01*
X142669047Y-84257142D01*
X142692857Y-84161904D01*
X142692857Y-83971428D01*
X142669047Y-83923809D01*
X142645238Y-83900000D01*
X142597619Y-83876190D01*
X142502380Y-83876190D01*
X142454761Y-83900000D01*
X142430952Y-83923809D01*
X142407142Y-83971428D01*
X142407142Y-84090476D01*
X142430952Y-84138095D01*
X142454761Y-84161904D01*
X142502380Y-84185714D01*
X142597619Y-84185714D01*
X142645238Y-84161904D01*
X142669047Y-84138095D01*
X142692857Y-84090476D01*
X140116666Y-84338690D02*
X139950000Y-84100595D01*
X139830952Y-84338690D02*
X139830952Y-83838690D01*
X140021428Y-83838690D01*
X140069047Y-83862500D01*
X140092857Y-83886309D01*
X140116666Y-83933928D01*
X140116666Y-84005357D01*
X140092857Y-84052976D01*
X140069047Y-84076785D01*
X140021428Y-84100595D01*
X139830952Y-84100595D01*
X140283333Y-83838690D02*
X140616666Y-83838690D01*
X140402380Y-84338690D01*
X128991071Y-97571428D02*
X129014880Y-97595238D01*
X129038690Y-97666666D01*
X129038690Y-97714285D01*
X129014880Y-97785714D01*
X128967261Y-97833333D01*
X128919642Y-97857142D01*
X128824404Y-97880952D01*
X128752976Y-97880952D01*
X128657738Y-97857142D01*
X128610119Y-97833333D01*
X128562500Y-97785714D01*
X128538690Y-97714285D01*
X128538690Y-97666666D01*
X128562500Y-97595238D01*
X128586309Y-97571428D01*
X129038690Y-97095238D02*
X129038690Y-97380952D01*
X129038690Y-97238095D02*
X128538690Y-97238095D01*
X128610119Y-97285714D01*
X128657738Y-97333333D01*
X128681547Y-97380952D01*
X128538690Y-96928571D02*
X128538690Y-96619047D01*
X128729166Y-96785714D01*
X128729166Y-96714285D01*
X128752976Y-96666666D01*
X128776785Y-96642857D01*
X128824404Y-96619047D01*
X128943452Y-96619047D01*
X128991071Y-96642857D01*
X129014880Y-96666666D01*
X129038690Y-96714285D01*
X129038690Y-96857142D01*
X129014880Y-96904761D01*
X128991071Y-96928571D01*
X139678571Y-81121428D02*
X139702380Y-81145238D01*
X139726190Y-81216666D01*
X139726190Y-81264285D01*
X139702380Y-81335714D01*
X139654761Y-81383333D01*
X139607142Y-81407142D01*
X139511904Y-81430952D01*
X139440476Y-81430952D01*
X139345238Y-81407142D01*
X139297619Y-81383333D01*
X139250000Y-81335714D01*
X139226190Y-81264285D01*
X139226190Y-81216666D01*
X139250000Y-81145238D01*
X139273809Y-81121428D01*
X139726190Y-80645238D02*
X139726190Y-80930952D01*
X139726190Y-80788095D02*
X139226190Y-80788095D01*
X139297619Y-80835714D01*
X139345238Y-80883333D01*
X139369047Y-80930952D01*
X139273809Y-80454761D02*
X139250000Y-80430952D01*
X139226190Y-80383333D01*
X139226190Y-80264285D01*
X139250000Y-80216666D01*
X139273809Y-80192857D01*
X139321428Y-80169047D01*
X139369047Y-80169047D01*
X139440476Y-80192857D01*
X139726190Y-80478571D01*
X139726190Y-80169047D01*
X134778571Y-81121428D02*
X134802380Y-81145238D01*
X134826190Y-81216666D01*
X134826190Y-81264285D01*
X134802380Y-81335714D01*
X134754761Y-81383333D01*
X134707142Y-81407142D01*
X134611904Y-81430952D01*
X134540476Y-81430952D01*
X134445238Y-81407142D01*
X134397619Y-81383333D01*
X134350000Y-81335714D01*
X134326190Y-81264285D01*
X134326190Y-81216666D01*
X134350000Y-81145238D01*
X134373809Y-81121428D01*
X134826190Y-80645238D02*
X134826190Y-80930952D01*
X134826190Y-80788095D02*
X134326190Y-80788095D01*
X134397619Y-80835714D01*
X134445238Y-80883333D01*
X134469047Y-80930952D01*
X134826190Y-80169047D02*
X134826190Y-80454761D01*
X134826190Y-80311904D02*
X134326190Y-80311904D01*
X134397619Y-80359523D01*
X134445238Y-80407142D01*
X134469047Y-80454761D01*
X136678571Y-76778571D02*
X136654761Y-76802380D01*
X136583333Y-76826190D01*
X136535714Y-76826190D01*
X136464285Y-76802380D01*
X136416666Y-76754761D01*
X136392857Y-76707142D01*
X136369047Y-76611904D01*
X136369047Y-76540476D01*
X136392857Y-76445238D01*
X136416666Y-76397619D01*
X136464285Y-76350000D01*
X136535714Y-76326190D01*
X136583333Y-76326190D01*
X136654761Y-76350000D01*
X136678571Y-76373809D01*
X137154761Y-76826190D02*
X136869047Y-76826190D01*
X137011904Y-76826190D02*
X137011904Y-76326190D01*
X136964285Y-76397619D01*
X136916666Y-76445238D01*
X136869047Y-76469047D01*
X137464285Y-76326190D02*
X137511904Y-76326190D01*
X137559523Y-76350000D01*
X137583333Y-76373809D01*
X137607142Y-76421428D01*
X137630952Y-76516666D01*
X137630952Y-76635714D01*
X137607142Y-76730952D01*
X137583333Y-76778571D01*
X137559523Y-76802380D01*
X137511904Y-76826190D01*
X137464285Y-76826190D01*
X137416666Y-76802380D01*
X137392857Y-76778571D01*
X137369047Y-76730952D01*
X137345238Y-76635714D01*
X137345238Y-76516666D01*
X137369047Y-76421428D01*
X137392857Y-76373809D01*
X137416666Y-76350000D01*
X137464285Y-76326190D01*
X128978571Y-99483333D02*
X129002380Y-99507142D01*
X129026190Y-99578571D01*
X129026190Y-99626190D01*
X129002380Y-99697619D01*
X128954761Y-99745238D01*
X128907142Y-99769047D01*
X128811904Y-99792857D01*
X128740476Y-99792857D01*
X128645238Y-99769047D01*
X128597619Y-99745238D01*
X128550000Y-99697619D01*
X128526190Y-99626190D01*
X128526190Y-99578571D01*
X128550000Y-99507142D01*
X128573809Y-99483333D01*
X129026190Y-99245238D02*
X129026190Y-99150000D01*
X129002380Y-99102380D01*
X128978571Y-99078571D01*
X128907142Y-99030952D01*
X128811904Y-99007142D01*
X128621428Y-99007142D01*
X128573809Y-99030952D01*
X128550000Y-99054761D01*
X128526190Y-99102380D01*
X128526190Y-99197619D01*
X128550000Y-99245238D01*
X128573809Y-99269047D01*
X128621428Y-99292857D01*
X128740476Y-99292857D01*
X128788095Y-99269047D01*
X128811904Y-99245238D01*
X128835714Y-99197619D01*
X128835714Y-99102380D01*
X128811904Y-99054761D01*
X128788095Y-99030952D01*
X128740476Y-99007142D01*
X126578571Y-82745833D02*
X126602380Y-82769642D01*
X126626190Y-82841071D01*
X126626190Y-82888690D01*
X126602380Y-82960119D01*
X126554761Y-83007738D01*
X126507142Y-83031547D01*
X126411904Y-83055357D01*
X126340476Y-83055357D01*
X126245238Y-83031547D01*
X126197619Y-83007738D01*
X126150000Y-82960119D01*
X126126190Y-82888690D01*
X126126190Y-82841071D01*
X126150000Y-82769642D01*
X126173809Y-82745833D01*
X126126190Y-82317261D02*
X126126190Y-82412500D01*
X126150000Y-82460119D01*
X126173809Y-82483928D01*
X126245238Y-82531547D01*
X126340476Y-82555357D01*
X126530952Y-82555357D01*
X126578571Y-82531547D01*
X126602380Y-82507738D01*
X126626190Y-82460119D01*
X126626190Y-82364880D01*
X126602380Y-82317261D01*
X126578571Y-82293452D01*
X126530952Y-82269642D01*
X126411904Y-82269642D01*
X126364285Y-82293452D01*
X126340476Y-82317261D01*
X126316666Y-82364880D01*
X126316666Y-82460119D01*
X126340476Y-82507738D01*
X126364285Y-82531547D01*
X126411904Y-82555357D01*
X121878571Y-82683333D02*
X121902380Y-82707142D01*
X121926190Y-82778571D01*
X121926190Y-82826190D01*
X121902380Y-82897619D01*
X121854761Y-82945238D01*
X121807142Y-82969047D01*
X121711904Y-82992857D01*
X121640476Y-82992857D01*
X121545238Y-82969047D01*
X121497619Y-82945238D01*
X121450000Y-82897619D01*
X121426190Y-82826190D01*
X121426190Y-82778571D01*
X121450000Y-82707142D01*
X121473809Y-82683333D01*
X121426190Y-82230952D02*
X121426190Y-82469047D01*
X121664285Y-82492857D01*
X121640476Y-82469047D01*
X121616666Y-82421428D01*
X121616666Y-82302380D01*
X121640476Y-82254761D01*
X121664285Y-82230952D01*
X121711904Y-82207142D01*
X121830952Y-82207142D01*
X121878571Y-82230952D01*
X121902380Y-82254761D01*
X121926190Y-82302380D01*
X121926190Y-82421428D01*
X121902380Y-82469047D01*
X121878571Y-82492857D01*
X126578571Y-86883333D02*
X126602380Y-86907142D01*
X126626190Y-86978571D01*
X126626190Y-87026190D01*
X126602380Y-87097619D01*
X126554761Y-87145238D01*
X126507142Y-87169047D01*
X126411904Y-87192857D01*
X126340476Y-87192857D01*
X126245238Y-87169047D01*
X126197619Y-87145238D01*
X126150000Y-87097619D01*
X126126190Y-87026190D01*
X126126190Y-86978571D01*
X126150000Y-86907142D01*
X126173809Y-86883333D01*
X126292857Y-86454761D02*
X126626190Y-86454761D01*
X126102380Y-86573809D02*
X126459523Y-86692857D01*
X126459523Y-86383333D01*
X121878571Y-86883333D02*
X121902380Y-86907142D01*
X121926190Y-86978571D01*
X121926190Y-87026190D01*
X121902380Y-87097619D01*
X121854761Y-87145238D01*
X121807142Y-87169047D01*
X121711904Y-87192857D01*
X121640476Y-87192857D01*
X121545238Y-87169047D01*
X121497619Y-87145238D01*
X121450000Y-87097619D01*
X121426190Y-87026190D01*
X121426190Y-86978571D01*
X121450000Y-86907142D01*
X121473809Y-86883333D01*
X121426190Y-86716666D02*
X121426190Y-86407142D01*
X121616666Y-86573809D01*
X121616666Y-86502380D01*
X121640476Y-86454761D01*
X121664285Y-86430952D01*
X121711904Y-86407142D01*
X121830952Y-86407142D01*
X121878571Y-86430952D01*
X121902380Y-86454761D01*
X121926190Y-86502380D01*
X121926190Y-86645238D01*
X121902380Y-86692857D01*
X121878571Y-86716666D01*
X137316666Y-87378571D02*
X137292857Y-87402380D01*
X137221428Y-87426190D01*
X137173809Y-87426190D01*
X137102380Y-87402380D01*
X137054761Y-87354761D01*
X137030952Y-87307142D01*
X137007142Y-87211904D01*
X137007142Y-87140476D01*
X137030952Y-87045238D01*
X137054761Y-86997619D01*
X137102380Y-86950000D01*
X137173809Y-86926190D01*
X137221428Y-86926190D01*
X137292857Y-86950000D01*
X137316666Y-86973809D01*
X137507142Y-86973809D02*
X137530952Y-86950000D01*
X137578571Y-86926190D01*
X137697619Y-86926190D01*
X137745238Y-86950000D01*
X137769047Y-86973809D01*
X137792857Y-87021428D01*
X137792857Y-87069047D01*
X137769047Y-87140476D01*
X137483333Y-87426190D01*
X137792857Y-87426190D01*
X105726190Y-72871428D02*
X105488095Y-73038095D01*
X105726190Y-73157142D02*
X105226190Y-73157142D01*
X105226190Y-72966666D01*
X105250000Y-72919047D01*
X105273809Y-72895238D01*
X105321428Y-72871428D01*
X105392857Y-72871428D01*
X105440476Y-72895238D01*
X105464285Y-72919047D01*
X105488095Y-72966666D01*
X105488095Y-73157142D01*
X105273809Y-72680952D02*
X105250000Y-72657142D01*
X105226190Y-72609523D01*
X105226190Y-72490476D01*
X105250000Y-72442857D01*
X105273809Y-72419047D01*
X105321428Y-72395238D01*
X105369047Y-72395238D01*
X105440476Y-72419047D01*
X105726190Y-72704761D01*
X105726190Y-72395238D01*
X105726190Y-72157142D02*
X105726190Y-72061904D01*
X105702380Y-72014285D01*
X105678571Y-71990476D01*
X105607142Y-71942857D01*
X105511904Y-71919047D01*
X105321428Y-71919047D01*
X105273809Y-71942857D01*
X105250000Y-71966666D01*
X105226190Y-72014285D01*
X105226190Y-72109523D01*
X105250000Y-72157142D01*
X105273809Y-72180952D01*
X105321428Y-72204761D01*
X105440476Y-72204761D01*
X105488095Y-72180952D01*
X105511904Y-72157142D01*
X105535714Y-72109523D01*
X105535714Y-72014285D01*
X105511904Y-71966666D01*
X105488095Y-71942857D01*
X105440476Y-71919047D01*
X93978571Y-67726190D02*
X93811904Y-67488095D01*
X93692857Y-67726190D02*
X93692857Y-67226190D01*
X93883333Y-67226190D01*
X93930952Y-67250000D01*
X93954761Y-67273809D01*
X93978571Y-67321428D01*
X93978571Y-67392857D01*
X93954761Y-67440476D01*
X93930952Y-67464285D01*
X93883333Y-67488095D01*
X93692857Y-67488095D01*
X94169047Y-67273809D02*
X94192857Y-67250000D01*
X94240476Y-67226190D01*
X94359523Y-67226190D01*
X94407142Y-67250000D01*
X94430952Y-67273809D01*
X94454761Y-67321428D01*
X94454761Y-67369047D01*
X94430952Y-67440476D01*
X94145238Y-67726190D01*
X94454761Y-67726190D01*
X94883333Y-67392857D02*
X94883333Y-67726190D01*
X94764285Y-67202380D02*
X94645238Y-67559523D01*
X94954761Y-67559523D01*
X91678571Y-67726190D02*
X91511904Y-67488095D01*
X91392857Y-67726190D02*
X91392857Y-67226190D01*
X91583333Y-67226190D01*
X91630952Y-67250000D01*
X91654761Y-67273809D01*
X91678571Y-67321428D01*
X91678571Y-67392857D01*
X91654761Y-67440476D01*
X91630952Y-67464285D01*
X91583333Y-67488095D01*
X91392857Y-67488095D01*
X91869047Y-67273809D02*
X91892857Y-67250000D01*
X91940476Y-67226190D01*
X92059523Y-67226190D01*
X92107142Y-67250000D01*
X92130952Y-67273809D01*
X92154761Y-67321428D01*
X92154761Y-67369047D01*
X92130952Y-67440476D01*
X91845238Y-67726190D01*
X92154761Y-67726190D01*
X92321428Y-67226190D02*
X92630952Y-67226190D01*
X92464285Y-67416666D01*
X92535714Y-67416666D01*
X92583333Y-67440476D01*
X92607142Y-67464285D01*
X92630952Y-67511904D01*
X92630952Y-67630952D01*
X92607142Y-67678571D01*
X92583333Y-67702380D01*
X92535714Y-67726190D01*
X92392857Y-67726190D01*
X92345238Y-67702380D01*
X92321428Y-67678571D01*
X105726190Y-70633333D02*
X105488095Y-70800000D01*
X105726190Y-70919047D02*
X105226190Y-70919047D01*
X105226190Y-70728571D01*
X105250000Y-70680952D01*
X105273809Y-70657142D01*
X105321428Y-70633333D01*
X105392857Y-70633333D01*
X105440476Y-70657142D01*
X105464285Y-70680952D01*
X105488095Y-70728571D01*
X105488095Y-70919047D01*
X105440476Y-70347619D02*
X105416666Y-70395238D01*
X105392857Y-70419047D01*
X105345238Y-70442857D01*
X105321428Y-70442857D01*
X105273809Y-70419047D01*
X105250000Y-70395238D01*
X105226190Y-70347619D01*
X105226190Y-70252380D01*
X105250000Y-70204761D01*
X105273809Y-70180952D01*
X105321428Y-70157142D01*
X105345238Y-70157142D01*
X105392857Y-70180952D01*
X105416666Y-70204761D01*
X105440476Y-70252380D01*
X105440476Y-70347619D01*
X105464285Y-70395238D01*
X105488095Y-70419047D01*
X105535714Y-70442857D01*
X105630952Y-70442857D01*
X105678571Y-70419047D01*
X105702380Y-70395238D01*
X105726190Y-70347619D01*
X105726190Y-70252380D01*
X105702380Y-70204761D01*
X105678571Y-70180952D01*
X105630952Y-70157142D01*
X105535714Y-70157142D01*
X105488095Y-70180952D01*
X105464285Y-70204761D01*
X105440476Y-70252380D01*
X105726190Y-68633333D02*
X105488095Y-68800000D01*
X105726190Y-68919047D02*
X105226190Y-68919047D01*
X105226190Y-68728571D01*
X105250000Y-68680952D01*
X105273809Y-68657142D01*
X105321428Y-68633333D01*
X105392857Y-68633333D01*
X105440476Y-68657142D01*
X105464285Y-68680952D01*
X105488095Y-68728571D01*
X105488095Y-68919047D01*
X105226190Y-68204761D02*
X105226190Y-68300000D01*
X105250000Y-68347619D01*
X105273809Y-68371428D01*
X105345238Y-68419047D01*
X105440476Y-68442857D01*
X105630952Y-68442857D01*
X105678571Y-68419047D01*
X105702380Y-68395238D01*
X105726190Y-68347619D01*
X105726190Y-68252380D01*
X105702380Y-68204761D01*
X105678571Y-68180952D01*
X105630952Y-68157142D01*
X105511904Y-68157142D01*
X105464285Y-68180952D01*
X105440476Y-68204761D01*
X105416666Y-68252380D01*
X105416666Y-68347619D01*
X105440476Y-68395238D01*
X105464285Y-68419047D01*
X105511904Y-68442857D01*
D15*
X124561904Y-101852380D02*
X124561904Y-102661904D01*
X124609523Y-102757142D01*
X124657142Y-102804761D01*
X124752380Y-102852380D01*
X124942857Y-102852380D01*
X125038095Y-102804761D01*
X125085714Y-102757142D01*
X125133333Y-102661904D01*
X125133333Y-101852380D01*
X126133333Y-102852380D02*
X125561904Y-102852380D01*
X125847619Y-102852380D02*
X125847619Y-101852380D01*
X125752380Y-101995238D01*
X125657142Y-102090476D01*
X125561904Y-102138095D01*
X127085714Y-102852380D02*
X126514285Y-102852380D01*
X126800000Y-102852380D02*
X126800000Y-101852380D01*
X126704761Y-101995238D01*
X126609523Y-102090476D01*
X126514285Y-102138095D01*
X118466666Y-108297380D02*
X118466666Y-109011666D01*
X118419047Y-109154523D01*
X118323809Y-109249761D01*
X118180952Y-109297380D01*
X118085714Y-109297380D01*
X119466666Y-109297380D02*
X118895238Y-109297380D01*
X119180952Y-109297380D02*
X119180952Y-108297380D01*
X119085714Y-108440238D01*
X118990476Y-108535476D01*
X118895238Y-108583095D01*
D16*
X99526190Y-74130952D02*
X99526190Y-73845238D01*
X100026190Y-73988095D02*
X99526190Y-73988095D01*
X100026190Y-73678571D02*
X99526190Y-73678571D01*
X99526190Y-73488095D01*
X99550000Y-73440476D01*
X99573809Y-73416666D01*
X99621428Y-73392857D01*
X99692857Y-73392857D01*
X99740476Y-73416666D01*
X99764285Y-73440476D01*
X99788095Y-73488095D01*
X99788095Y-73678571D01*
X99573809Y-73202380D02*
X99550000Y-73178571D01*
X99526190Y-73130952D01*
X99526190Y-73011904D01*
X99550000Y-72964285D01*
X99573809Y-72940476D01*
X99621428Y-72916666D01*
X99669047Y-72916666D01*
X99740476Y-72940476D01*
X100026190Y-73226190D01*
X100026190Y-72916666D01*
D15*
X102452380Y-105233333D02*
X103166666Y-105233333D01*
X103309523Y-105280952D01*
X103404761Y-105376190D01*
X103452380Y-105519047D01*
X103452380Y-105614285D01*
X102452380Y-104280952D02*
X102452380Y-104757142D01*
X102928571Y-104804761D01*
X102880952Y-104757142D01*
X102833333Y-104661904D01*
X102833333Y-104423809D01*
X102880952Y-104328571D01*
X102928571Y-104280952D01*
X103023809Y-104233333D01*
X103261904Y-104233333D01*
X103357142Y-104280952D01*
X103404761Y-104328571D01*
X103452380Y-104423809D01*
X103452380Y-104661904D01*
X103404761Y-104757142D01*
X103357142Y-104804761D01*
X112888095Y-73452380D02*
X112888095Y-74261904D01*
X112935714Y-74357142D01*
X112983333Y-74404761D01*
X113078571Y-74452380D01*
X113269047Y-74452380D01*
X113364285Y-74404761D01*
X113411904Y-74357142D01*
X113459523Y-74261904D01*
X113459523Y-73452380D01*
X114459523Y-74452380D02*
X113888095Y-74452380D01*
X114173809Y-74452380D02*
X114173809Y-73452380D01*
X114078571Y-73595238D01*
X113983333Y-73690476D01*
X113888095Y-73738095D01*
X102416666Y-73832380D02*
X102416666Y-74546666D01*
X102369047Y-74689523D01*
X102273809Y-74784761D01*
X102130952Y-74832380D01*
X102035714Y-74832380D01*
X102940476Y-74832380D02*
X103130952Y-74832380D01*
X103226190Y-74784761D01*
X103273809Y-74737142D01*
X103369047Y-74594285D01*
X103416666Y-74403809D01*
X103416666Y-74022857D01*
X103369047Y-73927619D01*
X103321428Y-73880000D01*
X103226190Y-73832380D01*
X103035714Y-73832380D01*
X102940476Y-73880000D01*
X102892857Y-73927619D01*
X102845238Y-74022857D01*
X102845238Y-74260952D01*
X102892857Y-74356190D01*
X102940476Y-74403809D01*
X103035714Y-74451428D01*
X103226190Y-74451428D01*
X103321428Y-74403809D01*
X103369047Y-74356190D01*
X103416666Y-74260952D01*
X80557619Y-71215238D02*
X80510000Y-71310476D01*
X80414761Y-71405714D01*
X80271904Y-71548571D01*
X80224285Y-71643809D01*
X80224285Y-71739047D01*
X80462380Y-71691428D02*
X80414761Y-71786666D01*
X80319523Y-71881904D01*
X80129047Y-71929523D01*
X79795714Y-71929523D01*
X79605238Y-71881904D01*
X79510000Y-71786666D01*
X79462380Y-71691428D01*
X79462380Y-71500952D01*
X79510000Y-71405714D01*
X79605238Y-71310476D01*
X79795714Y-71262857D01*
X80129047Y-71262857D01*
X80319523Y-71310476D01*
X80414761Y-71405714D01*
X80462380Y-71500952D01*
X80462380Y-71691428D01*
X79557619Y-70881904D02*
X79510000Y-70834285D01*
X79462380Y-70739047D01*
X79462380Y-70500952D01*
X79510000Y-70405714D01*
X79557619Y-70358095D01*
X79652857Y-70310476D01*
X79748095Y-70310476D01*
X79890952Y-70358095D01*
X80462380Y-70929523D01*
X80462380Y-70310476D01*
X128490476Y-74652380D02*
X128490476Y-75366666D01*
X128442857Y-75509523D01*
X128347619Y-75604761D01*
X128204761Y-75652380D01*
X128109523Y-75652380D01*
X129490476Y-75652380D02*
X128919047Y-75652380D01*
X129204761Y-75652380D02*
X129204761Y-74652380D01*
X129109523Y-74795238D01*
X129014285Y-74890476D01*
X128919047Y-74938095D01*
X129871428Y-74747619D02*
X129919047Y-74700000D01*
X130014285Y-74652380D01*
X130252380Y-74652380D01*
X130347619Y-74700000D01*
X130395238Y-74747619D01*
X130442857Y-74842857D01*
X130442857Y-74938095D01*
X130395238Y-75080952D01*
X129823809Y-75652380D01*
X130442857Y-75652380D01*
X119490476Y-74652380D02*
X119490476Y-75366666D01*
X119442857Y-75509523D01*
X119347619Y-75604761D01*
X119204761Y-75652380D01*
X119109523Y-75652380D01*
X120490476Y-75652380D02*
X119919047Y-75652380D01*
X120204761Y-75652380D02*
X120204761Y-74652380D01*
X120109523Y-74795238D01*
X120014285Y-74890476D01*
X119919047Y-74938095D01*
X121442857Y-75652380D02*
X120871428Y-75652380D01*
X121157142Y-75652380D02*
X121157142Y-74652380D01*
X121061904Y-74795238D01*
X120966666Y-74890476D01*
X120871428Y-74938095D01*
X118652380Y-103509523D02*
X119366666Y-103509523D01*
X119509523Y-103557142D01*
X119604761Y-103652380D01*
X119652380Y-103795238D01*
X119652380Y-103890476D01*
X119652380Y-102509523D02*
X119652380Y-103080952D01*
X119652380Y-102795238D02*
X118652380Y-102795238D01*
X118795238Y-102890476D01*
X118890476Y-102985714D01*
X118938095Y-103080952D01*
X118652380Y-101890476D02*
X118652380Y-101795238D01*
X118700000Y-101700000D01*
X118747619Y-101652380D01*
X118842857Y-101604761D01*
X119033333Y-101557142D01*
X119271428Y-101557142D01*
X119461904Y-101604761D01*
X119557142Y-101652380D01*
X119604761Y-101700000D01*
X119652380Y-101795238D01*
X119652380Y-101890476D01*
X119604761Y-101985714D01*
X119557142Y-102033333D01*
X119461904Y-102080952D01*
X119271428Y-102128571D01*
X119033333Y-102128571D01*
X118842857Y-102080952D01*
X118747619Y-102033333D01*
X118700000Y-101985714D01*
X118652380Y-101890476D01*
X110552380Y-105233333D02*
X111266666Y-105233333D01*
X111409523Y-105280952D01*
X111504761Y-105376190D01*
X111552380Y-105519047D01*
X111552380Y-105614285D01*
X110980952Y-104614285D02*
X110933333Y-104709523D01*
X110885714Y-104757142D01*
X110790476Y-104804761D01*
X110742857Y-104804761D01*
X110647619Y-104757142D01*
X110600000Y-104709523D01*
X110552380Y-104614285D01*
X110552380Y-104423809D01*
X110600000Y-104328571D01*
X110647619Y-104280952D01*
X110742857Y-104233333D01*
X110790476Y-104233333D01*
X110885714Y-104280952D01*
X110933333Y-104328571D01*
X110980952Y-104423809D01*
X110980952Y-104614285D01*
X111028571Y-104709523D01*
X111076190Y-104757142D01*
X111171428Y-104804761D01*
X111361904Y-104804761D01*
X111457142Y-104757142D01*
X111504761Y-104709523D01*
X111552380Y-104614285D01*
X111552380Y-104423809D01*
X111504761Y-104328571D01*
X111457142Y-104280952D01*
X111361904Y-104233333D01*
X111171428Y-104233333D01*
X111076190Y-104280952D01*
X111028571Y-104328571D01*
X110980952Y-104423809D01*
X87266666Y-108297380D02*
X87266666Y-109011666D01*
X87219047Y-109154523D01*
X87123809Y-109249761D01*
X86980952Y-109297380D01*
X86885714Y-109297380D01*
X87647619Y-108297380D02*
X88314285Y-108297380D01*
X87885714Y-109297380D01*
X100466666Y-108297380D02*
X100466666Y-109011666D01*
X100419047Y-109154523D01*
X100323809Y-109249761D01*
X100180952Y-109297380D01*
X100085714Y-109297380D01*
X101371428Y-108297380D02*
X101180952Y-108297380D01*
X101085714Y-108345000D01*
X101038095Y-108392619D01*
X100942857Y-108535476D01*
X100895238Y-108725952D01*
X100895238Y-109106904D01*
X100942857Y-109202142D01*
X100990476Y-109249761D01*
X101085714Y-109297380D01*
X101276190Y-109297380D01*
X101371428Y-109249761D01*
X101419047Y-109202142D01*
X101466666Y-109106904D01*
X101466666Y-108868809D01*
X101419047Y-108773571D01*
X101371428Y-108725952D01*
X101276190Y-108678333D01*
X101085714Y-108678333D01*
X100990476Y-108725952D01*
X100942857Y-108773571D01*
X100895238Y-108868809D01*
D16*
X88852380Y-67673809D02*
X88804761Y-67650000D01*
X88757142Y-67602380D01*
X88685714Y-67530952D01*
X88638095Y-67507142D01*
X88590476Y-67507142D01*
X88614285Y-67626190D02*
X88566666Y-67602380D01*
X88519047Y-67554761D01*
X88495238Y-67459523D01*
X88495238Y-67292857D01*
X88519047Y-67197619D01*
X88566666Y-67150000D01*
X88614285Y-67126190D01*
X88709523Y-67126190D01*
X88757142Y-67150000D01*
X88804761Y-67197619D01*
X88828571Y-67292857D01*
X88828571Y-67459523D01*
X88804761Y-67554761D01*
X88757142Y-67602380D01*
X88709523Y-67626190D01*
X88614285Y-67626190D01*
X89304761Y-67626190D02*
X89019047Y-67626190D01*
X89161904Y-67626190D02*
X89161904Y-67126190D01*
X89114285Y-67197619D01*
X89066666Y-67245238D01*
X89019047Y-67269047D01*
D15*
X81338095Y-64852380D02*
X81338095Y-63852380D01*
X81338095Y-64328571D02*
X81909523Y-64328571D01*
X81909523Y-64852380D02*
X81909523Y-63852380D01*
X82909523Y-64852380D02*
X82338095Y-64852380D01*
X82623809Y-64852380D02*
X82623809Y-63852380D01*
X82528571Y-63995238D01*
X82433333Y-64090476D01*
X82338095Y-64138095D01*
X139338095Y-64872380D02*
X139338095Y-63872380D01*
X139338095Y-64348571D02*
X139909523Y-64348571D01*
X139909523Y-64872380D02*
X139909523Y-63872380D01*
X140338095Y-63967619D02*
X140385714Y-63920000D01*
X140480952Y-63872380D01*
X140719047Y-63872380D01*
X140814285Y-63920000D01*
X140861904Y-63967619D01*
X140909523Y-64062857D01*
X140909523Y-64158095D01*
X140861904Y-64300952D01*
X140290476Y-64872380D01*
X140909523Y-64872380D01*
X81338095Y-113862380D02*
X81338095Y-112862380D01*
X81338095Y-113338571D02*
X81909523Y-113338571D01*
X81909523Y-113862380D02*
X81909523Y-112862380D01*
X82290476Y-112862380D02*
X82909523Y-112862380D01*
X82576190Y-113243333D01*
X82719047Y-113243333D01*
X82814285Y-113290952D01*
X82861904Y-113338571D01*
X82909523Y-113433809D01*
X82909523Y-113671904D01*
X82861904Y-113767142D01*
X82814285Y-113814761D01*
X82719047Y-113862380D01*
X82433333Y-113862380D01*
X82338095Y-113814761D01*
X82290476Y-113767142D01*
X139328095Y-113852380D02*
X139328095Y-112852380D01*
X139328095Y-113328571D02*
X139899523Y-113328571D01*
X139899523Y-113852380D02*
X139899523Y-112852380D01*
X140804285Y-113185714D02*
X140804285Y-113852380D01*
X140566190Y-112804761D02*
X140328095Y-113519047D01*
X140947142Y-113519047D01*
M02*
