G04 #@! TF.GenerationSoftware,KiCad,Pcbnew,5.1.5-52549c5~84~ubuntu19.10.1*
G04 #@! TF.CreationDate,2019-12-17T22:32:53+01:00*
G04 #@! TF.ProjectId,pi-hat,70692d68-6174-42e6-9b69-6361645f7063,rev?*
G04 #@! TF.SameCoordinates,Original*
G04 #@! TF.FileFunction,Legend,Bot*
G04 #@! TF.FilePolarity,Positive*
%FSLAX46Y46*%
G04 Gerber Fmt 4.6, Leading zero omitted, Abs format (unit mm)*
G04 Created by KiCad (PCBNEW 5.1.5-52549c5~84~ubuntu19.10.1) date 2019-12-17 22:32:53*
%MOMM*%
%LPD*%
G04 APERTURE LIST*
%ADD10C,0.127000*%
%ADD11C,0.300000*%
%ADD12C,0.100000*%
%ADD13C,0.120000*%
%ADD14C,0.150000*%
%ADD15C,0.125000*%
G04 APERTURE END LIST*
D10*
X142742857Y-77521428D02*
X142742857Y-76921428D01*
X142514285Y-76921428D01*
X142457142Y-76950000D01*
X142428571Y-76978571D01*
X142400000Y-77035714D01*
X142400000Y-77121428D01*
X142428571Y-77178571D01*
X142457142Y-77207142D01*
X142514285Y-77235714D01*
X142742857Y-77235714D01*
X142200000Y-76921428D02*
X141828571Y-76921428D01*
X142028571Y-77150000D01*
X141942857Y-77150000D01*
X141885714Y-77178571D01*
X141857142Y-77207142D01*
X141828571Y-77264285D01*
X141828571Y-77407142D01*
X141857142Y-77464285D01*
X141885714Y-77492857D01*
X141942857Y-77521428D01*
X142114285Y-77521428D01*
X142171428Y-77492857D01*
X142200000Y-77464285D01*
X141657142Y-76921428D02*
X141457142Y-77521428D01*
X141257142Y-76921428D01*
X141114285Y-76921428D02*
X140742857Y-76921428D01*
X140942857Y-77150000D01*
X140857142Y-77150000D01*
X140800000Y-77178571D01*
X140771428Y-77207142D01*
X140742857Y-77264285D01*
X140742857Y-77407142D01*
X140771428Y-77464285D01*
X140800000Y-77492857D01*
X140857142Y-77521428D01*
X141028571Y-77521428D01*
X141085714Y-77492857D01*
X141114285Y-77464285D01*
X140514285Y-77350000D02*
X140228571Y-77350000D01*
X140571428Y-77521428D02*
X140371428Y-76921428D01*
X140171428Y-77521428D01*
X142735714Y-73521428D02*
X142735714Y-72921428D01*
X142507142Y-72921428D01*
X142450000Y-72950000D01*
X142421428Y-72978571D01*
X142392857Y-73035714D01*
X142392857Y-73121428D01*
X142421428Y-73178571D01*
X142450000Y-73207142D01*
X142507142Y-73235714D01*
X142735714Y-73235714D01*
X142192857Y-72921428D02*
X141821428Y-72921428D01*
X142021428Y-73150000D01*
X141935714Y-73150000D01*
X141878571Y-73178571D01*
X141850000Y-73207142D01*
X141821428Y-73264285D01*
X141821428Y-73407142D01*
X141850000Y-73464285D01*
X141878571Y-73492857D01*
X141935714Y-73521428D01*
X142107142Y-73521428D01*
X142164285Y-73492857D01*
X142192857Y-73464285D01*
X141650000Y-72921428D02*
X141450000Y-73521428D01*
X141250000Y-72921428D01*
X141107142Y-72921428D02*
X140735714Y-72921428D01*
X140935714Y-73150000D01*
X140850000Y-73150000D01*
X140792857Y-73178571D01*
X140764285Y-73207142D01*
X140735714Y-73264285D01*
X140735714Y-73407142D01*
X140764285Y-73464285D01*
X140792857Y-73492857D01*
X140850000Y-73521428D01*
X141021428Y-73521428D01*
X141078571Y-73492857D01*
X141107142Y-73464285D01*
D11*
X127357142Y-114178571D02*
X126428571Y-114178571D01*
X126928571Y-114750000D01*
X126714285Y-114750000D01*
X126571428Y-114821428D01*
X126500000Y-114892857D01*
X126428571Y-115035714D01*
X126428571Y-115392857D01*
X126500000Y-115535714D01*
X126571428Y-115607142D01*
X126714285Y-115678571D01*
X127142857Y-115678571D01*
X127285714Y-115607142D01*
X127357142Y-115535714D01*
X125500000Y-114178571D02*
X125357142Y-114178571D01*
X125214285Y-114250000D01*
X125142857Y-114321428D01*
X125071428Y-114464285D01*
X125000000Y-114750000D01*
X125000000Y-115107142D01*
X125071428Y-115392857D01*
X125142857Y-115535714D01*
X125214285Y-115607142D01*
X125357142Y-115678571D01*
X125500000Y-115678571D01*
X125642857Y-115607142D01*
X125714285Y-115535714D01*
X125785714Y-115392857D01*
X125857142Y-115107142D01*
X125857142Y-114750000D01*
X125785714Y-114464285D01*
X125714285Y-114321428D01*
X125642857Y-114250000D01*
X125500000Y-114178571D01*
X124571428Y-114178571D02*
X124071428Y-115678571D01*
X123571428Y-114178571D01*
X106107142Y-114178571D02*
X105178571Y-114178571D01*
X105678571Y-114750000D01*
X105464285Y-114750000D01*
X105321428Y-114821428D01*
X105250000Y-114892857D01*
X105178571Y-115035714D01*
X105178571Y-115392857D01*
X105250000Y-115535714D01*
X105321428Y-115607142D01*
X105464285Y-115678571D01*
X105892857Y-115678571D01*
X106035714Y-115607142D01*
X106107142Y-115535714D01*
X104250000Y-114178571D02*
X104107142Y-114178571D01*
X103964285Y-114250000D01*
X103892857Y-114321428D01*
X103821428Y-114464285D01*
X103750000Y-114750000D01*
X103750000Y-115107142D01*
X103821428Y-115392857D01*
X103892857Y-115535714D01*
X103964285Y-115607142D01*
X104107142Y-115678571D01*
X104250000Y-115678571D01*
X104392857Y-115607142D01*
X104464285Y-115535714D01*
X104535714Y-115392857D01*
X104607142Y-115107142D01*
X104607142Y-114750000D01*
X104535714Y-114464285D01*
X104464285Y-114321428D01*
X104392857Y-114250000D01*
X104250000Y-114178571D01*
X103321428Y-114178571D02*
X102821428Y-115678571D01*
X102321428Y-114178571D01*
D12*
X78546356Y-63817611D02*
G75*
G02X81546356Y-60817611I3000000J0D01*
G01*
X78546356Y-63817611D02*
X78546356Y-113817611D01*
X140546356Y-60817611D02*
X81546356Y-60817611D01*
X140546356Y-60817611D02*
G75*
G02X143546356Y-63817611I0J-3000000D01*
G01*
X143546356Y-113817611D02*
X143546356Y-63817611D01*
X81546356Y-116817611D02*
G75*
G02X78546356Y-113817611I0J3000000D01*
G01*
X81546356Y-116817611D02*
X140546356Y-116817611D01*
X143546356Y-113817611D02*
G75*
G02X140546356Y-116817611I-3000000J0D01*
G01*
D13*
X86800000Y-102050000D02*
X84500000Y-102050000D01*
X85200000Y-98850000D02*
X86800000Y-98850000D01*
X86960000Y-94300000D02*
X84660000Y-94300000D01*
X85360000Y-91100000D02*
X86960000Y-91100000D01*
X102935000Y-79140000D02*
X102935000Y-77325000D01*
X102690000Y-79140000D02*
X102935000Y-79140000D01*
X102690000Y-83000000D02*
X102690000Y-79140000D01*
X102690000Y-86860000D02*
X102935000Y-86860000D01*
X102690000Y-83000000D02*
X102690000Y-86860000D01*
X120810000Y-79140000D02*
X120565000Y-79140000D01*
X120810000Y-83000000D02*
X120810000Y-79140000D01*
X120810000Y-86860000D02*
X120565000Y-86860000D01*
X120810000Y-83000000D02*
X120810000Y-86860000D01*
X113928922Y-73290000D02*
X114446078Y-73290000D01*
X113928922Y-74710000D02*
X114446078Y-74710000D01*
X113928922Y-75290000D02*
X114446078Y-75290000D01*
X113928922Y-76710000D02*
X114446078Y-76710000D01*
X91678922Y-73290000D02*
X92196078Y-73290000D01*
X91678922Y-74710000D02*
X92196078Y-74710000D01*
X91678922Y-75290000D02*
X92196078Y-75290000D01*
X91678922Y-76710000D02*
X92196078Y-76710000D01*
X131460000Y-80678922D02*
X131460000Y-81196078D01*
X130040000Y-80678922D02*
X130040000Y-81196078D01*
X128790000Y-84571078D02*
X128790000Y-84053922D01*
X130210000Y-84571078D02*
X130210000Y-84053922D01*
X101421000Y-77592422D02*
X101421000Y-78109578D01*
X100001000Y-77592422D02*
X100001000Y-78109578D01*
X113590000Y-108626078D02*
X113590000Y-108108922D01*
X115010000Y-108626078D02*
X115010000Y-108108922D01*
X116130000Y-108626078D02*
X116130000Y-108108922D01*
X117550000Y-108626078D02*
X117550000Y-108108922D01*
X81565922Y-108002000D02*
X82083078Y-108002000D01*
X81565922Y-109422000D02*
X82083078Y-109422000D01*
X91181422Y-108510000D02*
X91698578Y-108510000D01*
X91181422Y-109930000D02*
X91698578Y-109930000D01*
X118750000Y-101430000D02*
X117750000Y-101430000D01*
X118750000Y-98070000D02*
X117750000Y-98070000D01*
X110600000Y-101480000D02*
X109600000Y-101480000D01*
X110600000Y-98120000D02*
X109600000Y-98120000D01*
X102650000Y-101530000D02*
X101650000Y-101530000D01*
X102650000Y-98170000D02*
X101650000Y-98170000D01*
X94150000Y-101380000D02*
X93150000Y-101380000D01*
X94150000Y-98020000D02*
X93150000Y-98020000D01*
X86600000Y-98280000D02*
X85600000Y-98280000D01*
X86600000Y-94920000D02*
X85600000Y-94920000D01*
X86500000Y-106080000D02*
X85500000Y-106080000D01*
X86500000Y-102720000D02*
X85500000Y-102720000D01*
X80685000Y-79140000D02*
X80685000Y-77325000D01*
X80440000Y-79140000D02*
X80685000Y-79140000D01*
X80440000Y-83000000D02*
X80440000Y-79140000D01*
X80440000Y-86860000D02*
X80685000Y-86860000D01*
X80440000Y-83000000D02*
X80440000Y-86860000D01*
X98560000Y-79140000D02*
X98315000Y-79140000D01*
X98560000Y-83000000D02*
X98560000Y-79140000D01*
X98560000Y-86860000D02*
X98315000Y-86860000D01*
X98560000Y-83000000D02*
X98560000Y-86860000D01*
X119050000Y-97100000D02*
X116750000Y-97100000D01*
X117450000Y-93900000D02*
X119050000Y-93900000D01*
X110800000Y-97100000D02*
X108500000Y-97100000D01*
X109200000Y-93900000D02*
X110800000Y-93900000D01*
X102960000Y-97050000D02*
X100660000Y-97050000D01*
X101360000Y-93850000D02*
X102960000Y-93850000D01*
X94460000Y-97650000D02*
X92160000Y-97650000D01*
X92860000Y-94450000D02*
X94460000Y-94450000D01*
X118235000Y-112720000D02*
X118235000Y-113650000D01*
X118235000Y-115880000D02*
X118235000Y-114950000D01*
X118235000Y-115880000D02*
X116075000Y-115880000D01*
X118235000Y-112720000D02*
X116775000Y-112720000D01*
X87485000Y-107960000D02*
X86025000Y-107960000D01*
X87485000Y-111120000D02*
X85325000Y-111120000D01*
X87485000Y-111120000D02*
X87485000Y-110190000D01*
X87485000Y-107960000D02*
X87485000Y-108890000D01*
X85590000Y-61720000D02*
X85590000Y-64320000D01*
X85590000Y-61720000D02*
X136510000Y-61720000D01*
X136510000Y-61720000D02*
X136510000Y-66920000D01*
X88190000Y-66920000D02*
X136510000Y-66920000D01*
X88190000Y-64320000D02*
X88190000Y-66920000D01*
X85590000Y-64320000D02*
X88190000Y-64320000D01*
X85590000Y-66920000D02*
X86920000Y-66920000D01*
X85590000Y-65590000D02*
X85590000Y-66920000D01*
D14*
X87971380Y-99695095D02*
X88780904Y-99695095D01*
X88876142Y-99742714D01*
X88923761Y-99790333D01*
X88971380Y-99885571D01*
X88971380Y-100076047D01*
X88923761Y-100171285D01*
X88876142Y-100218904D01*
X88780904Y-100266523D01*
X87971380Y-100266523D01*
X88066619Y-100695095D02*
X88019000Y-100742714D01*
X87971380Y-100837952D01*
X87971380Y-101076047D01*
X88019000Y-101171285D01*
X88066619Y-101218904D01*
X88161857Y-101266523D01*
X88257095Y-101266523D01*
X88399952Y-101218904D01*
X88971380Y-100647476D01*
X88971380Y-101266523D01*
X88098380Y-91948095D02*
X88907904Y-91948095D01*
X89003142Y-91995714D01*
X89050761Y-92043333D01*
X89098380Y-92138571D01*
X89098380Y-92329047D01*
X89050761Y-92424285D01*
X89003142Y-92471904D01*
X88907904Y-92519523D01*
X88098380Y-92519523D01*
X88098380Y-92900476D02*
X88098380Y-93519523D01*
X88479333Y-93186190D01*
X88479333Y-93329047D01*
X88526952Y-93424285D01*
X88574571Y-93471904D01*
X88669809Y-93519523D01*
X88907904Y-93519523D01*
X89003142Y-93471904D01*
X89050761Y-93424285D01*
X89098380Y-93329047D01*
X89098380Y-93043333D01*
X89050761Y-92948095D01*
X89003142Y-92900476D01*
X101302380Y-82238095D02*
X102111904Y-82238095D01*
X102207142Y-82285714D01*
X102254761Y-82333333D01*
X102302380Y-82428571D01*
X102302380Y-82619047D01*
X102254761Y-82714285D01*
X102207142Y-82761904D01*
X102111904Y-82809523D01*
X101302380Y-82809523D01*
X102302380Y-83333333D02*
X102302380Y-83523809D01*
X102254761Y-83619047D01*
X102207142Y-83666666D01*
X102064285Y-83761904D01*
X101873809Y-83809523D01*
X101492857Y-83809523D01*
X101397619Y-83761904D01*
X101350000Y-83714285D01*
X101302380Y-83619047D01*
X101302380Y-83428571D01*
X101350000Y-83333333D01*
X101397619Y-83285714D01*
X101492857Y-83238095D01*
X101730952Y-83238095D01*
X101826190Y-83285714D01*
X101873809Y-83333333D01*
X101921428Y-83428571D01*
X101921428Y-83619047D01*
X101873809Y-83714285D01*
X101826190Y-83761904D01*
X101730952Y-83809523D01*
D15*
X116478571Y-73678571D02*
X116502380Y-73654761D01*
X116526190Y-73583333D01*
X116526190Y-73535714D01*
X116502380Y-73464285D01*
X116454761Y-73416666D01*
X116407142Y-73392857D01*
X116311904Y-73369047D01*
X116240476Y-73369047D01*
X116145238Y-73392857D01*
X116097619Y-73416666D01*
X116050000Y-73464285D01*
X116026190Y-73535714D01*
X116026190Y-73583333D01*
X116050000Y-73654761D01*
X116073809Y-73678571D01*
X116526190Y-74154761D02*
X116526190Y-73869047D01*
X116526190Y-74011904D02*
X116026190Y-74011904D01*
X116097619Y-73964285D01*
X116145238Y-73916666D01*
X116169047Y-73869047D01*
X116026190Y-74321428D02*
X116026190Y-74654761D01*
X116526190Y-74440476D01*
X116478571Y-75678571D02*
X116502380Y-75654761D01*
X116526190Y-75583333D01*
X116526190Y-75535714D01*
X116502380Y-75464285D01*
X116454761Y-75416666D01*
X116407142Y-75392857D01*
X116311904Y-75369047D01*
X116240476Y-75369047D01*
X116145238Y-75392857D01*
X116097619Y-75416666D01*
X116050000Y-75464285D01*
X116026190Y-75535714D01*
X116026190Y-75583333D01*
X116050000Y-75654761D01*
X116073809Y-75678571D01*
X116526190Y-76154761D02*
X116526190Y-75869047D01*
X116526190Y-76011904D02*
X116026190Y-76011904D01*
X116097619Y-75964285D01*
X116145238Y-75916666D01*
X116169047Y-75869047D01*
X116026190Y-76583333D02*
X116026190Y-76488095D01*
X116050000Y-76440476D01*
X116073809Y-76416666D01*
X116145238Y-76369047D01*
X116240476Y-76345238D01*
X116430952Y-76345238D01*
X116478571Y-76369047D01*
X116502380Y-76392857D01*
X116526190Y-76440476D01*
X116526190Y-76535714D01*
X116502380Y-76583333D01*
X116478571Y-76607142D01*
X116430952Y-76630952D01*
X116311904Y-76630952D01*
X116264285Y-76607142D01*
X116240476Y-76583333D01*
X116216666Y-76535714D01*
X116216666Y-76440476D01*
X116240476Y-76392857D01*
X116264285Y-76369047D01*
X116311904Y-76345238D01*
D14*
X95638857Y-74271142D02*
X95686476Y-74318761D01*
X95829333Y-74366380D01*
X95924571Y-74366380D01*
X96067428Y-74318761D01*
X96162666Y-74223523D01*
X96210285Y-74128285D01*
X96257904Y-73937809D01*
X96257904Y-73794952D01*
X96210285Y-73604476D01*
X96162666Y-73509238D01*
X96067428Y-73414000D01*
X95924571Y-73366380D01*
X95829333Y-73366380D01*
X95686476Y-73414000D01*
X95638857Y-73461619D01*
X94686476Y-74366380D02*
X95257904Y-74366380D01*
X94972190Y-74366380D02*
X94972190Y-73366380D01*
X95067428Y-73509238D01*
X95162666Y-73604476D01*
X95257904Y-73652095D01*
X93781714Y-73366380D02*
X94257904Y-73366380D01*
X94305523Y-73842571D01*
X94257904Y-73794952D01*
X94162666Y-73747333D01*
X93924571Y-73747333D01*
X93829333Y-73794952D01*
X93781714Y-73842571D01*
X93734095Y-73937809D01*
X93734095Y-74175904D01*
X93781714Y-74271142D01*
X93829333Y-74318761D01*
X93924571Y-74366380D01*
X94162666Y-74366380D01*
X94257904Y-74318761D01*
X94305523Y-74271142D01*
X95638857Y-76303142D02*
X95686476Y-76350761D01*
X95829333Y-76398380D01*
X95924571Y-76398380D01*
X96067428Y-76350761D01*
X96162666Y-76255523D01*
X96210285Y-76160285D01*
X96257904Y-75969809D01*
X96257904Y-75826952D01*
X96210285Y-75636476D01*
X96162666Y-75541238D01*
X96067428Y-75446000D01*
X95924571Y-75398380D01*
X95829333Y-75398380D01*
X95686476Y-75446000D01*
X95638857Y-75493619D01*
X94686476Y-76398380D02*
X95257904Y-76398380D01*
X94972190Y-76398380D02*
X94972190Y-75398380D01*
X95067428Y-75541238D01*
X95162666Y-75636476D01*
X95257904Y-75684095D01*
X93829333Y-75731714D02*
X93829333Y-76398380D01*
X94067428Y-75350761D02*
X94305523Y-76065047D01*
X93686476Y-76065047D01*
X132691142Y-80605333D02*
X132738761Y-80557714D01*
X132786380Y-80414857D01*
X132786380Y-80319619D01*
X132738761Y-80176761D01*
X132643523Y-80081523D01*
X132548285Y-80033904D01*
X132357809Y-79986285D01*
X132214952Y-79986285D01*
X132024476Y-80033904D01*
X131929238Y-80081523D01*
X131834000Y-80176761D01*
X131786380Y-80319619D01*
X131786380Y-80414857D01*
X131834000Y-80557714D01*
X131881619Y-80605333D01*
X132214952Y-81176761D02*
X132167333Y-81081523D01*
X132119714Y-81033904D01*
X132024476Y-80986285D01*
X131976857Y-80986285D01*
X131881619Y-81033904D01*
X131834000Y-81081523D01*
X131786380Y-81176761D01*
X131786380Y-81367238D01*
X131834000Y-81462476D01*
X131881619Y-81510095D01*
X131976857Y-81557714D01*
X132024476Y-81557714D01*
X132119714Y-81510095D01*
X132167333Y-81462476D01*
X132214952Y-81367238D01*
X132214952Y-81176761D01*
X132262571Y-81081523D01*
X132310190Y-81033904D01*
X132405428Y-80986285D01*
X132595904Y-80986285D01*
X132691142Y-81033904D01*
X132738761Y-81081523D01*
X132786380Y-81176761D01*
X132786380Y-81367238D01*
X132738761Y-81462476D01*
X132691142Y-81510095D01*
X132595904Y-81557714D01*
X132405428Y-81557714D01*
X132310190Y-81510095D01*
X132262571Y-81462476D01*
X132214952Y-81367238D01*
X131421142Y-83907333D02*
X131468761Y-83859714D01*
X131516380Y-83716857D01*
X131516380Y-83621619D01*
X131468761Y-83478761D01*
X131373523Y-83383523D01*
X131278285Y-83335904D01*
X131087809Y-83288285D01*
X130944952Y-83288285D01*
X130754476Y-83335904D01*
X130659238Y-83383523D01*
X130564000Y-83478761D01*
X130516380Y-83621619D01*
X130516380Y-83716857D01*
X130564000Y-83859714D01*
X130611619Y-83907333D01*
X130516380Y-84240666D02*
X130516380Y-84907333D01*
X131516380Y-84478761D01*
X99513380Y-77684333D02*
X99037190Y-77351000D01*
X99513380Y-77112904D02*
X98513380Y-77112904D01*
X98513380Y-77493857D01*
X98561000Y-77589095D01*
X98608619Y-77636714D01*
X98703857Y-77684333D01*
X98846714Y-77684333D01*
X98941952Y-77636714D01*
X98989571Y-77589095D01*
X99037190Y-77493857D01*
X99037190Y-77112904D01*
X98513380Y-78589095D02*
X98513380Y-78112904D01*
X98989571Y-78065285D01*
X98941952Y-78112904D01*
X98894333Y-78208142D01*
X98894333Y-78446238D01*
X98941952Y-78541476D01*
X98989571Y-78589095D01*
X99084809Y-78636714D01*
X99322904Y-78636714D01*
X99418142Y-78589095D01*
X99465761Y-78541476D01*
X99513380Y-78446238D01*
X99513380Y-78208142D01*
X99465761Y-78112904D01*
X99418142Y-78065285D01*
X114752380Y-105624333D02*
X114276190Y-105291000D01*
X114752380Y-105052904D02*
X113752380Y-105052904D01*
X113752380Y-105433857D01*
X113800000Y-105529095D01*
X113847619Y-105576714D01*
X113942857Y-105624333D01*
X114085714Y-105624333D01*
X114180952Y-105576714D01*
X114228571Y-105529095D01*
X114276190Y-105433857D01*
X114276190Y-105052904D01*
X114085714Y-106481476D02*
X114752380Y-106481476D01*
X113704761Y-106243380D02*
X114419047Y-106005285D01*
X114419047Y-106624333D01*
X117292380Y-105624333D02*
X116816190Y-105291000D01*
X117292380Y-105052904D02*
X116292380Y-105052904D01*
X116292380Y-105433857D01*
X116340000Y-105529095D01*
X116387619Y-105576714D01*
X116482857Y-105624333D01*
X116625714Y-105624333D01*
X116720952Y-105576714D01*
X116768571Y-105529095D01*
X116816190Y-105433857D01*
X116816190Y-105052904D01*
X116292380Y-105957666D02*
X116292380Y-106576714D01*
X116673333Y-106243380D01*
X116673333Y-106386238D01*
X116720952Y-106481476D01*
X116768571Y-106529095D01*
X116863809Y-106576714D01*
X117101904Y-106576714D01*
X117197142Y-106529095D01*
X117244761Y-106481476D01*
X117292380Y-106386238D01*
X117292380Y-106100523D01*
X117244761Y-106005285D01*
X117197142Y-105957666D01*
X81954666Y-107640380D02*
X82288000Y-107164190D01*
X82526095Y-107640380D02*
X82526095Y-106640380D01*
X82145142Y-106640380D01*
X82049904Y-106688000D01*
X82002285Y-106735619D01*
X81954666Y-106830857D01*
X81954666Y-106973714D01*
X82002285Y-107068952D01*
X82049904Y-107116571D01*
X82145142Y-107164190D01*
X82526095Y-107164190D01*
X81573714Y-106735619D02*
X81526095Y-106688000D01*
X81430857Y-106640380D01*
X81192761Y-106640380D01*
X81097523Y-106688000D01*
X81049904Y-106735619D01*
X81002285Y-106830857D01*
X81002285Y-106926095D01*
X81049904Y-107068952D01*
X81621333Y-107640380D01*
X81002285Y-107640380D01*
X91606666Y-108148380D02*
X91940000Y-107672190D01*
X92178095Y-108148380D02*
X92178095Y-107148380D01*
X91797142Y-107148380D01*
X91701904Y-107196000D01*
X91654285Y-107243619D01*
X91606666Y-107338857D01*
X91606666Y-107481714D01*
X91654285Y-107576952D01*
X91701904Y-107624571D01*
X91797142Y-107672190D01*
X92178095Y-107672190D01*
X90654285Y-108148380D02*
X91225714Y-108148380D01*
X90940000Y-108148380D02*
X90940000Y-107148380D01*
X91035238Y-107291238D01*
X91130476Y-107386476D01*
X91225714Y-107434095D01*
X118940476Y-103002380D02*
X119273809Y-102526190D01*
X119511904Y-103002380D02*
X119511904Y-102002380D01*
X119130952Y-102002380D01*
X119035714Y-102050000D01*
X118988095Y-102097619D01*
X118940476Y-102192857D01*
X118940476Y-102335714D01*
X118988095Y-102430952D01*
X119035714Y-102478571D01*
X119130952Y-102526190D01*
X119511904Y-102526190D01*
X118511904Y-103002380D02*
X118511904Y-102002380D01*
X117940476Y-103002380D01*
X117940476Y-102002380D01*
X117035714Y-102002380D02*
X117226190Y-102002380D01*
X117321428Y-102050000D01*
X117369047Y-102097619D01*
X117464285Y-102240476D01*
X117511904Y-102430952D01*
X117511904Y-102811904D01*
X117464285Y-102907142D01*
X117416666Y-102954761D01*
X117321428Y-103002380D01*
X117130952Y-103002380D01*
X117035714Y-102954761D01*
X116988095Y-102907142D01*
X116940476Y-102811904D01*
X116940476Y-102573809D01*
X116988095Y-102478571D01*
X117035714Y-102430952D01*
X117130952Y-102383333D01*
X117321428Y-102383333D01*
X117416666Y-102430952D01*
X117464285Y-102478571D01*
X117511904Y-102573809D01*
X110790476Y-103052380D02*
X111123809Y-102576190D01*
X111361904Y-103052380D02*
X111361904Y-102052380D01*
X110980952Y-102052380D01*
X110885714Y-102100000D01*
X110838095Y-102147619D01*
X110790476Y-102242857D01*
X110790476Y-102385714D01*
X110838095Y-102480952D01*
X110885714Y-102528571D01*
X110980952Y-102576190D01*
X111361904Y-102576190D01*
X110361904Y-103052380D02*
X110361904Y-102052380D01*
X109790476Y-103052380D01*
X109790476Y-102052380D01*
X108838095Y-102052380D02*
X109314285Y-102052380D01*
X109361904Y-102528571D01*
X109314285Y-102480952D01*
X109219047Y-102433333D01*
X108980952Y-102433333D01*
X108885714Y-102480952D01*
X108838095Y-102528571D01*
X108790476Y-102623809D01*
X108790476Y-102861904D01*
X108838095Y-102957142D01*
X108885714Y-103004761D01*
X108980952Y-103052380D01*
X109219047Y-103052380D01*
X109314285Y-103004761D01*
X109361904Y-102957142D01*
X102840476Y-103102380D02*
X103173809Y-102626190D01*
X103411904Y-103102380D02*
X103411904Y-102102380D01*
X103030952Y-102102380D01*
X102935714Y-102150000D01*
X102888095Y-102197619D01*
X102840476Y-102292857D01*
X102840476Y-102435714D01*
X102888095Y-102530952D01*
X102935714Y-102578571D01*
X103030952Y-102626190D01*
X103411904Y-102626190D01*
X102411904Y-103102380D02*
X102411904Y-102102380D01*
X101840476Y-103102380D01*
X101840476Y-102102380D01*
X100935714Y-102435714D02*
X100935714Y-103102380D01*
X101173809Y-102054761D02*
X101411904Y-102769047D01*
X100792857Y-102769047D01*
X94340476Y-102952380D02*
X94673809Y-102476190D01*
X94911904Y-102952380D02*
X94911904Y-101952380D01*
X94530952Y-101952380D01*
X94435714Y-102000000D01*
X94388095Y-102047619D01*
X94340476Y-102142857D01*
X94340476Y-102285714D01*
X94388095Y-102380952D01*
X94435714Y-102428571D01*
X94530952Y-102476190D01*
X94911904Y-102476190D01*
X93911904Y-102952380D02*
X93911904Y-101952380D01*
X93340476Y-102952380D01*
X93340476Y-101952380D01*
X92959523Y-101952380D02*
X92340476Y-101952380D01*
X92673809Y-102333333D01*
X92530952Y-102333333D01*
X92435714Y-102380952D01*
X92388095Y-102428571D01*
X92340476Y-102523809D01*
X92340476Y-102761904D01*
X92388095Y-102857142D01*
X92435714Y-102904761D01*
X92530952Y-102952380D01*
X92816666Y-102952380D01*
X92911904Y-102904761D01*
X92959523Y-102857142D01*
X88844380Y-95829523D02*
X88368190Y-95496190D01*
X88844380Y-95258095D02*
X87844380Y-95258095D01*
X87844380Y-95639047D01*
X87892000Y-95734285D01*
X87939619Y-95781904D01*
X88034857Y-95829523D01*
X88177714Y-95829523D01*
X88272952Y-95781904D01*
X88320571Y-95734285D01*
X88368190Y-95639047D01*
X88368190Y-95258095D01*
X88844380Y-96258095D02*
X87844380Y-96258095D01*
X88844380Y-96829523D01*
X87844380Y-96829523D01*
X87939619Y-97258095D02*
X87892000Y-97305714D01*
X87844380Y-97400952D01*
X87844380Y-97639047D01*
X87892000Y-97734285D01*
X87939619Y-97781904D01*
X88034857Y-97829523D01*
X88130095Y-97829523D01*
X88272952Y-97781904D01*
X88844380Y-97210476D01*
X88844380Y-97829523D01*
X88844380Y-103703523D02*
X88368190Y-103370190D01*
X88844380Y-103132095D02*
X87844380Y-103132095D01*
X87844380Y-103513047D01*
X87892000Y-103608285D01*
X87939619Y-103655904D01*
X88034857Y-103703523D01*
X88177714Y-103703523D01*
X88272952Y-103655904D01*
X88320571Y-103608285D01*
X88368190Y-103513047D01*
X88368190Y-103132095D01*
X88844380Y-104132095D02*
X87844380Y-104132095D01*
X88844380Y-104703523D01*
X87844380Y-104703523D01*
X88844380Y-105703523D02*
X88844380Y-105132095D01*
X88844380Y-105417809D02*
X87844380Y-105417809D01*
X87987238Y-105322571D01*
X88082476Y-105227333D01*
X88130095Y-105132095D01*
X79052380Y-82238095D02*
X79861904Y-82238095D01*
X79957142Y-82285714D01*
X80004761Y-82333333D01*
X80052380Y-82428571D01*
X80052380Y-82619047D01*
X80004761Y-82714285D01*
X79957142Y-82761904D01*
X79861904Y-82809523D01*
X79052380Y-82809523D01*
X79480952Y-83428571D02*
X79433333Y-83333333D01*
X79385714Y-83285714D01*
X79290476Y-83238095D01*
X79242857Y-83238095D01*
X79147619Y-83285714D01*
X79100000Y-83333333D01*
X79052380Y-83428571D01*
X79052380Y-83619047D01*
X79100000Y-83714285D01*
X79147619Y-83761904D01*
X79242857Y-83809523D01*
X79290476Y-83809523D01*
X79385714Y-83761904D01*
X79433333Y-83714285D01*
X79480952Y-83619047D01*
X79480952Y-83428571D01*
X79528571Y-83333333D01*
X79576190Y-83285714D01*
X79671428Y-83238095D01*
X79861904Y-83238095D01*
X79957142Y-83285714D01*
X80004761Y-83333333D01*
X80052380Y-83428571D01*
X80052380Y-83619047D01*
X80004761Y-83714285D01*
X79957142Y-83761904D01*
X79861904Y-83809523D01*
X79671428Y-83809523D01*
X79576190Y-83761904D01*
X79528571Y-83714285D01*
X79480952Y-83619047D01*
X118998904Y-92416380D02*
X118998904Y-93225904D01*
X118951285Y-93321142D01*
X118903666Y-93368761D01*
X118808428Y-93416380D01*
X118617952Y-93416380D01*
X118522714Y-93368761D01*
X118475095Y-93321142D01*
X118427476Y-93225904D01*
X118427476Y-92416380D01*
X118046523Y-92416380D02*
X117379857Y-92416380D01*
X117808428Y-93416380D01*
X110761904Y-92416380D02*
X110761904Y-93225904D01*
X110714285Y-93321142D01*
X110666666Y-93368761D01*
X110571428Y-93416380D01*
X110380952Y-93416380D01*
X110285714Y-93368761D01*
X110238095Y-93321142D01*
X110190476Y-93225904D01*
X110190476Y-92416380D01*
X109285714Y-92416380D02*
X109476190Y-92416380D01*
X109571428Y-92464000D01*
X109619047Y-92511619D01*
X109714285Y-92654476D01*
X109761904Y-92844952D01*
X109761904Y-93225904D01*
X109714285Y-93321142D01*
X109666666Y-93368761D01*
X109571428Y-93416380D01*
X109380952Y-93416380D01*
X109285714Y-93368761D01*
X109238095Y-93321142D01*
X109190476Y-93225904D01*
X109190476Y-92987809D01*
X109238095Y-92892571D01*
X109285714Y-92844952D01*
X109380952Y-92797333D01*
X109571428Y-92797333D01*
X109666666Y-92844952D01*
X109714285Y-92892571D01*
X109761904Y-92987809D01*
X102921904Y-92416380D02*
X102921904Y-93225904D01*
X102874285Y-93321142D01*
X102826666Y-93368761D01*
X102731428Y-93416380D01*
X102540952Y-93416380D01*
X102445714Y-93368761D01*
X102398095Y-93321142D01*
X102350476Y-93225904D01*
X102350476Y-92416380D01*
X101398095Y-92416380D02*
X101874285Y-92416380D01*
X101921904Y-92892571D01*
X101874285Y-92844952D01*
X101779047Y-92797333D01*
X101540952Y-92797333D01*
X101445714Y-92844952D01*
X101398095Y-92892571D01*
X101350476Y-92987809D01*
X101350476Y-93225904D01*
X101398095Y-93321142D01*
X101445714Y-93368761D01*
X101540952Y-93416380D01*
X101779047Y-93416380D01*
X101874285Y-93368761D01*
X101921904Y-93321142D01*
X94421904Y-93051380D02*
X94421904Y-93860904D01*
X94374285Y-93956142D01*
X94326666Y-94003761D01*
X94231428Y-94051380D01*
X94040952Y-94051380D01*
X93945714Y-94003761D01*
X93898095Y-93956142D01*
X93850476Y-93860904D01*
X93850476Y-93051380D01*
X92945714Y-93384714D02*
X92945714Y-94051380D01*
X93183809Y-93003761D02*
X93421904Y-93718047D01*
X92802857Y-93718047D01*
X116808238Y-112307619D02*
X116903476Y-112260000D01*
X116998714Y-112164761D01*
X117141571Y-112021904D01*
X117236809Y-111974285D01*
X117332047Y-111974285D01*
X117284428Y-112212380D02*
X117379666Y-112164761D01*
X117474904Y-112069523D01*
X117522523Y-111879047D01*
X117522523Y-111545714D01*
X117474904Y-111355238D01*
X117379666Y-111260000D01*
X117284428Y-111212380D01*
X117093952Y-111212380D01*
X116998714Y-111260000D01*
X116903476Y-111355238D01*
X116855857Y-111545714D01*
X116855857Y-111879047D01*
X116903476Y-112069523D01*
X116998714Y-112164761D01*
X117093952Y-112212380D01*
X117284428Y-112212380D01*
X115998714Y-111545714D02*
X115998714Y-112212380D01*
X116236809Y-111164761D02*
X116474904Y-111879047D01*
X115855857Y-111879047D01*
X86582238Y-112561619D02*
X86677476Y-112514000D01*
X86772714Y-112418761D01*
X86915571Y-112275904D01*
X87010809Y-112228285D01*
X87106047Y-112228285D01*
X87058428Y-112466380D02*
X87153666Y-112418761D01*
X87248904Y-112323523D01*
X87296523Y-112133047D01*
X87296523Y-111799714D01*
X87248904Y-111609238D01*
X87153666Y-111514000D01*
X87058428Y-111466380D01*
X86867952Y-111466380D01*
X86772714Y-111514000D01*
X86677476Y-111609238D01*
X86629857Y-111799714D01*
X86629857Y-112133047D01*
X86677476Y-112323523D01*
X86772714Y-112418761D01*
X86867952Y-112466380D01*
X87058428Y-112466380D01*
X86296523Y-111466380D02*
X85677476Y-111466380D01*
X86010809Y-111847333D01*
X85867952Y-111847333D01*
X85772714Y-111894952D01*
X85725095Y-111942571D01*
X85677476Y-112037809D01*
X85677476Y-112275904D01*
X85725095Y-112371142D01*
X85772714Y-112418761D01*
X85867952Y-112466380D01*
X86153666Y-112466380D01*
X86248904Y-112418761D01*
X86296523Y-112371142D01*
X83602380Y-63986666D02*
X84316666Y-63986666D01*
X84459523Y-63939047D01*
X84554761Y-63843809D01*
X84602380Y-63700952D01*
X84602380Y-63605714D01*
X83602380Y-64367619D02*
X83602380Y-64986666D01*
X83983333Y-64653333D01*
X83983333Y-64796190D01*
X84030952Y-64891428D01*
X84078571Y-64939047D01*
X84173809Y-64986666D01*
X84411904Y-64986666D01*
X84507142Y-64939047D01*
X84554761Y-64891428D01*
X84602380Y-64796190D01*
X84602380Y-64510476D01*
X84554761Y-64415238D01*
X84507142Y-64367619D01*
M02*
