G04 #@! TF.GenerationSoftware,KiCad,Pcbnew,5.1.5-52549c5~84~ubuntu19.10.1*
G04 #@! TF.CreationDate,2019-12-17T22:32:53+01:00*
G04 #@! TF.ProjectId,pi-hat,70692d68-6174-42e6-9b69-6361645f7063,rev?*
G04 #@! TF.SameCoordinates,Original*
G04 #@! TF.FileFunction,Paste,Bot*
G04 #@! TF.FilePolarity,Positive*
%FSLAX46Y46*%
G04 Gerber Fmt 4.6, Leading zero omitted, Abs format (unit mm)*
G04 Created by KiCad (PCBNEW 5.1.5-52549c5~84~ubuntu19.10.1) date 2019-12-17 22:32:53*
%MOMM*%
%LPD*%
G04 APERTURE LIST*
%ADD10C,0.100000*%
%ADD11R,0.700000X0.510000*%
%ADD12R,0.800000X0.500000*%
%ADD13R,0.800000X0.400000*%
%ADD14R,0.900000X0.800000*%
G04 APERTURE END LIST*
D10*
X78546356Y-63817611D02*
G75*
G02X81546356Y-60817611I3000000J0D01*
G01*
X78546356Y-63817611D02*
X78546356Y-113817611D01*
X140546356Y-60817611D02*
X81546356Y-60817611D01*
X140546356Y-60817611D02*
G75*
G02X143546356Y-63817611I0J-3000000D01*
G01*
X143546356Y-113817611D02*
X143546356Y-63817611D01*
X81546356Y-116817611D02*
G75*
G02X78546356Y-113817611I0J3000000D01*
G01*
X81546356Y-116817611D02*
X140546356Y-116817611D01*
X143546356Y-113817611D02*
G75*
G02X140546356Y-116817611I-3000000J0D01*
G01*
D11*
X87160000Y-101400000D03*
X87160000Y-100450000D03*
X87160000Y-99500000D03*
X84840000Y-99500000D03*
X84840000Y-100450000D03*
X84840000Y-101400000D03*
X87320000Y-93650000D03*
X87320000Y-92700000D03*
X87320000Y-91750000D03*
X85000000Y-91750000D03*
X85000000Y-92700000D03*
X85000000Y-93650000D03*
D10*
G36*
X103659703Y-86625722D02*
G01*
X103674264Y-86627882D01*
X103688543Y-86631459D01*
X103702403Y-86636418D01*
X103715710Y-86642712D01*
X103728336Y-86650280D01*
X103740159Y-86659048D01*
X103751066Y-86668934D01*
X103760952Y-86679841D01*
X103769720Y-86691664D01*
X103777288Y-86704290D01*
X103783582Y-86717597D01*
X103788541Y-86731457D01*
X103792118Y-86745736D01*
X103794278Y-86760297D01*
X103795000Y-86775000D01*
X103795000Y-88525000D01*
X103794278Y-88539703D01*
X103792118Y-88554264D01*
X103788541Y-88568543D01*
X103783582Y-88582403D01*
X103777288Y-88595710D01*
X103769720Y-88608336D01*
X103760952Y-88620159D01*
X103751066Y-88631066D01*
X103740159Y-88640952D01*
X103728336Y-88649720D01*
X103715710Y-88657288D01*
X103702403Y-88663582D01*
X103688543Y-88668541D01*
X103674264Y-88672118D01*
X103659703Y-88674278D01*
X103645000Y-88675000D01*
X103345000Y-88675000D01*
X103330297Y-88674278D01*
X103315736Y-88672118D01*
X103301457Y-88668541D01*
X103287597Y-88663582D01*
X103274290Y-88657288D01*
X103261664Y-88649720D01*
X103249841Y-88640952D01*
X103238934Y-88631066D01*
X103229048Y-88620159D01*
X103220280Y-88608336D01*
X103212712Y-88595710D01*
X103206418Y-88582403D01*
X103201459Y-88568543D01*
X103197882Y-88554264D01*
X103195722Y-88539703D01*
X103195000Y-88525000D01*
X103195000Y-86775000D01*
X103195722Y-86760297D01*
X103197882Y-86745736D01*
X103201459Y-86731457D01*
X103206418Y-86717597D01*
X103212712Y-86704290D01*
X103220280Y-86691664D01*
X103229048Y-86679841D01*
X103238934Y-86668934D01*
X103249841Y-86659048D01*
X103261664Y-86650280D01*
X103274290Y-86642712D01*
X103287597Y-86636418D01*
X103301457Y-86631459D01*
X103315736Y-86627882D01*
X103330297Y-86625722D01*
X103345000Y-86625000D01*
X103645000Y-86625000D01*
X103659703Y-86625722D01*
G37*
G36*
X104929703Y-86625722D02*
G01*
X104944264Y-86627882D01*
X104958543Y-86631459D01*
X104972403Y-86636418D01*
X104985710Y-86642712D01*
X104998336Y-86650280D01*
X105010159Y-86659048D01*
X105021066Y-86668934D01*
X105030952Y-86679841D01*
X105039720Y-86691664D01*
X105047288Y-86704290D01*
X105053582Y-86717597D01*
X105058541Y-86731457D01*
X105062118Y-86745736D01*
X105064278Y-86760297D01*
X105065000Y-86775000D01*
X105065000Y-88525000D01*
X105064278Y-88539703D01*
X105062118Y-88554264D01*
X105058541Y-88568543D01*
X105053582Y-88582403D01*
X105047288Y-88595710D01*
X105039720Y-88608336D01*
X105030952Y-88620159D01*
X105021066Y-88631066D01*
X105010159Y-88640952D01*
X104998336Y-88649720D01*
X104985710Y-88657288D01*
X104972403Y-88663582D01*
X104958543Y-88668541D01*
X104944264Y-88672118D01*
X104929703Y-88674278D01*
X104915000Y-88675000D01*
X104615000Y-88675000D01*
X104600297Y-88674278D01*
X104585736Y-88672118D01*
X104571457Y-88668541D01*
X104557597Y-88663582D01*
X104544290Y-88657288D01*
X104531664Y-88649720D01*
X104519841Y-88640952D01*
X104508934Y-88631066D01*
X104499048Y-88620159D01*
X104490280Y-88608336D01*
X104482712Y-88595710D01*
X104476418Y-88582403D01*
X104471459Y-88568543D01*
X104467882Y-88554264D01*
X104465722Y-88539703D01*
X104465000Y-88525000D01*
X104465000Y-86775000D01*
X104465722Y-86760297D01*
X104467882Y-86745736D01*
X104471459Y-86731457D01*
X104476418Y-86717597D01*
X104482712Y-86704290D01*
X104490280Y-86691664D01*
X104499048Y-86679841D01*
X104508934Y-86668934D01*
X104519841Y-86659048D01*
X104531664Y-86650280D01*
X104544290Y-86642712D01*
X104557597Y-86636418D01*
X104571457Y-86631459D01*
X104585736Y-86627882D01*
X104600297Y-86625722D01*
X104615000Y-86625000D01*
X104915000Y-86625000D01*
X104929703Y-86625722D01*
G37*
G36*
X106199703Y-86625722D02*
G01*
X106214264Y-86627882D01*
X106228543Y-86631459D01*
X106242403Y-86636418D01*
X106255710Y-86642712D01*
X106268336Y-86650280D01*
X106280159Y-86659048D01*
X106291066Y-86668934D01*
X106300952Y-86679841D01*
X106309720Y-86691664D01*
X106317288Y-86704290D01*
X106323582Y-86717597D01*
X106328541Y-86731457D01*
X106332118Y-86745736D01*
X106334278Y-86760297D01*
X106335000Y-86775000D01*
X106335000Y-88525000D01*
X106334278Y-88539703D01*
X106332118Y-88554264D01*
X106328541Y-88568543D01*
X106323582Y-88582403D01*
X106317288Y-88595710D01*
X106309720Y-88608336D01*
X106300952Y-88620159D01*
X106291066Y-88631066D01*
X106280159Y-88640952D01*
X106268336Y-88649720D01*
X106255710Y-88657288D01*
X106242403Y-88663582D01*
X106228543Y-88668541D01*
X106214264Y-88672118D01*
X106199703Y-88674278D01*
X106185000Y-88675000D01*
X105885000Y-88675000D01*
X105870297Y-88674278D01*
X105855736Y-88672118D01*
X105841457Y-88668541D01*
X105827597Y-88663582D01*
X105814290Y-88657288D01*
X105801664Y-88649720D01*
X105789841Y-88640952D01*
X105778934Y-88631066D01*
X105769048Y-88620159D01*
X105760280Y-88608336D01*
X105752712Y-88595710D01*
X105746418Y-88582403D01*
X105741459Y-88568543D01*
X105737882Y-88554264D01*
X105735722Y-88539703D01*
X105735000Y-88525000D01*
X105735000Y-86775000D01*
X105735722Y-86760297D01*
X105737882Y-86745736D01*
X105741459Y-86731457D01*
X105746418Y-86717597D01*
X105752712Y-86704290D01*
X105760280Y-86691664D01*
X105769048Y-86679841D01*
X105778934Y-86668934D01*
X105789841Y-86659048D01*
X105801664Y-86650280D01*
X105814290Y-86642712D01*
X105827597Y-86636418D01*
X105841457Y-86631459D01*
X105855736Y-86627882D01*
X105870297Y-86625722D01*
X105885000Y-86625000D01*
X106185000Y-86625000D01*
X106199703Y-86625722D01*
G37*
G36*
X107469703Y-86625722D02*
G01*
X107484264Y-86627882D01*
X107498543Y-86631459D01*
X107512403Y-86636418D01*
X107525710Y-86642712D01*
X107538336Y-86650280D01*
X107550159Y-86659048D01*
X107561066Y-86668934D01*
X107570952Y-86679841D01*
X107579720Y-86691664D01*
X107587288Y-86704290D01*
X107593582Y-86717597D01*
X107598541Y-86731457D01*
X107602118Y-86745736D01*
X107604278Y-86760297D01*
X107605000Y-86775000D01*
X107605000Y-88525000D01*
X107604278Y-88539703D01*
X107602118Y-88554264D01*
X107598541Y-88568543D01*
X107593582Y-88582403D01*
X107587288Y-88595710D01*
X107579720Y-88608336D01*
X107570952Y-88620159D01*
X107561066Y-88631066D01*
X107550159Y-88640952D01*
X107538336Y-88649720D01*
X107525710Y-88657288D01*
X107512403Y-88663582D01*
X107498543Y-88668541D01*
X107484264Y-88672118D01*
X107469703Y-88674278D01*
X107455000Y-88675000D01*
X107155000Y-88675000D01*
X107140297Y-88674278D01*
X107125736Y-88672118D01*
X107111457Y-88668541D01*
X107097597Y-88663582D01*
X107084290Y-88657288D01*
X107071664Y-88649720D01*
X107059841Y-88640952D01*
X107048934Y-88631066D01*
X107039048Y-88620159D01*
X107030280Y-88608336D01*
X107022712Y-88595710D01*
X107016418Y-88582403D01*
X107011459Y-88568543D01*
X107007882Y-88554264D01*
X107005722Y-88539703D01*
X107005000Y-88525000D01*
X107005000Y-86775000D01*
X107005722Y-86760297D01*
X107007882Y-86745736D01*
X107011459Y-86731457D01*
X107016418Y-86717597D01*
X107022712Y-86704290D01*
X107030280Y-86691664D01*
X107039048Y-86679841D01*
X107048934Y-86668934D01*
X107059841Y-86659048D01*
X107071664Y-86650280D01*
X107084290Y-86642712D01*
X107097597Y-86636418D01*
X107111457Y-86631459D01*
X107125736Y-86627882D01*
X107140297Y-86625722D01*
X107155000Y-86625000D01*
X107455000Y-86625000D01*
X107469703Y-86625722D01*
G37*
G36*
X108739703Y-86625722D02*
G01*
X108754264Y-86627882D01*
X108768543Y-86631459D01*
X108782403Y-86636418D01*
X108795710Y-86642712D01*
X108808336Y-86650280D01*
X108820159Y-86659048D01*
X108831066Y-86668934D01*
X108840952Y-86679841D01*
X108849720Y-86691664D01*
X108857288Y-86704290D01*
X108863582Y-86717597D01*
X108868541Y-86731457D01*
X108872118Y-86745736D01*
X108874278Y-86760297D01*
X108875000Y-86775000D01*
X108875000Y-88525000D01*
X108874278Y-88539703D01*
X108872118Y-88554264D01*
X108868541Y-88568543D01*
X108863582Y-88582403D01*
X108857288Y-88595710D01*
X108849720Y-88608336D01*
X108840952Y-88620159D01*
X108831066Y-88631066D01*
X108820159Y-88640952D01*
X108808336Y-88649720D01*
X108795710Y-88657288D01*
X108782403Y-88663582D01*
X108768543Y-88668541D01*
X108754264Y-88672118D01*
X108739703Y-88674278D01*
X108725000Y-88675000D01*
X108425000Y-88675000D01*
X108410297Y-88674278D01*
X108395736Y-88672118D01*
X108381457Y-88668541D01*
X108367597Y-88663582D01*
X108354290Y-88657288D01*
X108341664Y-88649720D01*
X108329841Y-88640952D01*
X108318934Y-88631066D01*
X108309048Y-88620159D01*
X108300280Y-88608336D01*
X108292712Y-88595710D01*
X108286418Y-88582403D01*
X108281459Y-88568543D01*
X108277882Y-88554264D01*
X108275722Y-88539703D01*
X108275000Y-88525000D01*
X108275000Y-86775000D01*
X108275722Y-86760297D01*
X108277882Y-86745736D01*
X108281459Y-86731457D01*
X108286418Y-86717597D01*
X108292712Y-86704290D01*
X108300280Y-86691664D01*
X108309048Y-86679841D01*
X108318934Y-86668934D01*
X108329841Y-86659048D01*
X108341664Y-86650280D01*
X108354290Y-86642712D01*
X108367597Y-86636418D01*
X108381457Y-86631459D01*
X108395736Y-86627882D01*
X108410297Y-86625722D01*
X108425000Y-86625000D01*
X108725000Y-86625000D01*
X108739703Y-86625722D01*
G37*
G36*
X110009703Y-86625722D02*
G01*
X110024264Y-86627882D01*
X110038543Y-86631459D01*
X110052403Y-86636418D01*
X110065710Y-86642712D01*
X110078336Y-86650280D01*
X110090159Y-86659048D01*
X110101066Y-86668934D01*
X110110952Y-86679841D01*
X110119720Y-86691664D01*
X110127288Y-86704290D01*
X110133582Y-86717597D01*
X110138541Y-86731457D01*
X110142118Y-86745736D01*
X110144278Y-86760297D01*
X110145000Y-86775000D01*
X110145000Y-88525000D01*
X110144278Y-88539703D01*
X110142118Y-88554264D01*
X110138541Y-88568543D01*
X110133582Y-88582403D01*
X110127288Y-88595710D01*
X110119720Y-88608336D01*
X110110952Y-88620159D01*
X110101066Y-88631066D01*
X110090159Y-88640952D01*
X110078336Y-88649720D01*
X110065710Y-88657288D01*
X110052403Y-88663582D01*
X110038543Y-88668541D01*
X110024264Y-88672118D01*
X110009703Y-88674278D01*
X109995000Y-88675000D01*
X109695000Y-88675000D01*
X109680297Y-88674278D01*
X109665736Y-88672118D01*
X109651457Y-88668541D01*
X109637597Y-88663582D01*
X109624290Y-88657288D01*
X109611664Y-88649720D01*
X109599841Y-88640952D01*
X109588934Y-88631066D01*
X109579048Y-88620159D01*
X109570280Y-88608336D01*
X109562712Y-88595710D01*
X109556418Y-88582403D01*
X109551459Y-88568543D01*
X109547882Y-88554264D01*
X109545722Y-88539703D01*
X109545000Y-88525000D01*
X109545000Y-86775000D01*
X109545722Y-86760297D01*
X109547882Y-86745736D01*
X109551459Y-86731457D01*
X109556418Y-86717597D01*
X109562712Y-86704290D01*
X109570280Y-86691664D01*
X109579048Y-86679841D01*
X109588934Y-86668934D01*
X109599841Y-86659048D01*
X109611664Y-86650280D01*
X109624290Y-86642712D01*
X109637597Y-86636418D01*
X109651457Y-86631459D01*
X109665736Y-86627882D01*
X109680297Y-86625722D01*
X109695000Y-86625000D01*
X109995000Y-86625000D01*
X110009703Y-86625722D01*
G37*
G36*
X111279703Y-86625722D02*
G01*
X111294264Y-86627882D01*
X111308543Y-86631459D01*
X111322403Y-86636418D01*
X111335710Y-86642712D01*
X111348336Y-86650280D01*
X111360159Y-86659048D01*
X111371066Y-86668934D01*
X111380952Y-86679841D01*
X111389720Y-86691664D01*
X111397288Y-86704290D01*
X111403582Y-86717597D01*
X111408541Y-86731457D01*
X111412118Y-86745736D01*
X111414278Y-86760297D01*
X111415000Y-86775000D01*
X111415000Y-88525000D01*
X111414278Y-88539703D01*
X111412118Y-88554264D01*
X111408541Y-88568543D01*
X111403582Y-88582403D01*
X111397288Y-88595710D01*
X111389720Y-88608336D01*
X111380952Y-88620159D01*
X111371066Y-88631066D01*
X111360159Y-88640952D01*
X111348336Y-88649720D01*
X111335710Y-88657288D01*
X111322403Y-88663582D01*
X111308543Y-88668541D01*
X111294264Y-88672118D01*
X111279703Y-88674278D01*
X111265000Y-88675000D01*
X110965000Y-88675000D01*
X110950297Y-88674278D01*
X110935736Y-88672118D01*
X110921457Y-88668541D01*
X110907597Y-88663582D01*
X110894290Y-88657288D01*
X110881664Y-88649720D01*
X110869841Y-88640952D01*
X110858934Y-88631066D01*
X110849048Y-88620159D01*
X110840280Y-88608336D01*
X110832712Y-88595710D01*
X110826418Y-88582403D01*
X110821459Y-88568543D01*
X110817882Y-88554264D01*
X110815722Y-88539703D01*
X110815000Y-88525000D01*
X110815000Y-86775000D01*
X110815722Y-86760297D01*
X110817882Y-86745736D01*
X110821459Y-86731457D01*
X110826418Y-86717597D01*
X110832712Y-86704290D01*
X110840280Y-86691664D01*
X110849048Y-86679841D01*
X110858934Y-86668934D01*
X110869841Y-86659048D01*
X110881664Y-86650280D01*
X110894290Y-86642712D01*
X110907597Y-86636418D01*
X110921457Y-86631459D01*
X110935736Y-86627882D01*
X110950297Y-86625722D01*
X110965000Y-86625000D01*
X111265000Y-86625000D01*
X111279703Y-86625722D01*
G37*
G36*
X112549703Y-86625722D02*
G01*
X112564264Y-86627882D01*
X112578543Y-86631459D01*
X112592403Y-86636418D01*
X112605710Y-86642712D01*
X112618336Y-86650280D01*
X112630159Y-86659048D01*
X112641066Y-86668934D01*
X112650952Y-86679841D01*
X112659720Y-86691664D01*
X112667288Y-86704290D01*
X112673582Y-86717597D01*
X112678541Y-86731457D01*
X112682118Y-86745736D01*
X112684278Y-86760297D01*
X112685000Y-86775000D01*
X112685000Y-88525000D01*
X112684278Y-88539703D01*
X112682118Y-88554264D01*
X112678541Y-88568543D01*
X112673582Y-88582403D01*
X112667288Y-88595710D01*
X112659720Y-88608336D01*
X112650952Y-88620159D01*
X112641066Y-88631066D01*
X112630159Y-88640952D01*
X112618336Y-88649720D01*
X112605710Y-88657288D01*
X112592403Y-88663582D01*
X112578543Y-88668541D01*
X112564264Y-88672118D01*
X112549703Y-88674278D01*
X112535000Y-88675000D01*
X112235000Y-88675000D01*
X112220297Y-88674278D01*
X112205736Y-88672118D01*
X112191457Y-88668541D01*
X112177597Y-88663582D01*
X112164290Y-88657288D01*
X112151664Y-88649720D01*
X112139841Y-88640952D01*
X112128934Y-88631066D01*
X112119048Y-88620159D01*
X112110280Y-88608336D01*
X112102712Y-88595710D01*
X112096418Y-88582403D01*
X112091459Y-88568543D01*
X112087882Y-88554264D01*
X112085722Y-88539703D01*
X112085000Y-88525000D01*
X112085000Y-86775000D01*
X112085722Y-86760297D01*
X112087882Y-86745736D01*
X112091459Y-86731457D01*
X112096418Y-86717597D01*
X112102712Y-86704290D01*
X112110280Y-86691664D01*
X112119048Y-86679841D01*
X112128934Y-86668934D01*
X112139841Y-86659048D01*
X112151664Y-86650280D01*
X112164290Y-86642712D01*
X112177597Y-86636418D01*
X112191457Y-86631459D01*
X112205736Y-86627882D01*
X112220297Y-86625722D01*
X112235000Y-86625000D01*
X112535000Y-86625000D01*
X112549703Y-86625722D01*
G37*
G36*
X113819703Y-86625722D02*
G01*
X113834264Y-86627882D01*
X113848543Y-86631459D01*
X113862403Y-86636418D01*
X113875710Y-86642712D01*
X113888336Y-86650280D01*
X113900159Y-86659048D01*
X113911066Y-86668934D01*
X113920952Y-86679841D01*
X113929720Y-86691664D01*
X113937288Y-86704290D01*
X113943582Y-86717597D01*
X113948541Y-86731457D01*
X113952118Y-86745736D01*
X113954278Y-86760297D01*
X113955000Y-86775000D01*
X113955000Y-88525000D01*
X113954278Y-88539703D01*
X113952118Y-88554264D01*
X113948541Y-88568543D01*
X113943582Y-88582403D01*
X113937288Y-88595710D01*
X113929720Y-88608336D01*
X113920952Y-88620159D01*
X113911066Y-88631066D01*
X113900159Y-88640952D01*
X113888336Y-88649720D01*
X113875710Y-88657288D01*
X113862403Y-88663582D01*
X113848543Y-88668541D01*
X113834264Y-88672118D01*
X113819703Y-88674278D01*
X113805000Y-88675000D01*
X113505000Y-88675000D01*
X113490297Y-88674278D01*
X113475736Y-88672118D01*
X113461457Y-88668541D01*
X113447597Y-88663582D01*
X113434290Y-88657288D01*
X113421664Y-88649720D01*
X113409841Y-88640952D01*
X113398934Y-88631066D01*
X113389048Y-88620159D01*
X113380280Y-88608336D01*
X113372712Y-88595710D01*
X113366418Y-88582403D01*
X113361459Y-88568543D01*
X113357882Y-88554264D01*
X113355722Y-88539703D01*
X113355000Y-88525000D01*
X113355000Y-86775000D01*
X113355722Y-86760297D01*
X113357882Y-86745736D01*
X113361459Y-86731457D01*
X113366418Y-86717597D01*
X113372712Y-86704290D01*
X113380280Y-86691664D01*
X113389048Y-86679841D01*
X113398934Y-86668934D01*
X113409841Y-86659048D01*
X113421664Y-86650280D01*
X113434290Y-86642712D01*
X113447597Y-86636418D01*
X113461457Y-86631459D01*
X113475736Y-86627882D01*
X113490297Y-86625722D01*
X113505000Y-86625000D01*
X113805000Y-86625000D01*
X113819703Y-86625722D01*
G37*
G36*
X115089703Y-86625722D02*
G01*
X115104264Y-86627882D01*
X115118543Y-86631459D01*
X115132403Y-86636418D01*
X115145710Y-86642712D01*
X115158336Y-86650280D01*
X115170159Y-86659048D01*
X115181066Y-86668934D01*
X115190952Y-86679841D01*
X115199720Y-86691664D01*
X115207288Y-86704290D01*
X115213582Y-86717597D01*
X115218541Y-86731457D01*
X115222118Y-86745736D01*
X115224278Y-86760297D01*
X115225000Y-86775000D01*
X115225000Y-88525000D01*
X115224278Y-88539703D01*
X115222118Y-88554264D01*
X115218541Y-88568543D01*
X115213582Y-88582403D01*
X115207288Y-88595710D01*
X115199720Y-88608336D01*
X115190952Y-88620159D01*
X115181066Y-88631066D01*
X115170159Y-88640952D01*
X115158336Y-88649720D01*
X115145710Y-88657288D01*
X115132403Y-88663582D01*
X115118543Y-88668541D01*
X115104264Y-88672118D01*
X115089703Y-88674278D01*
X115075000Y-88675000D01*
X114775000Y-88675000D01*
X114760297Y-88674278D01*
X114745736Y-88672118D01*
X114731457Y-88668541D01*
X114717597Y-88663582D01*
X114704290Y-88657288D01*
X114691664Y-88649720D01*
X114679841Y-88640952D01*
X114668934Y-88631066D01*
X114659048Y-88620159D01*
X114650280Y-88608336D01*
X114642712Y-88595710D01*
X114636418Y-88582403D01*
X114631459Y-88568543D01*
X114627882Y-88554264D01*
X114625722Y-88539703D01*
X114625000Y-88525000D01*
X114625000Y-86775000D01*
X114625722Y-86760297D01*
X114627882Y-86745736D01*
X114631459Y-86731457D01*
X114636418Y-86717597D01*
X114642712Y-86704290D01*
X114650280Y-86691664D01*
X114659048Y-86679841D01*
X114668934Y-86668934D01*
X114679841Y-86659048D01*
X114691664Y-86650280D01*
X114704290Y-86642712D01*
X114717597Y-86636418D01*
X114731457Y-86631459D01*
X114745736Y-86627882D01*
X114760297Y-86625722D01*
X114775000Y-86625000D01*
X115075000Y-86625000D01*
X115089703Y-86625722D01*
G37*
G36*
X116359703Y-86625722D02*
G01*
X116374264Y-86627882D01*
X116388543Y-86631459D01*
X116402403Y-86636418D01*
X116415710Y-86642712D01*
X116428336Y-86650280D01*
X116440159Y-86659048D01*
X116451066Y-86668934D01*
X116460952Y-86679841D01*
X116469720Y-86691664D01*
X116477288Y-86704290D01*
X116483582Y-86717597D01*
X116488541Y-86731457D01*
X116492118Y-86745736D01*
X116494278Y-86760297D01*
X116495000Y-86775000D01*
X116495000Y-88525000D01*
X116494278Y-88539703D01*
X116492118Y-88554264D01*
X116488541Y-88568543D01*
X116483582Y-88582403D01*
X116477288Y-88595710D01*
X116469720Y-88608336D01*
X116460952Y-88620159D01*
X116451066Y-88631066D01*
X116440159Y-88640952D01*
X116428336Y-88649720D01*
X116415710Y-88657288D01*
X116402403Y-88663582D01*
X116388543Y-88668541D01*
X116374264Y-88672118D01*
X116359703Y-88674278D01*
X116345000Y-88675000D01*
X116045000Y-88675000D01*
X116030297Y-88674278D01*
X116015736Y-88672118D01*
X116001457Y-88668541D01*
X115987597Y-88663582D01*
X115974290Y-88657288D01*
X115961664Y-88649720D01*
X115949841Y-88640952D01*
X115938934Y-88631066D01*
X115929048Y-88620159D01*
X115920280Y-88608336D01*
X115912712Y-88595710D01*
X115906418Y-88582403D01*
X115901459Y-88568543D01*
X115897882Y-88554264D01*
X115895722Y-88539703D01*
X115895000Y-88525000D01*
X115895000Y-86775000D01*
X115895722Y-86760297D01*
X115897882Y-86745736D01*
X115901459Y-86731457D01*
X115906418Y-86717597D01*
X115912712Y-86704290D01*
X115920280Y-86691664D01*
X115929048Y-86679841D01*
X115938934Y-86668934D01*
X115949841Y-86659048D01*
X115961664Y-86650280D01*
X115974290Y-86642712D01*
X115987597Y-86636418D01*
X116001457Y-86631459D01*
X116015736Y-86627882D01*
X116030297Y-86625722D01*
X116045000Y-86625000D01*
X116345000Y-86625000D01*
X116359703Y-86625722D01*
G37*
G36*
X117629703Y-86625722D02*
G01*
X117644264Y-86627882D01*
X117658543Y-86631459D01*
X117672403Y-86636418D01*
X117685710Y-86642712D01*
X117698336Y-86650280D01*
X117710159Y-86659048D01*
X117721066Y-86668934D01*
X117730952Y-86679841D01*
X117739720Y-86691664D01*
X117747288Y-86704290D01*
X117753582Y-86717597D01*
X117758541Y-86731457D01*
X117762118Y-86745736D01*
X117764278Y-86760297D01*
X117765000Y-86775000D01*
X117765000Y-88525000D01*
X117764278Y-88539703D01*
X117762118Y-88554264D01*
X117758541Y-88568543D01*
X117753582Y-88582403D01*
X117747288Y-88595710D01*
X117739720Y-88608336D01*
X117730952Y-88620159D01*
X117721066Y-88631066D01*
X117710159Y-88640952D01*
X117698336Y-88649720D01*
X117685710Y-88657288D01*
X117672403Y-88663582D01*
X117658543Y-88668541D01*
X117644264Y-88672118D01*
X117629703Y-88674278D01*
X117615000Y-88675000D01*
X117315000Y-88675000D01*
X117300297Y-88674278D01*
X117285736Y-88672118D01*
X117271457Y-88668541D01*
X117257597Y-88663582D01*
X117244290Y-88657288D01*
X117231664Y-88649720D01*
X117219841Y-88640952D01*
X117208934Y-88631066D01*
X117199048Y-88620159D01*
X117190280Y-88608336D01*
X117182712Y-88595710D01*
X117176418Y-88582403D01*
X117171459Y-88568543D01*
X117167882Y-88554264D01*
X117165722Y-88539703D01*
X117165000Y-88525000D01*
X117165000Y-86775000D01*
X117165722Y-86760297D01*
X117167882Y-86745736D01*
X117171459Y-86731457D01*
X117176418Y-86717597D01*
X117182712Y-86704290D01*
X117190280Y-86691664D01*
X117199048Y-86679841D01*
X117208934Y-86668934D01*
X117219841Y-86659048D01*
X117231664Y-86650280D01*
X117244290Y-86642712D01*
X117257597Y-86636418D01*
X117271457Y-86631459D01*
X117285736Y-86627882D01*
X117300297Y-86625722D01*
X117315000Y-86625000D01*
X117615000Y-86625000D01*
X117629703Y-86625722D01*
G37*
G36*
X118899703Y-86625722D02*
G01*
X118914264Y-86627882D01*
X118928543Y-86631459D01*
X118942403Y-86636418D01*
X118955710Y-86642712D01*
X118968336Y-86650280D01*
X118980159Y-86659048D01*
X118991066Y-86668934D01*
X119000952Y-86679841D01*
X119009720Y-86691664D01*
X119017288Y-86704290D01*
X119023582Y-86717597D01*
X119028541Y-86731457D01*
X119032118Y-86745736D01*
X119034278Y-86760297D01*
X119035000Y-86775000D01*
X119035000Y-88525000D01*
X119034278Y-88539703D01*
X119032118Y-88554264D01*
X119028541Y-88568543D01*
X119023582Y-88582403D01*
X119017288Y-88595710D01*
X119009720Y-88608336D01*
X119000952Y-88620159D01*
X118991066Y-88631066D01*
X118980159Y-88640952D01*
X118968336Y-88649720D01*
X118955710Y-88657288D01*
X118942403Y-88663582D01*
X118928543Y-88668541D01*
X118914264Y-88672118D01*
X118899703Y-88674278D01*
X118885000Y-88675000D01*
X118585000Y-88675000D01*
X118570297Y-88674278D01*
X118555736Y-88672118D01*
X118541457Y-88668541D01*
X118527597Y-88663582D01*
X118514290Y-88657288D01*
X118501664Y-88649720D01*
X118489841Y-88640952D01*
X118478934Y-88631066D01*
X118469048Y-88620159D01*
X118460280Y-88608336D01*
X118452712Y-88595710D01*
X118446418Y-88582403D01*
X118441459Y-88568543D01*
X118437882Y-88554264D01*
X118435722Y-88539703D01*
X118435000Y-88525000D01*
X118435000Y-86775000D01*
X118435722Y-86760297D01*
X118437882Y-86745736D01*
X118441459Y-86731457D01*
X118446418Y-86717597D01*
X118452712Y-86704290D01*
X118460280Y-86691664D01*
X118469048Y-86679841D01*
X118478934Y-86668934D01*
X118489841Y-86659048D01*
X118501664Y-86650280D01*
X118514290Y-86642712D01*
X118527597Y-86636418D01*
X118541457Y-86631459D01*
X118555736Y-86627882D01*
X118570297Y-86625722D01*
X118585000Y-86625000D01*
X118885000Y-86625000D01*
X118899703Y-86625722D01*
G37*
G36*
X120169703Y-86625722D02*
G01*
X120184264Y-86627882D01*
X120198543Y-86631459D01*
X120212403Y-86636418D01*
X120225710Y-86642712D01*
X120238336Y-86650280D01*
X120250159Y-86659048D01*
X120261066Y-86668934D01*
X120270952Y-86679841D01*
X120279720Y-86691664D01*
X120287288Y-86704290D01*
X120293582Y-86717597D01*
X120298541Y-86731457D01*
X120302118Y-86745736D01*
X120304278Y-86760297D01*
X120305000Y-86775000D01*
X120305000Y-88525000D01*
X120304278Y-88539703D01*
X120302118Y-88554264D01*
X120298541Y-88568543D01*
X120293582Y-88582403D01*
X120287288Y-88595710D01*
X120279720Y-88608336D01*
X120270952Y-88620159D01*
X120261066Y-88631066D01*
X120250159Y-88640952D01*
X120238336Y-88649720D01*
X120225710Y-88657288D01*
X120212403Y-88663582D01*
X120198543Y-88668541D01*
X120184264Y-88672118D01*
X120169703Y-88674278D01*
X120155000Y-88675000D01*
X119855000Y-88675000D01*
X119840297Y-88674278D01*
X119825736Y-88672118D01*
X119811457Y-88668541D01*
X119797597Y-88663582D01*
X119784290Y-88657288D01*
X119771664Y-88649720D01*
X119759841Y-88640952D01*
X119748934Y-88631066D01*
X119739048Y-88620159D01*
X119730280Y-88608336D01*
X119722712Y-88595710D01*
X119716418Y-88582403D01*
X119711459Y-88568543D01*
X119707882Y-88554264D01*
X119705722Y-88539703D01*
X119705000Y-88525000D01*
X119705000Y-86775000D01*
X119705722Y-86760297D01*
X119707882Y-86745736D01*
X119711459Y-86731457D01*
X119716418Y-86717597D01*
X119722712Y-86704290D01*
X119730280Y-86691664D01*
X119739048Y-86679841D01*
X119748934Y-86668934D01*
X119759841Y-86659048D01*
X119771664Y-86650280D01*
X119784290Y-86642712D01*
X119797597Y-86636418D01*
X119811457Y-86631459D01*
X119825736Y-86627882D01*
X119840297Y-86625722D01*
X119855000Y-86625000D01*
X120155000Y-86625000D01*
X120169703Y-86625722D01*
G37*
G36*
X120169703Y-77325722D02*
G01*
X120184264Y-77327882D01*
X120198543Y-77331459D01*
X120212403Y-77336418D01*
X120225710Y-77342712D01*
X120238336Y-77350280D01*
X120250159Y-77359048D01*
X120261066Y-77368934D01*
X120270952Y-77379841D01*
X120279720Y-77391664D01*
X120287288Y-77404290D01*
X120293582Y-77417597D01*
X120298541Y-77431457D01*
X120302118Y-77445736D01*
X120304278Y-77460297D01*
X120305000Y-77475000D01*
X120305000Y-79225000D01*
X120304278Y-79239703D01*
X120302118Y-79254264D01*
X120298541Y-79268543D01*
X120293582Y-79282403D01*
X120287288Y-79295710D01*
X120279720Y-79308336D01*
X120270952Y-79320159D01*
X120261066Y-79331066D01*
X120250159Y-79340952D01*
X120238336Y-79349720D01*
X120225710Y-79357288D01*
X120212403Y-79363582D01*
X120198543Y-79368541D01*
X120184264Y-79372118D01*
X120169703Y-79374278D01*
X120155000Y-79375000D01*
X119855000Y-79375000D01*
X119840297Y-79374278D01*
X119825736Y-79372118D01*
X119811457Y-79368541D01*
X119797597Y-79363582D01*
X119784290Y-79357288D01*
X119771664Y-79349720D01*
X119759841Y-79340952D01*
X119748934Y-79331066D01*
X119739048Y-79320159D01*
X119730280Y-79308336D01*
X119722712Y-79295710D01*
X119716418Y-79282403D01*
X119711459Y-79268543D01*
X119707882Y-79254264D01*
X119705722Y-79239703D01*
X119705000Y-79225000D01*
X119705000Y-77475000D01*
X119705722Y-77460297D01*
X119707882Y-77445736D01*
X119711459Y-77431457D01*
X119716418Y-77417597D01*
X119722712Y-77404290D01*
X119730280Y-77391664D01*
X119739048Y-77379841D01*
X119748934Y-77368934D01*
X119759841Y-77359048D01*
X119771664Y-77350280D01*
X119784290Y-77342712D01*
X119797597Y-77336418D01*
X119811457Y-77331459D01*
X119825736Y-77327882D01*
X119840297Y-77325722D01*
X119855000Y-77325000D01*
X120155000Y-77325000D01*
X120169703Y-77325722D01*
G37*
G36*
X118899703Y-77325722D02*
G01*
X118914264Y-77327882D01*
X118928543Y-77331459D01*
X118942403Y-77336418D01*
X118955710Y-77342712D01*
X118968336Y-77350280D01*
X118980159Y-77359048D01*
X118991066Y-77368934D01*
X119000952Y-77379841D01*
X119009720Y-77391664D01*
X119017288Y-77404290D01*
X119023582Y-77417597D01*
X119028541Y-77431457D01*
X119032118Y-77445736D01*
X119034278Y-77460297D01*
X119035000Y-77475000D01*
X119035000Y-79225000D01*
X119034278Y-79239703D01*
X119032118Y-79254264D01*
X119028541Y-79268543D01*
X119023582Y-79282403D01*
X119017288Y-79295710D01*
X119009720Y-79308336D01*
X119000952Y-79320159D01*
X118991066Y-79331066D01*
X118980159Y-79340952D01*
X118968336Y-79349720D01*
X118955710Y-79357288D01*
X118942403Y-79363582D01*
X118928543Y-79368541D01*
X118914264Y-79372118D01*
X118899703Y-79374278D01*
X118885000Y-79375000D01*
X118585000Y-79375000D01*
X118570297Y-79374278D01*
X118555736Y-79372118D01*
X118541457Y-79368541D01*
X118527597Y-79363582D01*
X118514290Y-79357288D01*
X118501664Y-79349720D01*
X118489841Y-79340952D01*
X118478934Y-79331066D01*
X118469048Y-79320159D01*
X118460280Y-79308336D01*
X118452712Y-79295710D01*
X118446418Y-79282403D01*
X118441459Y-79268543D01*
X118437882Y-79254264D01*
X118435722Y-79239703D01*
X118435000Y-79225000D01*
X118435000Y-77475000D01*
X118435722Y-77460297D01*
X118437882Y-77445736D01*
X118441459Y-77431457D01*
X118446418Y-77417597D01*
X118452712Y-77404290D01*
X118460280Y-77391664D01*
X118469048Y-77379841D01*
X118478934Y-77368934D01*
X118489841Y-77359048D01*
X118501664Y-77350280D01*
X118514290Y-77342712D01*
X118527597Y-77336418D01*
X118541457Y-77331459D01*
X118555736Y-77327882D01*
X118570297Y-77325722D01*
X118585000Y-77325000D01*
X118885000Y-77325000D01*
X118899703Y-77325722D01*
G37*
G36*
X117629703Y-77325722D02*
G01*
X117644264Y-77327882D01*
X117658543Y-77331459D01*
X117672403Y-77336418D01*
X117685710Y-77342712D01*
X117698336Y-77350280D01*
X117710159Y-77359048D01*
X117721066Y-77368934D01*
X117730952Y-77379841D01*
X117739720Y-77391664D01*
X117747288Y-77404290D01*
X117753582Y-77417597D01*
X117758541Y-77431457D01*
X117762118Y-77445736D01*
X117764278Y-77460297D01*
X117765000Y-77475000D01*
X117765000Y-79225000D01*
X117764278Y-79239703D01*
X117762118Y-79254264D01*
X117758541Y-79268543D01*
X117753582Y-79282403D01*
X117747288Y-79295710D01*
X117739720Y-79308336D01*
X117730952Y-79320159D01*
X117721066Y-79331066D01*
X117710159Y-79340952D01*
X117698336Y-79349720D01*
X117685710Y-79357288D01*
X117672403Y-79363582D01*
X117658543Y-79368541D01*
X117644264Y-79372118D01*
X117629703Y-79374278D01*
X117615000Y-79375000D01*
X117315000Y-79375000D01*
X117300297Y-79374278D01*
X117285736Y-79372118D01*
X117271457Y-79368541D01*
X117257597Y-79363582D01*
X117244290Y-79357288D01*
X117231664Y-79349720D01*
X117219841Y-79340952D01*
X117208934Y-79331066D01*
X117199048Y-79320159D01*
X117190280Y-79308336D01*
X117182712Y-79295710D01*
X117176418Y-79282403D01*
X117171459Y-79268543D01*
X117167882Y-79254264D01*
X117165722Y-79239703D01*
X117165000Y-79225000D01*
X117165000Y-77475000D01*
X117165722Y-77460297D01*
X117167882Y-77445736D01*
X117171459Y-77431457D01*
X117176418Y-77417597D01*
X117182712Y-77404290D01*
X117190280Y-77391664D01*
X117199048Y-77379841D01*
X117208934Y-77368934D01*
X117219841Y-77359048D01*
X117231664Y-77350280D01*
X117244290Y-77342712D01*
X117257597Y-77336418D01*
X117271457Y-77331459D01*
X117285736Y-77327882D01*
X117300297Y-77325722D01*
X117315000Y-77325000D01*
X117615000Y-77325000D01*
X117629703Y-77325722D01*
G37*
G36*
X116359703Y-77325722D02*
G01*
X116374264Y-77327882D01*
X116388543Y-77331459D01*
X116402403Y-77336418D01*
X116415710Y-77342712D01*
X116428336Y-77350280D01*
X116440159Y-77359048D01*
X116451066Y-77368934D01*
X116460952Y-77379841D01*
X116469720Y-77391664D01*
X116477288Y-77404290D01*
X116483582Y-77417597D01*
X116488541Y-77431457D01*
X116492118Y-77445736D01*
X116494278Y-77460297D01*
X116495000Y-77475000D01*
X116495000Y-79225000D01*
X116494278Y-79239703D01*
X116492118Y-79254264D01*
X116488541Y-79268543D01*
X116483582Y-79282403D01*
X116477288Y-79295710D01*
X116469720Y-79308336D01*
X116460952Y-79320159D01*
X116451066Y-79331066D01*
X116440159Y-79340952D01*
X116428336Y-79349720D01*
X116415710Y-79357288D01*
X116402403Y-79363582D01*
X116388543Y-79368541D01*
X116374264Y-79372118D01*
X116359703Y-79374278D01*
X116345000Y-79375000D01*
X116045000Y-79375000D01*
X116030297Y-79374278D01*
X116015736Y-79372118D01*
X116001457Y-79368541D01*
X115987597Y-79363582D01*
X115974290Y-79357288D01*
X115961664Y-79349720D01*
X115949841Y-79340952D01*
X115938934Y-79331066D01*
X115929048Y-79320159D01*
X115920280Y-79308336D01*
X115912712Y-79295710D01*
X115906418Y-79282403D01*
X115901459Y-79268543D01*
X115897882Y-79254264D01*
X115895722Y-79239703D01*
X115895000Y-79225000D01*
X115895000Y-77475000D01*
X115895722Y-77460297D01*
X115897882Y-77445736D01*
X115901459Y-77431457D01*
X115906418Y-77417597D01*
X115912712Y-77404290D01*
X115920280Y-77391664D01*
X115929048Y-77379841D01*
X115938934Y-77368934D01*
X115949841Y-77359048D01*
X115961664Y-77350280D01*
X115974290Y-77342712D01*
X115987597Y-77336418D01*
X116001457Y-77331459D01*
X116015736Y-77327882D01*
X116030297Y-77325722D01*
X116045000Y-77325000D01*
X116345000Y-77325000D01*
X116359703Y-77325722D01*
G37*
G36*
X115089703Y-77325722D02*
G01*
X115104264Y-77327882D01*
X115118543Y-77331459D01*
X115132403Y-77336418D01*
X115145710Y-77342712D01*
X115158336Y-77350280D01*
X115170159Y-77359048D01*
X115181066Y-77368934D01*
X115190952Y-77379841D01*
X115199720Y-77391664D01*
X115207288Y-77404290D01*
X115213582Y-77417597D01*
X115218541Y-77431457D01*
X115222118Y-77445736D01*
X115224278Y-77460297D01*
X115225000Y-77475000D01*
X115225000Y-79225000D01*
X115224278Y-79239703D01*
X115222118Y-79254264D01*
X115218541Y-79268543D01*
X115213582Y-79282403D01*
X115207288Y-79295710D01*
X115199720Y-79308336D01*
X115190952Y-79320159D01*
X115181066Y-79331066D01*
X115170159Y-79340952D01*
X115158336Y-79349720D01*
X115145710Y-79357288D01*
X115132403Y-79363582D01*
X115118543Y-79368541D01*
X115104264Y-79372118D01*
X115089703Y-79374278D01*
X115075000Y-79375000D01*
X114775000Y-79375000D01*
X114760297Y-79374278D01*
X114745736Y-79372118D01*
X114731457Y-79368541D01*
X114717597Y-79363582D01*
X114704290Y-79357288D01*
X114691664Y-79349720D01*
X114679841Y-79340952D01*
X114668934Y-79331066D01*
X114659048Y-79320159D01*
X114650280Y-79308336D01*
X114642712Y-79295710D01*
X114636418Y-79282403D01*
X114631459Y-79268543D01*
X114627882Y-79254264D01*
X114625722Y-79239703D01*
X114625000Y-79225000D01*
X114625000Y-77475000D01*
X114625722Y-77460297D01*
X114627882Y-77445736D01*
X114631459Y-77431457D01*
X114636418Y-77417597D01*
X114642712Y-77404290D01*
X114650280Y-77391664D01*
X114659048Y-77379841D01*
X114668934Y-77368934D01*
X114679841Y-77359048D01*
X114691664Y-77350280D01*
X114704290Y-77342712D01*
X114717597Y-77336418D01*
X114731457Y-77331459D01*
X114745736Y-77327882D01*
X114760297Y-77325722D01*
X114775000Y-77325000D01*
X115075000Y-77325000D01*
X115089703Y-77325722D01*
G37*
G36*
X113819703Y-77325722D02*
G01*
X113834264Y-77327882D01*
X113848543Y-77331459D01*
X113862403Y-77336418D01*
X113875710Y-77342712D01*
X113888336Y-77350280D01*
X113900159Y-77359048D01*
X113911066Y-77368934D01*
X113920952Y-77379841D01*
X113929720Y-77391664D01*
X113937288Y-77404290D01*
X113943582Y-77417597D01*
X113948541Y-77431457D01*
X113952118Y-77445736D01*
X113954278Y-77460297D01*
X113955000Y-77475000D01*
X113955000Y-79225000D01*
X113954278Y-79239703D01*
X113952118Y-79254264D01*
X113948541Y-79268543D01*
X113943582Y-79282403D01*
X113937288Y-79295710D01*
X113929720Y-79308336D01*
X113920952Y-79320159D01*
X113911066Y-79331066D01*
X113900159Y-79340952D01*
X113888336Y-79349720D01*
X113875710Y-79357288D01*
X113862403Y-79363582D01*
X113848543Y-79368541D01*
X113834264Y-79372118D01*
X113819703Y-79374278D01*
X113805000Y-79375000D01*
X113505000Y-79375000D01*
X113490297Y-79374278D01*
X113475736Y-79372118D01*
X113461457Y-79368541D01*
X113447597Y-79363582D01*
X113434290Y-79357288D01*
X113421664Y-79349720D01*
X113409841Y-79340952D01*
X113398934Y-79331066D01*
X113389048Y-79320159D01*
X113380280Y-79308336D01*
X113372712Y-79295710D01*
X113366418Y-79282403D01*
X113361459Y-79268543D01*
X113357882Y-79254264D01*
X113355722Y-79239703D01*
X113355000Y-79225000D01*
X113355000Y-77475000D01*
X113355722Y-77460297D01*
X113357882Y-77445736D01*
X113361459Y-77431457D01*
X113366418Y-77417597D01*
X113372712Y-77404290D01*
X113380280Y-77391664D01*
X113389048Y-77379841D01*
X113398934Y-77368934D01*
X113409841Y-77359048D01*
X113421664Y-77350280D01*
X113434290Y-77342712D01*
X113447597Y-77336418D01*
X113461457Y-77331459D01*
X113475736Y-77327882D01*
X113490297Y-77325722D01*
X113505000Y-77325000D01*
X113805000Y-77325000D01*
X113819703Y-77325722D01*
G37*
G36*
X112549703Y-77325722D02*
G01*
X112564264Y-77327882D01*
X112578543Y-77331459D01*
X112592403Y-77336418D01*
X112605710Y-77342712D01*
X112618336Y-77350280D01*
X112630159Y-77359048D01*
X112641066Y-77368934D01*
X112650952Y-77379841D01*
X112659720Y-77391664D01*
X112667288Y-77404290D01*
X112673582Y-77417597D01*
X112678541Y-77431457D01*
X112682118Y-77445736D01*
X112684278Y-77460297D01*
X112685000Y-77475000D01*
X112685000Y-79225000D01*
X112684278Y-79239703D01*
X112682118Y-79254264D01*
X112678541Y-79268543D01*
X112673582Y-79282403D01*
X112667288Y-79295710D01*
X112659720Y-79308336D01*
X112650952Y-79320159D01*
X112641066Y-79331066D01*
X112630159Y-79340952D01*
X112618336Y-79349720D01*
X112605710Y-79357288D01*
X112592403Y-79363582D01*
X112578543Y-79368541D01*
X112564264Y-79372118D01*
X112549703Y-79374278D01*
X112535000Y-79375000D01*
X112235000Y-79375000D01*
X112220297Y-79374278D01*
X112205736Y-79372118D01*
X112191457Y-79368541D01*
X112177597Y-79363582D01*
X112164290Y-79357288D01*
X112151664Y-79349720D01*
X112139841Y-79340952D01*
X112128934Y-79331066D01*
X112119048Y-79320159D01*
X112110280Y-79308336D01*
X112102712Y-79295710D01*
X112096418Y-79282403D01*
X112091459Y-79268543D01*
X112087882Y-79254264D01*
X112085722Y-79239703D01*
X112085000Y-79225000D01*
X112085000Y-77475000D01*
X112085722Y-77460297D01*
X112087882Y-77445736D01*
X112091459Y-77431457D01*
X112096418Y-77417597D01*
X112102712Y-77404290D01*
X112110280Y-77391664D01*
X112119048Y-77379841D01*
X112128934Y-77368934D01*
X112139841Y-77359048D01*
X112151664Y-77350280D01*
X112164290Y-77342712D01*
X112177597Y-77336418D01*
X112191457Y-77331459D01*
X112205736Y-77327882D01*
X112220297Y-77325722D01*
X112235000Y-77325000D01*
X112535000Y-77325000D01*
X112549703Y-77325722D01*
G37*
G36*
X111279703Y-77325722D02*
G01*
X111294264Y-77327882D01*
X111308543Y-77331459D01*
X111322403Y-77336418D01*
X111335710Y-77342712D01*
X111348336Y-77350280D01*
X111360159Y-77359048D01*
X111371066Y-77368934D01*
X111380952Y-77379841D01*
X111389720Y-77391664D01*
X111397288Y-77404290D01*
X111403582Y-77417597D01*
X111408541Y-77431457D01*
X111412118Y-77445736D01*
X111414278Y-77460297D01*
X111415000Y-77475000D01*
X111415000Y-79225000D01*
X111414278Y-79239703D01*
X111412118Y-79254264D01*
X111408541Y-79268543D01*
X111403582Y-79282403D01*
X111397288Y-79295710D01*
X111389720Y-79308336D01*
X111380952Y-79320159D01*
X111371066Y-79331066D01*
X111360159Y-79340952D01*
X111348336Y-79349720D01*
X111335710Y-79357288D01*
X111322403Y-79363582D01*
X111308543Y-79368541D01*
X111294264Y-79372118D01*
X111279703Y-79374278D01*
X111265000Y-79375000D01*
X110965000Y-79375000D01*
X110950297Y-79374278D01*
X110935736Y-79372118D01*
X110921457Y-79368541D01*
X110907597Y-79363582D01*
X110894290Y-79357288D01*
X110881664Y-79349720D01*
X110869841Y-79340952D01*
X110858934Y-79331066D01*
X110849048Y-79320159D01*
X110840280Y-79308336D01*
X110832712Y-79295710D01*
X110826418Y-79282403D01*
X110821459Y-79268543D01*
X110817882Y-79254264D01*
X110815722Y-79239703D01*
X110815000Y-79225000D01*
X110815000Y-77475000D01*
X110815722Y-77460297D01*
X110817882Y-77445736D01*
X110821459Y-77431457D01*
X110826418Y-77417597D01*
X110832712Y-77404290D01*
X110840280Y-77391664D01*
X110849048Y-77379841D01*
X110858934Y-77368934D01*
X110869841Y-77359048D01*
X110881664Y-77350280D01*
X110894290Y-77342712D01*
X110907597Y-77336418D01*
X110921457Y-77331459D01*
X110935736Y-77327882D01*
X110950297Y-77325722D01*
X110965000Y-77325000D01*
X111265000Y-77325000D01*
X111279703Y-77325722D01*
G37*
G36*
X110009703Y-77325722D02*
G01*
X110024264Y-77327882D01*
X110038543Y-77331459D01*
X110052403Y-77336418D01*
X110065710Y-77342712D01*
X110078336Y-77350280D01*
X110090159Y-77359048D01*
X110101066Y-77368934D01*
X110110952Y-77379841D01*
X110119720Y-77391664D01*
X110127288Y-77404290D01*
X110133582Y-77417597D01*
X110138541Y-77431457D01*
X110142118Y-77445736D01*
X110144278Y-77460297D01*
X110145000Y-77475000D01*
X110145000Y-79225000D01*
X110144278Y-79239703D01*
X110142118Y-79254264D01*
X110138541Y-79268543D01*
X110133582Y-79282403D01*
X110127288Y-79295710D01*
X110119720Y-79308336D01*
X110110952Y-79320159D01*
X110101066Y-79331066D01*
X110090159Y-79340952D01*
X110078336Y-79349720D01*
X110065710Y-79357288D01*
X110052403Y-79363582D01*
X110038543Y-79368541D01*
X110024264Y-79372118D01*
X110009703Y-79374278D01*
X109995000Y-79375000D01*
X109695000Y-79375000D01*
X109680297Y-79374278D01*
X109665736Y-79372118D01*
X109651457Y-79368541D01*
X109637597Y-79363582D01*
X109624290Y-79357288D01*
X109611664Y-79349720D01*
X109599841Y-79340952D01*
X109588934Y-79331066D01*
X109579048Y-79320159D01*
X109570280Y-79308336D01*
X109562712Y-79295710D01*
X109556418Y-79282403D01*
X109551459Y-79268543D01*
X109547882Y-79254264D01*
X109545722Y-79239703D01*
X109545000Y-79225000D01*
X109545000Y-77475000D01*
X109545722Y-77460297D01*
X109547882Y-77445736D01*
X109551459Y-77431457D01*
X109556418Y-77417597D01*
X109562712Y-77404290D01*
X109570280Y-77391664D01*
X109579048Y-77379841D01*
X109588934Y-77368934D01*
X109599841Y-77359048D01*
X109611664Y-77350280D01*
X109624290Y-77342712D01*
X109637597Y-77336418D01*
X109651457Y-77331459D01*
X109665736Y-77327882D01*
X109680297Y-77325722D01*
X109695000Y-77325000D01*
X109995000Y-77325000D01*
X110009703Y-77325722D01*
G37*
G36*
X108739703Y-77325722D02*
G01*
X108754264Y-77327882D01*
X108768543Y-77331459D01*
X108782403Y-77336418D01*
X108795710Y-77342712D01*
X108808336Y-77350280D01*
X108820159Y-77359048D01*
X108831066Y-77368934D01*
X108840952Y-77379841D01*
X108849720Y-77391664D01*
X108857288Y-77404290D01*
X108863582Y-77417597D01*
X108868541Y-77431457D01*
X108872118Y-77445736D01*
X108874278Y-77460297D01*
X108875000Y-77475000D01*
X108875000Y-79225000D01*
X108874278Y-79239703D01*
X108872118Y-79254264D01*
X108868541Y-79268543D01*
X108863582Y-79282403D01*
X108857288Y-79295710D01*
X108849720Y-79308336D01*
X108840952Y-79320159D01*
X108831066Y-79331066D01*
X108820159Y-79340952D01*
X108808336Y-79349720D01*
X108795710Y-79357288D01*
X108782403Y-79363582D01*
X108768543Y-79368541D01*
X108754264Y-79372118D01*
X108739703Y-79374278D01*
X108725000Y-79375000D01*
X108425000Y-79375000D01*
X108410297Y-79374278D01*
X108395736Y-79372118D01*
X108381457Y-79368541D01*
X108367597Y-79363582D01*
X108354290Y-79357288D01*
X108341664Y-79349720D01*
X108329841Y-79340952D01*
X108318934Y-79331066D01*
X108309048Y-79320159D01*
X108300280Y-79308336D01*
X108292712Y-79295710D01*
X108286418Y-79282403D01*
X108281459Y-79268543D01*
X108277882Y-79254264D01*
X108275722Y-79239703D01*
X108275000Y-79225000D01*
X108275000Y-77475000D01*
X108275722Y-77460297D01*
X108277882Y-77445736D01*
X108281459Y-77431457D01*
X108286418Y-77417597D01*
X108292712Y-77404290D01*
X108300280Y-77391664D01*
X108309048Y-77379841D01*
X108318934Y-77368934D01*
X108329841Y-77359048D01*
X108341664Y-77350280D01*
X108354290Y-77342712D01*
X108367597Y-77336418D01*
X108381457Y-77331459D01*
X108395736Y-77327882D01*
X108410297Y-77325722D01*
X108425000Y-77325000D01*
X108725000Y-77325000D01*
X108739703Y-77325722D01*
G37*
G36*
X107469703Y-77325722D02*
G01*
X107484264Y-77327882D01*
X107498543Y-77331459D01*
X107512403Y-77336418D01*
X107525710Y-77342712D01*
X107538336Y-77350280D01*
X107550159Y-77359048D01*
X107561066Y-77368934D01*
X107570952Y-77379841D01*
X107579720Y-77391664D01*
X107587288Y-77404290D01*
X107593582Y-77417597D01*
X107598541Y-77431457D01*
X107602118Y-77445736D01*
X107604278Y-77460297D01*
X107605000Y-77475000D01*
X107605000Y-79225000D01*
X107604278Y-79239703D01*
X107602118Y-79254264D01*
X107598541Y-79268543D01*
X107593582Y-79282403D01*
X107587288Y-79295710D01*
X107579720Y-79308336D01*
X107570952Y-79320159D01*
X107561066Y-79331066D01*
X107550159Y-79340952D01*
X107538336Y-79349720D01*
X107525710Y-79357288D01*
X107512403Y-79363582D01*
X107498543Y-79368541D01*
X107484264Y-79372118D01*
X107469703Y-79374278D01*
X107455000Y-79375000D01*
X107155000Y-79375000D01*
X107140297Y-79374278D01*
X107125736Y-79372118D01*
X107111457Y-79368541D01*
X107097597Y-79363582D01*
X107084290Y-79357288D01*
X107071664Y-79349720D01*
X107059841Y-79340952D01*
X107048934Y-79331066D01*
X107039048Y-79320159D01*
X107030280Y-79308336D01*
X107022712Y-79295710D01*
X107016418Y-79282403D01*
X107011459Y-79268543D01*
X107007882Y-79254264D01*
X107005722Y-79239703D01*
X107005000Y-79225000D01*
X107005000Y-77475000D01*
X107005722Y-77460297D01*
X107007882Y-77445736D01*
X107011459Y-77431457D01*
X107016418Y-77417597D01*
X107022712Y-77404290D01*
X107030280Y-77391664D01*
X107039048Y-77379841D01*
X107048934Y-77368934D01*
X107059841Y-77359048D01*
X107071664Y-77350280D01*
X107084290Y-77342712D01*
X107097597Y-77336418D01*
X107111457Y-77331459D01*
X107125736Y-77327882D01*
X107140297Y-77325722D01*
X107155000Y-77325000D01*
X107455000Y-77325000D01*
X107469703Y-77325722D01*
G37*
G36*
X106199703Y-77325722D02*
G01*
X106214264Y-77327882D01*
X106228543Y-77331459D01*
X106242403Y-77336418D01*
X106255710Y-77342712D01*
X106268336Y-77350280D01*
X106280159Y-77359048D01*
X106291066Y-77368934D01*
X106300952Y-77379841D01*
X106309720Y-77391664D01*
X106317288Y-77404290D01*
X106323582Y-77417597D01*
X106328541Y-77431457D01*
X106332118Y-77445736D01*
X106334278Y-77460297D01*
X106335000Y-77475000D01*
X106335000Y-79225000D01*
X106334278Y-79239703D01*
X106332118Y-79254264D01*
X106328541Y-79268543D01*
X106323582Y-79282403D01*
X106317288Y-79295710D01*
X106309720Y-79308336D01*
X106300952Y-79320159D01*
X106291066Y-79331066D01*
X106280159Y-79340952D01*
X106268336Y-79349720D01*
X106255710Y-79357288D01*
X106242403Y-79363582D01*
X106228543Y-79368541D01*
X106214264Y-79372118D01*
X106199703Y-79374278D01*
X106185000Y-79375000D01*
X105885000Y-79375000D01*
X105870297Y-79374278D01*
X105855736Y-79372118D01*
X105841457Y-79368541D01*
X105827597Y-79363582D01*
X105814290Y-79357288D01*
X105801664Y-79349720D01*
X105789841Y-79340952D01*
X105778934Y-79331066D01*
X105769048Y-79320159D01*
X105760280Y-79308336D01*
X105752712Y-79295710D01*
X105746418Y-79282403D01*
X105741459Y-79268543D01*
X105737882Y-79254264D01*
X105735722Y-79239703D01*
X105735000Y-79225000D01*
X105735000Y-77475000D01*
X105735722Y-77460297D01*
X105737882Y-77445736D01*
X105741459Y-77431457D01*
X105746418Y-77417597D01*
X105752712Y-77404290D01*
X105760280Y-77391664D01*
X105769048Y-77379841D01*
X105778934Y-77368934D01*
X105789841Y-77359048D01*
X105801664Y-77350280D01*
X105814290Y-77342712D01*
X105827597Y-77336418D01*
X105841457Y-77331459D01*
X105855736Y-77327882D01*
X105870297Y-77325722D01*
X105885000Y-77325000D01*
X106185000Y-77325000D01*
X106199703Y-77325722D01*
G37*
G36*
X104929703Y-77325722D02*
G01*
X104944264Y-77327882D01*
X104958543Y-77331459D01*
X104972403Y-77336418D01*
X104985710Y-77342712D01*
X104998336Y-77350280D01*
X105010159Y-77359048D01*
X105021066Y-77368934D01*
X105030952Y-77379841D01*
X105039720Y-77391664D01*
X105047288Y-77404290D01*
X105053582Y-77417597D01*
X105058541Y-77431457D01*
X105062118Y-77445736D01*
X105064278Y-77460297D01*
X105065000Y-77475000D01*
X105065000Y-79225000D01*
X105064278Y-79239703D01*
X105062118Y-79254264D01*
X105058541Y-79268543D01*
X105053582Y-79282403D01*
X105047288Y-79295710D01*
X105039720Y-79308336D01*
X105030952Y-79320159D01*
X105021066Y-79331066D01*
X105010159Y-79340952D01*
X104998336Y-79349720D01*
X104985710Y-79357288D01*
X104972403Y-79363582D01*
X104958543Y-79368541D01*
X104944264Y-79372118D01*
X104929703Y-79374278D01*
X104915000Y-79375000D01*
X104615000Y-79375000D01*
X104600297Y-79374278D01*
X104585736Y-79372118D01*
X104571457Y-79368541D01*
X104557597Y-79363582D01*
X104544290Y-79357288D01*
X104531664Y-79349720D01*
X104519841Y-79340952D01*
X104508934Y-79331066D01*
X104499048Y-79320159D01*
X104490280Y-79308336D01*
X104482712Y-79295710D01*
X104476418Y-79282403D01*
X104471459Y-79268543D01*
X104467882Y-79254264D01*
X104465722Y-79239703D01*
X104465000Y-79225000D01*
X104465000Y-77475000D01*
X104465722Y-77460297D01*
X104467882Y-77445736D01*
X104471459Y-77431457D01*
X104476418Y-77417597D01*
X104482712Y-77404290D01*
X104490280Y-77391664D01*
X104499048Y-77379841D01*
X104508934Y-77368934D01*
X104519841Y-77359048D01*
X104531664Y-77350280D01*
X104544290Y-77342712D01*
X104557597Y-77336418D01*
X104571457Y-77331459D01*
X104585736Y-77327882D01*
X104600297Y-77325722D01*
X104615000Y-77325000D01*
X104915000Y-77325000D01*
X104929703Y-77325722D01*
G37*
G36*
X103659703Y-77325722D02*
G01*
X103674264Y-77327882D01*
X103688543Y-77331459D01*
X103702403Y-77336418D01*
X103715710Y-77342712D01*
X103728336Y-77350280D01*
X103740159Y-77359048D01*
X103751066Y-77368934D01*
X103760952Y-77379841D01*
X103769720Y-77391664D01*
X103777288Y-77404290D01*
X103783582Y-77417597D01*
X103788541Y-77431457D01*
X103792118Y-77445736D01*
X103794278Y-77460297D01*
X103795000Y-77475000D01*
X103795000Y-79225000D01*
X103794278Y-79239703D01*
X103792118Y-79254264D01*
X103788541Y-79268543D01*
X103783582Y-79282403D01*
X103777288Y-79295710D01*
X103769720Y-79308336D01*
X103760952Y-79320159D01*
X103751066Y-79331066D01*
X103740159Y-79340952D01*
X103728336Y-79349720D01*
X103715710Y-79357288D01*
X103702403Y-79363582D01*
X103688543Y-79368541D01*
X103674264Y-79372118D01*
X103659703Y-79374278D01*
X103645000Y-79375000D01*
X103345000Y-79375000D01*
X103330297Y-79374278D01*
X103315736Y-79372118D01*
X103301457Y-79368541D01*
X103287597Y-79363582D01*
X103274290Y-79357288D01*
X103261664Y-79349720D01*
X103249841Y-79340952D01*
X103238934Y-79331066D01*
X103229048Y-79320159D01*
X103220280Y-79308336D01*
X103212712Y-79295710D01*
X103206418Y-79282403D01*
X103201459Y-79268543D01*
X103197882Y-79254264D01*
X103195722Y-79239703D01*
X103195000Y-79225000D01*
X103195000Y-77475000D01*
X103195722Y-77460297D01*
X103197882Y-77445736D01*
X103201459Y-77431457D01*
X103206418Y-77417597D01*
X103212712Y-77404290D01*
X103220280Y-77391664D01*
X103229048Y-77379841D01*
X103238934Y-77368934D01*
X103249841Y-77359048D01*
X103261664Y-77350280D01*
X103274290Y-77342712D01*
X103287597Y-77336418D01*
X103301457Y-77331459D01*
X103315736Y-77327882D01*
X103330297Y-77325722D01*
X103345000Y-77325000D01*
X103645000Y-77325000D01*
X103659703Y-77325722D01*
G37*
G36*
X115392642Y-73301174D02*
G01*
X115416303Y-73304684D01*
X115439507Y-73310496D01*
X115462029Y-73318554D01*
X115483653Y-73328782D01*
X115504170Y-73341079D01*
X115523383Y-73355329D01*
X115541107Y-73371393D01*
X115557171Y-73389117D01*
X115571421Y-73408330D01*
X115583718Y-73428847D01*
X115593946Y-73450471D01*
X115602004Y-73472993D01*
X115607816Y-73496197D01*
X115611326Y-73519858D01*
X115612500Y-73543750D01*
X115612500Y-74456250D01*
X115611326Y-74480142D01*
X115607816Y-74503803D01*
X115602004Y-74527007D01*
X115593946Y-74549529D01*
X115583718Y-74571153D01*
X115571421Y-74591670D01*
X115557171Y-74610883D01*
X115541107Y-74628607D01*
X115523383Y-74644671D01*
X115504170Y-74658921D01*
X115483653Y-74671218D01*
X115462029Y-74681446D01*
X115439507Y-74689504D01*
X115416303Y-74695316D01*
X115392642Y-74698826D01*
X115368750Y-74700000D01*
X114881250Y-74700000D01*
X114857358Y-74698826D01*
X114833697Y-74695316D01*
X114810493Y-74689504D01*
X114787971Y-74681446D01*
X114766347Y-74671218D01*
X114745830Y-74658921D01*
X114726617Y-74644671D01*
X114708893Y-74628607D01*
X114692829Y-74610883D01*
X114678579Y-74591670D01*
X114666282Y-74571153D01*
X114656054Y-74549529D01*
X114647996Y-74527007D01*
X114642184Y-74503803D01*
X114638674Y-74480142D01*
X114637500Y-74456250D01*
X114637500Y-73543750D01*
X114638674Y-73519858D01*
X114642184Y-73496197D01*
X114647996Y-73472993D01*
X114656054Y-73450471D01*
X114666282Y-73428847D01*
X114678579Y-73408330D01*
X114692829Y-73389117D01*
X114708893Y-73371393D01*
X114726617Y-73355329D01*
X114745830Y-73341079D01*
X114766347Y-73328782D01*
X114787971Y-73318554D01*
X114810493Y-73310496D01*
X114833697Y-73304684D01*
X114857358Y-73301174D01*
X114881250Y-73300000D01*
X115368750Y-73300000D01*
X115392642Y-73301174D01*
G37*
G36*
X113517642Y-73301174D02*
G01*
X113541303Y-73304684D01*
X113564507Y-73310496D01*
X113587029Y-73318554D01*
X113608653Y-73328782D01*
X113629170Y-73341079D01*
X113648383Y-73355329D01*
X113666107Y-73371393D01*
X113682171Y-73389117D01*
X113696421Y-73408330D01*
X113708718Y-73428847D01*
X113718946Y-73450471D01*
X113727004Y-73472993D01*
X113732816Y-73496197D01*
X113736326Y-73519858D01*
X113737500Y-73543750D01*
X113737500Y-74456250D01*
X113736326Y-74480142D01*
X113732816Y-74503803D01*
X113727004Y-74527007D01*
X113718946Y-74549529D01*
X113708718Y-74571153D01*
X113696421Y-74591670D01*
X113682171Y-74610883D01*
X113666107Y-74628607D01*
X113648383Y-74644671D01*
X113629170Y-74658921D01*
X113608653Y-74671218D01*
X113587029Y-74681446D01*
X113564507Y-74689504D01*
X113541303Y-74695316D01*
X113517642Y-74698826D01*
X113493750Y-74700000D01*
X113006250Y-74700000D01*
X112982358Y-74698826D01*
X112958697Y-74695316D01*
X112935493Y-74689504D01*
X112912971Y-74681446D01*
X112891347Y-74671218D01*
X112870830Y-74658921D01*
X112851617Y-74644671D01*
X112833893Y-74628607D01*
X112817829Y-74610883D01*
X112803579Y-74591670D01*
X112791282Y-74571153D01*
X112781054Y-74549529D01*
X112772996Y-74527007D01*
X112767184Y-74503803D01*
X112763674Y-74480142D01*
X112762500Y-74456250D01*
X112762500Y-73543750D01*
X112763674Y-73519858D01*
X112767184Y-73496197D01*
X112772996Y-73472993D01*
X112781054Y-73450471D01*
X112791282Y-73428847D01*
X112803579Y-73408330D01*
X112817829Y-73389117D01*
X112833893Y-73371393D01*
X112851617Y-73355329D01*
X112870830Y-73341079D01*
X112891347Y-73328782D01*
X112912971Y-73318554D01*
X112935493Y-73310496D01*
X112958697Y-73304684D01*
X112982358Y-73301174D01*
X113006250Y-73300000D01*
X113493750Y-73300000D01*
X113517642Y-73301174D01*
G37*
G36*
X115392642Y-75301174D02*
G01*
X115416303Y-75304684D01*
X115439507Y-75310496D01*
X115462029Y-75318554D01*
X115483653Y-75328782D01*
X115504170Y-75341079D01*
X115523383Y-75355329D01*
X115541107Y-75371393D01*
X115557171Y-75389117D01*
X115571421Y-75408330D01*
X115583718Y-75428847D01*
X115593946Y-75450471D01*
X115602004Y-75472993D01*
X115607816Y-75496197D01*
X115611326Y-75519858D01*
X115612500Y-75543750D01*
X115612500Y-76456250D01*
X115611326Y-76480142D01*
X115607816Y-76503803D01*
X115602004Y-76527007D01*
X115593946Y-76549529D01*
X115583718Y-76571153D01*
X115571421Y-76591670D01*
X115557171Y-76610883D01*
X115541107Y-76628607D01*
X115523383Y-76644671D01*
X115504170Y-76658921D01*
X115483653Y-76671218D01*
X115462029Y-76681446D01*
X115439507Y-76689504D01*
X115416303Y-76695316D01*
X115392642Y-76698826D01*
X115368750Y-76700000D01*
X114881250Y-76700000D01*
X114857358Y-76698826D01*
X114833697Y-76695316D01*
X114810493Y-76689504D01*
X114787971Y-76681446D01*
X114766347Y-76671218D01*
X114745830Y-76658921D01*
X114726617Y-76644671D01*
X114708893Y-76628607D01*
X114692829Y-76610883D01*
X114678579Y-76591670D01*
X114666282Y-76571153D01*
X114656054Y-76549529D01*
X114647996Y-76527007D01*
X114642184Y-76503803D01*
X114638674Y-76480142D01*
X114637500Y-76456250D01*
X114637500Y-75543750D01*
X114638674Y-75519858D01*
X114642184Y-75496197D01*
X114647996Y-75472993D01*
X114656054Y-75450471D01*
X114666282Y-75428847D01*
X114678579Y-75408330D01*
X114692829Y-75389117D01*
X114708893Y-75371393D01*
X114726617Y-75355329D01*
X114745830Y-75341079D01*
X114766347Y-75328782D01*
X114787971Y-75318554D01*
X114810493Y-75310496D01*
X114833697Y-75304684D01*
X114857358Y-75301174D01*
X114881250Y-75300000D01*
X115368750Y-75300000D01*
X115392642Y-75301174D01*
G37*
G36*
X113517642Y-75301174D02*
G01*
X113541303Y-75304684D01*
X113564507Y-75310496D01*
X113587029Y-75318554D01*
X113608653Y-75328782D01*
X113629170Y-75341079D01*
X113648383Y-75355329D01*
X113666107Y-75371393D01*
X113682171Y-75389117D01*
X113696421Y-75408330D01*
X113708718Y-75428847D01*
X113718946Y-75450471D01*
X113727004Y-75472993D01*
X113732816Y-75496197D01*
X113736326Y-75519858D01*
X113737500Y-75543750D01*
X113737500Y-76456250D01*
X113736326Y-76480142D01*
X113732816Y-76503803D01*
X113727004Y-76527007D01*
X113718946Y-76549529D01*
X113708718Y-76571153D01*
X113696421Y-76591670D01*
X113682171Y-76610883D01*
X113666107Y-76628607D01*
X113648383Y-76644671D01*
X113629170Y-76658921D01*
X113608653Y-76671218D01*
X113587029Y-76681446D01*
X113564507Y-76689504D01*
X113541303Y-76695316D01*
X113517642Y-76698826D01*
X113493750Y-76700000D01*
X113006250Y-76700000D01*
X112982358Y-76698826D01*
X112958697Y-76695316D01*
X112935493Y-76689504D01*
X112912971Y-76681446D01*
X112891347Y-76671218D01*
X112870830Y-76658921D01*
X112851617Y-76644671D01*
X112833893Y-76628607D01*
X112817829Y-76610883D01*
X112803579Y-76591670D01*
X112791282Y-76571153D01*
X112781054Y-76549529D01*
X112772996Y-76527007D01*
X112767184Y-76503803D01*
X112763674Y-76480142D01*
X112762500Y-76456250D01*
X112762500Y-75543750D01*
X112763674Y-75519858D01*
X112767184Y-75496197D01*
X112772996Y-75472993D01*
X112781054Y-75450471D01*
X112791282Y-75428847D01*
X112803579Y-75408330D01*
X112817829Y-75389117D01*
X112833893Y-75371393D01*
X112851617Y-75355329D01*
X112870830Y-75341079D01*
X112891347Y-75328782D01*
X112912971Y-75318554D01*
X112935493Y-75310496D01*
X112958697Y-75304684D01*
X112982358Y-75301174D01*
X113006250Y-75300000D01*
X113493750Y-75300000D01*
X113517642Y-75301174D01*
G37*
G36*
X93142642Y-73301174D02*
G01*
X93166303Y-73304684D01*
X93189507Y-73310496D01*
X93212029Y-73318554D01*
X93233653Y-73328782D01*
X93254170Y-73341079D01*
X93273383Y-73355329D01*
X93291107Y-73371393D01*
X93307171Y-73389117D01*
X93321421Y-73408330D01*
X93333718Y-73428847D01*
X93343946Y-73450471D01*
X93352004Y-73472993D01*
X93357816Y-73496197D01*
X93361326Y-73519858D01*
X93362500Y-73543750D01*
X93362500Y-74456250D01*
X93361326Y-74480142D01*
X93357816Y-74503803D01*
X93352004Y-74527007D01*
X93343946Y-74549529D01*
X93333718Y-74571153D01*
X93321421Y-74591670D01*
X93307171Y-74610883D01*
X93291107Y-74628607D01*
X93273383Y-74644671D01*
X93254170Y-74658921D01*
X93233653Y-74671218D01*
X93212029Y-74681446D01*
X93189507Y-74689504D01*
X93166303Y-74695316D01*
X93142642Y-74698826D01*
X93118750Y-74700000D01*
X92631250Y-74700000D01*
X92607358Y-74698826D01*
X92583697Y-74695316D01*
X92560493Y-74689504D01*
X92537971Y-74681446D01*
X92516347Y-74671218D01*
X92495830Y-74658921D01*
X92476617Y-74644671D01*
X92458893Y-74628607D01*
X92442829Y-74610883D01*
X92428579Y-74591670D01*
X92416282Y-74571153D01*
X92406054Y-74549529D01*
X92397996Y-74527007D01*
X92392184Y-74503803D01*
X92388674Y-74480142D01*
X92387500Y-74456250D01*
X92387500Y-73543750D01*
X92388674Y-73519858D01*
X92392184Y-73496197D01*
X92397996Y-73472993D01*
X92406054Y-73450471D01*
X92416282Y-73428847D01*
X92428579Y-73408330D01*
X92442829Y-73389117D01*
X92458893Y-73371393D01*
X92476617Y-73355329D01*
X92495830Y-73341079D01*
X92516347Y-73328782D01*
X92537971Y-73318554D01*
X92560493Y-73310496D01*
X92583697Y-73304684D01*
X92607358Y-73301174D01*
X92631250Y-73300000D01*
X93118750Y-73300000D01*
X93142642Y-73301174D01*
G37*
G36*
X91267642Y-73301174D02*
G01*
X91291303Y-73304684D01*
X91314507Y-73310496D01*
X91337029Y-73318554D01*
X91358653Y-73328782D01*
X91379170Y-73341079D01*
X91398383Y-73355329D01*
X91416107Y-73371393D01*
X91432171Y-73389117D01*
X91446421Y-73408330D01*
X91458718Y-73428847D01*
X91468946Y-73450471D01*
X91477004Y-73472993D01*
X91482816Y-73496197D01*
X91486326Y-73519858D01*
X91487500Y-73543750D01*
X91487500Y-74456250D01*
X91486326Y-74480142D01*
X91482816Y-74503803D01*
X91477004Y-74527007D01*
X91468946Y-74549529D01*
X91458718Y-74571153D01*
X91446421Y-74591670D01*
X91432171Y-74610883D01*
X91416107Y-74628607D01*
X91398383Y-74644671D01*
X91379170Y-74658921D01*
X91358653Y-74671218D01*
X91337029Y-74681446D01*
X91314507Y-74689504D01*
X91291303Y-74695316D01*
X91267642Y-74698826D01*
X91243750Y-74700000D01*
X90756250Y-74700000D01*
X90732358Y-74698826D01*
X90708697Y-74695316D01*
X90685493Y-74689504D01*
X90662971Y-74681446D01*
X90641347Y-74671218D01*
X90620830Y-74658921D01*
X90601617Y-74644671D01*
X90583893Y-74628607D01*
X90567829Y-74610883D01*
X90553579Y-74591670D01*
X90541282Y-74571153D01*
X90531054Y-74549529D01*
X90522996Y-74527007D01*
X90517184Y-74503803D01*
X90513674Y-74480142D01*
X90512500Y-74456250D01*
X90512500Y-73543750D01*
X90513674Y-73519858D01*
X90517184Y-73496197D01*
X90522996Y-73472993D01*
X90531054Y-73450471D01*
X90541282Y-73428847D01*
X90553579Y-73408330D01*
X90567829Y-73389117D01*
X90583893Y-73371393D01*
X90601617Y-73355329D01*
X90620830Y-73341079D01*
X90641347Y-73328782D01*
X90662971Y-73318554D01*
X90685493Y-73310496D01*
X90708697Y-73304684D01*
X90732358Y-73301174D01*
X90756250Y-73300000D01*
X91243750Y-73300000D01*
X91267642Y-73301174D01*
G37*
G36*
X93142642Y-75301174D02*
G01*
X93166303Y-75304684D01*
X93189507Y-75310496D01*
X93212029Y-75318554D01*
X93233653Y-75328782D01*
X93254170Y-75341079D01*
X93273383Y-75355329D01*
X93291107Y-75371393D01*
X93307171Y-75389117D01*
X93321421Y-75408330D01*
X93333718Y-75428847D01*
X93343946Y-75450471D01*
X93352004Y-75472993D01*
X93357816Y-75496197D01*
X93361326Y-75519858D01*
X93362500Y-75543750D01*
X93362500Y-76456250D01*
X93361326Y-76480142D01*
X93357816Y-76503803D01*
X93352004Y-76527007D01*
X93343946Y-76549529D01*
X93333718Y-76571153D01*
X93321421Y-76591670D01*
X93307171Y-76610883D01*
X93291107Y-76628607D01*
X93273383Y-76644671D01*
X93254170Y-76658921D01*
X93233653Y-76671218D01*
X93212029Y-76681446D01*
X93189507Y-76689504D01*
X93166303Y-76695316D01*
X93142642Y-76698826D01*
X93118750Y-76700000D01*
X92631250Y-76700000D01*
X92607358Y-76698826D01*
X92583697Y-76695316D01*
X92560493Y-76689504D01*
X92537971Y-76681446D01*
X92516347Y-76671218D01*
X92495830Y-76658921D01*
X92476617Y-76644671D01*
X92458893Y-76628607D01*
X92442829Y-76610883D01*
X92428579Y-76591670D01*
X92416282Y-76571153D01*
X92406054Y-76549529D01*
X92397996Y-76527007D01*
X92392184Y-76503803D01*
X92388674Y-76480142D01*
X92387500Y-76456250D01*
X92387500Y-75543750D01*
X92388674Y-75519858D01*
X92392184Y-75496197D01*
X92397996Y-75472993D01*
X92406054Y-75450471D01*
X92416282Y-75428847D01*
X92428579Y-75408330D01*
X92442829Y-75389117D01*
X92458893Y-75371393D01*
X92476617Y-75355329D01*
X92495830Y-75341079D01*
X92516347Y-75328782D01*
X92537971Y-75318554D01*
X92560493Y-75310496D01*
X92583697Y-75304684D01*
X92607358Y-75301174D01*
X92631250Y-75300000D01*
X93118750Y-75300000D01*
X93142642Y-75301174D01*
G37*
G36*
X91267642Y-75301174D02*
G01*
X91291303Y-75304684D01*
X91314507Y-75310496D01*
X91337029Y-75318554D01*
X91358653Y-75328782D01*
X91379170Y-75341079D01*
X91398383Y-75355329D01*
X91416107Y-75371393D01*
X91432171Y-75389117D01*
X91446421Y-75408330D01*
X91458718Y-75428847D01*
X91468946Y-75450471D01*
X91477004Y-75472993D01*
X91482816Y-75496197D01*
X91486326Y-75519858D01*
X91487500Y-75543750D01*
X91487500Y-76456250D01*
X91486326Y-76480142D01*
X91482816Y-76503803D01*
X91477004Y-76527007D01*
X91468946Y-76549529D01*
X91458718Y-76571153D01*
X91446421Y-76591670D01*
X91432171Y-76610883D01*
X91416107Y-76628607D01*
X91398383Y-76644671D01*
X91379170Y-76658921D01*
X91358653Y-76671218D01*
X91337029Y-76681446D01*
X91314507Y-76689504D01*
X91291303Y-76695316D01*
X91267642Y-76698826D01*
X91243750Y-76700000D01*
X90756250Y-76700000D01*
X90732358Y-76698826D01*
X90708697Y-76695316D01*
X90685493Y-76689504D01*
X90662971Y-76681446D01*
X90641347Y-76671218D01*
X90620830Y-76658921D01*
X90601617Y-76644671D01*
X90583893Y-76628607D01*
X90567829Y-76610883D01*
X90553579Y-76591670D01*
X90541282Y-76571153D01*
X90531054Y-76549529D01*
X90522996Y-76527007D01*
X90517184Y-76503803D01*
X90513674Y-76480142D01*
X90512500Y-76456250D01*
X90512500Y-75543750D01*
X90513674Y-75519858D01*
X90517184Y-75496197D01*
X90522996Y-75472993D01*
X90531054Y-75450471D01*
X90541282Y-75428847D01*
X90553579Y-75408330D01*
X90567829Y-75389117D01*
X90583893Y-75371393D01*
X90601617Y-75355329D01*
X90620830Y-75341079D01*
X90641347Y-75328782D01*
X90662971Y-75318554D01*
X90685493Y-75310496D01*
X90708697Y-75304684D01*
X90732358Y-75301174D01*
X90756250Y-75300000D01*
X91243750Y-75300000D01*
X91267642Y-75301174D01*
G37*
G36*
X131230142Y-81388674D02*
G01*
X131253803Y-81392184D01*
X131277007Y-81397996D01*
X131299529Y-81406054D01*
X131321153Y-81416282D01*
X131341670Y-81428579D01*
X131360883Y-81442829D01*
X131378607Y-81458893D01*
X131394671Y-81476617D01*
X131408921Y-81495830D01*
X131421218Y-81516347D01*
X131431446Y-81537971D01*
X131439504Y-81560493D01*
X131445316Y-81583697D01*
X131448826Y-81607358D01*
X131450000Y-81631250D01*
X131450000Y-82118750D01*
X131448826Y-82142642D01*
X131445316Y-82166303D01*
X131439504Y-82189507D01*
X131431446Y-82212029D01*
X131421218Y-82233653D01*
X131408921Y-82254170D01*
X131394671Y-82273383D01*
X131378607Y-82291107D01*
X131360883Y-82307171D01*
X131341670Y-82321421D01*
X131321153Y-82333718D01*
X131299529Y-82343946D01*
X131277007Y-82352004D01*
X131253803Y-82357816D01*
X131230142Y-82361326D01*
X131206250Y-82362500D01*
X130293750Y-82362500D01*
X130269858Y-82361326D01*
X130246197Y-82357816D01*
X130222993Y-82352004D01*
X130200471Y-82343946D01*
X130178847Y-82333718D01*
X130158330Y-82321421D01*
X130139117Y-82307171D01*
X130121393Y-82291107D01*
X130105329Y-82273383D01*
X130091079Y-82254170D01*
X130078782Y-82233653D01*
X130068554Y-82212029D01*
X130060496Y-82189507D01*
X130054684Y-82166303D01*
X130051174Y-82142642D01*
X130050000Y-82118750D01*
X130050000Y-81631250D01*
X130051174Y-81607358D01*
X130054684Y-81583697D01*
X130060496Y-81560493D01*
X130068554Y-81537971D01*
X130078782Y-81516347D01*
X130091079Y-81495830D01*
X130105329Y-81476617D01*
X130121393Y-81458893D01*
X130139117Y-81442829D01*
X130158330Y-81428579D01*
X130178847Y-81416282D01*
X130200471Y-81406054D01*
X130222993Y-81397996D01*
X130246197Y-81392184D01*
X130269858Y-81388674D01*
X130293750Y-81387500D01*
X131206250Y-81387500D01*
X131230142Y-81388674D01*
G37*
G36*
X131230142Y-79513674D02*
G01*
X131253803Y-79517184D01*
X131277007Y-79522996D01*
X131299529Y-79531054D01*
X131321153Y-79541282D01*
X131341670Y-79553579D01*
X131360883Y-79567829D01*
X131378607Y-79583893D01*
X131394671Y-79601617D01*
X131408921Y-79620830D01*
X131421218Y-79641347D01*
X131431446Y-79662971D01*
X131439504Y-79685493D01*
X131445316Y-79708697D01*
X131448826Y-79732358D01*
X131450000Y-79756250D01*
X131450000Y-80243750D01*
X131448826Y-80267642D01*
X131445316Y-80291303D01*
X131439504Y-80314507D01*
X131431446Y-80337029D01*
X131421218Y-80358653D01*
X131408921Y-80379170D01*
X131394671Y-80398383D01*
X131378607Y-80416107D01*
X131360883Y-80432171D01*
X131341670Y-80446421D01*
X131321153Y-80458718D01*
X131299529Y-80468946D01*
X131277007Y-80477004D01*
X131253803Y-80482816D01*
X131230142Y-80486326D01*
X131206250Y-80487500D01*
X130293750Y-80487500D01*
X130269858Y-80486326D01*
X130246197Y-80482816D01*
X130222993Y-80477004D01*
X130200471Y-80468946D01*
X130178847Y-80458718D01*
X130158330Y-80446421D01*
X130139117Y-80432171D01*
X130121393Y-80416107D01*
X130105329Y-80398383D01*
X130091079Y-80379170D01*
X130078782Y-80358653D01*
X130068554Y-80337029D01*
X130060496Y-80314507D01*
X130054684Y-80291303D01*
X130051174Y-80267642D01*
X130050000Y-80243750D01*
X130050000Y-79756250D01*
X130051174Y-79732358D01*
X130054684Y-79708697D01*
X130060496Y-79685493D01*
X130068554Y-79662971D01*
X130078782Y-79641347D01*
X130091079Y-79620830D01*
X130105329Y-79601617D01*
X130121393Y-79583893D01*
X130139117Y-79567829D01*
X130158330Y-79553579D01*
X130178847Y-79541282D01*
X130200471Y-79531054D01*
X130222993Y-79522996D01*
X130246197Y-79517184D01*
X130269858Y-79513674D01*
X130293750Y-79512500D01*
X131206250Y-79512500D01*
X131230142Y-79513674D01*
G37*
G36*
X129980142Y-82888674D02*
G01*
X130003803Y-82892184D01*
X130027007Y-82897996D01*
X130049529Y-82906054D01*
X130071153Y-82916282D01*
X130091670Y-82928579D01*
X130110883Y-82942829D01*
X130128607Y-82958893D01*
X130144671Y-82976617D01*
X130158921Y-82995830D01*
X130171218Y-83016347D01*
X130181446Y-83037971D01*
X130189504Y-83060493D01*
X130195316Y-83083697D01*
X130198826Y-83107358D01*
X130200000Y-83131250D01*
X130200000Y-83618750D01*
X130198826Y-83642642D01*
X130195316Y-83666303D01*
X130189504Y-83689507D01*
X130181446Y-83712029D01*
X130171218Y-83733653D01*
X130158921Y-83754170D01*
X130144671Y-83773383D01*
X130128607Y-83791107D01*
X130110883Y-83807171D01*
X130091670Y-83821421D01*
X130071153Y-83833718D01*
X130049529Y-83843946D01*
X130027007Y-83852004D01*
X130003803Y-83857816D01*
X129980142Y-83861326D01*
X129956250Y-83862500D01*
X129043750Y-83862500D01*
X129019858Y-83861326D01*
X128996197Y-83857816D01*
X128972993Y-83852004D01*
X128950471Y-83843946D01*
X128928847Y-83833718D01*
X128908330Y-83821421D01*
X128889117Y-83807171D01*
X128871393Y-83791107D01*
X128855329Y-83773383D01*
X128841079Y-83754170D01*
X128828782Y-83733653D01*
X128818554Y-83712029D01*
X128810496Y-83689507D01*
X128804684Y-83666303D01*
X128801174Y-83642642D01*
X128800000Y-83618750D01*
X128800000Y-83131250D01*
X128801174Y-83107358D01*
X128804684Y-83083697D01*
X128810496Y-83060493D01*
X128818554Y-83037971D01*
X128828782Y-83016347D01*
X128841079Y-82995830D01*
X128855329Y-82976617D01*
X128871393Y-82958893D01*
X128889117Y-82942829D01*
X128908330Y-82928579D01*
X128928847Y-82916282D01*
X128950471Y-82906054D01*
X128972993Y-82897996D01*
X128996197Y-82892184D01*
X129019858Y-82888674D01*
X129043750Y-82887500D01*
X129956250Y-82887500D01*
X129980142Y-82888674D01*
G37*
G36*
X129980142Y-84763674D02*
G01*
X130003803Y-84767184D01*
X130027007Y-84772996D01*
X130049529Y-84781054D01*
X130071153Y-84791282D01*
X130091670Y-84803579D01*
X130110883Y-84817829D01*
X130128607Y-84833893D01*
X130144671Y-84851617D01*
X130158921Y-84870830D01*
X130171218Y-84891347D01*
X130181446Y-84912971D01*
X130189504Y-84935493D01*
X130195316Y-84958697D01*
X130198826Y-84982358D01*
X130200000Y-85006250D01*
X130200000Y-85493750D01*
X130198826Y-85517642D01*
X130195316Y-85541303D01*
X130189504Y-85564507D01*
X130181446Y-85587029D01*
X130171218Y-85608653D01*
X130158921Y-85629170D01*
X130144671Y-85648383D01*
X130128607Y-85666107D01*
X130110883Y-85682171D01*
X130091670Y-85696421D01*
X130071153Y-85708718D01*
X130049529Y-85718946D01*
X130027007Y-85727004D01*
X130003803Y-85732816D01*
X129980142Y-85736326D01*
X129956250Y-85737500D01*
X129043750Y-85737500D01*
X129019858Y-85736326D01*
X128996197Y-85732816D01*
X128972993Y-85727004D01*
X128950471Y-85718946D01*
X128928847Y-85708718D01*
X128908330Y-85696421D01*
X128889117Y-85682171D01*
X128871393Y-85666107D01*
X128855329Y-85648383D01*
X128841079Y-85629170D01*
X128828782Y-85608653D01*
X128818554Y-85587029D01*
X128810496Y-85564507D01*
X128804684Y-85541303D01*
X128801174Y-85517642D01*
X128800000Y-85493750D01*
X128800000Y-85006250D01*
X128801174Y-84982358D01*
X128804684Y-84958697D01*
X128810496Y-84935493D01*
X128818554Y-84912971D01*
X128828782Y-84891347D01*
X128841079Y-84870830D01*
X128855329Y-84851617D01*
X128871393Y-84833893D01*
X128889117Y-84817829D01*
X128908330Y-84803579D01*
X128928847Y-84791282D01*
X128950471Y-84781054D01*
X128972993Y-84772996D01*
X128996197Y-84767184D01*
X129019858Y-84763674D01*
X129043750Y-84762500D01*
X129956250Y-84762500D01*
X129980142Y-84763674D01*
G37*
G36*
X101191142Y-78302174D02*
G01*
X101214803Y-78305684D01*
X101238007Y-78311496D01*
X101260529Y-78319554D01*
X101282153Y-78329782D01*
X101302670Y-78342079D01*
X101321883Y-78356329D01*
X101339607Y-78372393D01*
X101355671Y-78390117D01*
X101369921Y-78409330D01*
X101382218Y-78429847D01*
X101392446Y-78451471D01*
X101400504Y-78473993D01*
X101406316Y-78497197D01*
X101409826Y-78520858D01*
X101411000Y-78544750D01*
X101411000Y-79032250D01*
X101409826Y-79056142D01*
X101406316Y-79079803D01*
X101400504Y-79103007D01*
X101392446Y-79125529D01*
X101382218Y-79147153D01*
X101369921Y-79167670D01*
X101355671Y-79186883D01*
X101339607Y-79204607D01*
X101321883Y-79220671D01*
X101302670Y-79234921D01*
X101282153Y-79247218D01*
X101260529Y-79257446D01*
X101238007Y-79265504D01*
X101214803Y-79271316D01*
X101191142Y-79274826D01*
X101167250Y-79276000D01*
X100254750Y-79276000D01*
X100230858Y-79274826D01*
X100207197Y-79271316D01*
X100183993Y-79265504D01*
X100161471Y-79257446D01*
X100139847Y-79247218D01*
X100119330Y-79234921D01*
X100100117Y-79220671D01*
X100082393Y-79204607D01*
X100066329Y-79186883D01*
X100052079Y-79167670D01*
X100039782Y-79147153D01*
X100029554Y-79125529D01*
X100021496Y-79103007D01*
X100015684Y-79079803D01*
X100012174Y-79056142D01*
X100011000Y-79032250D01*
X100011000Y-78544750D01*
X100012174Y-78520858D01*
X100015684Y-78497197D01*
X100021496Y-78473993D01*
X100029554Y-78451471D01*
X100039782Y-78429847D01*
X100052079Y-78409330D01*
X100066329Y-78390117D01*
X100082393Y-78372393D01*
X100100117Y-78356329D01*
X100119330Y-78342079D01*
X100139847Y-78329782D01*
X100161471Y-78319554D01*
X100183993Y-78311496D01*
X100207197Y-78305684D01*
X100230858Y-78302174D01*
X100254750Y-78301000D01*
X101167250Y-78301000D01*
X101191142Y-78302174D01*
G37*
G36*
X101191142Y-76427174D02*
G01*
X101214803Y-76430684D01*
X101238007Y-76436496D01*
X101260529Y-76444554D01*
X101282153Y-76454782D01*
X101302670Y-76467079D01*
X101321883Y-76481329D01*
X101339607Y-76497393D01*
X101355671Y-76515117D01*
X101369921Y-76534330D01*
X101382218Y-76554847D01*
X101392446Y-76576471D01*
X101400504Y-76598993D01*
X101406316Y-76622197D01*
X101409826Y-76645858D01*
X101411000Y-76669750D01*
X101411000Y-77157250D01*
X101409826Y-77181142D01*
X101406316Y-77204803D01*
X101400504Y-77228007D01*
X101392446Y-77250529D01*
X101382218Y-77272153D01*
X101369921Y-77292670D01*
X101355671Y-77311883D01*
X101339607Y-77329607D01*
X101321883Y-77345671D01*
X101302670Y-77359921D01*
X101282153Y-77372218D01*
X101260529Y-77382446D01*
X101238007Y-77390504D01*
X101214803Y-77396316D01*
X101191142Y-77399826D01*
X101167250Y-77401000D01*
X100254750Y-77401000D01*
X100230858Y-77399826D01*
X100207197Y-77396316D01*
X100183993Y-77390504D01*
X100161471Y-77382446D01*
X100139847Y-77372218D01*
X100119330Y-77359921D01*
X100100117Y-77345671D01*
X100082393Y-77329607D01*
X100066329Y-77311883D01*
X100052079Y-77292670D01*
X100039782Y-77272153D01*
X100029554Y-77250529D01*
X100021496Y-77228007D01*
X100015684Y-77204803D01*
X100012174Y-77181142D01*
X100011000Y-77157250D01*
X100011000Y-76669750D01*
X100012174Y-76645858D01*
X100015684Y-76622197D01*
X100021496Y-76598993D01*
X100029554Y-76576471D01*
X100039782Y-76554847D01*
X100052079Y-76534330D01*
X100066329Y-76515117D01*
X100082393Y-76497393D01*
X100100117Y-76481329D01*
X100119330Y-76467079D01*
X100139847Y-76454782D01*
X100161471Y-76444554D01*
X100183993Y-76436496D01*
X100207197Y-76430684D01*
X100230858Y-76427174D01*
X100254750Y-76426000D01*
X101167250Y-76426000D01*
X101191142Y-76427174D01*
G37*
G36*
X114780142Y-106943674D02*
G01*
X114803803Y-106947184D01*
X114827007Y-106952996D01*
X114849529Y-106961054D01*
X114871153Y-106971282D01*
X114891670Y-106983579D01*
X114910883Y-106997829D01*
X114928607Y-107013893D01*
X114944671Y-107031617D01*
X114958921Y-107050830D01*
X114971218Y-107071347D01*
X114981446Y-107092971D01*
X114989504Y-107115493D01*
X114995316Y-107138697D01*
X114998826Y-107162358D01*
X115000000Y-107186250D01*
X115000000Y-107673750D01*
X114998826Y-107697642D01*
X114995316Y-107721303D01*
X114989504Y-107744507D01*
X114981446Y-107767029D01*
X114971218Y-107788653D01*
X114958921Y-107809170D01*
X114944671Y-107828383D01*
X114928607Y-107846107D01*
X114910883Y-107862171D01*
X114891670Y-107876421D01*
X114871153Y-107888718D01*
X114849529Y-107898946D01*
X114827007Y-107907004D01*
X114803803Y-107912816D01*
X114780142Y-107916326D01*
X114756250Y-107917500D01*
X113843750Y-107917500D01*
X113819858Y-107916326D01*
X113796197Y-107912816D01*
X113772993Y-107907004D01*
X113750471Y-107898946D01*
X113728847Y-107888718D01*
X113708330Y-107876421D01*
X113689117Y-107862171D01*
X113671393Y-107846107D01*
X113655329Y-107828383D01*
X113641079Y-107809170D01*
X113628782Y-107788653D01*
X113618554Y-107767029D01*
X113610496Y-107744507D01*
X113604684Y-107721303D01*
X113601174Y-107697642D01*
X113600000Y-107673750D01*
X113600000Y-107186250D01*
X113601174Y-107162358D01*
X113604684Y-107138697D01*
X113610496Y-107115493D01*
X113618554Y-107092971D01*
X113628782Y-107071347D01*
X113641079Y-107050830D01*
X113655329Y-107031617D01*
X113671393Y-107013893D01*
X113689117Y-106997829D01*
X113708330Y-106983579D01*
X113728847Y-106971282D01*
X113750471Y-106961054D01*
X113772993Y-106952996D01*
X113796197Y-106947184D01*
X113819858Y-106943674D01*
X113843750Y-106942500D01*
X114756250Y-106942500D01*
X114780142Y-106943674D01*
G37*
G36*
X114780142Y-108818674D02*
G01*
X114803803Y-108822184D01*
X114827007Y-108827996D01*
X114849529Y-108836054D01*
X114871153Y-108846282D01*
X114891670Y-108858579D01*
X114910883Y-108872829D01*
X114928607Y-108888893D01*
X114944671Y-108906617D01*
X114958921Y-108925830D01*
X114971218Y-108946347D01*
X114981446Y-108967971D01*
X114989504Y-108990493D01*
X114995316Y-109013697D01*
X114998826Y-109037358D01*
X115000000Y-109061250D01*
X115000000Y-109548750D01*
X114998826Y-109572642D01*
X114995316Y-109596303D01*
X114989504Y-109619507D01*
X114981446Y-109642029D01*
X114971218Y-109663653D01*
X114958921Y-109684170D01*
X114944671Y-109703383D01*
X114928607Y-109721107D01*
X114910883Y-109737171D01*
X114891670Y-109751421D01*
X114871153Y-109763718D01*
X114849529Y-109773946D01*
X114827007Y-109782004D01*
X114803803Y-109787816D01*
X114780142Y-109791326D01*
X114756250Y-109792500D01*
X113843750Y-109792500D01*
X113819858Y-109791326D01*
X113796197Y-109787816D01*
X113772993Y-109782004D01*
X113750471Y-109773946D01*
X113728847Y-109763718D01*
X113708330Y-109751421D01*
X113689117Y-109737171D01*
X113671393Y-109721107D01*
X113655329Y-109703383D01*
X113641079Y-109684170D01*
X113628782Y-109663653D01*
X113618554Y-109642029D01*
X113610496Y-109619507D01*
X113604684Y-109596303D01*
X113601174Y-109572642D01*
X113600000Y-109548750D01*
X113600000Y-109061250D01*
X113601174Y-109037358D01*
X113604684Y-109013697D01*
X113610496Y-108990493D01*
X113618554Y-108967971D01*
X113628782Y-108946347D01*
X113641079Y-108925830D01*
X113655329Y-108906617D01*
X113671393Y-108888893D01*
X113689117Y-108872829D01*
X113708330Y-108858579D01*
X113728847Y-108846282D01*
X113750471Y-108836054D01*
X113772993Y-108827996D01*
X113796197Y-108822184D01*
X113819858Y-108818674D01*
X113843750Y-108817500D01*
X114756250Y-108817500D01*
X114780142Y-108818674D01*
G37*
G36*
X117320142Y-106943674D02*
G01*
X117343803Y-106947184D01*
X117367007Y-106952996D01*
X117389529Y-106961054D01*
X117411153Y-106971282D01*
X117431670Y-106983579D01*
X117450883Y-106997829D01*
X117468607Y-107013893D01*
X117484671Y-107031617D01*
X117498921Y-107050830D01*
X117511218Y-107071347D01*
X117521446Y-107092971D01*
X117529504Y-107115493D01*
X117535316Y-107138697D01*
X117538826Y-107162358D01*
X117540000Y-107186250D01*
X117540000Y-107673750D01*
X117538826Y-107697642D01*
X117535316Y-107721303D01*
X117529504Y-107744507D01*
X117521446Y-107767029D01*
X117511218Y-107788653D01*
X117498921Y-107809170D01*
X117484671Y-107828383D01*
X117468607Y-107846107D01*
X117450883Y-107862171D01*
X117431670Y-107876421D01*
X117411153Y-107888718D01*
X117389529Y-107898946D01*
X117367007Y-107907004D01*
X117343803Y-107912816D01*
X117320142Y-107916326D01*
X117296250Y-107917500D01*
X116383750Y-107917500D01*
X116359858Y-107916326D01*
X116336197Y-107912816D01*
X116312993Y-107907004D01*
X116290471Y-107898946D01*
X116268847Y-107888718D01*
X116248330Y-107876421D01*
X116229117Y-107862171D01*
X116211393Y-107846107D01*
X116195329Y-107828383D01*
X116181079Y-107809170D01*
X116168782Y-107788653D01*
X116158554Y-107767029D01*
X116150496Y-107744507D01*
X116144684Y-107721303D01*
X116141174Y-107697642D01*
X116140000Y-107673750D01*
X116140000Y-107186250D01*
X116141174Y-107162358D01*
X116144684Y-107138697D01*
X116150496Y-107115493D01*
X116158554Y-107092971D01*
X116168782Y-107071347D01*
X116181079Y-107050830D01*
X116195329Y-107031617D01*
X116211393Y-107013893D01*
X116229117Y-106997829D01*
X116248330Y-106983579D01*
X116268847Y-106971282D01*
X116290471Y-106961054D01*
X116312993Y-106952996D01*
X116336197Y-106947184D01*
X116359858Y-106943674D01*
X116383750Y-106942500D01*
X117296250Y-106942500D01*
X117320142Y-106943674D01*
G37*
G36*
X117320142Y-108818674D02*
G01*
X117343803Y-108822184D01*
X117367007Y-108827996D01*
X117389529Y-108836054D01*
X117411153Y-108846282D01*
X117431670Y-108858579D01*
X117450883Y-108872829D01*
X117468607Y-108888893D01*
X117484671Y-108906617D01*
X117498921Y-108925830D01*
X117511218Y-108946347D01*
X117521446Y-108967971D01*
X117529504Y-108990493D01*
X117535316Y-109013697D01*
X117538826Y-109037358D01*
X117540000Y-109061250D01*
X117540000Y-109548750D01*
X117538826Y-109572642D01*
X117535316Y-109596303D01*
X117529504Y-109619507D01*
X117521446Y-109642029D01*
X117511218Y-109663653D01*
X117498921Y-109684170D01*
X117484671Y-109703383D01*
X117468607Y-109721107D01*
X117450883Y-109737171D01*
X117431670Y-109751421D01*
X117411153Y-109763718D01*
X117389529Y-109773946D01*
X117367007Y-109782004D01*
X117343803Y-109787816D01*
X117320142Y-109791326D01*
X117296250Y-109792500D01*
X116383750Y-109792500D01*
X116359858Y-109791326D01*
X116336197Y-109787816D01*
X116312993Y-109782004D01*
X116290471Y-109773946D01*
X116268847Y-109763718D01*
X116248330Y-109751421D01*
X116229117Y-109737171D01*
X116211393Y-109721107D01*
X116195329Y-109703383D01*
X116181079Y-109684170D01*
X116168782Y-109663653D01*
X116158554Y-109642029D01*
X116150496Y-109619507D01*
X116144684Y-109596303D01*
X116141174Y-109572642D01*
X116140000Y-109548750D01*
X116140000Y-109061250D01*
X116141174Y-109037358D01*
X116144684Y-109013697D01*
X116150496Y-108990493D01*
X116158554Y-108967971D01*
X116168782Y-108946347D01*
X116181079Y-108925830D01*
X116195329Y-108906617D01*
X116211393Y-108888893D01*
X116229117Y-108872829D01*
X116248330Y-108858579D01*
X116268847Y-108846282D01*
X116290471Y-108836054D01*
X116312993Y-108827996D01*
X116336197Y-108822184D01*
X116359858Y-108818674D01*
X116383750Y-108817500D01*
X117296250Y-108817500D01*
X117320142Y-108818674D01*
G37*
G36*
X83029642Y-108013174D02*
G01*
X83053303Y-108016684D01*
X83076507Y-108022496D01*
X83099029Y-108030554D01*
X83120653Y-108040782D01*
X83141170Y-108053079D01*
X83160383Y-108067329D01*
X83178107Y-108083393D01*
X83194171Y-108101117D01*
X83208421Y-108120330D01*
X83220718Y-108140847D01*
X83230946Y-108162471D01*
X83239004Y-108184993D01*
X83244816Y-108208197D01*
X83248326Y-108231858D01*
X83249500Y-108255750D01*
X83249500Y-109168250D01*
X83248326Y-109192142D01*
X83244816Y-109215803D01*
X83239004Y-109239007D01*
X83230946Y-109261529D01*
X83220718Y-109283153D01*
X83208421Y-109303670D01*
X83194171Y-109322883D01*
X83178107Y-109340607D01*
X83160383Y-109356671D01*
X83141170Y-109370921D01*
X83120653Y-109383218D01*
X83099029Y-109393446D01*
X83076507Y-109401504D01*
X83053303Y-109407316D01*
X83029642Y-109410826D01*
X83005750Y-109412000D01*
X82518250Y-109412000D01*
X82494358Y-109410826D01*
X82470697Y-109407316D01*
X82447493Y-109401504D01*
X82424971Y-109393446D01*
X82403347Y-109383218D01*
X82382830Y-109370921D01*
X82363617Y-109356671D01*
X82345893Y-109340607D01*
X82329829Y-109322883D01*
X82315579Y-109303670D01*
X82303282Y-109283153D01*
X82293054Y-109261529D01*
X82284996Y-109239007D01*
X82279184Y-109215803D01*
X82275674Y-109192142D01*
X82274500Y-109168250D01*
X82274500Y-108255750D01*
X82275674Y-108231858D01*
X82279184Y-108208197D01*
X82284996Y-108184993D01*
X82293054Y-108162471D01*
X82303282Y-108140847D01*
X82315579Y-108120330D01*
X82329829Y-108101117D01*
X82345893Y-108083393D01*
X82363617Y-108067329D01*
X82382830Y-108053079D01*
X82403347Y-108040782D01*
X82424971Y-108030554D01*
X82447493Y-108022496D01*
X82470697Y-108016684D01*
X82494358Y-108013174D01*
X82518250Y-108012000D01*
X83005750Y-108012000D01*
X83029642Y-108013174D01*
G37*
G36*
X81154642Y-108013174D02*
G01*
X81178303Y-108016684D01*
X81201507Y-108022496D01*
X81224029Y-108030554D01*
X81245653Y-108040782D01*
X81266170Y-108053079D01*
X81285383Y-108067329D01*
X81303107Y-108083393D01*
X81319171Y-108101117D01*
X81333421Y-108120330D01*
X81345718Y-108140847D01*
X81355946Y-108162471D01*
X81364004Y-108184993D01*
X81369816Y-108208197D01*
X81373326Y-108231858D01*
X81374500Y-108255750D01*
X81374500Y-109168250D01*
X81373326Y-109192142D01*
X81369816Y-109215803D01*
X81364004Y-109239007D01*
X81355946Y-109261529D01*
X81345718Y-109283153D01*
X81333421Y-109303670D01*
X81319171Y-109322883D01*
X81303107Y-109340607D01*
X81285383Y-109356671D01*
X81266170Y-109370921D01*
X81245653Y-109383218D01*
X81224029Y-109393446D01*
X81201507Y-109401504D01*
X81178303Y-109407316D01*
X81154642Y-109410826D01*
X81130750Y-109412000D01*
X80643250Y-109412000D01*
X80619358Y-109410826D01*
X80595697Y-109407316D01*
X80572493Y-109401504D01*
X80549971Y-109393446D01*
X80528347Y-109383218D01*
X80507830Y-109370921D01*
X80488617Y-109356671D01*
X80470893Y-109340607D01*
X80454829Y-109322883D01*
X80440579Y-109303670D01*
X80428282Y-109283153D01*
X80418054Y-109261529D01*
X80409996Y-109239007D01*
X80404184Y-109215803D01*
X80400674Y-109192142D01*
X80399500Y-109168250D01*
X80399500Y-108255750D01*
X80400674Y-108231858D01*
X80404184Y-108208197D01*
X80409996Y-108184993D01*
X80418054Y-108162471D01*
X80428282Y-108140847D01*
X80440579Y-108120330D01*
X80454829Y-108101117D01*
X80470893Y-108083393D01*
X80488617Y-108067329D01*
X80507830Y-108053079D01*
X80528347Y-108040782D01*
X80549971Y-108030554D01*
X80572493Y-108022496D01*
X80595697Y-108016684D01*
X80619358Y-108013174D01*
X80643250Y-108012000D01*
X81130750Y-108012000D01*
X81154642Y-108013174D01*
G37*
G36*
X92645142Y-108521174D02*
G01*
X92668803Y-108524684D01*
X92692007Y-108530496D01*
X92714529Y-108538554D01*
X92736153Y-108548782D01*
X92756670Y-108561079D01*
X92775883Y-108575329D01*
X92793607Y-108591393D01*
X92809671Y-108609117D01*
X92823921Y-108628330D01*
X92836218Y-108648847D01*
X92846446Y-108670471D01*
X92854504Y-108692993D01*
X92860316Y-108716197D01*
X92863826Y-108739858D01*
X92865000Y-108763750D01*
X92865000Y-109676250D01*
X92863826Y-109700142D01*
X92860316Y-109723803D01*
X92854504Y-109747007D01*
X92846446Y-109769529D01*
X92836218Y-109791153D01*
X92823921Y-109811670D01*
X92809671Y-109830883D01*
X92793607Y-109848607D01*
X92775883Y-109864671D01*
X92756670Y-109878921D01*
X92736153Y-109891218D01*
X92714529Y-109901446D01*
X92692007Y-109909504D01*
X92668803Y-109915316D01*
X92645142Y-109918826D01*
X92621250Y-109920000D01*
X92133750Y-109920000D01*
X92109858Y-109918826D01*
X92086197Y-109915316D01*
X92062993Y-109909504D01*
X92040471Y-109901446D01*
X92018847Y-109891218D01*
X91998330Y-109878921D01*
X91979117Y-109864671D01*
X91961393Y-109848607D01*
X91945329Y-109830883D01*
X91931079Y-109811670D01*
X91918782Y-109791153D01*
X91908554Y-109769529D01*
X91900496Y-109747007D01*
X91894684Y-109723803D01*
X91891174Y-109700142D01*
X91890000Y-109676250D01*
X91890000Y-108763750D01*
X91891174Y-108739858D01*
X91894684Y-108716197D01*
X91900496Y-108692993D01*
X91908554Y-108670471D01*
X91918782Y-108648847D01*
X91931079Y-108628330D01*
X91945329Y-108609117D01*
X91961393Y-108591393D01*
X91979117Y-108575329D01*
X91998330Y-108561079D01*
X92018847Y-108548782D01*
X92040471Y-108538554D01*
X92062993Y-108530496D01*
X92086197Y-108524684D01*
X92109858Y-108521174D01*
X92133750Y-108520000D01*
X92621250Y-108520000D01*
X92645142Y-108521174D01*
G37*
G36*
X90770142Y-108521174D02*
G01*
X90793803Y-108524684D01*
X90817007Y-108530496D01*
X90839529Y-108538554D01*
X90861153Y-108548782D01*
X90881670Y-108561079D01*
X90900883Y-108575329D01*
X90918607Y-108591393D01*
X90934671Y-108609117D01*
X90948921Y-108628330D01*
X90961218Y-108648847D01*
X90971446Y-108670471D01*
X90979504Y-108692993D01*
X90985316Y-108716197D01*
X90988826Y-108739858D01*
X90990000Y-108763750D01*
X90990000Y-109676250D01*
X90988826Y-109700142D01*
X90985316Y-109723803D01*
X90979504Y-109747007D01*
X90971446Y-109769529D01*
X90961218Y-109791153D01*
X90948921Y-109811670D01*
X90934671Y-109830883D01*
X90918607Y-109848607D01*
X90900883Y-109864671D01*
X90881670Y-109878921D01*
X90861153Y-109891218D01*
X90839529Y-109901446D01*
X90817007Y-109909504D01*
X90793803Y-109915316D01*
X90770142Y-109918826D01*
X90746250Y-109920000D01*
X90258750Y-109920000D01*
X90234858Y-109918826D01*
X90211197Y-109915316D01*
X90187993Y-109909504D01*
X90165471Y-109901446D01*
X90143847Y-109891218D01*
X90123330Y-109878921D01*
X90104117Y-109864671D01*
X90086393Y-109848607D01*
X90070329Y-109830883D01*
X90056079Y-109811670D01*
X90043782Y-109791153D01*
X90033554Y-109769529D01*
X90025496Y-109747007D01*
X90019684Y-109723803D01*
X90016174Y-109700142D01*
X90015000Y-109676250D01*
X90015000Y-108763750D01*
X90016174Y-108739858D01*
X90019684Y-108716197D01*
X90025496Y-108692993D01*
X90033554Y-108670471D01*
X90043782Y-108648847D01*
X90056079Y-108628330D01*
X90070329Y-108609117D01*
X90086393Y-108591393D01*
X90104117Y-108575329D01*
X90123330Y-108561079D01*
X90143847Y-108548782D01*
X90165471Y-108538554D01*
X90187993Y-108530496D01*
X90211197Y-108524684D01*
X90234858Y-108521174D01*
X90258750Y-108520000D01*
X90746250Y-108520000D01*
X90770142Y-108521174D01*
G37*
D12*
X119150000Y-98550000D03*
D13*
X119150000Y-99350000D03*
D12*
X119150000Y-100950000D03*
D13*
X119150000Y-100150000D03*
D12*
X117350000Y-98550000D03*
D13*
X117350000Y-100150000D03*
X117350000Y-99350000D03*
D12*
X117350000Y-100950000D03*
X111000000Y-98600000D03*
D13*
X111000000Y-99400000D03*
D12*
X111000000Y-101000000D03*
D13*
X111000000Y-100200000D03*
D12*
X109200000Y-98600000D03*
D13*
X109200000Y-100200000D03*
X109200000Y-99400000D03*
D12*
X109200000Y-101000000D03*
X103050000Y-98650000D03*
D13*
X103050000Y-99450000D03*
D12*
X103050000Y-101050000D03*
D13*
X103050000Y-100250000D03*
D12*
X101250000Y-98650000D03*
D13*
X101250000Y-100250000D03*
X101250000Y-99450000D03*
D12*
X101250000Y-101050000D03*
X94550000Y-98500000D03*
D13*
X94550000Y-99300000D03*
D12*
X94550000Y-100900000D03*
D13*
X94550000Y-100100000D03*
D12*
X92750000Y-98500000D03*
D13*
X92750000Y-100100000D03*
X92750000Y-99300000D03*
D12*
X92750000Y-100900000D03*
X87000000Y-95400000D03*
D13*
X87000000Y-96200000D03*
D12*
X87000000Y-97800000D03*
D13*
X87000000Y-97000000D03*
D12*
X85200000Y-95400000D03*
D13*
X85200000Y-97000000D03*
X85200000Y-96200000D03*
D12*
X85200000Y-97800000D03*
X86900000Y-103200000D03*
D13*
X86900000Y-104000000D03*
D12*
X86900000Y-105600000D03*
D13*
X86900000Y-104800000D03*
D12*
X85100000Y-103200000D03*
D13*
X85100000Y-104800000D03*
X85100000Y-104000000D03*
D12*
X85100000Y-105600000D03*
D10*
G36*
X81409703Y-86625722D02*
G01*
X81424264Y-86627882D01*
X81438543Y-86631459D01*
X81452403Y-86636418D01*
X81465710Y-86642712D01*
X81478336Y-86650280D01*
X81490159Y-86659048D01*
X81501066Y-86668934D01*
X81510952Y-86679841D01*
X81519720Y-86691664D01*
X81527288Y-86704290D01*
X81533582Y-86717597D01*
X81538541Y-86731457D01*
X81542118Y-86745736D01*
X81544278Y-86760297D01*
X81545000Y-86775000D01*
X81545000Y-88525000D01*
X81544278Y-88539703D01*
X81542118Y-88554264D01*
X81538541Y-88568543D01*
X81533582Y-88582403D01*
X81527288Y-88595710D01*
X81519720Y-88608336D01*
X81510952Y-88620159D01*
X81501066Y-88631066D01*
X81490159Y-88640952D01*
X81478336Y-88649720D01*
X81465710Y-88657288D01*
X81452403Y-88663582D01*
X81438543Y-88668541D01*
X81424264Y-88672118D01*
X81409703Y-88674278D01*
X81395000Y-88675000D01*
X81095000Y-88675000D01*
X81080297Y-88674278D01*
X81065736Y-88672118D01*
X81051457Y-88668541D01*
X81037597Y-88663582D01*
X81024290Y-88657288D01*
X81011664Y-88649720D01*
X80999841Y-88640952D01*
X80988934Y-88631066D01*
X80979048Y-88620159D01*
X80970280Y-88608336D01*
X80962712Y-88595710D01*
X80956418Y-88582403D01*
X80951459Y-88568543D01*
X80947882Y-88554264D01*
X80945722Y-88539703D01*
X80945000Y-88525000D01*
X80945000Y-86775000D01*
X80945722Y-86760297D01*
X80947882Y-86745736D01*
X80951459Y-86731457D01*
X80956418Y-86717597D01*
X80962712Y-86704290D01*
X80970280Y-86691664D01*
X80979048Y-86679841D01*
X80988934Y-86668934D01*
X80999841Y-86659048D01*
X81011664Y-86650280D01*
X81024290Y-86642712D01*
X81037597Y-86636418D01*
X81051457Y-86631459D01*
X81065736Y-86627882D01*
X81080297Y-86625722D01*
X81095000Y-86625000D01*
X81395000Y-86625000D01*
X81409703Y-86625722D01*
G37*
G36*
X82679703Y-86625722D02*
G01*
X82694264Y-86627882D01*
X82708543Y-86631459D01*
X82722403Y-86636418D01*
X82735710Y-86642712D01*
X82748336Y-86650280D01*
X82760159Y-86659048D01*
X82771066Y-86668934D01*
X82780952Y-86679841D01*
X82789720Y-86691664D01*
X82797288Y-86704290D01*
X82803582Y-86717597D01*
X82808541Y-86731457D01*
X82812118Y-86745736D01*
X82814278Y-86760297D01*
X82815000Y-86775000D01*
X82815000Y-88525000D01*
X82814278Y-88539703D01*
X82812118Y-88554264D01*
X82808541Y-88568543D01*
X82803582Y-88582403D01*
X82797288Y-88595710D01*
X82789720Y-88608336D01*
X82780952Y-88620159D01*
X82771066Y-88631066D01*
X82760159Y-88640952D01*
X82748336Y-88649720D01*
X82735710Y-88657288D01*
X82722403Y-88663582D01*
X82708543Y-88668541D01*
X82694264Y-88672118D01*
X82679703Y-88674278D01*
X82665000Y-88675000D01*
X82365000Y-88675000D01*
X82350297Y-88674278D01*
X82335736Y-88672118D01*
X82321457Y-88668541D01*
X82307597Y-88663582D01*
X82294290Y-88657288D01*
X82281664Y-88649720D01*
X82269841Y-88640952D01*
X82258934Y-88631066D01*
X82249048Y-88620159D01*
X82240280Y-88608336D01*
X82232712Y-88595710D01*
X82226418Y-88582403D01*
X82221459Y-88568543D01*
X82217882Y-88554264D01*
X82215722Y-88539703D01*
X82215000Y-88525000D01*
X82215000Y-86775000D01*
X82215722Y-86760297D01*
X82217882Y-86745736D01*
X82221459Y-86731457D01*
X82226418Y-86717597D01*
X82232712Y-86704290D01*
X82240280Y-86691664D01*
X82249048Y-86679841D01*
X82258934Y-86668934D01*
X82269841Y-86659048D01*
X82281664Y-86650280D01*
X82294290Y-86642712D01*
X82307597Y-86636418D01*
X82321457Y-86631459D01*
X82335736Y-86627882D01*
X82350297Y-86625722D01*
X82365000Y-86625000D01*
X82665000Y-86625000D01*
X82679703Y-86625722D01*
G37*
G36*
X83949703Y-86625722D02*
G01*
X83964264Y-86627882D01*
X83978543Y-86631459D01*
X83992403Y-86636418D01*
X84005710Y-86642712D01*
X84018336Y-86650280D01*
X84030159Y-86659048D01*
X84041066Y-86668934D01*
X84050952Y-86679841D01*
X84059720Y-86691664D01*
X84067288Y-86704290D01*
X84073582Y-86717597D01*
X84078541Y-86731457D01*
X84082118Y-86745736D01*
X84084278Y-86760297D01*
X84085000Y-86775000D01*
X84085000Y-88525000D01*
X84084278Y-88539703D01*
X84082118Y-88554264D01*
X84078541Y-88568543D01*
X84073582Y-88582403D01*
X84067288Y-88595710D01*
X84059720Y-88608336D01*
X84050952Y-88620159D01*
X84041066Y-88631066D01*
X84030159Y-88640952D01*
X84018336Y-88649720D01*
X84005710Y-88657288D01*
X83992403Y-88663582D01*
X83978543Y-88668541D01*
X83964264Y-88672118D01*
X83949703Y-88674278D01*
X83935000Y-88675000D01*
X83635000Y-88675000D01*
X83620297Y-88674278D01*
X83605736Y-88672118D01*
X83591457Y-88668541D01*
X83577597Y-88663582D01*
X83564290Y-88657288D01*
X83551664Y-88649720D01*
X83539841Y-88640952D01*
X83528934Y-88631066D01*
X83519048Y-88620159D01*
X83510280Y-88608336D01*
X83502712Y-88595710D01*
X83496418Y-88582403D01*
X83491459Y-88568543D01*
X83487882Y-88554264D01*
X83485722Y-88539703D01*
X83485000Y-88525000D01*
X83485000Y-86775000D01*
X83485722Y-86760297D01*
X83487882Y-86745736D01*
X83491459Y-86731457D01*
X83496418Y-86717597D01*
X83502712Y-86704290D01*
X83510280Y-86691664D01*
X83519048Y-86679841D01*
X83528934Y-86668934D01*
X83539841Y-86659048D01*
X83551664Y-86650280D01*
X83564290Y-86642712D01*
X83577597Y-86636418D01*
X83591457Y-86631459D01*
X83605736Y-86627882D01*
X83620297Y-86625722D01*
X83635000Y-86625000D01*
X83935000Y-86625000D01*
X83949703Y-86625722D01*
G37*
G36*
X85219703Y-86625722D02*
G01*
X85234264Y-86627882D01*
X85248543Y-86631459D01*
X85262403Y-86636418D01*
X85275710Y-86642712D01*
X85288336Y-86650280D01*
X85300159Y-86659048D01*
X85311066Y-86668934D01*
X85320952Y-86679841D01*
X85329720Y-86691664D01*
X85337288Y-86704290D01*
X85343582Y-86717597D01*
X85348541Y-86731457D01*
X85352118Y-86745736D01*
X85354278Y-86760297D01*
X85355000Y-86775000D01*
X85355000Y-88525000D01*
X85354278Y-88539703D01*
X85352118Y-88554264D01*
X85348541Y-88568543D01*
X85343582Y-88582403D01*
X85337288Y-88595710D01*
X85329720Y-88608336D01*
X85320952Y-88620159D01*
X85311066Y-88631066D01*
X85300159Y-88640952D01*
X85288336Y-88649720D01*
X85275710Y-88657288D01*
X85262403Y-88663582D01*
X85248543Y-88668541D01*
X85234264Y-88672118D01*
X85219703Y-88674278D01*
X85205000Y-88675000D01*
X84905000Y-88675000D01*
X84890297Y-88674278D01*
X84875736Y-88672118D01*
X84861457Y-88668541D01*
X84847597Y-88663582D01*
X84834290Y-88657288D01*
X84821664Y-88649720D01*
X84809841Y-88640952D01*
X84798934Y-88631066D01*
X84789048Y-88620159D01*
X84780280Y-88608336D01*
X84772712Y-88595710D01*
X84766418Y-88582403D01*
X84761459Y-88568543D01*
X84757882Y-88554264D01*
X84755722Y-88539703D01*
X84755000Y-88525000D01*
X84755000Y-86775000D01*
X84755722Y-86760297D01*
X84757882Y-86745736D01*
X84761459Y-86731457D01*
X84766418Y-86717597D01*
X84772712Y-86704290D01*
X84780280Y-86691664D01*
X84789048Y-86679841D01*
X84798934Y-86668934D01*
X84809841Y-86659048D01*
X84821664Y-86650280D01*
X84834290Y-86642712D01*
X84847597Y-86636418D01*
X84861457Y-86631459D01*
X84875736Y-86627882D01*
X84890297Y-86625722D01*
X84905000Y-86625000D01*
X85205000Y-86625000D01*
X85219703Y-86625722D01*
G37*
G36*
X86489703Y-86625722D02*
G01*
X86504264Y-86627882D01*
X86518543Y-86631459D01*
X86532403Y-86636418D01*
X86545710Y-86642712D01*
X86558336Y-86650280D01*
X86570159Y-86659048D01*
X86581066Y-86668934D01*
X86590952Y-86679841D01*
X86599720Y-86691664D01*
X86607288Y-86704290D01*
X86613582Y-86717597D01*
X86618541Y-86731457D01*
X86622118Y-86745736D01*
X86624278Y-86760297D01*
X86625000Y-86775000D01*
X86625000Y-88525000D01*
X86624278Y-88539703D01*
X86622118Y-88554264D01*
X86618541Y-88568543D01*
X86613582Y-88582403D01*
X86607288Y-88595710D01*
X86599720Y-88608336D01*
X86590952Y-88620159D01*
X86581066Y-88631066D01*
X86570159Y-88640952D01*
X86558336Y-88649720D01*
X86545710Y-88657288D01*
X86532403Y-88663582D01*
X86518543Y-88668541D01*
X86504264Y-88672118D01*
X86489703Y-88674278D01*
X86475000Y-88675000D01*
X86175000Y-88675000D01*
X86160297Y-88674278D01*
X86145736Y-88672118D01*
X86131457Y-88668541D01*
X86117597Y-88663582D01*
X86104290Y-88657288D01*
X86091664Y-88649720D01*
X86079841Y-88640952D01*
X86068934Y-88631066D01*
X86059048Y-88620159D01*
X86050280Y-88608336D01*
X86042712Y-88595710D01*
X86036418Y-88582403D01*
X86031459Y-88568543D01*
X86027882Y-88554264D01*
X86025722Y-88539703D01*
X86025000Y-88525000D01*
X86025000Y-86775000D01*
X86025722Y-86760297D01*
X86027882Y-86745736D01*
X86031459Y-86731457D01*
X86036418Y-86717597D01*
X86042712Y-86704290D01*
X86050280Y-86691664D01*
X86059048Y-86679841D01*
X86068934Y-86668934D01*
X86079841Y-86659048D01*
X86091664Y-86650280D01*
X86104290Y-86642712D01*
X86117597Y-86636418D01*
X86131457Y-86631459D01*
X86145736Y-86627882D01*
X86160297Y-86625722D01*
X86175000Y-86625000D01*
X86475000Y-86625000D01*
X86489703Y-86625722D01*
G37*
G36*
X87759703Y-86625722D02*
G01*
X87774264Y-86627882D01*
X87788543Y-86631459D01*
X87802403Y-86636418D01*
X87815710Y-86642712D01*
X87828336Y-86650280D01*
X87840159Y-86659048D01*
X87851066Y-86668934D01*
X87860952Y-86679841D01*
X87869720Y-86691664D01*
X87877288Y-86704290D01*
X87883582Y-86717597D01*
X87888541Y-86731457D01*
X87892118Y-86745736D01*
X87894278Y-86760297D01*
X87895000Y-86775000D01*
X87895000Y-88525000D01*
X87894278Y-88539703D01*
X87892118Y-88554264D01*
X87888541Y-88568543D01*
X87883582Y-88582403D01*
X87877288Y-88595710D01*
X87869720Y-88608336D01*
X87860952Y-88620159D01*
X87851066Y-88631066D01*
X87840159Y-88640952D01*
X87828336Y-88649720D01*
X87815710Y-88657288D01*
X87802403Y-88663582D01*
X87788543Y-88668541D01*
X87774264Y-88672118D01*
X87759703Y-88674278D01*
X87745000Y-88675000D01*
X87445000Y-88675000D01*
X87430297Y-88674278D01*
X87415736Y-88672118D01*
X87401457Y-88668541D01*
X87387597Y-88663582D01*
X87374290Y-88657288D01*
X87361664Y-88649720D01*
X87349841Y-88640952D01*
X87338934Y-88631066D01*
X87329048Y-88620159D01*
X87320280Y-88608336D01*
X87312712Y-88595710D01*
X87306418Y-88582403D01*
X87301459Y-88568543D01*
X87297882Y-88554264D01*
X87295722Y-88539703D01*
X87295000Y-88525000D01*
X87295000Y-86775000D01*
X87295722Y-86760297D01*
X87297882Y-86745736D01*
X87301459Y-86731457D01*
X87306418Y-86717597D01*
X87312712Y-86704290D01*
X87320280Y-86691664D01*
X87329048Y-86679841D01*
X87338934Y-86668934D01*
X87349841Y-86659048D01*
X87361664Y-86650280D01*
X87374290Y-86642712D01*
X87387597Y-86636418D01*
X87401457Y-86631459D01*
X87415736Y-86627882D01*
X87430297Y-86625722D01*
X87445000Y-86625000D01*
X87745000Y-86625000D01*
X87759703Y-86625722D01*
G37*
G36*
X89029703Y-86625722D02*
G01*
X89044264Y-86627882D01*
X89058543Y-86631459D01*
X89072403Y-86636418D01*
X89085710Y-86642712D01*
X89098336Y-86650280D01*
X89110159Y-86659048D01*
X89121066Y-86668934D01*
X89130952Y-86679841D01*
X89139720Y-86691664D01*
X89147288Y-86704290D01*
X89153582Y-86717597D01*
X89158541Y-86731457D01*
X89162118Y-86745736D01*
X89164278Y-86760297D01*
X89165000Y-86775000D01*
X89165000Y-88525000D01*
X89164278Y-88539703D01*
X89162118Y-88554264D01*
X89158541Y-88568543D01*
X89153582Y-88582403D01*
X89147288Y-88595710D01*
X89139720Y-88608336D01*
X89130952Y-88620159D01*
X89121066Y-88631066D01*
X89110159Y-88640952D01*
X89098336Y-88649720D01*
X89085710Y-88657288D01*
X89072403Y-88663582D01*
X89058543Y-88668541D01*
X89044264Y-88672118D01*
X89029703Y-88674278D01*
X89015000Y-88675000D01*
X88715000Y-88675000D01*
X88700297Y-88674278D01*
X88685736Y-88672118D01*
X88671457Y-88668541D01*
X88657597Y-88663582D01*
X88644290Y-88657288D01*
X88631664Y-88649720D01*
X88619841Y-88640952D01*
X88608934Y-88631066D01*
X88599048Y-88620159D01*
X88590280Y-88608336D01*
X88582712Y-88595710D01*
X88576418Y-88582403D01*
X88571459Y-88568543D01*
X88567882Y-88554264D01*
X88565722Y-88539703D01*
X88565000Y-88525000D01*
X88565000Y-86775000D01*
X88565722Y-86760297D01*
X88567882Y-86745736D01*
X88571459Y-86731457D01*
X88576418Y-86717597D01*
X88582712Y-86704290D01*
X88590280Y-86691664D01*
X88599048Y-86679841D01*
X88608934Y-86668934D01*
X88619841Y-86659048D01*
X88631664Y-86650280D01*
X88644290Y-86642712D01*
X88657597Y-86636418D01*
X88671457Y-86631459D01*
X88685736Y-86627882D01*
X88700297Y-86625722D01*
X88715000Y-86625000D01*
X89015000Y-86625000D01*
X89029703Y-86625722D01*
G37*
G36*
X90299703Y-86625722D02*
G01*
X90314264Y-86627882D01*
X90328543Y-86631459D01*
X90342403Y-86636418D01*
X90355710Y-86642712D01*
X90368336Y-86650280D01*
X90380159Y-86659048D01*
X90391066Y-86668934D01*
X90400952Y-86679841D01*
X90409720Y-86691664D01*
X90417288Y-86704290D01*
X90423582Y-86717597D01*
X90428541Y-86731457D01*
X90432118Y-86745736D01*
X90434278Y-86760297D01*
X90435000Y-86775000D01*
X90435000Y-88525000D01*
X90434278Y-88539703D01*
X90432118Y-88554264D01*
X90428541Y-88568543D01*
X90423582Y-88582403D01*
X90417288Y-88595710D01*
X90409720Y-88608336D01*
X90400952Y-88620159D01*
X90391066Y-88631066D01*
X90380159Y-88640952D01*
X90368336Y-88649720D01*
X90355710Y-88657288D01*
X90342403Y-88663582D01*
X90328543Y-88668541D01*
X90314264Y-88672118D01*
X90299703Y-88674278D01*
X90285000Y-88675000D01*
X89985000Y-88675000D01*
X89970297Y-88674278D01*
X89955736Y-88672118D01*
X89941457Y-88668541D01*
X89927597Y-88663582D01*
X89914290Y-88657288D01*
X89901664Y-88649720D01*
X89889841Y-88640952D01*
X89878934Y-88631066D01*
X89869048Y-88620159D01*
X89860280Y-88608336D01*
X89852712Y-88595710D01*
X89846418Y-88582403D01*
X89841459Y-88568543D01*
X89837882Y-88554264D01*
X89835722Y-88539703D01*
X89835000Y-88525000D01*
X89835000Y-86775000D01*
X89835722Y-86760297D01*
X89837882Y-86745736D01*
X89841459Y-86731457D01*
X89846418Y-86717597D01*
X89852712Y-86704290D01*
X89860280Y-86691664D01*
X89869048Y-86679841D01*
X89878934Y-86668934D01*
X89889841Y-86659048D01*
X89901664Y-86650280D01*
X89914290Y-86642712D01*
X89927597Y-86636418D01*
X89941457Y-86631459D01*
X89955736Y-86627882D01*
X89970297Y-86625722D01*
X89985000Y-86625000D01*
X90285000Y-86625000D01*
X90299703Y-86625722D01*
G37*
G36*
X91569703Y-86625722D02*
G01*
X91584264Y-86627882D01*
X91598543Y-86631459D01*
X91612403Y-86636418D01*
X91625710Y-86642712D01*
X91638336Y-86650280D01*
X91650159Y-86659048D01*
X91661066Y-86668934D01*
X91670952Y-86679841D01*
X91679720Y-86691664D01*
X91687288Y-86704290D01*
X91693582Y-86717597D01*
X91698541Y-86731457D01*
X91702118Y-86745736D01*
X91704278Y-86760297D01*
X91705000Y-86775000D01*
X91705000Y-88525000D01*
X91704278Y-88539703D01*
X91702118Y-88554264D01*
X91698541Y-88568543D01*
X91693582Y-88582403D01*
X91687288Y-88595710D01*
X91679720Y-88608336D01*
X91670952Y-88620159D01*
X91661066Y-88631066D01*
X91650159Y-88640952D01*
X91638336Y-88649720D01*
X91625710Y-88657288D01*
X91612403Y-88663582D01*
X91598543Y-88668541D01*
X91584264Y-88672118D01*
X91569703Y-88674278D01*
X91555000Y-88675000D01*
X91255000Y-88675000D01*
X91240297Y-88674278D01*
X91225736Y-88672118D01*
X91211457Y-88668541D01*
X91197597Y-88663582D01*
X91184290Y-88657288D01*
X91171664Y-88649720D01*
X91159841Y-88640952D01*
X91148934Y-88631066D01*
X91139048Y-88620159D01*
X91130280Y-88608336D01*
X91122712Y-88595710D01*
X91116418Y-88582403D01*
X91111459Y-88568543D01*
X91107882Y-88554264D01*
X91105722Y-88539703D01*
X91105000Y-88525000D01*
X91105000Y-86775000D01*
X91105722Y-86760297D01*
X91107882Y-86745736D01*
X91111459Y-86731457D01*
X91116418Y-86717597D01*
X91122712Y-86704290D01*
X91130280Y-86691664D01*
X91139048Y-86679841D01*
X91148934Y-86668934D01*
X91159841Y-86659048D01*
X91171664Y-86650280D01*
X91184290Y-86642712D01*
X91197597Y-86636418D01*
X91211457Y-86631459D01*
X91225736Y-86627882D01*
X91240297Y-86625722D01*
X91255000Y-86625000D01*
X91555000Y-86625000D01*
X91569703Y-86625722D01*
G37*
G36*
X92839703Y-86625722D02*
G01*
X92854264Y-86627882D01*
X92868543Y-86631459D01*
X92882403Y-86636418D01*
X92895710Y-86642712D01*
X92908336Y-86650280D01*
X92920159Y-86659048D01*
X92931066Y-86668934D01*
X92940952Y-86679841D01*
X92949720Y-86691664D01*
X92957288Y-86704290D01*
X92963582Y-86717597D01*
X92968541Y-86731457D01*
X92972118Y-86745736D01*
X92974278Y-86760297D01*
X92975000Y-86775000D01*
X92975000Y-88525000D01*
X92974278Y-88539703D01*
X92972118Y-88554264D01*
X92968541Y-88568543D01*
X92963582Y-88582403D01*
X92957288Y-88595710D01*
X92949720Y-88608336D01*
X92940952Y-88620159D01*
X92931066Y-88631066D01*
X92920159Y-88640952D01*
X92908336Y-88649720D01*
X92895710Y-88657288D01*
X92882403Y-88663582D01*
X92868543Y-88668541D01*
X92854264Y-88672118D01*
X92839703Y-88674278D01*
X92825000Y-88675000D01*
X92525000Y-88675000D01*
X92510297Y-88674278D01*
X92495736Y-88672118D01*
X92481457Y-88668541D01*
X92467597Y-88663582D01*
X92454290Y-88657288D01*
X92441664Y-88649720D01*
X92429841Y-88640952D01*
X92418934Y-88631066D01*
X92409048Y-88620159D01*
X92400280Y-88608336D01*
X92392712Y-88595710D01*
X92386418Y-88582403D01*
X92381459Y-88568543D01*
X92377882Y-88554264D01*
X92375722Y-88539703D01*
X92375000Y-88525000D01*
X92375000Y-86775000D01*
X92375722Y-86760297D01*
X92377882Y-86745736D01*
X92381459Y-86731457D01*
X92386418Y-86717597D01*
X92392712Y-86704290D01*
X92400280Y-86691664D01*
X92409048Y-86679841D01*
X92418934Y-86668934D01*
X92429841Y-86659048D01*
X92441664Y-86650280D01*
X92454290Y-86642712D01*
X92467597Y-86636418D01*
X92481457Y-86631459D01*
X92495736Y-86627882D01*
X92510297Y-86625722D01*
X92525000Y-86625000D01*
X92825000Y-86625000D01*
X92839703Y-86625722D01*
G37*
G36*
X94109703Y-86625722D02*
G01*
X94124264Y-86627882D01*
X94138543Y-86631459D01*
X94152403Y-86636418D01*
X94165710Y-86642712D01*
X94178336Y-86650280D01*
X94190159Y-86659048D01*
X94201066Y-86668934D01*
X94210952Y-86679841D01*
X94219720Y-86691664D01*
X94227288Y-86704290D01*
X94233582Y-86717597D01*
X94238541Y-86731457D01*
X94242118Y-86745736D01*
X94244278Y-86760297D01*
X94245000Y-86775000D01*
X94245000Y-88525000D01*
X94244278Y-88539703D01*
X94242118Y-88554264D01*
X94238541Y-88568543D01*
X94233582Y-88582403D01*
X94227288Y-88595710D01*
X94219720Y-88608336D01*
X94210952Y-88620159D01*
X94201066Y-88631066D01*
X94190159Y-88640952D01*
X94178336Y-88649720D01*
X94165710Y-88657288D01*
X94152403Y-88663582D01*
X94138543Y-88668541D01*
X94124264Y-88672118D01*
X94109703Y-88674278D01*
X94095000Y-88675000D01*
X93795000Y-88675000D01*
X93780297Y-88674278D01*
X93765736Y-88672118D01*
X93751457Y-88668541D01*
X93737597Y-88663582D01*
X93724290Y-88657288D01*
X93711664Y-88649720D01*
X93699841Y-88640952D01*
X93688934Y-88631066D01*
X93679048Y-88620159D01*
X93670280Y-88608336D01*
X93662712Y-88595710D01*
X93656418Y-88582403D01*
X93651459Y-88568543D01*
X93647882Y-88554264D01*
X93645722Y-88539703D01*
X93645000Y-88525000D01*
X93645000Y-86775000D01*
X93645722Y-86760297D01*
X93647882Y-86745736D01*
X93651459Y-86731457D01*
X93656418Y-86717597D01*
X93662712Y-86704290D01*
X93670280Y-86691664D01*
X93679048Y-86679841D01*
X93688934Y-86668934D01*
X93699841Y-86659048D01*
X93711664Y-86650280D01*
X93724290Y-86642712D01*
X93737597Y-86636418D01*
X93751457Y-86631459D01*
X93765736Y-86627882D01*
X93780297Y-86625722D01*
X93795000Y-86625000D01*
X94095000Y-86625000D01*
X94109703Y-86625722D01*
G37*
G36*
X95379703Y-86625722D02*
G01*
X95394264Y-86627882D01*
X95408543Y-86631459D01*
X95422403Y-86636418D01*
X95435710Y-86642712D01*
X95448336Y-86650280D01*
X95460159Y-86659048D01*
X95471066Y-86668934D01*
X95480952Y-86679841D01*
X95489720Y-86691664D01*
X95497288Y-86704290D01*
X95503582Y-86717597D01*
X95508541Y-86731457D01*
X95512118Y-86745736D01*
X95514278Y-86760297D01*
X95515000Y-86775000D01*
X95515000Y-88525000D01*
X95514278Y-88539703D01*
X95512118Y-88554264D01*
X95508541Y-88568543D01*
X95503582Y-88582403D01*
X95497288Y-88595710D01*
X95489720Y-88608336D01*
X95480952Y-88620159D01*
X95471066Y-88631066D01*
X95460159Y-88640952D01*
X95448336Y-88649720D01*
X95435710Y-88657288D01*
X95422403Y-88663582D01*
X95408543Y-88668541D01*
X95394264Y-88672118D01*
X95379703Y-88674278D01*
X95365000Y-88675000D01*
X95065000Y-88675000D01*
X95050297Y-88674278D01*
X95035736Y-88672118D01*
X95021457Y-88668541D01*
X95007597Y-88663582D01*
X94994290Y-88657288D01*
X94981664Y-88649720D01*
X94969841Y-88640952D01*
X94958934Y-88631066D01*
X94949048Y-88620159D01*
X94940280Y-88608336D01*
X94932712Y-88595710D01*
X94926418Y-88582403D01*
X94921459Y-88568543D01*
X94917882Y-88554264D01*
X94915722Y-88539703D01*
X94915000Y-88525000D01*
X94915000Y-86775000D01*
X94915722Y-86760297D01*
X94917882Y-86745736D01*
X94921459Y-86731457D01*
X94926418Y-86717597D01*
X94932712Y-86704290D01*
X94940280Y-86691664D01*
X94949048Y-86679841D01*
X94958934Y-86668934D01*
X94969841Y-86659048D01*
X94981664Y-86650280D01*
X94994290Y-86642712D01*
X95007597Y-86636418D01*
X95021457Y-86631459D01*
X95035736Y-86627882D01*
X95050297Y-86625722D01*
X95065000Y-86625000D01*
X95365000Y-86625000D01*
X95379703Y-86625722D01*
G37*
G36*
X96649703Y-86625722D02*
G01*
X96664264Y-86627882D01*
X96678543Y-86631459D01*
X96692403Y-86636418D01*
X96705710Y-86642712D01*
X96718336Y-86650280D01*
X96730159Y-86659048D01*
X96741066Y-86668934D01*
X96750952Y-86679841D01*
X96759720Y-86691664D01*
X96767288Y-86704290D01*
X96773582Y-86717597D01*
X96778541Y-86731457D01*
X96782118Y-86745736D01*
X96784278Y-86760297D01*
X96785000Y-86775000D01*
X96785000Y-88525000D01*
X96784278Y-88539703D01*
X96782118Y-88554264D01*
X96778541Y-88568543D01*
X96773582Y-88582403D01*
X96767288Y-88595710D01*
X96759720Y-88608336D01*
X96750952Y-88620159D01*
X96741066Y-88631066D01*
X96730159Y-88640952D01*
X96718336Y-88649720D01*
X96705710Y-88657288D01*
X96692403Y-88663582D01*
X96678543Y-88668541D01*
X96664264Y-88672118D01*
X96649703Y-88674278D01*
X96635000Y-88675000D01*
X96335000Y-88675000D01*
X96320297Y-88674278D01*
X96305736Y-88672118D01*
X96291457Y-88668541D01*
X96277597Y-88663582D01*
X96264290Y-88657288D01*
X96251664Y-88649720D01*
X96239841Y-88640952D01*
X96228934Y-88631066D01*
X96219048Y-88620159D01*
X96210280Y-88608336D01*
X96202712Y-88595710D01*
X96196418Y-88582403D01*
X96191459Y-88568543D01*
X96187882Y-88554264D01*
X96185722Y-88539703D01*
X96185000Y-88525000D01*
X96185000Y-86775000D01*
X96185722Y-86760297D01*
X96187882Y-86745736D01*
X96191459Y-86731457D01*
X96196418Y-86717597D01*
X96202712Y-86704290D01*
X96210280Y-86691664D01*
X96219048Y-86679841D01*
X96228934Y-86668934D01*
X96239841Y-86659048D01*
X96251664Y-86650280D01*
X96264290Y-86642712D01*
X96277597Y-86636418D01*
X96291457Y-86631459D01*
X96305736Y-86627882D01*
X96320297Y-86625722D01*
X96335000Y-86625000D01*
X96635000Y-86625000D01*
X96649703Y-86625722D01*
G37*
G36*
X97919703Y-86625722D02*
G01*
X97934264Y-86627882D01*
X97948543Y-86631459D01*
X97962403Y-86636418D01*
X97975710Y-86642712D01*
X97988336Y-86650280D01*
X98000159Y-86659048D01*
X98011066Y-86668934D01*
X98020952Y-86679841D01*
X98029720Y-86691664D01*
X98037288Y-86704290D01*
X98043582Y-86717597D01*
X98048541Y-86731457D01*
X98052118Y-86745736D01*
X98054278Y-86760297D01*
X98055000Y-86775000D01*
X98055000Y-88525000D01*
X98054278Y-88539703D01*
X98052118Y-88554264D01*
X98048541Y-88568543D01*
X98043582Y-88582403D01*
X98037288Y-88595710D01*
X98029720Y-88608336D01*
X98020952Y-88620159D01*
X98011066Y-88631066D01*
X98000159Y-88640952D01*
X97988336Y-88649720D01*
X97975710Y-88657288D01*
X97962403Y-88663582D01*
X97948543Y-88668541D01*
X97934264Y-88672118D01*
X97919703Y-88674278D01*
X97905000Y-88675000D01*
X97605000Y-88675000D01*
X97590297Y-88674278D01*
X97575736Y-88672118D01*
X97561457Y-88668541D01*
X97547597Y-88663582D01*
X97534290Y-88657288D01*
X97521664Y-88649720D01*
X97509841Y-88640952D01*
X97498934Y-88631066D01*
X97489048Y-88620159D01*
X97480280Y-88608336D01*
X97472712Y-88595710D01*
X97466418Y-88582403D01*
X97461459Y-88568543D01*
X97457882Y-88554264D01*
X97455722Y-88539703D01*
X97455000Y-88525000D01*
X97455000Y-86775000D01*
X97455722Y-86760297D01*
X97457882Y-86745736D01*
X97461459Y-86731457D01*
X97466418Y-86717597D01*
X97472712Y-86704290D01*
X97480280Y-86691664D01*
X97489048Y-86679841D01*
X97498934Y-86668934D01*
X97509841Y-86659048D01*
X97521664Y-86650280D01*
X97534290Y-86642712D01*
X97547597Y-86636418D01*
X97561457Y-86631459D01*
X97575736Y-86627882D01*
X97590297Y-86625722D01*
X97605000Y-86625000D01*
X97905000Y-86625000D01*
X97919703Y-86625722D01*
G37*
G36*
X97919703Y-77325722D02*
G01*
X97934264Y-77327882D01*
X97948543Y-77331459D01*
X97962403Y-77336418D01*
X97975710Y-77342712D01*
X97988336Y-77350280D01*
X98000159Y-77359048D01*
X98011066Y-77368934D01*
X98020952Y-77379841D01*
X98029720Y-77391664D01*
X98037288Y-77404290D01*
X98043582Y-77417597D01*
X98048541Y-77431457D01*
X98052118Y-77445736D01*
X98054278Y-77460297D01*
X98055000Y-77475000D01*
X98055000Y-79225000D01*
X98054278Y-79239703D01*
X98052118Y-79254264D01*
X98048541Y-79268543D01*
X98043582Y-79282403D01*
X98037288Y-79295710D01*
X98029720Y-79308336D01*
X98020952Y-79320159D01*
X98011066Y-79331066D01*
X98000159Y-79340952D01*
X97988336Y-79349720D01*
X97975710Y-79357288D01*
X97962403Y-79363582D01*
X97948543Y-79368541D01*
X97934264Y-79372118D01*
X97919703Y-79374278D01*
X97905000Y-79375000D01*
X97605000Y-79375000D01*
X97590297Y-79374278D01*
X97575736Y-79372118D01*
X97561457Y-79368541D01*
X97547597Y-79363582D01*
X97534290Y-79357288D01*
X97521664Y-79349720D01*
X97509841Y-79340952D01*
X97498934Y-79331066D01*
X97489048Y-79320159D01*
X97480280Y-79308336D01*
X97472712Y-79295710D01*
X97466418Y-79282403D01*
X97461459Y-79268543D01*
X97457882Y-79254264D01*
X97455722Y-79239703D01*
X97455000Y-79225000D01*
X97455000Y-77475000D01*
X97455722Y-77460297D01*
X97457882Y-77445736D01*
X97461459Y-77431457D01*
X97466418Y-77417597D01*
X97472712Y-77404290D01*
X97480280Y-77391664D01*
X97489048Y-77379841D01*
X97498934Y-77368934D01*
X97509841Y-77359048D01*
X97521664Y-77350280D01*
X97534290Y-77342712D01*
X97547597Y-77336418D01*
X97561457Y-77331459D01*
X97575736Y-77327882D01*
X97590297Y-77325722D01*
X97605000Y-77325000D01*
X97905000Y-77325000D01*
X97919703Y-77325722D01*
G37*
G36*
X96649703Y-77325722D02*
G01*
X96664264Y-77327882D01*
X96678543Y-77331459D01*
X96692403Y-77336418D01*
X96705710Y-77342712D01*
X96718336Y-77350280D01*
X96730159Y-77359048D01*
X96741066Y-77368934D01*
X96750952Y-77379841D01*
X96759720Y-77391664D01*
X96767288Y-77404290D01*
X96773582Y-77417597D01*
X96778541Y-77431457D01*
X96782118Y-77445736D01*
X96784278Y-77460297D01*
X96785000Y-77475000D01*
X96785000Y-79225000D01*
X96784278Y-79239703D01*
X96782118Y-79254264D01*
X96778541Y-79268543D01*
X96773582Y-79282403D01*
X96767288Y-79295710D01*
X96759720Y-79308336D01*
X96750952Y-79320159D01*
X96741066Y-79331066D01*
X96730159Y-79340952D01*
X96718336Y-79349720D01*
X96705710Y-79357288D01*
X96692403Y-79363582D01*
X96678543Y-79368541D01*
X96664264Y-79372118D01*
X96649703Y-79374278D01*
X96635000Y-79375000D01*
X96335000Y-79375000D01*
X96320297Y-79374278D01*
X96305736Y-79372118D01*
X96291457Y-79368541D01*
X96277597Y-79363582D01*
X96264290Y-79357288D01*
X96251664Y-79349720D01*
X96239841Y-79340952D01*
X96228934Y-79331066D01*
X96219048Y-79320159D01*
X96210280Y-79308336D01*
X96202712Y-79295710D01*
X96196418Y-79282403D01*
X96191459Y-79268543D01*
X96187882Y-79254264D01*
X96185722Y-79239703D01*
X96185000Y-79225000D01*
X96185000Y-77475000D01*
X96185722Y-77460297D01*
X96187882Y-77445736D01*
X96191459Y-77431457D01*
X96196418Y-77417597D01*
X96202712Y-77404290D01*
X96210280Y-77391664D01*
X96219048Y-77379841D01*
X96228934Y-77368934D01*
X96239841Y-77359048D01*
X96251664Y-77350280D01*
X96264290Y-77342712D01*
X96277597Y-77336418D01*
X96291457Y-77331459D01*
X96305736Y-77327882D01*
X96320297Y-77325722D01*
X96335000Y-77325000D01*
X96635000Y-77325000D01*
X96649703Y-77325722D01*
G37*
G36*
X95379703Y-77325722D02*
G01*
X95394264Y-77327882D01*
X95408543Y-77331459D01*
X95422403Y-77336418D01*
X95435710Y-77342712D01*
X95448336Y-77350280D01*
X95460159Y-77359048D01*
X95471066Y-77368934D01*
X95480952Y-77379841D01*
X95489720Y-77391664D01*
X95497288Y-77404290D01*
X95503582Y-77417597D01*
X95508541Y-77431457D01*
X95512118Y-77445736D01*
X95514278Y-77460297D01*
X95515000Y-77475000D01*
X95515000Y-79225000D01*
X95514278Y-79239703D01*
X95512118Y-79254264D01*
X95508541Y-79268543D01*
X95503582Y-79282403D01*
X95497288Y-79295710D01*
X95489720Y-79308336D01*
X95480952Y-79320159D01*
X95471066Y-79331066D01*
X95460159Y-79340952D01*
X95448336Y-79349720D01*
X95435710Y-79357288D01*
X95422403Y-79363582D01*
X95408543Y-79368541D01*
X95394264Y-79372118D01*
X95379703Y-79374278D01*
X95365000Y-79375000D01*
X95065000Y-79375000D01*
X95050297Y-79374278D01*
X95035736Y-79372118D01*
X95021457Y-79368541D01*
X95007597Y-79363582D01*
X94994290Y-79357288D01*
X94981664Y-79349720D01*
X94969841Y-79340952D01*
X94958934Y-79331066D01*
X94949048Y-79320159D01*
X94940280Y-79308336D01*
X94932712Y-79295710D01*
X94926418Y-79282403D01*
X94921459Y-79268543D01*
X94917882Y-79254264D01*
X94915722Y-79239703D01*
X94915000Y-79225000D01*
X94915000Y-77475000D01*
X94915722Y-77460297D01*
X94917882Y-77445736D01*
X94921459Y-77431457D01*
X94926418Y-77417597D01*
X94932712Y-77404290D01*
X94940280Y-77391664D01*
X94949048Y-77379841D01*
X94958934Y-77368934D01*
X94969841Y-77359048D01*
X94981664Y-77350280D01*
X94994290Y-77342712D01*
X95007597Y-77336418D01*
X95021457Y-77331459D01*
X95035736Y-77327882D01*
X95050297Y-77325722D01*
X95065000Y-77325000D01*
X95365000Y-77325000D01*
X95379703Y-77325722D01*
G37*
G36*
X94109703Y-77325722D02*
G01*
X94124264Y-77327882D01*
X94138543Y-77331459D01*
X94152403Y-77336418D01*
X94165710Y-77342712D01*
X94178336Y-77350280D01*
X94190159Y-77359048D01*
X94201066Y-77368934D01*
X94210952Y-77379841D01*
X94219720Y-77391664D01*
X94227288Y-77404290D01*
X94233582Y-77417597D01*
X94238541Y-77431457D01*
X94242118Y-77445736D01*
X94244278Y-77460297D01*
X94245000Y-77475000D01*
X94245000Y-79225000D01*
X94244278Y-79239703D01*
X94242118Y-79254264D01*
X94238541Y-79268543D01*
X94233582Y-79282403D01*
X94227288Y-79295710D01*
X94219720Y-79308336D01*
X94210952Y-79320159D01*
X94201066Y-79331066D01*
X94190159Y-79340952D01*
X94178336Y-79349720D01*
X94165710Y-79357288D01*
X94152403Y-79363582D01*
X94138543Y-79368541D01*
X94124264Y-79372118D01*
X94109703Y-79374278D01*
X94095000Y-79375000D01*
X93795000Y-79375000D01*
X93780297Y-79374278D01*
X93765736Y-79372118D01*
X93751457Y-79368541D01*
X93737597Y-79363582D01*
X93724290Y-79357288D01*
X93711664Y-79349720D01*
X93699841Y-79340952D01*
X93688934Y-79331066D01*
X93679048Y-79320159D01*
X93670280Y-79308336D01*
X93662712Y-79295710D01*
X93656418Y-79282403D01*
X93651459Y-79268543D01*
X93647882Y-79254264D01*
X93645722Y-79239703D01*
X93645000Y-79225000D01*
X93645000Y-77475000D01*
X93645722Y-77460297D01*
X93647882Y-77445736D01*
X93651459Y-77431457D01*
X93656418Y-77417597D01*
X93662712Y-77404290D01*
X93670280Y-77391664D01*
X93679048Y-77379841D01*
X93688934Y-77368934D01*
X93699841Y-77359048D01*
X93711664Y-77350280D01*
X93724290Y-77342712D01*
X93737597Y-77336418D01*
X93751457Y-77331459D01*
X93765736Y-77327882D01*
X93780297Y-77325722D01*
X93795000Y-77325000D01*
X94095000Y-77325000D01*
X94109703Y-77325722D01*
G37*
G36*
X92839703Y-77325722D02*
G01*
X92854264Y-77327882D01*
X92868543Y-77331459D01*
X92882403Y-77336418D01*
X92895710Y-77342712D01*
X92908336Y-77350280D01*
X92920159Y-77359048D01*
X92931066Y-77368934D01*
X92940952Y-77379841D01*
X92949720Y-77391664D01*
X92957288Y-77404290D01*
X92963582Y-77417597D01*
X92968541Y-77431457D01*
X92972118Y-77445736D01*
X92974278Y-77460297D01*
X92975000Y-77475000D01*
X92975000Y-79225000D01*
X92974278Y-79239703D01*
X92972118Y-79254264D01*
X92968541Y-79268543D01*
X92963582Y-79282403D01*
X92957288Y-79295710D01*
X92949720Y-79308336D01*
X92940952Y-79320159D01*
X92931066Y-79331066D01*
X92920159Y-79340952D01*
X92908336Y-79349720D01*
X92895710Y-79357288D01*
X92882403Y-79363582D01*
X92868543Y-79368541D01*
X92854264Y-79372118D01*
X92839703Y-79374278D01*
X92825000Y-79375000D01*
X92525000Y-79375000D01*
X92510297Y-79374278D01*
X92495736Y-79372118D01*
X92481457Y-79368541D01*
X92467597Y-79363582D01*
X92454290Y-79357288D01*
X92441664Y-79349720D01*
X92429841Y-79340952D01*
X92418934Y-79331066D01*
X92409048Y-79320159D01*
X92400280Y-79308336D01*
X92392712Y-79295710D01*
X92386418Y-79282403D01*
X92381459Y-79268543D01*
X92377882Y-79254264D01*
X92375722Y-79239703D01*
X92375000Y-79225000D01*
X92375000Y-77475000D01*
X92375722Y-77460297D01*
X92377882Y-77445736D01*
X92381459Y-77431457D01*
X92386418Y-77417597D01*
X92392712Y-77404290D01*
X92400280Y-77391664D01*
X92409048Y-77379841D01*
X92418934Y-77368934D01*
X92429841Y-77359048D01*
X92441664Y-77350280D01*
X92454290Y-77342712D01*
X92467597Y-77336418D01*
X92481457Y-77331459D01*
X92495736Y-77327882D01*
X92510297Y-77325722D01*
X92525000Y-77325000D01*
X92825000Y-77325000D01*
X92839703Y-77325722D01*
G37*
G36*
X91569703Y-77325722D02*
G01*
X91584264Y-77327882D01*
X91598543Y-77331459D01*
X91612403Y-77336418D01*
X91625710Y-77342712D01*
X91638336Y-77350280D01*
X91650159Y-77359048D01*
X91661066Y-77368934D01*
X91670952Y-77379841D01*
X91679720Y-77391664D01*
X91687288Y-77404290D01*
X91693582Y-77417597D01*
X91698541Y-77431457D01*
X91702118Y-77445736D01*
X91704278Y-77460297D01*
X91705000Y-77475000D01*
X91705000Y-79225000D01*
X91704278Y-79239703D01*
X91702118Y-79254264D01*
X91698541Y-79268543D01*
X91693582Y-79282403D01*
X91687288Y-79295710D01*
X91679720Y-79308336D01*
X91670952Y-79320159D01*
X91661066Y-79331066D01*
X91650159Y-79340952D01*
X91638336Y-79349720D01*
X91625710Y-79357288D01*
X91612403Y-79363582D01*
X91598543Y-79368541D01*
X91584264Y-79372118D01*
X91569703Y-79374278D01*
X91555000Y-79375000D01*
X91255000Y-79375000D01*
X91240297Y-79374278D01*
X91225736Y-79372118D01*
X91211457Y-79368541D01*
X91197597Y-79363582D01*
X91184290Y-79357288D01*
X91171664Y-79349720D01*
X91159841Y-79340952D01*
X91148934Y-79331066D01*
X91139048Y-79320159D01*
X91130280Y-79308336D01*
X91122712Y-79295710D01*
X91116418Y-79282403D01*
X91111459Y-79268543D01*
X91107882Y-79254264D01*
X91105722Y-79239703D01*
X91105000Y-79225000D01*
X91105000Y-77475000D01*
X91105722Y-77460297D01*
X91107882Y-77445736D01*
X91111459Y-77431457D01*
X91116418Y-77417597D01*
X91122712Y-77404290D01*
X91130280Y-77391664D01*
X91139048Y-77379841D01*
X91148934Y-77368934D01*
X91159841Y-77359048D01*
X91171664Y-77350280D01*
X91184290Y-77342712D01*
X91197597Y-77336418D01*
X91211457Y-77331459D01*
X91225736Y-77327882D01*
X91240297Y-77325722D01*
X91255000Y-77325000D01*
X91555000Y-77325000D01*
X91569703Y-77325722D01*
G37*
G36*
X90299703Y-77325722D02*
G01*
X90314264Y-77327882D01*
X90328543Y-77331459D01*
X90342403Y-77336418D01*
X90355710Y-77342712D01*
X90368336Y-77350280D01*
X90380159Y-77359048D01*
X90391066Y-77368934D01*
X90400952Y-77379841D01*
X90409720Y-77391664D01*
X90417288Y-77404290D01*
X90423582Y-77417597D01*
X90428541Y-77431457D01*
X90432118Y-77445736D01*
X90434278Y-77460297D01*
X90435000Y-77475000D01*
X90435000Y-79225000D01*
X90434278Y-79239703D01*
X90432118Y-79254264D01*
X90428541Y-79268543D01*
X90423582Y-79282403D01*
X90417288Y-79295710D01*
X90409720Y-79308336D01*
X90400952Y-79320159D01*
X90391066Y-79331066D01*
X90380159Y-79340952D01*
X90368336Y-79349720D01*
X90355710Y-79357288D01*
X90342403Y-79363582D01*
X90328543Y-79368541D01*
X90314264Y-79372118D01*
X90299703Y-79374278D01*
X90285000Y-79375000D01*
X89985000Y-79375000D01*
X89970297Y-79374278D01*
X89955736Y-79372118D01*
X89941457Y-79368541D01*
X89927597Y-79363582D01*
X89914290Y-79357288D01*
X89901664Y-79349720D01*
X89889841Y-79340952D01*
X89878934Y-79331066D01*
X89869048Y-79320159D01*
X89860280Y-79308336D01*
X89852712Y-79295710D01*
X89846418Y-79282403D01*
X89841459Y-79268543D01*
X89837882Y-79254264D01*
X89835722Y-79239703D01*
X89835000Y-79225000D01*
X89835000Y-77475000D01*
X89835722Y-77460297D01*
X89837882Y-77445736D01*
X89841459Y-77431457D01*
X89846418Y-77417597D01*
X89852712Y-77404290D01*
X89860280Y-77391664D01*
X89869048Y-77379841D01*
X89878934Y-77368934D01*
X89889841Y-77359048D01*
X89901664Y-77350280D01*
X89914290Y-77342712D01*
X89927597Y-77336418D01*
X89941457Y-77331459D01*
X89955736Y-77327882D01*
X89970297Y-77325722D01*
X89985000Y-77325000D01*
X90285000Y-77325000D01*
X90299703Y-77325722D01*
G37*
G36*
X89029703Y-77325722D02*
G01*
X89044264Y-77327882D01*
X89058543Y-77331459D01*
X89072403Y-77336418D01*
X89085710Y-77342712D01*
X89098336Y-77350280D01*
X89110159Y-77359048D01*
X89121066Y-77368934D01*
X89130952Y-77379841D01*
X89139720Y-77391664D01*
X89147288Y-77404290D01*
X89153582Y-77417597D01*
X89158541Y-77431457D01*
X89162118Y-77445736D01*
X89164278Y-77460297D01*
X89165000Y-77475000D01*
X89165000Y-79225000D01*
X89164278Y-79239703D01*
X89162118Y-79254264D01*
X89158541Y-79268543D01*
X89153582Y-79282403D01*
X89147288Y-79295710D01*
X89139720Y-79308336D01*
X89130952Y-79320159D01*
X89121066Y-79331066D01*
X89110159Y-79340952D01*
X89098336Y-79349720D01*
X89085710Y-79357288D01*
X89072403Y-79363582D01*
X89058543Y-79368541D01*
X89044264Y-79372118D01*
X89029703Y-79374278D01*
X89015000Y-79375000D01*
X88715000Y-79375000D01*
X88700297Y-79374278D01*
X88685736Y-79372118D01*
X88671457Y-79368541D01*
X88657597Y-79363582D01*
X88644290Y-79357288D01*
X88631664Y-79349720D01*
X88619841Y-79340952D01*
X88608934Y-79331066D01*
X88599048Y-79320159D01*
X88590280Y-79308336D01*
X88582712Y-79295710D01*
X88576418Y-79282403D01*
X88571459Y-79268543D01*
X88567882Y-79254264D01*
X88565722Y-79239703D01*
X88565000Y-79225000D01*
X88565000Y-77475000D01*
X88565722Y-77460297D01*
X88567882Y-77445736D01*
X88571459Y-77431457D01*
X88576418Y-77417597D01*
X88582712Y-77404290D01*
X88590280Y-77391664D01*
X88599048Y-77379841D01*
X88608934Y-77368934D01*
X88619841Y-77359048D01*
X88631664Y-77350280D01*
X88644290Y-77342712D01*
X88657597Y-77336418D01*
X88671457Y-77331459D01*
X88685736Y-77327882D01*
X88700297Y-77325722D01*
X88715000Y-77325000D01*
X89015000Y-77325000D01*
X89029703Y-77325722D01*
G37*
G36*
X87759703Y-77325722D02*
G01*
X87774264Y-77327882D01*
X87788543Y-77331459D01*
X87802403Y-77336418D01*
X87815710Y-77342712D01*
X87828336Y-77350280D01*
X87840159Y-77359048D01*
X87851066Y-77368934D01*
X87860952Y-77379841D01*
X87869720Y-77391664D01*
X87877288Y-77404290D01*
X87883582Y-77417597D01*
X87888541Y-77431457D01*
X87892118Y-77445736D01*
X87894278Y-77460297D01*
X87895000Y-77475000D01*
X87895000Y-79225000D01*
X87894278Y-79239703D01*
X87892118Y-79254264D01*
X87888541Y-79268543D01*
X87883582Y-79282403D01*
X87877288Y-79295710D01*
X87869720Y-79308336D01*
X87860952Y-79320159D01*
X87851066Y-79331066D01*
X87840159Y-79340952D01*
X87828336Y-79349720D01*
X87815710Y-79357288D01*
X87802403Y-79363582D01*
X87788543Y-79368541D01*
X87774264Y-79372118D01*
X87759703Y-79374278D01*
X87745000Y-79375000D01*
X87445000Y-79375000D01*
X87430297Y-79374278D01*
X87415736Y-79372118D01*
X87401457Y-79368541D01*
X87387597Y-79363582D01*
X87374290Y-79357288D01*
X87361664Y-79349720D01*
X87349841Y-79340952D01*
X87338934Y-79331066D01*
X87329048Y-79320159D01*
X87320280Y-79308336D01*
X87312712Y-79295710D01*
X87306418Y-79282403D01*
X87301459Y-79268543D01*
X87297882Y-79254264D01*
X87295722Y-79239703D01*
X87295000Y-79225000D01*
X87295000Y-77475000D01*
X87295722Y-77460297D01*
X87297882Y-77445736D01*
X87301459Y-77431457D01*
X87306418Y-77417597D01*
X87312712Y-77404290D01*
X87320280Y-77391664D01*
X87329048Y-77379841D01*
X87338934Y-77368934D01*
X87349841Y-77359048D01*
X87361664Y-77350280D01*
X87374290Y-77342712D01*
X87387597Y-77336418D01*
X87401457Y-77331459D01*
X87415736Y-77327882D01*
X87430297Y-77325722D01*
X87445000Y-77325000D01*
X87745000Y-77325000D01*
X87759703Y-77325722D01*
G37*
G36*
X86489703Y-77325722D02*
G01*
X86504264Y-77327882D01*
X86518543Y-77331459D01*
X86532403Y-77336418D01*
X86545710Y-77342712D01*
X86558336Y-77350280D01*
X86570159Y-77359048D01*
X86581066Y-77368934D01*
X86590952Y-77379841D01*
X86599720Y-77391664D01*
X86607288Y-77404290D01*
X86613582Y-77417597D01*
X86618541Y-77431457D01*
X86622118Y-77445736D01*
X86624278Y-77460297D01*
X86625000Y-77475000D01*
X86625000Y-79225000D01*
X86624278Y-79239703D01*
X86622118Y-79254264D01*
X86618541Y-79268543D01*
X86613582Y-79282403D01*
X86607288Y-79295710D01*
X86599720Y-79308336D01*
X86590952Y-79320159D01*
X86581066Y-79331066D01*
X86570159Y-79340952D01*
X86558336Y-79349720D01*
X86545710Y-79357288D01*
X86532403Y-79363582D01*
X86518543Y-79368541D01*
X86504264Y-79372118D01*
X86489703Y-79374278D01*
X86475000Y-79375000D01*
X86175000Y-79375000D01*
X86160297Y-79374278D01*
X86145736Y-79372118D01*
X86131457Y-79368541D01*
X86117597Y-79363582D01*
X86104290Y-79357288D01*
X86091664Y-79349720D01*
X86079841Y-79340952D01*
X86068934Y-79331066D01*
X86059048Y-79320159D01*
X86050280Y-79308336D01*
X86042712Y-79295710D01*
X86036418Y-79282403D01*
X86031459Y-79268543D01*
X86027882Y-79254264D01*
X86025722Y-79239703D01*
X86025000Y-79225000D01*
X86025000Y-77475000D01*
X86025722Y-77460297D01*
X86027882Y-77445736D01*
X86031459Y-77431457D01*
X86036418Y-77417597D01*
X86042712Y-77404290D01*
X86050280Y-77391664D01*
X86059048Y-77379841D01*
X86068934Y-77368934D01*
X86079841Y-77359048D01*
X86091664Y-77350280D01*
X86104290Y-77342712D01*
X86117597Y-77336418D01*
X86131457Y-77331459D01*
X86145736Y-77327882D01*
X86160297Y-77325722D01*
X86175000Y-77325000D01*
X86475000Y-77325000D01*
X86489703Y-77325722D01*
G37*
G36*
X85219703Y-77325722D02*
G01*
X85234264Y-77327882D01*
X85248543Y-77331459D01*
X85262403Y-77336418D01*
X85275710Y-77342712D01*
X85288336Y-77350280D01*
X85300159Y-77359048D01*
X85311066Y-77368934D01*
X85320952Y-77379841D01*
X85329720Y-77391664D01*
X85337288Y-77404290D01*
X85343582Y-77417597D01*
X85348541Y-77431457D01*
X85352118Y-77445736D01*
X85354278Y-77460297D01*
X85355000Y-77475000D01*
X85355000Y-79225000D01*
X85354278Y-79239703D01*
X85352118Y-79254264D01*
X85348541Y-79268543D01*
X85343582Y-79282403D01*
X85337288Y-79295710D01*
X85329720Y-79308336D01*
X85320952Y-79320159D01*
X85311066Y-79331066D01*
X85300159Y-79340952D01*
X85288336Y-79349720D01*
X85275710Y-79357288D01*
X85262403Y-79363582D01*
X85248543Y-79368541D01*
X85234264Y-79372118D01*
X85219703Y-79374278D01*
X85205000Y-79375000D01*
X84905000Y-79375000D01*
X84890297Y-79374278D01*
X84875736Y-79372118D01*
X84861457Y-79368541D01*
X84847597Y-79363582D01*
X84834290Y-79357288D01*
X84821664Y-79349720D01*
X84809841Y-79340952D01*
X84798934Y-79331066D01*
X84789048Y-79320159D01*
X84780280Y-79308336D01*
X84772712Y-79295710D01*
X84766418Y-79282403D01*
X84761459Y-79268543D01*
X84757882Y-79254264D01*
X84755722Y-79239703D01*
X84755000Y-79225000D01*
X84755000Y-77475000D01*
X84755722Y-77460297D01*
X84757882Y-77445736D01*
X84761459Y-77431457D01*
X84766418Y-77417597D01*
X84772712Y-77404290D01*
X84780280Y-77391664D01*
X84789048Y-77379841D01*
X84798934Y-77368934D01*
X84809841Y-77359048D01*
X84821664Y-77350280D01*
X84834290Y-77342712D01*
X84847597Y-77336418D01*
X84861457Y-77331459D01*
X84875736Y-77327882D01*
X84890297Y-77325722D01*
X84905000Y-77325000D01*
X85205000Y-77325000D01*
X85219703Y-77325722D01*
G37*
G36*
X83949703Y-77325722D02*
G01*
X83964264Y-77327882D01*
X83978543Y-77331459D01*
X83992403Y-77336418D01*
X84005710Y-77342712D01*
X84018336Y-77350280D01*
X84030159Y-77359048D01*
X84041066Y-77368934D01*
X84050952Y-77379841D01*
X84059720Y-77391664D01*
X84067288Y-77404290D01*
X84073582Y-77417597D01*
X84078541Y-77431457D01*
X84082118Y-77445736D01*
X84084278Y-77460297D01*
X84085000Y-77475000D01*
X84085000Y-79225000D01*
X84084278Y-79239703D01*
X84082118Y-79254264D01*
X84078541Y-79268543D01*
X84073582Y-79282403D01*
X84067288Y-79295710D01*
X84059720Y-79308336D01*
X84050952Y-79320159D01*
X84041066Y-79331066D01*
X84030159Y-79340952D01*
X84018336Y-79349720D01*
X84005710Y-79357288D01*
X83992403Y-79363582D01*
X83978543Y-79368541D01*
X83964264Y-79372118D01*
X83949703Y-79374278D01*
X83935000Y-79375000D01*
X83635000Y-79375000D01*
X83620297Y-79374278D01*
X83605736Y-79372118D01*
X83591457Y-79368541D01*
X83577597Y-79363582D01*
X83564290Y-79357288D01*
X83551664Y-79349720D01*
X83539841Y-79340952D01*
X83528934Y-79331066D01*
X83519048Y-79320159D01*
X83510280Y-79308336D01*
X83502712Y-79295710D01*
X83496418Y-79282403D01*
X83491459Y-79268543D01*
X83487882Y-79254264D01*
X83485722Y-79239703D01*
X83485000Y-79225000D01*
X83485000Y-77475000D01*
X83485722Y-77460297D01*
X83487882Y-77445736D01*
X83491459Y-77431457D01*
X83496418Y-77417597D01*
X83502712Y-77404290D01*
X83510280Y-77391664D01*
X83519048Y-77379841D01*
X83528934Y-77368934D01*
X83539841Y-77359048D01*
X83551664Y-77350280D01*
X83564290Y-77342712D01*
X83577597Y-77336418D01*
X83591457Y-77331459D01*
X83605736Y-77327882D01*
X83620297Y-77325722D01*
X83635000Y-77325000D01*
X83935000Y-77325000D01*
X83949703Y-77325722D01*
G37*
G36*
X82679703Y-77325722D02*
G01*
X82694264Y-77327882D01*
X82708543Y-77331459D01*
X82722403Y-77336418D01*
X82735710Y-77342712D01*
X82748336Y-77350280D01*
X82760159Y-77359048D01*
X82771066Y-77368934D01*
X82780952Y-77379841D01*
X82789720Y-77391664D01*
X82797288Y-77404290D01*
X82803582Y-77417597D01*
X82808541Y-77431457D01*
X82812118Y-77445736D01*
X82814278Y-77460297D01*
X82815000Y-77475000D01*
X82815000Y-79225000D01*
X82814278Y-79239703D01*
X82812118Y-79254264D01*
X82808541Y-79268543D01*
X82803582Y-79282403D01*
X82797288Y-79295710D01*
X82789720Y-79308336D01*
X82780952Y-79320159D01*
X82771066Y-79331066D01*
X82760159Y-79340952D01*
X82748336Y-79349720D01*
X82735710Y-79357288D01*
X82722403Y-79363582D01*
X82708543Y-79368541D01*
X82694264Y-79372118D01*
X82679703Y-79374278D01*
X82665000Y-79375000D01*
X82365000Y-79375000D01*
X82350297Y-79374278D01*
X82335736Y-79372118D01*
X82321457Y-79368541D01*
X82307597Y-79363582D01*
X82294290Y-79357288D01*
X82281664Y-79349720D01*
X82269841Y-79340952D01*
X82258934Y-79331066D01*
X82249048Y-79320159D01*
X82240280Y-79308336D01*
X82232712Y-79295710D01*
X82226418Y-79282403D01*
X82221459Y-79268543D01*
X82217882Y-79254264D01*
X82215722Y-79239703D01*
X82215000Y-79225000D01*
X82215000Y-77475000D01*
X82215722Y-77460297D01*
X82217882Y-77445736D01*
X82221459Y-77431457D01*
X82226418Y-77417597D01*
X82232712Y-77404290D01*
X82240280Y-77391664D01*
X82249048Y-77379841D01*
X82258934Y-77368934D01*
X82269841Y-77359048D01*
X82281664Y-77350280D01*
X82294290Y-77342712D01*
X82307597Y-77336418D01*
X82321457Y-77331459D01*
X82335736Y-77327882D01*
X82350297Y-77325722D01*
X82365000Y-77325000D01*
X82665000Y-77325000D01*
X82679703Y-77325722D01*
G37*
G36*
X81409703Y-77325722D02*
G01*
X81424264Y-77327882D01*
X81438543Y-77331459D01*
X81452403Y-77336418D01*
X81465710Y-77342712D01*
X81478336Y-77350280D01*
X81490159Y-77359048D01*
X81501066Y-77368934D01*
X81510952Y-77379841D01*
X81519720Y-77391664D01*
X81527288Y-77404290D01*
X81533582Y-77417597D01*
X81538541Y-77431457D01*
X81542118Y-77445736D01*
X81544278Y-77460297D01*
X81545000Y-77475000D01*
X81545000Y-79225000D01*
X81544278Y-79239703D01*
X81542118Y-79254264D01*
X81538541Y-79268543D01*
X81533582Y-79282403D01*
X81527288Y-79295710D01*
X81519720Y-79308336D01*
X81510952Y-79320159D01*
X81501066Y-79331066D01*
X81490159Y-79340952D01*
X81478336Y-79349720D01*
X81465710Y-79357288D01*
X81452403Y-79363582D01*
X81438543Y-79368541D01*
X81424264Y-79372118D01*
X81409703Y-79374278D01*
X81395000Y-79375000D01*
X81095000Y-79375000D01*
X81080297Y-79374278D01*
X81065736Y-79372118D01*
X81051457Y-79368541D01*
X81037597Y-79363582D01*
X81024290Y-79357288D01*
X81011664Y-79349720D01*
X80999841Y-79340952D01*
X80988934Y-79331066D01*
X80979048Y-79320159D01*
X80970280Y-79308336D01*
X80962712Y-79295710D01*
X80956418Y-79282403D01*
X80951459Y-79268543D01*
X80947882Y-79254264D01*
X80945722Y-79239703D01*
X80945000Y-79225000D01*
X80945000Y-77475000D01*
X80945722Y-77460297D01*
X80947882Y-77445736D01*
X80951459Y-77431457D01*
X80956418Y-77417597D01*
X80962712Y-77404290D01*
X80970280Y-77391664D01*
X80979048Y-77379841D01*
X80988934Y-77368934D01*
X80999841Y-77359048D01*
X81011664Y-77350280D01*
X81024290Y-77342712D01*
X81037597Y-77336418D01*
X81051457Y-77331459D01*
X81065736Y-77327882D01*
X81080297Y-77325722D01*
X81095000Y-77325000D01*
X81395000Y-77325000D01*
X81409703Y-77325722D01*
G37*
D11*
X119410000Y-96450000D03*
X119410000Y-95500000D03*
X119410000Y-94550000D03*
X117090000Y-94550000D03*
X117090000Y-95500000D03*
X117090000Y-96450000D03*
X111160000Y-96450000D03*
X111160000Y-95500000D03*
X111160000Y-94550000D03*
X108840000Y-94550000D03*
X108840000Y-95500000D03*
X108840000Y-96450000D03*
X103320000Y-96400000D03*
X103320000Y-95450000D03*
X103320000Y-94500000D03*
X101000000Y-94500000D03*
X101000000Y-95450000D03*
X101000000Y-96400000D03*
X94820000Y-97000000D03*
X94820000Y-96050000D03*
X94820000Y-95100000D03*
X92500000Y-95100000D03*
X92500000Y-96050000D03*
X92500000Y-97000000D03*
D14*
X116475000Y-115250000D03*
X116475000Y-113350000D03*
X118475000Y-114300000D03*
X87725000Y-109540000D03*
X85725000Y-108590000D03*
X85725000Y-110490000D03*
M02*
