G04 #@! TF.GenerationSoftware,KiCad,Pcbnew,5.1.5-52549c5~84~ubuntu19.10.1*
G04 #@! TF.CreationDate,2020-01-07T17:32:54+01:00*
G04 #@! TF.ProjectId,pi-hat,70692d68-6174-42e6-9b69-6361645f7063,rev?*
G04 #@! TF.SameCoordinates,Original*
G04 #@! TF.FileFunction,Soldermask,Top*
G04 #@! TF.FilePolarity,Negative*
%FSLAX46Y46*%
G04 Gerber Fmt 4.6, Leading zero omitted, Abs format (unit mm)*
G04 Created by KiCad (PCBNEW 5.1.5-52549c5~84~ubuntu19.10.1) date 2020-01-07 17:32:54*
%MOMM*%
%LPD*%
G04 APERTURE LIST*
%ADD10C,0.300000*%
%ADD11C,0.100000*%
%ADD12C,2.700000*%
%ADD13R,2.700000X2.700000*%
%ADD14O,2.150000X1.900000*%
%ADD15C,1.700000*%
%ADD16R,3.200000X4.200000*%
%ADD17R,0.850000X1.260000*%
%ADD18O,2.700000X1.700000*%
%ADD19R,2.700000X1.700000*%
%ADD20O,1.700000X2.700000*%
%ADD21R,1.700000X2.700000*%
%ADD22R,1.000000X1.100000*%
%ADD23R,1.300000X0.600000*%
%ADD24R,2.040000X2.400000*%
%ADD25R,1.700000X1.200000*%
%ADD26R,2.000000X1.200000*%
%ADD27O,1.900000X1.900000*%
%ADD28R,1.900000X1.900000*%
%ADD29O,1.900000X2.150000*%
%ADD30R,1.100000X1.000000*%
%ADD31C,3.200000*%
%ADD32R,1.750000X0.800000*%
G04 APERTURE END LIST*
D10*
X81738095Y-107704761D02*
X81738095Y-106371428D01*
X81738095Y-106752380D02*
X81833333Y-106561904D01*
X81928571Y-106466666D01*
X82119047Y-106371428D01*
X82309523Y-106371428D01*
X83738095Y-107609523D02*
X83547619Y-107704761D01*
X83166666Y-107704761D01*
X82976190Y-107609523D01*
X82880952Y-107419047D01*
X82880952Y-106657142D01*
X82976190Y-106466666D01*
X83166666Y-106371428D01*
X83547619Y-106371428D01*
X83738095Y-106466666D01*
X83833333Y-106657142D01*
X83833333Y-106847619D01*
X82880952Y-107038095D01*
X84500000Y-106371428D02*
X84976190Y-107704761D01*
X85452380Y-106371428D01*
X86880952Y-106657142D02*
X87166666Y-106752380D01*
X87261904Y-106847619D01*
X87357142Y-107038095D01*
X87357142Y-107323809D01*
X87261904Y-107514285D01*
X87166666Y-107609523D01*
X86976190Y-107704761D01*
X86214285Y-107704761D01*
X86214285Y-105704761D01*
X86880952Y-105704761D01*
X87071428Y-105800000D01*
X87166666Y-105895238D01*
X87261904Y-106085714D01*
X87261904Y-106276190D01*
X87166666Y-106466666D01*
X87071428Y-106561904D01*
X86880952Y-106657142D01*
X86214285Y-106657142D01*
D11*
X78546356Y-63817611D02*
G75*
G02X81546356Y-60817611I3000000J0D01*
G01*
X78546356Y-63817611D02*
X78546356Y-113817611D01*
X140546356Y-60817611D02*
X81546356Y-60817611D01*
X140546356Y-60817611D02*
G75*
G02X143546356Y-63817611I0J-3000000D01*
G01*
X143546356Y-113817611D02*
X143546356Y-63817611D01*
X81546356Y-116817611D02*
G75*
G02X78546356Y-113817611I0J3000000D01*
G01*
X81546356Y-116817611D02*
X140546356Y-116817611D01*
X143546356Y-113817611D02*
G75*
G02X140546356Y-116817611I-3000000J0D01*
G01*
D12*
X133100000Y-112300000D03*
D13*
X128100000Y-112300000D03*
D14*
X121100000Y-97300000D03*
X121100000Y-99800000D03*
X121100000Y-102300000D03*
D11*
G36*
X121922975Y-103851345D02*
G01*
X121950099Y-103855369D01*
X121976697Y-103862031D01*
X122002514Y-103871269D01*
X122027302Y-103882993D01*
X122050821Y-103897089D01*
X122072845Y-103913424D01*
X122093162Y-103931838D01*
X122111576Y-103952155D01*
X122127911Y-103974179D01*
X122142007Y-103997698D01*
X122153731Y-104022486D01*
X122162969Y-104048303D01*
X122169631Y-104074901D01*
X122173655Y-104102025D01*
X122175000Y-104129412D01*
X122175000Y-105470588D01*
X122173655Y-105497975D01*
X122169631Y-105525099D01*
X122162969Y-105551697D01*
X122153731Y-105577514D01*
X122142007Y-105602302D01*
X122127911Y-105625821D01*
X122111576Y-105647845D01*
X122093162Y-105668162D01*
X122072845Y-105686576D01*
X122050821Y-105702911D01*
X122027302Y-105717007D01*
X122002514Y-105728731D01*
X121976697Y-105737969D01*
X121950099Y-105744631D01*
X121922975Y-105748655D01*
X121895588Y-105750000D01*
X120304412Y-105750000D01*
X120277025Y-105748655D01*
X120249901Y-105744631D01*
X120223303Y-105737969D01*
X120197486Y-105728731D01*
X120172698Y-105717007D01*
X120149179Y-105702911D01*
X120127155Y-105686576D01*
X120106838Y-105668162D01*
X120088424Y-105647845D01*
X120072089Y-105625821D01*
X120057993Y-105602302D01*
X120046269Y-105577514D01*
X120037031Y-105551697D01*
X120030369Y-105525099D01*
X120026345Y-105497975D01*
X120025000Y-105470588D01*
X120025000Y-104129412D01*
X120026345Y-104102025D01*
X120030369Y-104074901D01*
X120037031Y-104048303D01*
X120046269Y-104022486D01*
X120057993Y-103997698D01*
X120072089Y-103974179D01*
X120088424Y-103952155D01*
X120106838Y-103931838D01*
X120127155Y-103913424D01*
X120149179Y-103897089D01*
X120172698Y-103882993D01*
X120197486Y-103871269D01*
X120223303Y-103862031D01*
X120249901Y-103855369D01*
X120277025Y-103851345D01*
X120304412Y-103850000D01*
X121895588Y-103850000D01*
X121922975Y-103851345D01*
G37*
D15*
X104400000Y-68700000D03*
D16*
X87500000Y-99000000D03*
X83000000Y-99000000D03*
D15*
X127600000Y-80300000D03*
X123200000Y-114000000D03*
X90800000Y-85500000D03*
X93400000Y-88400000D03*
X104500000Y-72200000D03*
X101450000Y-72300000D03*
X101500000Y-68800000D03*
D17*
X98050000Y-68550000D03*
X97100000Y-68550000D03*
X99000000Y-68550000D03*
X99000000Y-70750000D03*
X98050000Y-70750000D03*
X97100000Y-70750000D03*
D18*
X123800000Y-71520000D03*
X123800000Y-74060000D03*
D19*
X123800000Y-76600000D03*
D20*
X87880000Y-74000000D03*
X85340000Y-74000000D03*
D21*
X82800000Y-74000000D03*
D22*
X118800000Y-111100000D03*
X117850000Y-109100000D03*
X119750000Y-109100000D03*
D14*
X140100000Y-75900000D03*
X140100000Y-73400000D03*
D11*
G36*
X140922975Y-69951345D02*
G01*
X140950099Y-69955369D01*
X140976697Y-69962031D01*
X141002514Y-69971269D01*
X141027302Y-69982993D01*
X141050821Y-69997089D01*
X141072845Y-70013424D01*
X141093162Y-70031838D01*
X141111576Y-70052155D01*
X141127911Y-70074179D01*
X141142007Y-70097698D01*
X141153731Y-70122486D01*
X141162969Y-70148303D01*
X141169631Y-70174901D01*
X141173655Y-70202025D01*
X141175000Y-70229412D01*
X141175000Y-71570588D01*
X141173655Y-71597975D01*
X141169631Y-71625099D01*
X141162969Y-71651697D01*
X141153731Y-71677514D01*
X141142007Y-71702302D01*
X141127911Y-71725821D01*
X141111576Y-71747845D01*
X141093162Y-71768162D01*
X141072845Y-71786576D01*
X141050821Y-71802911D01*
X141027302Y-71817007D01*
X141002514Y-71828731D01*
X140976697Y-71837969D01*
X140950099Y-71844631D01*
X140922975Y-71848655D01*
X140895588Y-71850000D01*
X139304412Y-71850000D01*
X139277025Y-71848655D01*
X139249901Y-71844631D01*
X139223303Y-71837969D01*
X139197486Y-71828731D01*
X139172698Y-71817007D01*
X139149179Y-71802911D01*
X139127155Y-71786576D01*
X139106838Y-71768162D01*
X139088424Y-71747845D01*
X139072089Y-71725821D01*
X139057993Y-71702302D01*
X139046269Y-71677514D01*
X139037031Y-71651697D01*
X139030369Y-71625099D01*
X139026345Y-71597975D01*
X139025000Y-71570588D01*
X139025000Y-70229412D01*
X139026345Y-70202025D01*
X139030369Y-70174901D01*
X139037031Y-70148303D01*
X139046269Y-70122486D01*
X139057993Y-70097698D01*
X139072089Y-70074179D01*
X139088424Y-70052155D01*
X139106838Y-70031838D01*
X139127155Y-70013424D01*
X139149179Y-69997089D01*
X139172698Y-69982993D01*
X139197486Y-69971269D01*
X139223303Y-69962031D01*
X139249901Y-69955369D01*
X139277025Y-69951345D01*
X139304412Y-69950000D01*
X140895588Y-69950000D01*
X140922975Y-69951345D01*
G37*
D14*
X132200000Y-75900000D03*
X132200000Y-73400000D03*
D11*
G36*
X133022975Y-69951345D02*
G01*
X133050099Y-69955369D01*
X133076697Y-69962031D01*
X133102514Y-69971269D01*
X133127302Y-69982993D01*
X133150821Y-69997089D01*
X133172845Y-70013424D01*
X133193162Y-70031838D01*
X133211576Y-70052155D01*
X133227911Y-70074179D01*
X133242007Y-70097698D01*
X133253731Y-70122486D01*
X133262969Y-70148303D01*
X133269631Y-70174901D01*
X133273655Y-70202025D01*
X133275000Y-70229412D01*
X133275000Y-71570588D01*
X133273655Y-71597975D01*
X133269631Y-71625099D01*
X133262969Y-71651697D01*
X133253731Y-71677514D01*
X133242007Y-71702302D01*
X133227911Y-71725821D01*
X133211576Y-71747845D01*
X133193162Y-71768162D01*
X133172845Y-71786576D01*
X133150821Y-71802911D01*
X133127302Y-71817007D01*
X133102514Y-71828731D01*
X133076697Y-71837969D01*
X133050099Y-71844631D01*
X133022975Y-71848655D01*
X132995588Y-71850000D01*
X131404412Y-71850000D01*
X131377025Y-71848655D01*
X131349901Y-71844631D01*
X131323303Y-71837969D01*
X131297486Y-71828731D01*
X131272698Y-71817007D01*
X131249179Y-71802911D01*
X131227155Y-71786576D01*
X131206838Y-71768162D01*
X131188424Y-71747845D01*
X131172089Y-71725821D01*
X131157993Y-71702302D01*
X131146269Y-71677514D01*
X131137031Y-71651697D01*
X131130369Y-71625099D01*
X131126345Y-71597975D01*
X131125000Y-71570588D01*
X131125000Y-70229412D01*
X131126345Y-70202025D01*
X131130369Y-70174901D01*
X131137031Y-70148303D01*
X131146269Y-70122486D01*
X131157993Y-70097698D01*
X131172089Y-70074179D01*
X131188424Y-70052155D01*
X131206838Y-70031838D01*
X131227155Y-70013424D01*
X131249179Y-69997089D01*
X131272698Y-69982993D01*
X131297486Y-69971269D01*
X131323303Y-69962031D01*
X131349901Y-69955369D01*
X131377025Y-69951345D01*
X131404412Y-69950000D01*
X132995588Y-69950000D01*
X133022975Y-69951345D01*
G37*
G36*
X118307592Y-112526294D02*
G01*
X118333681Y-112530164D01*
X118359264Y-112536572D01*
X118384096Y-112545457D01*
X118407938Y-112556734D01*
X118430560Y-112570293D01*
X118451743Y-112586003D01*
X118471285Y-112603715D01*
X118488997Y-112623257D01*
X118504707Y-112644440D01*
X118518266Y-112667062D01*
X118529543Y-112690904D01*
X118538428Y-112715736D01*
X118544836Y-112741319D01*
X118548706Y-112767408D01*
X118550000Y-112793750D01*
X118550000Y-113406250D01*
X118548706Y-113432592D01*
X118544836Y-113458681D01*
X118538428Y-113484264D01*
X118529543Y-113509096D01*
X118518266Y-113532938D01*
X118504707Y-113555560D01*
X118488997Y-113576743D01*
X118471285Y-113596285D01*
X118451743Y-113613997D01*
X118430560Y-113629707D01*
X118407938Y-113643266D01*
X118384096Y-113654543D01*
X118359264Y-113663428D01*
X118333681Y-113669836D01*
X118307592Y-113673706D01*
X118281250Y-113675000D01*
X117743750Y-113675000D01*
X117717408Y-113673706D01*
X117691319Y-113669836D01*
X117665736Y-113663428D01*
X117640904Y-113654543D01*
X117617062Y-113643266D01*
X117594440Y-113629707D01*
X117573257Y-113613997D01*
X117553715Y-113596285D01*
X117536003Y-113576743D01*
X117520293Y-113555560D01*
X117506734Y-113532938D01*
X117495457Y-113509096D01*
X117486572Y-113484264D01*
X117480164Y-113458681D01*
X117476294Y-113432592D01*
X117475000Y-113406250D01*
X117475000Y-112793750D01*
X117476294Y-112767408D01*
X117480164Y-112741319D01*
X117486572Y-112715736D01*
X117495457Y-112690904D01*
X117506734Y-112667062D01*
X117520293Y-112644440D01*
X117536003Y-112623257D01*
X117553715Y-112603715D01*
X117573257Y-112586003D01*
X117594440Y-112570293D01*
X117617062Y-112556734D01*
X117640904Y-112545457D01*
X117665736Y-112536572D01*
X117691319Y-112530164D01*
X117717408Y-112526294D01*
X117743750Y-112525000D01*
X118281250Y-112525000D01*
X118307592Y-112526294D01*
G37*
G36*
X119882592Y-112526294D02*
G01*
X119908681Y-112530164D01*
X119934264Y-112536572D01*
X119959096Y-112545457D01*
X119982938Y-112556734D01*
X120005560Y-112570293D01*
X120026743Y-112586003D01*
X120046285Y-112603715D01*
X120063997Y-112623257D01*
X120079707Y-112644440D01*
X120093266Y-112667062D01*
X120104543Y-112690904D01*
X120113428Y-112715736D01*
X120119836Y-112741319D01*
X120123706Y-112767408D01*
X120125000Y-112793750D01*
X120125000Y-113406250D01*
X120123706Y-113432592D01*
X120119836Y-113458681D01*
X120113428Y-113484264D01*
X120104543Y-113509096D01*
X120093266Y-113532938D01*
X120079707Y-113555560D01*
X120063997Y-113576743D01*
X120046285Y-113596285D01*
X120026743Y-113613997D01*
X120005560Y-113629707D01*
X119982938Y-113643266D01*
X119959096Y-113654543D01*
X119934264Y-113663428D01*
X119908681Y-113669836D01*
X119882592Y-113673706D01*
X119856250Y-113675000D01*
X119318750Y-113675000D01*
X119292408Y-113673706D01*
X119266319Y-113669836D01*
X119240736Y-113663428D01*
X119215904Y-113654543D01*
X119192062Y-113643266D01*
X119169440Y-113629707D01*
X119148257Y-113613997D01*
X119128715Y-113596285D01*
X119111003Y-113576743D01*
X119095293Y-113555560D01*
X119081734Y-113532938D01*
X119070457Y-113509096D01*
X119061572Y-113484264D01*
X119055164Y-113458681D01*
X119051294Y-113432592D01*
X119050000Y-113406250D01*
X119050000Y-112793750D01*
X119051294Y-112767408D01*
X119055164Y-112741319D01*
X119061572Y-112715736D01*
X119070457Y-112690904D01*
X119081734Y-112667062D01*
X119095293Y-112644440D01*
X119111003Y-112623257D01*
X119128715Y-112603715D01*
X119148257Y-112586003D01*
X119169440Y-112570293D01*
X119192062Y-112556734D01*
X119215904Y-112545457D01*
X119240736Y-112536572D01*
X119266319Y-112530164D01*
X119292408Y-112526294D01*
X119318750Y-112525000D01*
X119856250Y-112525000D01*
X119882592Y-112526294D01*
G37*
G36*
X96132592Y-105276294D02*
G01*
X96158681Y-105280164D01*
X96184264Y-105286572D01*
X96209096Y-105295457D01*
X96232938Y-105306734D01*
X96255560Y-105320293D01*
X96276743Y-105336003D01*
X96296285Y-105353715D01*
X96313997Y-105373257D01*
X96329707Y-105394440D01*
X96343266Y-105417062D01*
X96354543Y-105440904D01*
X96363428Y-105465736D01*
X96369836Y-105491319D01*
X96373706Y-105517408D01*
X96375000Y-105543750D01*
X96375000Y-106081250D01*
X96373706Y-106107592D01*
X96369836Y-106133681D01*
X96363428Y-106159264D01*
X96354543Y-106184096D01*
X96343266Y-106207938D01*
X96329707Y-106230560D01*
X96313997Y-106251743D01*
X96296285Y-106271285D01*
X96276743Y-106288997D01*
X96255560Y-106304707D01*
X96232938Y-106318266D01*
X96209096Y-106329543D01*
X96184264Y-106338428D01*
X96158681Y-106344836D01*
X96132592Y-106348706D01*
X96106250Y-106350000D01*
X95493750Y-106350000D01*
X95467408Y-106348706D01*
X95441319Y-106344836D01*
X95415736Y-106338428D01*
X95390904Y-106329543D01*
X95367062Y-106318266D01*
X95344440Y-106304707D01*
X95323257Y-106288997D01*
X95303715Y-106271285D01*
X95286003Y-106251743D01*
X95270293Y-106230560D01*
X95256734Y-106207938D01*
X95245457Y-106184096D01*
X95236572Y-106159264D01*
X95230164Y-106133681D01*
X95226294Y-106107592D01*
X95225000Y-106081250D01*
X95225000Y-105543750D01*
X95226294Y-105517408D01*
X95230164Y-105491319D01*
X95236572Y-105465736D01*
X95245457Y-105440904D01*
X95256734Y-105417062D01*
X95270293Y-105394440D01*
X95286003Y-105373257D01*
X95303715Y-105353715D01*
X95323257Y-105336003D01*
X95344440Y-105320293D01*
X95367062Y-105306734D01*
X95390904Y-105295457D01*
X95415736Y-105286572D01*
X95441319Y-105280164D01*
X95467408Y-105276294D01*
X95493750Y-105275000D01*
X96106250Y-105275000D01*
X96132592Y-105276294D01*
G37*
G36*
X96132592Y-106851294D02*
G01*
X96158681Y-106855164D01*
X96184264Y-106861572D01*
X96209096Y-106870457D01*
X96232938Y-106881734D01*
X96255560Y-106895293D01*
X96276743Y-106911003D01*
X96296285Y-106928715D01*
X96313997Y-106948257D01*
X96329707Y-106969440D01*
X96343266Y-106992062D01*
X96354543Y-107015904D01*
X96363428Y-107040736D01*
X96369836Y-107066319D01*
X96373706Y-107092408D01*
X96375000Y-107118750D01*
X96375000Y-107656250D01*
X96373706Y-107682592D01*
X96369836Y-107708681D01*
X96363428Y-107734264D01*
X96354543Y-107759096D01*
X96343266Y-107782938D01*
X96329707Y-107805560D01*
X96313997Y-107826743D01*
X96296285Y-107846285D01*
X96276743Y-107863997D01*
X96255560Y-107879707D01*
X96232938Y-107893266D01*
X96209096Y-107904543D01*
X96184264Y-107913428D01*
X96158681Y-107919836D01*
X96132592Y-107923706D01*
X96106250Y-107925000D01*
X95493750Y-107925000D01*
X95467408Y-107923706D01*
X95441319Y-107919836D01*
X95415736Y-107913428D01*
X95390904Y-107904543D01*
X95367062Y-107893266D01*
X95344440Y-107879707D01*
X95323257Y-107863997D01*
X95303715Y-107846285D01*
X95286003Y-107826743D01*
X95270293Y-107805560D01*
X95256734Y-107782938D01*
X95245457Y-107759096D01*
X95236572Y-107734264D01*
X95230164Y-107708681D01*
X95226294Y-107682592D01*
X95225000Y-107656250D01*
X95225000Y-107118750D01*
X95226294Y-107092408D01*
X95230164Y-107066319D01*
X95236572Y-107040736D01*
X95245457Y-107015904D01*
X95256734Y-106992062D01*
X95270293Y-106969440D01*
X95286003Y-106948257D01*
X95303715Y-106928715D01*
X95323257Y-106911003D01*
X95344440Y-106895293D01*
X95367062Y-106881734D01*
X95390904Y-106870457D01*
X95415736Y-106861572D01*
X95441319Y-106855164D01*
X95467408Y-106851294D01*
X95493750Y-106850000D01*
X96106250Y-106850000D01*
X96132592Y-106851294D01*
G37*
G36*
X121532592Y-82976294D02*
G01*
X121558681Y-82980164D01*
X121584264Y-82986572D01*
X121609096Y-82995457D01*
X121632938Y-83006734D01*
X121655560Y-83020293D01*
X121676743Y-83036003D01*
X121696285Y-83053715D01*
X121713997Y-83073257D01*
X121729707Y-83094440D01*
X121743266Y-83117062D01*
X121754543Y-83140904D01*
X121763428Y-83165736D01*
X121769836Y-83191319D01*
X121773706Y-83217408D01*
X121775000Y-83243750D01*
X121775000Y-83781250D01*
X121773706Y-83807592D01*
X121769836Y-83833681D01*
X121763428Y-83859264D01*
X121754543Y-83884096D01*
X121743266Y-83907938D01*
X121729707Y-83930560D01*
X121713997Y-83951743D01*
X121696285Y-83971285D01*
X121676743Y-83988997D01*
X121655560Y-84004707D01*
X121632938Y-84018266D01*
X121609096Y-84029543D01*
X121584264Y-84038428D01*
X121558681Y-84044836D01*
X121532592Y-84048706D01*
X121506250Y-84050000D01*
X120893750Y-84050000D01*
X120867408Y-84048706D01*
X120841319Y-84044836D01*
X120815736Y-84038428D01*
X120790904Y-84029543D01*
X120767062Y-84018266D01*
X120744440Y-84004707D01*
X120723257Y-83988997D01*
X120703715Y-83971285D01*
X120686003Y-83951743D01*
X120670293Y-83930560D01*
X120656734Y-83907938D01*
X120645457Y-83884096D01*
X120636572Y-83859264D01*
X120630164Y-83833681D01*
X120626294Y-83807592D01*
X120625000Y-83781250D01*
X120625000Y-83243750D01*
X120626294Y-83217408D01*
X120630164Y-83191319D01*
X120636572Y-83165736D01*
X120645457Y-83140904D01*
X120656734Y-83117062D01*
X120670293Y-83094440D01*
X120686003Y-83073257D01*
X120703715Y-83053715D01*
X120723257Y-83036003D01*
X120744440Y-83020293D01*
X120767062Y-83006734D01*
X120790904Y-82995457D01*
X120815736Y-82986572D01*
X120841319Y-82980164D01*
X120867408Y-82976294D01*
X120893750Y-82975000D01*
X121506250Y-82975000D01*
X121532592Y-82976294D01*
G37*
G36*
X121532592Y-84551294D02*
G01*
X121558681Y-84555164D01*
X121584264Y-84561572D01*
X121609096Y-84570457D01*
X121632938Y-84581734D01*
X121655560Y-84595293D01*
X121676743Y-84611003D01*
X121696285Y-84628715D01*
X121713997Y-84648257D01*
X121729707Y-84669440D01*
X121743266Y-84692062D01*
X121754543Y-84715904D01*
X121763428Y-84740736D01*
X121769836Y-84766319D01*
X121773706Y-84792408D01*
X121775000Y-84818750D01*
X121775000Y-85356250D01*
X121773706Y-85382592D01*
X121769836Y-85408681D01*
X121763428Y-85434264D01*
X121754543Y-85459096D01*
X121743266Y-85482938D01*
X121729707Y-85505560D01*
X121713997Y-85526743D01*
X121696285Y-85546285D01*
X121676743Y-85563997D01*
X121655560Y-85579707D01*
X121632938Y-85593266D01*
X121609096Y-85604543D01*
X121584264Y-85613428D01*
X121558681Y-85619836D01*
X121532592Y-85623706D01*
X121506250Y-85625000D01*
X120893750Y-85625000D01*
X120867408Y-85623706D01*
X120841319Y-85619836D01*
X120815736Y-85613428D01*
X120790904Y-85604543D01*
X120767062Y-85593266D01*
X120744440Y-85579707D01*
X120723257Y-85563997D01*
X120703715Y-85546285D01*
X120686003Y-85526743D01*
X120670293Y-85505560D01*
X120656734Y-85482938D01*
X120645457Y-85459096D01*
X120636572Y-85434264D01*
X120630164Y-85408681D01*
X120626294Y-85382592D01*
X120625000Y-85356250D01*
X120625000Y-84818750D01*
X120626294Y-84792408D01*
X120630164Y-84766319D01*
X120636572Y-84740736D01*
X120645457Y-84715904D01*
X120656734Y-84692062D01*
X120670293Y-84669440D01*
X120686003Y-84648257D01*
X120703715Y-84628715D01*
X120723257Y-84611003D01*
X120744440Y-84595293D01*
X120767062Y-84581734D01*
X120790904Y-84570457D01*
X120815736Y-84561572D01*
X120841319Y-84555164D01*
X120867408Y-84551294D01*
X120893750Y-84550000D01*
X121506250Y-84550000D01*
X121532592Y-84551294D01*
G37*
G36*
X118632592Y-82963794D02*
G01*
X118658681Y-82967664D01*
X118684264Y-82974072D01*
X118709096Y-82982957D01*
X118732938Y-82994234D01*
X118755560Y-83007793D01*
X118776743Y-83023503D01*
X118796285Y-83041215D01*
X118813997Y-83060757D01*
X118829707Y-83081940D01*
X118843266Y-83104562D01*
X118854543Y-83128404D01*
X118863428Y-83153236D01*
X118869836Y-83178819D01*
X118873706Y-83204908D01*
X118875000Y-83231250D01*
X118875000Y-83768750D01*
X118873706Y-83795092D01*
X118869836Y-83821181D01*
X118863428Y-83846764D01*
X118854543Y-83871596D01*
X118843266Y-83895438D01*
X118829707Y-83918060D01*
X118813997Y-83939243D01*
X118796285Y-83958785D01*
X118776743Y-83976497D01*
X118755560Y-83992207D01*
X118732938Y-84005766D01*
X118709096Y-84017043D01*
X118684264Y-84025928D01*
X118658681Y-84032336D01*
X118632592Y-84036206D01*
X118606250Y-84037500D01*
X117993750Y-84037500D01*
X117967408Y-84036206D01*
X117941319Y-84032336D01*
X117915736Y-84025928D01*
X117890904Y-84017043D01*
X117867062Y-84005766D01*
X117844440Y-83992207D01*
X117823257Y-83976497D01*
X117803715Y-83958785D01*
X117786003Y-83939243D01*
X117770293Y-83918060D01*
X117756734Y-83895438D01*
X117745457Y-83871596D01*
X117736572Y-83846764D01*
X117730164Y-83821181D01*
X117726294Y-83795092D01*
X117725000Y-83768750D01*
X117725000Y-83231250D01*
X117726294Y-83204908D01*
X117730164Y-83178819D01*
X117736572Y-83153236D01*
X117745457Y-83128404D01*
X117756734Y-83104562D01*
X117770293Y-83081940D01*
X117786003Y-83060757D01*
X117803715Y-83041215D01*
X117823257Y-83023503D01*
X117844440Y-83007793D01*
X117867062Y-82994234D01*
X117890904Y-82982957D01*
X117915736Y-82974072D01*
X117941319Y-82967664D01*
X117967408Y-82963794D01*
X117993750Y-82962500D01*
X118606250Y-82962500D01*
X118632592Y-82963794D01*
G37*
G36*
X118632592Y-84538794D02*
G01*
X118658681Y-84542664D01*
X118684264Y-84549072D01*
X118709096Y-84557957D01*
X118732938Y-84569234D01*
X118755560Y-84582793D01*
X118776743Y-84598503D01*
X118796285Y-84616215D01*
X118813997Y-84635757D01*
X118829707Y-84656940D01*
X118843266Y-84679562D01*
X118854543Y-84703404D01*
X118863428Y-84728236D01*
X118869836Y-84753819D01*
X118873706Y-84779908D01*
X118875000Y-84806250D01*
X118875000Y-85343750D01*
X118873706Y-85370092D01*
X118869836Y-85396181D01*
X118863428Y-85421764D01*
X118854543Y-85446596D01*
X118843266Y-85470438D01*
X118829707Y-85493060D01*
X118813997Y-85514243D01*
X118796285Y-85533785D01*
X118776743Y-85551497D01*
X118755560Y-85567207D01*
X118732938Y-85580766D01*
X118709096Y-85592043D01*
X118684264Y-85600928D01*
X118658681Y-85607336D01*
X118632592Y-85611206D01*
X118606250Y-85612500D01*
X117993750Y-85612500D01*
X117967408Y-85611206D01*
X117941319Y-85607336D01*
X117915736Y-85600928D01*
X117890904Y-85592043D01*
X117867062Y-85580766D01*
X117844440Y-85567207D01*
X117823257Y-85551497D01*
X117803715Y-85533785D01*
X117786003Y-85514243D01*
X117770293Y-85493060D01*
X117756734Y-85470438D01*
X117745457Y-85446596D01*
X117736572Y-85421764D01*
X117730164Y-85396181D01*
X117726294Y-85370092D01*
X117725000Y-85343750D01*
X117725000Y-84806250D01*
X117726294Y-84779908D01*
X117730164Y-84753819D01*
X117736572Y-84728236D01*
X117745457Y-84703404D01*
X117756734Y-84679562D01*
X117770293Y-84656940D01*
X117786003Y-84635757D01*
X117803715Y-84616215D01*
X117823257Y-84598503D01*
X117844440Y-84582793D01*
X117867062Y-84569234D01*
X117890904Y-84557957D01*
X117915736Y-84549072D01*
X117941319Y-84542664D01*
X117967408Y-84538794D01*
X117993750Y-84537500D01*
X118606250Y-84537500D01*
X118632592Y-84538794D01*
G37*
D23*
X96837000Y-90772000D03*
X96837000Y-91422000D03*
X96837000Y-92072000D03*
X96837000Y-92722000D03*
X96837000Y-93372000D03*
X96837000Y-94022000D03*
X96837000Y-94672000D03*
X96837000Y-95322000D03*
X96837000Y-95972000D03*
X96837000Y-96622000D03*
X96837000Y-97272000D03*
X96837000Y-97922000D03*
X96837000Y-98572000D03*
X96837000Y-99222000D03*
X91137000Y-99222000D03*
X91137000Y-98572000D03*
X91137000Y-97922000D03*
X91137000Y-97272000D03*
X91137000Y-96622000D03*
X91137000Y-95972000D03*
X91137000Y-95322000D03*
X91137000Y-94672000D03*
X91137000Y-94022000D03*
X91137000Y-93372000D03*
X91137000Y-92722000D03*
X91137000Y-92072000D03*
X91137000Y-91422000D03*
X91137000Y-90772000D03*
D14*
X105815000Y-92325000D03*
X105815000Y-94825000D03*
X105815000Y-97325000D03*
X105815000Y-99825000D03*
X105815000Y-102325000D03*
D11*
G36*
X106637975Y-103876345D02*
G01*
X106665099Y-103880369D01*
X106691697Y-103887031D01*
X106717514Y-103896269D01*
X106742302Y-103907993D01*
X106765821Y-103922089D01*
X106787845Y-103938424D01*
X106808162Y-103956838D01*
X106826576Y-103977155D01*
X106842911Y-103999179D01*
X106857007Y-104022698D01*
X106868731Y-104047486D01*
X106877969Y-104073303D01*
X106884631Y-104099901D01*
X106888655Y-104127025D01*
X106890000Y-104154412D01*
X106890000Y-105495588D01*
X106888655Y-105522975D01*
X106884631Y-105550099D01*
X106877969Y-105576697D01*
X106868731Y-105602514D01*
X106857007Y-105627302D01*
X106842911Y-105650821D01*
X106826576Y-105672845D01*
X106808162Y-105693162D01*
X106787845Y-105711576D01*
X106765821Y-105727911D01*
X106742302Y-105742007D01*
X106717514Y-105753731D01*
X106691697Y-105762969D01*
X106665099Y-105769631D01*
X106637975Y-105773655D01*
X106610588Y-105775000D01*
X105019412Y-105775000D01*
X104992025Y-105773655D01*
X104964901Y-105769631D01*
X104938303Y-105762969D01*
X104912486Y-105753731D01*
X104887698Y-105742007D01*
X104864179Y-105727911D01*
X104842155Y-105711576D01*
X104821838Y-105693162D01*
X104803424Y-105672845D01*
X104787089Y-105650821D01*
X104772993Y-105627302D01*
X104761269Y-105602514D01*
X104752031Y-105576697D01*
X104745369Y-105550099D01*
X104741345Y-105522975D01*
X104740000Y-105495588D01*
X104740000Y-104154412D01*
X104741345Y-104127025D01*
X104745369Y-104099901D01*
X104752031Y-104073303D01*
X104761269Y-104047486D01*
X104772993Y-104022698D01*
X104787089Y-103999179D01*
X104803424Y-103977155D01*
X104821838Y-103956838D01*
X104842155Y-103938424D01*
X104864179Y-103922089D01*
X104887698Y-103907993D01*
X104912486Y-103896269D01*
X104938303Y-103887031D01*
X104964901Y-103880369D01*
X104992025Y-103876345D01*
X105019412Y-103875000D01*
X106610588Y-103875000D01*
X106637975Y-103876345D01*
G37*
D14*
X113650000Y-92325000D03*
X113650000Y-94825000D03*
X113650000Y-97325000D03*
X113650000Y-99825000D03*
X113650000Y-102325000D03*
D11*
G36*
X114472975Y-103876345D02*
G01*
X114500099Y-103880369D01*
X114526697Y-103887031D01*
X114552514Y-103896269D01*
X114577302Y-103907993D01*
X114600821Y-103922089D01*
X114622845Y-103938424D01*
X114643162Y-103956838D01*
X114661576Y-103977155D01*
X114677911Y-103999179D01*
X114692007Y-104022698D01*
X114703731Y-104047486D01*
X114712969Y-104073303D01*
X114719631Y-104099901D01*
X114723655Y-104127025D01*
X114725000Y-104154412D01*
X114725000Y-105495588D01*
X114723655Y-105522975D01*
X114719631Y-105550099D01*
X114712969Y-105576697D01*
X114703731Y-105602514D01*
X114692007Y-105627302D01*
X114677911Y-105650821D01*
X114661576Y-105672845D01*
X114643162Y-105693162D01*
X114622845Y-105711576D01*
X114600821Y-105727911D01*
X114577302Y-105742007D01*
X114552514Y-105753731D01*
X114526697Y-105762969D01*
X114500099Y-105769631D01*
X114472975Y-105773655D01*
X114445588Y-105775000D01*
X112854412Y-105775000D01*
X112827025Y-105773655D01*
X112799901Y-105769631D01*
X112773303Y-105762969D01*
X112747486Y-105753731D01*
X112722698Y-105742007D01*
X112699179Y-105727911D01*
X112677155Y-105711576D01*
X112656838Y-105693162D01*
X112638424Y-105672845D01*
X112622089Y-105650821D01*
X112607993Y-105627302D01*
X112596269Y-105602514D01*
X112587031Y-105576697D01*
X112580369Y-105550099D01*
X112576345Y-105522975D01*
X112575000Y-105495588D01*
X112575000Y-104154412D01*
X112576345Y-104127025D01*
X112580369Y-104099901D01*
X112587031Y-104073303D01*
X112596269Y-104047486D01*
X112607993Y-104022698D01*
X112622089Y-103999179D01*
X112638424Y-103977155D01*
X112656838Y-103956838D01*
X112677155Y-103938424D01*
X112699179Y-103922089D01*
X112722698Y-103907993D01*
X112747486Y-103896269D01*
X112773303Y-103887031D01*
X112799901Y-103880369D01*
X112827025Y-103876345D01*
X112854412Y-103875000D01*
X114445588Y-103875000D01*
X114472975Y-103876345D01*
G37*
G36*
X94559700Y-72957934D02*
G01*
X95759700Y-73797934D01*
X95759700Y-74702066D01*
X94559700Y-75542066D01*
X94559700Y-72957934D01*
G37*
D24*
X93750000Y-74250000D03*
D25*
X96563500Y-72750000D03*
D26*
X96417000Y-74250000D03*
D25*
X96563500Y-75750000D03*
D11*
G36*
X92941500Y-75542992D02*
G01*
X91891500Y-74801816D01*
X91891500Y-73698184D01*
X92941500Y-72957008D01*
X92941500Y-75542992D01*
G37*
G36*
X124564603Y-82025963D02*
G01*
X124584018Y-82028843D01*
X124603057Y-82033612D01*
X124621537Y-82040224D01*
X124639279Y-82048616D01*
X124656114Y-82058706D01*
X124671879Y-82070398D01*
X124686421Y-82083579D01*
X124699602Y-82098121D01*
X124711294Y-82113886D01*
X124721384Y-82130721D01*
X124729776Y-82148463D01*
X124736388Y-82166943D01*
X124741157Y-82185982D01*
X124744037Y-82205397D01*
X124745000Y-82225000D01*
X124745000Y-84075000D01*
X124744037Y-84094603D01*
X124741157Y-84114018D01*
X124736388Y-84133057D01*
X124729776Y-84151537D01*
X124721384Y-84169279D01*
X124711294Y-84186114D01*
X124699602Y-84201879D01*
X124686421Y-84216421D01*
X124671879Y-84229602D01*
X124656114Y-84241294D01*
X124639279Y-84251384D01*
X124621537Y-84259776D01*
X124603057Y-84266388D01*
X124584018Y-84271157D01*
X124564603Y-84274037D01*
X124545000Y-84275000D01*
X124145000Y-84275000D01*
X124125397Y-84274037D01*
X124105982Y-84271157D01*
X124086943Y-84266388D01*
X124068463Y-84259776D01*
X124050721Y-84251384D01*
X124033886Y-84241294D01*
X124018121Y-84229602D01*
X124003579Y-84216421D01*
X123990398Y-84201879D01*
X123978706Y-84186114D01*
X123968616Y-84169279D01*
X123960224Y-84151537D01*
X123953612Y-84133057D01*
X123948843Y-84114018D01*
X123945963Y-84094603D01*
X123945000Y-84075000D01*
X123945000Y-82225000D01*
X123945963Y-82205397D01*
X123948843Y-82185982D01*
X123953612Y-82166943D01*
X123960224Y-82148463D01*
X123968616Y-82130721D01*
X123978706Y-82113886D01*
X123990398Y-82098121D01*
X124003579Y-82083579D01*
X124018121Y-82070398D01*
X124033886Y-82058706D01*
X124050721Y-82048616D01*
X124068463Y-82040224D01*
X124086943Y-82033612D01*
X124105982Y-82028843D01*
X124125397Y-82025963D01*
X124145000Y-82025000D01*
X124545000Y-82025000D01*
X124564603Y-82025963D01*
G37*
G36*
X125834603Y-82025963D02*
G01*
X125854018Y-82028843D01*
X125873057Y-82033612D01*
X125891537Y-82040224D01*
X125909279Y-82048616D01*
X125926114Y-82058706D01*
X125941879Y-82070398D01*
X125956421Y-82083579D01*
X125969602Y-82098121D01*
X125981294Y-82113886D01*
X125991384Y-82130721D01*
X125999776Y-82148463D01*
X126006388Y-82166943D01*
X126011157Y-82185982D01*
X126014037Y-82205397D01*
X126015000Y-82225000D01*
X126015000Y-84075000D01*
X126014037Y-84094603D01*
X126011157Y-84114018D01*
X126006388Y-84133057D01*
X125999776Y-84151537D01*
X125991384Y-84169279D01*
X125981294Y-84186114D01*
X125969602Y-84201879D01*
X125956421Y-84216421D01*
X125941879Y-84229602D01*
X125926114Y-84241294D01*
X125909279Y-84251384D01*
X125891537Y-84259776D01*
X125873057Y-84266388D01*
X125854018Y-84271157D01*
X125834603Y-84274037D01*
X125815000Y-84275000D01*
X125415000Y-84275000D01*
X125395397Y-84274037D01*
X125375982Y-84271157D01*
X125356943Y-84266388D01*
X125338463Y-84259776D01*
X125320721Y-84251384D01*
X125303886Y-84241294D01*
X125288121Y-84229602D01*
X125273579Y-84216421D01*
X125260398Y-84201879D01*
X125248706Y-84186114D01*
X125238616Y-84169279D01*
X125230224Y-84151537D01*
X125223612Y-84133057D01*
X125218843Y-84114018D01*
X125215963Y-84094603D01*
X125215000Y-84075000D01*
X125215000Y-82225000D01*
X125215963Y-82205397D01*
X125218843Y-82185982D01*
X125223612Y-82166943D01*
X125230224Y-82148463D01*
X125238616Y-82130721D01*
X125248706Y-82113886D01*
X125260398Y-82098121D01*
X125273579Y-82083579D01*
X125288121Y-82070398D01*
X125303886Y-82058706D01*
X125320721Y-82048616D01*
X125338463Y-82040224D01*
X125356943Y-82033612D01*
X125375982Y-82028843D01*
X125395397Y-82025963D01*
X125415000Y-82025000D01*
X125815000Y-82025000D01*
X125834603Y-82025963D01*
G37*
G36*
X127104603Y-82025963D02*
G01*
X127124018Y-82028843D01*
X127143057Y-82033612D01*
X127161537Y-82040224D01*
X127179279Y-82048616D01*
X127196114Y-82058706D01*
X127211879Y-82070398D01*
X127226421Y-82083579D01*
X127239602Y-82098121D01*
X127251294Y-82113886D01*
X127261384Y-82130721D01*
X127269776Y-82148463D01*
X127276388Y-82166943D01*
X127281157Y-82185982D01*
X127284037Y-82205397D01*
X127285000Y-82225000D01*
X127285000Y-84075000D01*
X127284037Y-84094603D01*
X127281157Y-84114018D01*
X127276388Y-84133057D01*
X127269776Y-84151537D01*
X127261384Y-84169279D01*
X127251294Y-84186114D01*
X127239602Y-84201879D01*
X127226421Y-84216421D01*
X127211879Y-84229602D01*
X127196114Y-84241294D01*
X127179279Y-84251384D01*
X127161537Y-84259776D01*
X127143057Y-84266388D01*
X127124018Y-84271157D01*
X127104603Y-84274037D01*
X127085000Y-84275000D01*
X126685000Y-84275000D01*
X126665397Y-84274037D01*
X126645982Y-84271157D01*
X126626943Y-84266388D01*
X126608463Y-84259776D01*
X126590721Y-84251384D01*
X126573886Y-84241294D01*
X126558121Y-84229602D01*
X126543579Y-84216421D01*
X126530398Y-84201879D01*
X126518706Y-84186114D01*
X126508616Y-84169279D01*
X126500224Y-84151537D01*
X126493612Y-84133057D01*
X126488843Y-84114018D01*
X126485963Y-84094603D01*
X126485000Y-84075000D01*
X126485000Y-82225000D01*
X126485963Y-82205397D01*
X126488843Y-82185982D01*
X126493612Y-82166943D01*
X126500224Y-82148463D01*
X126508616Y-82130721D01*
X126518706Y-82113886D01*
X126530398Y-82098121D01*
X126543579Y-82083579D01*
X126558121Y-82070398D01*
X126573886Y-82058706D01*
X126590721Y-82048616D01*
X126608463Y-82040224D01*
X126626943Y-82033612D01*
X126645982Y-82028843D01*
X126665397Y-82025963D01*
X126685000Y-82025000D01*
X127085000Y-82025000D01*
X127104603Y-82025963D01*
G37*
G36*
X128374603Y-82025963D02*
G01*
X128394018Y-82028843D01*
X128413057Y-82033612D01*
X128431537Y-82040224D01*
X128449279Y-82048616D01*
X128466114Y-82058706D01*
X128481879Y-82070398D01*
X128496421Y-82083579D01*
X128509602Y-82098121D01*
X128521294Y-82113886D01*
X128531384Y-82130721D01*
X128539776Y-82148463D01*
X128546388Y-82166943D01*
X128551157Y-82185982D01*
X128554037Y-82205397D01*
X128555000Y-82225000D01*
X128555000Y-84075000D01*
X128554037Y-84094603D01*
X128551157Y-84114018D01*
X128546388Y-84133057D01*
X128539776Y-84151537D01*
X128531384Y-84169279D01*
X128521294Y-84186114D01*
X128509602Y-84201879D01*
X128496421Y-84216421D01*
X128481879Y-84229602D01*
X128466114Y-84241294D01*
X128449279Y-84251384D01*
X128431537Y-84259776D01*
X128413057Y-84266388D01*
X128394018Y-84271157D01*
X128374603Y-84274037D01*
X128355000Y-84275000D01*
X127955000Y-84275000D01*
X127935397Y-84274037D01*
X127915982Y-84271157D01*
X127896943Y-84266388D01*
X127878463Y-84259776D01*
X127860721Y-84251384D01*
X127843886Y-84241294D01*
X127828121Y-84229602D01*
X127813579Y-84216421D01*
X127800398Y-84201879D01*
X127788706Y-84186114D01*
X127778616Y-84169279D01*
X127770224Y-84151537D01*
X127763612Y-84133057D01*
X127758843Y-84114018D01*
X127755963Y-84094603D01*
X127755000Y-84075000D01*
X127755000Y-82225000D01*
X127755963Y-82205397D01*
X127758843Y-82185982D01*
X127763612Y-82166943D01*
X127770224Y-82148463D01*
X127778616Y-82130721D01*
X127788706Y-82113886D01*
X127800398Y-82098121D01*
X127813579Y-82083579D01*
X127828121Y-82070398D01*
X127843886Y-82058706D01*
X127860721Y-82048616D01*
X127878463Y-82040224D01*
X127896943Y-82033612D01*
X127915982Y-82028843D01*
X127935397Y-82025963D01*
X127955000Y-82025000D01*
X128355000Y-82025000D01*
X128374603Y-82025963D01*
G37*
G36*
X129644603Y-82025963D02*
G01*
X129664018Y-82028843D01*
X129683057Y-82033612D01*
X129701537Y-82040224D01*
X129719279Y-82048616D01*
X129736114Y-82058706D01*
X129751879Y-82070398D01*
X129766421Y-82083579D01*
X129779602Y-82098121D01*
X129791294Y-82113886D01*
X129801384Y-82130721D01*
X129809776Y-82148463D01*
X129816388Y-82166943D01*
X129821157Y-82185982D01*
X129824037Y-82205397D01*
X129825000Y-82225000D01*
X129825000Y-84075000D01*
X129824037Y-84094603D01*
X129821157Y-84114018D01*
X129816388Y-84133057D01*
X129809776Y-84151537D01*
X129801384Y-84169279D01*
X129791294Y-84186114D01*
X129779602Y-84201879D01*
X129766421Y-84216421D01*
X129751879Y-84229602D01*
X129736114Y-84241294D01*
X129719279Y-84251384D01*
X129701537Y-84259776D01*
X129683057Y-84266388D01*
X129664018Y-84271157D01*
X129644603Y-84274037D01*
X129625000Y-84275000D01*
X129225000Y-84275000D01*
X129205397Y-84274037D01*
X129185982Y-84271157D01*
X129166943Y-84266388D01*
X129148463Y-84259776D01*
X129130721Y-84251384D01*
X129113886Y-84241294D01*
X129098121Y-84229602D01*
X129083579Y-84216421D01*
X129070398Y-84201879D01*
X129058706Y-84186114D01*
X129048616Y-84169279D01*
X129040224Y-84151537D01*
X129033612Y-84133057D01*
X129028843Y-84114018D01*
X129025963Y-84094603D01*
X129025000Y-84075000D01*
X129025000Y-82225000D01*
X129025963Y-82205397D01*
X129028843Y-82185982D01*
X129033612Y-82166943D01*
X129040224Y-82148463D01*
X129048616Y-82130721D01*
X129058706Y-82113886D01*
X129070398Y-82098121D01*
X129083579Y-82083579D01*
X129098121Y-82070398D01*
X129113886Y-82058706D01*
X129130721Y-82048616D01*
X129148463Y-82040224D01*
X129166943Y-82033612D01*
X129185982Y-82028843D01*
X129205397Y-82025963D01*
X129225000Y-82025000D01*
X129625000Y-82025000D01*
X129644603Y-82025963D01*
G37*
G36*
X130914603Y-82025963D02*
G01*
X130934018Y-82028843D01*
X130953057Y-82033612D01*
X130971537Y-82040224D01*
X130989279Y-82048616D01*
X131006114Y-82058706D01*
X131021879Y-82070398D01*
X131036421Y-82083579D01*
X131049602Y-82098121D01*
X131061294Y-82113886D01*
X131071384Y-82130721D01*
X131079776Y-82148463D01*
X131086388Y-82166943D01*
X131091157Y-82185982D01*
X131094037Y-82205397D01*
X131095000Y-82225000D01*
X131095000Y-84075000D01*
X131094037Y-84094603D01*
X131091157Y-84114018D01*
X131086388Y-84133057D01*
X131079776Y-84151537D01*
X131071384Y-84169279D01*
X131061294Y-84186114D01*
X131049602Y-84201879D01*
X131036421Y-84216421D01*
X131021879Y-84229602D01*
X131006114Y-84241294D01*
X130989279Y-84251384D01*
X130971537Y-84259776D01*
X130953057Y-84266388D01*
X130934018Y-84271157D01*
X130914603Y-84274037D01*
X130895000Y-84275000D01*
X130495000Y-84275000D01*
X130475397Y-84274037D01*
X130455982Y-84271157D01*
X130436943Y-84266388D01*
X130418463Y-84259776D01*
X130400721Y-84251384D01*
X130383886Y-84241294D01*
X130368121Y-84229602D01*
X130353579Y-84216421D01*
X130340398Y-84201879D01*
X130328706Y-84186114D01*
X130318616Y-84169279D01*
X130310224Y-84151537D01*
X130303612Y-84133057D01*
X130298843Y-84114018D01*
X130295963Y-84094603D01*
X130295000Y-84075000D01*
X130295000Y-82225000D01*
X130295963Y-82205397D01*
X130298843Y-82185982D01*
X130303612Y-82166943D01*
X130310224Y-82148463D01*
X130318616Y-82130721D01*
X130328706Y-82113886D01*
X130340398Y-82098121D01*
X130353579Y-82083579D01*
X130368121Y-82070398D01*
X130383886Y-82058706D01*
X130400721Y-82048616D01*
X130418463Y-82040224D01*
X130436943Y-82033612D01*
X130455982Y-82028843D01*
X130475397Y-82025963D01*
X130495000Y-82025000D01*
X130895000Y-82025000D01*
X130914603Y-82025963D01*
G37*
G36*
X132184603Y-82025963D02*
G01*
X132204018Y-82028843D01*
X132223057Y-82033612D01*
X132241537Y-82040224D01*
X132259279Y-82048616D01*
X132276114Y-82058706D01*
X132291879Y-82070398D01*
X132306421Y-82083579D01*
X132319602Y-82098121D01*
X132331294Y-82113886D01*
X132341384Y-82130721D01*
X132349776Y-82148463D01*
X132356388Y-82166943D01*
X132361157Y-82185982D01*
X132364037Y-82205397D01*
X132365000Y-82225000D01*
X132365000Y-84075000D01*
X132364037Y-84094603D01*
X132361157Y-84114018D01*
X132356388Y-84133057D01*
X132349776Y-84151537D01*
X132341384Y-84169279D01*
X132331294Y-84186114D01*
X132319602Y-84201879D01*
X132306421Y-84216421D01*
X132291879Y-84229602D01*
X132276114Y-84241294D01*
X132259279Y-84251384D01*
X132241537Y-84259776D01*
X132223057Y-84266388D01*
X132204018Y-84271157D01*
X132184603Y-84274037D01*
X132165000Y-84275000D01*
X131765000Y-84275000D01*
X131745397Y-84274037D01*
X131725982Y-84271157D01*
X131706943Y-84266388D01*
X131688463Y-84259776D01*
X131670721Y-84251384D01*
X131653886Y-84241294D01*
X131638121Y-84229602D01*
X131623579Y-84216421D01*
X131610398Y-84201879D01*
X131598706Y-84186114D01*
X131588616Y-84169279D01*
X131580224Y-84151537D01*
X131573612Y-84133057D01*
X131568843Y-84114018D01*
X131565963Y-84094603D01*
X131565000Y-84075000D01*
X131565000Y-82225000D01*
X131565963Y-82205397D01*
X131568843Y-82185982D01*
X131573612Y-82166943D01*
X131580224Y-82148463D01*
X131588616Y-82130721D01*
X131598706Y-82113886D01*
X131610398Y-82098121D01*
X131623579Y-82083579D01*
X131638121Y-82070398D01*
X131653886Y-82058706D01*
X131670721Y-82048616D01*
X131688463Y-82040224D01*
X131706943Y-82033612D01*
X131725982Y-82028843D01*
X131745397Y-82025963D01*
X131765000Y-82025000D01*
X132165000Y-82025000D01*
X132184603Y-82025963D01*
G37*
G36*
X133454603Y-82025963D02*
G01*
X133474018Y-82028843D01*
X133493057Y-82033612D01*
X133511537Y-82040224D01*
X133529279Y-82048616D01*
X133546114Y-82058706D01*
X133561879Y-82070398D01*
X133576421Y-82083579D01*
X133589602Y-82098121D01*
X133601294Y-82113886D01*
X133611384Y-82130721D01*
X133619776Y-82148463D01*
X133626388Y-82166943D01*
X133631157Y-82185982D01*
X133634037Y-82205397D01*
X133635000Y-82225000D01*
X133635000Y-84075000D01*
X133634037Y-84094603D01*
X133631157Y-84114018D01*
X133626388Y-84133057D01*
X133619776Y-84151537D01*
X133611384Y-84169279D01*
X133601294Y-84186114D01*
X133589602Y-84201879D01*
X133576421Y-84216421D01*
X133561879Y-84229602D01*
X133546114Y-84241294D01*
X133529279Y-84251384D01*
X133511537Y-84259776D01*
X133493057Y-84266388D01*
X133474018Y-84271157D01*
X133454603Y-84274037D01*
X133435000Y-84275000D01*
X133035000Y-84275000D01*
X133015397Y-84274037D01*
X132995982Y-84271157D01*
X132976943Y-84266388D01*
X132958463Y-84259776D01*
X132940721Y-84251384D01*
X132923886Y-84241294D01*
X132908121Y-84229602D01*
X132893579Y-84216421D01*
X132880398Y-84201879D01*
X132868706Y-84186114D01*
X132858616Y-84169279D01*
X132850224Y-84151537D01*
X132843612Y-84133057D01*
X132838843Y-84114018D01*
X132835963Y-84094603D01*
X132835000Y-84075000D01*
X132835000Y-82225000D01*
X132835963Y-82205397D01*
X132838843Y-82185982D01*
X132843612Y-82166943D01*
X132850224Y-82148463D01*
X132858616Y-82130721D01*
X132868706Y-82113886D01*
X132880398Y-82098121D01*
X132893579Y-82083579D01*
X132908121Y-82070398D01*
X132923886Y-82058706D01*
X132940721Y-82048616D01*
X132958463Y-82040224D01*
X132976943Y-82033612D01*
X132995982Y-82028843D01*
X133015397Y-82025963D01*
X133035000Y-82025000D01*
X133435000Y-82025000D01*
X133454603Y-82025963D01*
G37*
G36*
X134724603Y-82025963D02*
G01*
X134744018Y-82028843D01*
X134763057Y-82033612D01*
X134781537Y-82040224D01*
X134799279Y-82048616D01*
X134816114Y-82058706D01*
X134831879Y-82070398D01*
X134846421Y-82083579D01*
X134859602Y-82098121D01*
X134871294Y-82113886D01*
X134881384Y-82130721D01*
X134889776Y-82148463D01*
X134896388Y-82166943D01*
X134901157Y-82185982D01*
X134904037Y-82205397D01*
X134905000Y-82225000D01*
X134905000Y-84075000D01*
X134904037Y-84094603D01*
X134901157Y-84114018D01*
X134896388Y-84133057D01*
X134889776Y-84151537D01*
X134881384Y-84169279D01*
X134871294Y-84186114D01*
X134859602Y-84201879D01*
X134846421Y-84216421D01*
X134831879Y-84229602D01*
X134816114Y-84241294D01*
X134799279Y-84251384D01*
X134781537Y-84259776D01*
X134763057Y-84266388D01*
X134744018Y-84271157D01*
X134724603Y-84274037D01*
X134705000Y-84275000D01*
X134305000Y-84275000D01*
X134285397Y-84274037D01*
X134265982Y-84271157D01*
X134246943Y-84266388D01*
X134228463Y-84259776D01*
X134210721Y-84251384D01*
X134193886Y-84241294D01*
X134178121Y-84229602D01*
X134163579Y-84216421D01*
X134150398Y-84201879D01*
X134138706Y-84186114D01*
X134128616Y-84169279D01*
X134120224Y-84151537D01*
X134113612Y-84133057D01*
X134108843Y-84114018D01*
X134105963Y-84094603D01*
X134105000Y-84075000D01*
X134105000Y-82225000D01*
X134105963Y-82205397D01*
X134108843Y-82185982D01*
X134113612Y-82166943D01*
X134120224Y-82148463D01*
X134128616Y-82130721D01*
X134138706Y-82113886D01*
X134150398Y-82098121D01*
X134163579Y-82083579D01*
X134178121Y-82070398D01*
X134193886Y-82058706D01*
X134210721Y-82048616D01*
X134228463Y-82040224D01*
X134246943Y-82033612D01*
X134265982Y-82028843D01*
X134285397Y-82025963D01*
X134305000Y-82025000D01*
X134705000Y-82025000D01*
X134724603Y-82025963D01*
G37*
G36*
X135994603Y-82025963D02*
G01*
X136014018Y-82028843D01*
X136033057Y-82033612D01*
X136051537Y-82040224D01*
X136069279Y-82048616D01*
X136086114Y-82058706D01*
X136101879Y-82070398D01*
X136116421Y-82083579D01*
X136129602Y-82098121D01*
X136141294Y-82113886D01*
X136151384Y-82130721D01*
X136159776Y-82148463D01*
X136166388Y-82166943D01*
X136171157Y-82185982D01*
X136174037Y-82205397D01*
X136175000Y-82225000D01*
X136175000Y-84075000D01*
X136174037Y-84094603D01*
X136171157Y-84114018D01*
X136166388Y-84133057D01*
X136159776Y-84151537D01*
X136151384Y-84169279D01*
X136141294Y-84186114D01*
X136129602Y-84201879D01*
X136116421Y-84216421D01*
X136101879Y-84229602D01*
X136086114Y-84241294D01*
X136069279Y-84251384D01*
X136051537Y-84259776D01*
X136033057Y-84266388D01*
X136014018Y-84271157D01*
X135994603Y-84274037D01*
X135975000Y-84275000D01*
X135575000Y-84275000D01*
X135555397Y-84274037D01*
X135535982Y-84271157D01*
X135516943Y-84266388D01*
X135498463Y-84259776D01*
X135480721Y-84251384D01*
X135463886Y-84241294D01*
X135448121Y-84229602D01*
X135433579Y-84216421D01*
X135420398Y-84201879D01*
X135408706Y-84186114D01*
X135398616Y-84169279D01*
X135390224Y-84151537D01*
X135383612Y-84133057D01*
X135378843Y-84114018D01*
X135375963Y-84094603D01*
X135375000Y-84075000D01*
X135375000Y-82225000D01*
X135375963Y-82205397D01*
X135378843Y-82185982D01*
X135383612Y-82166943D01*
X135390224Y-82148463D01*
X135398616Y-82130721D01*
X135408706Y-82113886D01*
X135420398Y-82098121D01*
X135433579Y-82083579D01*
X135448121Y-82070398D01*
X135463886Y-82058706D01*
X135480721Y-82048616D01*
X135498463Y-82040224D01*
X135516943Y-82033612D01*
X135535982Y-82028843D01*
X135555397Y-82025963D01*
X135575000Y-82025000D01*
X135975000Y-82025000D01*
X135994603Y-82025963D01*
G37*
G36*
X137264603Y-82025963D02*
G01*
X137284018Y-82028843D01*
X137303057Y-82033612D01*
X137321537Y-82040224D01*
X137339279Y-82048616D01*
X137356114Y-82058706D01*
X137371879Y-82070398D01*
X137386421Y-82083579D01*
X137399602Y-82098121D01*
X137411294Y-82113886D01*
X137421384Y-82130721D01*
X137429776Y-82148463D01*
X137436388Y-82166943D01*
X137441157Y-82185982D01*
X137444037Y-82205397D01*
X137445000Y-82225000D01*
X137445000Y-84075000D01*
X137444037Y-84094603D01*
X137441157Y-84114018D01*
X137436388Y-84133057D01*
X137429776Y-84151537D01*
X137421384Y-84169279D01*
X137411294Y-84186114D01*
X137399602Y-84201879D01*
X137386421Y-84216421D01*
X137371879Y-84229602D01*
X137356114Y-84241294D01*
X137339279Y-84251384D01*
X137321537Y-84259776D01*
X137303057Y-84266388D01*
X137284018Y-84271157D01*
X137264603Y-84274037D01*
X137245000Y-84275000D01*
X136845000Y-84275000D01*
X136825397Y-84274037D01*
X136805982Y-84271157D01*
X136786943Y-84266388D01*
X136768463Y-84259776D01*
X136750721Y-84251384D01*
X136733886Y-84241294D01*
X136718121Y-84229602D01*
X136703579Y-84216421D01*
X136690398Y-84201879D01*
X136678706Y-84186114D01*
X136668616Y-84169279D01*
X136660224Y-84151537D01*
X136653612Y-84133057D01*
X136648843Y-84114018D01*
X136645963Y-84094603D01*
X136645000Y-84075000D01*
X136645000Y-82225000D01*
X136645963Y-82205397D01*
X136648843Y-82185982D01*
X136653612Y-82166943D01*
X136660224Y-82148463D01*
X136668616Y-82130721D01*
X136678706Y-82113886D01*
X136690398Y-82098121D01*
X136703579Y-82083579D01*
X136718121Y-82070398D01*
X136733886Y-82058706D01*
X136750721Y-82048616D01*
X136768463Y-82040224D01*
X136786943Y-82033612D01*
X136805982Y-82028843D01*
X136825397Y-82025963D01*
X136845000Y-82025000D01*
X137245000Y-82025000D01*
X137264603Y-82025963D01*
G37*
G36*
X138534603Y-82025963D02*
G01*
X138554018Y-82028843D01*
X138573057Y-82033612D01*
X138591537Y-82040224D01*
X138609279Y-82048616D01*
X138626114Y-82058706D01*
X138641879Y-82070398D01*
X138656421Y-82083579D01*
X138669602Y-82098121D01*
X138681294Y-82113886D01*
X138691384Y-82130721D01*
X138699776Y-82148463D01*
X138706388Y-82166943D01*
X138711157Y-82185982D01*
X138714037Y-82205397D01*
X138715000Y-82225000D01*
X138715000Y-84075000D01*
X138714037Y-84094603D01*
X138711157Y-84114018D01*
X138706388Y-84133057D01*
X138699776Y-84151537D01*
X138691384Y-84169279D01*
X138681294Y-84186114D01*
X138669602Y-84201879D01*
X138656421Y-84216421D01*
X138641879Y-84229602D01*
X138626114Y-84241294D01*
X138609279Y-84251384D01*
X138591537Y-84259776D01*
X138573057Y-84266388D01*
X138554018Y-84271157D01*
X138534603Y-84274037D01*
X138515000Y-84275000D01*
X138115000Y-84275000D01*
X138095397Y-84274037D01*
X138075982Y-84271157D01*
X138056943Y-84266388D01*
X138038463Y-84259776D01*
X138020721Y-84251384D01*
X138003886Y-84241294D01*
X137988121Y-84229602D01*
X137973579Y-84216421D01*
X137960398Y-84201879D01*
X137948706Y-84186114D01*
X137938616Y-84169279D01*
X137930224Y-84151537D01*
X137923612Y-84133057D01*
X137918843Y-84114018D01*
X137915963Y-84094603D01*
X137915000Y-84075000D01*
X137915000Y-82225000D01*
X137915963Y-82205397D01*
X137918843Y-82185982D01*
X137923612Y-82166943D01*
X137930224Y-82148463D01*
X137938616Y-82130721D01*
X137948706Y-82113886D01*
X137960398Y-82098121D01*
X137973579Y-82083579D01*
X137988121Y-82070398D01*
X138003886Y-82058706D01*
X138020721Y-82048616D01*
X138038463Y-82040224D01*
X138056943Y-82033612D01*
X138075982Y-82028843D01*
X138095397Y-82025963D01*
X138115000Y-82025000D01*
X138515000Y-82025000D01*
X138534603Y-82025963D01*
G37*
G36*
X139804603Y-82025963D02*
G01*
X139824018Y-82028843D01*
X139843057Y-82033612D01*
X139861537Y-82040224D01*
X139879279Y-82048616D01*
X139896114Y-82058706D01*
X139911879Y-82070398D01*
X139926421Y-82083579D01*
X139939602Y-82098121D01*
X139951294Y-82113886D01*
X139961384Y-82130721D01*
X139969776Y-82148463D01*
X139976388Y-82166943D01*
X139981157Y-82185982D01*
X139984037Y-82205397D01*
X139985000Y-82225000D01*
X139985000Y-84075000D01*
X139984037Y-84094603D01*
X139981157Y-84114018D01*
X139976388Y-84133057D01*
X139969776Y-84151537D01*
X139961384Y-84169279D01*
X139951294Y-84186114D01*
X139939602Y-84201879D01*
X139926421Y-84216421D01*
X139911879Y-84229602D01*
X139896114Y-84241294D01*
X139879279Y-84251384D01*
X139861537Y-84259776D01*
X139843057Y-84266388D01*
X139824018Y-84271157D01*
X139804603Y-84274037D01*
X139785000Y-84275000D01*
X139385000Y-84275000D01*
X139365397Y-84274037D01*
X139345982Y-84271157D01*
X139326943Y-84266388D01*
X139308463Y-84259776D01*
X139290721Y-84251384D01*
X139273886Y-84241294D01*
X139258121Y-84229602D01*
X139243579Y-84216421D01*
X139230398Y-84201879D01*
X139218706Y-84186114D01*
X139208616Y-84169279D01*
X139200224Y-84151537D01*
X139193612Y-84133057D01*
X139188843Y-84114018D01*
X139185963Y-84094603D01*
X139185000Y-84075000D01*
X139185000Y-82225000D01*
X139185963Y-82205397D01*
X139188843Y-82185982D01*
X139193612Y-82166943D01*
X139200224Y-82148463D01*
X139208616Y-82130721D01*
X139218706Y-82113886D01*
X139230398Y-82098121D01*
X139243579Y-82083579D01*
X139258121Y-82070398D01*
X139273886Y-82058706D01*
X139290721Y-82048616D01*
X139308463Y-82040224D01*
X139326943Y-82033612D01*
X139345982Y-82028843D01*
X139365397Y-82025963D01*
X139385000Y-82025000D01*
X139785000Y-82025000D01*
X139804603Y-82025963D01*
G37*
G36*
X141074603Y-82025963D02*
G01*
X141094018Y-82028843D01*
X141113057Y-82033612D01*
X141131537Y-82040224D01*
X141149279Y-82048616D01*
X141166114Y-82058706D01*
X141181879Y-82070398D01*
X141196421Y-82083579D01*
X141209602Y-82098121D01*
X141221294Y-82113886D01*
X141231384Y-82130721D01*
X141239776Y-82148463D01*
X141246388Y-82166943D01*
X141251157Y-82185982D01*
X141254037Y-82205397D01*
X141255000Y-82225000D01*
X141255000Y-84075000D01*
X141254037Y-84094603D01*
X141251157Y-84114018D01*
X141246388Y-84133057D01*
X141239776Y-84151537D01*
X141231384Y-84169279D01*
X141221294Y-84186114D01*
X141209602Y-84201879D01*
X141196421Y-84216421D01*
X141181879Y-84229602D01*
X141166114Y-84241294D01*
X141149279Y-84251384D01*
X141131537Y-84259776D01*
X141113057Y-84266388D01*
X141094018Y-84271157D01*
X141074603Y-84274037D01*
X141055000Y-84275000D01*
X140655000Y-84275000D01*
X140635397Y-84274037D01*
X140615982Y-84271157D01*
X140596943Y-84266388D01*
X140578463Y-84259776D01*
X140560721Y-84251384D01*
X140543886Y-84241294D01*
X140528121Y-84229602D01*
X140513579Y-84216421D01*
X140500398Y-84201879D01*
X140488706Y-84186114D01*
X140478616Y-84169279D01*
X140470224Y-84151537D01*
X140463612Y-84133057D01*
X140458843Y-84114018D01*
X140455963Y-84094603D01*
X140455000Y-84075000D01*
X140455000Y-82225000D01*
X140455963Y-82205397D01*
X140458843Y-82185982D01*
X140463612Y-82166943D01*
X140470224Y-82148463D01*
X140478616Y-82130721D01*
X140488706Y-82113886D01*
X140500398Y-82098121D01*
X140513579Y-82083579D01*
X140528121Y-82070398D01*
X140543886Y-82058706D01*
X140560721Y-82048616D01*
X140578463Y-82040224D01*
X140596943Y-82033612D01*
X140615982Y-82028843D01*
X140635397Y-82025963D01*
X140655000Y-82025000D01*
X141055000Y-82025000D01*
X141074603Y-82025963D01*
G37*
G36*
X141074603Y-91325963D02*
G01*
X141094018Y-91328843D01*
X141113057Y-91333612D01*
X141131537Y-91340224D01*
X141149279Y-91348616D01*
X141166114Y-91358706D01*
X141181879Y-91370398D01*
X141196421Y-91383579D01*
X141209602Y-91398121D01*
X141221294Y-91413886D01*
X141231384Y-91430721D01*
X141239776Y-91448463D01*
X141246388Y-91466943D01*
X141251157Y-91485982D01*
X141254037Y-91505397D01*
X141255000Y-91525000D01*
X141255000Y-93375000D01*
X141254037Y-93394603D01*
X141251157Y-93414018D01*
X141246388Y-93433057D01*
X141239776Y-93451537D01*
X141231384Y-93469279D01*
X141221294Y-93486114D01*
X141209602Y-93501879D01*
X141196421Y-93516421D01*
X141181879Y-93529602D01*
X141166114Y-93541294D01*
X141149279Y-93551384D01*
X141131537Y-93559776D01*
X141113057Y-93566388D01*
X141094018Y-93571157D01*
X141074603Y-93574037D01*
X141055000Y-93575000D01*
X140655000Y-93575000D01*
X140635397Y-93574037D01*
X140615982Y-93571157D01*
X140596943Y-93566388D01*
X140578463Y-93559776D01*
X140560721Y-93551384D01*
X140543886Y-93541294D01*
X140528121Y-93529602D01*
X140513579Y-93516421D01*
X140500398Y-93501879D01*
X140488706Y-93486114D01*
X140478616Y-93469279D01*
X140470224Y-93451537D01*
X140463612Y-93433057D01*
X140458843Y-93414018D01*
X140455963Y-93394603D01*
X140455000Y-93375000D01*
X140455000Y-91525000D01*
X140455963Y-91505397D01*
X140458843Y-91485982D01*
X140463612Y-91466943D01*
X140470224Y-91448463D01*
X140478616Y-91430721D01*
X140488706Y-91413886D01*
X140500398Y-91398121D01*
X140513579Y-91383579D01*
X140528121Y-91370398D01*
X140543886Y-91358706D01*
X140560721Y-91348616D01*
X140578463Y-91340224D01*
X140596943Y-91333612D01*
X140615982Y-91328843D01*
X140635397Y-91325963D01*
X140655000Y-91325000D01*
X141055000Y-91325000D01*
X141074603Y-91325963D01*
G37*
G36*
X139804603Y-91325963D02*
G01*
X139824018Y-91328843D01*
X139843057Y-91333612D01*
X139861537Y-91340224D01*
X139879279Y-91348616D01*
X139896114Y-91358706D01*
X139911879Y-91370398D01*
X139926421Y-91383579D01*
X139939602Y-91398121D01*
X139951294Y-91413886D01*
X139961384Y-91430721D01*
X139969776Y-91448463D01*
X139976388Y-91466943D01*
X139981157Y-91485982D01*
X139984037Y-91505397D01*
X139985000Y-91525000D01*
X139985000Y-93375000D01*
X139984037Y-93394603D01*
X139981157Y-93414018D01*
X139976388Y-93433057D01*
X139969776Y-93451537D01*
X139961384Y-93469279D01*
X139951294Y-93486114D01*
X139939602Y-93501879D01*
X139926421Y-93516421D01*
X139911879Y-93529602D01*
X139896114Y-93541294D01*
X139879279Y-93551384D01*
X139861537Y-93559776D01*
X139843057Y-93566388D01*
X139824018Y-93571157D01*
X139804603Y-93574037D01*
X139785000Y-93575000D01*
X139385000Y-93575000D01*
X139365397Y-93574037D01*
X139345982Y-93571157D01*
X139326943Y-93566388D01*
X139308463Y-93559776D01*
X139290721Y-93551384D01*
X139273886Y-93541294D01*
X139258121Y-93529602D01*
X139243579Y-93516421D01*
X139230398Y-93501879D01*
X139218706Y-93486114D01*
X139208616Y-93469279D01*
X139200224Y-93451537D01*
X139193612Y-93433057D01*
X139188843Y-93414018D01*
X139185963Y-93394603D01*
X139185000Y-93375000D01*
X139185000Y-91525000D01*
X139185963Y-91505397D01*
X139188843Y-91485982D01*
X139193612Y-91466943D01*
X139200224Y-91448463D01*
X139208616Y-91430721D01*
X139218706Y-91413886D01*
X139230398Y-91398121D01*
X139243579Y-91383579D01*
X139258121Y-91370398D01*
X139273886Y-91358706D01*
X139290721Y-91348616D01*
X139308463Y-91340224D01*
X139326943Y-91333612D01*
X139345982Y-91328843D01*
X139365397Y-91325963D01*
X139385000Y-91325000D01*
X139785000Y-91325000D01*
X139804603Y-91325963D01*
G37*
G36*
X138534603Y-91325963D02*
G01*
X138554018Y-91328843D01*
X138573057Y-91333612D01*
X138591537Y-91340224D01*
X138609279Y-91348616D01*
X138626114Y-91358706D01*
X138641879Y-91370398D01*
X138656421Y-91383579D01*
X138669602Y-91398121D01*
X138681294Y-91413886D01*
X138691384Y-91430721D01*
X138699776Y-91448463D01*
X138706388Y-91466943D01*
X138711157Y-91485982D01*
X138714037Y-91505397D01*
X138715000Y-91525000D01*
X138715000Y-93375000D01*
X138714037Y-93394603D01*
X138711157Y-93414018D01*
X138706388Y-93433057D01*
X138699776Y-93451537D01*
X138691384Y-93469279D01*
X138681294Y-93486114D01*
X138669602Y-93501879D01*
X138656421Y-93516421D01*
X138641879Y-93529602D01*
X138626114Y-93541294D01*
X138609279Y-93551384D01*
X138591537Y-93559776D01*
X138573057Y-93566388D01*
X138554018Y-93571157D01*
X138534603Y-93574037D01*
X138515000Y-93575000D01*
X138115000Y-93575000D01*
X138095397Y-93574037D01*
X138075982Y-93571157D01*
X138056943Y-93566388D01*
X138038463Y-93559776D01*
X138020721Y-93551384D01*
X138003886Y-93541294D01*
X137988121Y-93529602D01*
X137973579Y-93516421D01*
X137960398Y-93501879D01*
X137948706Y-93486114D01*
X137938616Y-93469279D01*
X137930224Y-93451537D01*
X137923612Y-93433057D01*
X137918843Y-93414018D01*
X137915963Y-93394603D01*
X137915000Y-93375000D01*
X137915000Y-91525000D01*
X137915963Y-91505397D01*
X137918843Y-91485982D01*
X137923612Y-91466943D01*
X137930224Y-91448463D01*
X137938616Y-91430721D01*
X137948706Y-91413886D01*
X137960398Y-91398121D01*
X137973579Y-91383579D01*
X137988121Y-91370398D01*
X138003886Y-91358706D01*
X138020721Y-91348616D01*
X138038463Y-91340224D01*
X138056943Y-91333612D01*
X138075982Y-91328843D01*
X138095397Y-91325963D01*
X138115000Y-91325000D01*
X138515000Y-91325000D01*
X138534603Y-91325963D01*
G37*
G36*
X137264603Y-91325963D02*
G01*
X137284018Y-91328843D01*
X137303057Y-91333612D01*
X137321537Y-91340224D01*
X137339279Y-91348616D01*
X137356114Y-91358706D01*
X137371879Y-91370398D01*
X137386421Y-91383579D01*
X137399602Y-91398121D01*
X137411294Y-91413886D01*
X137421384Y-91430721D01*
X137429776Y-91448463D01*
X137436388Y-91466943D01*
X137441157Y-91485982D01*
X137444037Y-91505397D01*
X137445000Y-91525000D01*
X137445000Y-93375000D01*
X137444037Y-93394603D01*
X137441157Y-93414018D01*
X137436388Y-93433057D01*
X137429776Y-93451537D01*
X137421384Y-93469279D01*
X137411294Y-93486114D01*
X137399602Y-93501879D01*
X137386421Y-93516421D01*
X137371879Y-93529602D01*
X137356114Y-93541294D01*
X137339279Y-93551384D01*
X137321537Y-93559776D01*
X137303057Y-93566388D01*
X137284018Y-93571157D01*
X137264603Y-93574037D01*
X137245000Y-93575000D01*
X136845000Y-93575000D01*
X136825397Y-93574037D01*
X136805982Y-93571157D01*
X136786943Y-93566388D01*
X136768463Y-93559776D01*
X136750721Y-93551384D01*
X136733886Y-93541294D01*
X136718121Y-93529602D01*
X136703579Y-93516421D01*
X136690398Y-93501879D01*
X136678706Y-93486114D01*
X136668616Y-93469279D01*
X136660224Y-93451537D01*
X136653612Y-93433057D01*
X136648843Y-93414018D01*
X136645963Y-93394603D01*
X136645000Y-93375000D01*
X136645000Y-91525000D01*
X136645963Y-91505397D01*
X136648843Y-91485982D01*
X136653612Y-91466943D01*
X136660224Y-91448463D01*
X136668616Y-91430721D01*
X136678706Y-91413886D01*
X136690398Y-91398121D01*
X136703579Y-91383579D01*
X136718121Y-91370398D01*
X136733886Y-91358706D01*
X136750721Y-91348616D01*
X136768463Y-91340224D01*
X136786943Y-91333612D01*
X136805982Y-91328843D01*
X136825397Y-91325963D01*
X136845000Y-91325000D01*
X137245000Y-91325000D01*
X137264603Y-91325963D01*
G37*
G36*
X135994603Y-91325963D02*
G01*
X136014018Y-91328843D01*
X136033057Y-91333612D01*
X136051537Y-91340224D01*
X136069279Y-91348616D01*
X136086114Y-91358706D01*
X136101879Y-91370398D01*
X136116421Y-91383579D01*
X136129602Y-91398121D01*
X136141294Y-91413886D01*
X136151384Y-91430721D01*
X136159776Y-91448463D01*
X136166388Y-91466943D01*
X136171157Y-91485982D01*
X136174037Y-91505397D01*
X136175000Y-91525000D01*
X136175000Y-93375000D01*
X136174037Y-93394603D01*
X136171157Y-93414018D01*
X136166388Y-93433057D01*
X136159776Y-93451537D01*
X136151384Y-93469279D01*
X136141294Y-93486114D01*
X136129602Y-93501879D01*
X136116421Y-93516421D01*
X136101879Y-93529602D01*
X136086114Y-93541294D01*
X136069279Y-93551384D01*
X136051537Y-93559776D01*
X136033057Y-93566388D01*
X136014018Y-93571157D01*
X135994603Y-93574037D01*
X135975000Y-93575000D01*
X135575000Y-93575000D01*
X135555397Y-93574037D01*
X135535982Y-93571157D01*
X135516943Y-93566388D01*
X135498463Y-93559776D01*
X135480721Y-93551384D01*
X135463886Y-93541294D01*
X135448121Y-93529602D01*
X135433579Y-93516421D01*
X135420398Y-93501879D01*
X135408706Y-93486114D01*
X135398616Y-93469279D01*
X135390224Y-93451537D01*
X135383612Y-93433057D01*
X135378843Y-93414018D01*
X135375963Y-93394603D01*
X135375000Y-93375000D01*
X135375000Y-91525000D01*
X135375963Y-91505397D01*
X135378843Y-91485982D01*
X135383612Y-91466943D01*
X135390224Y-91448463D01*
X135398616Y-91430721D01*
X135408706Y-91413886D01*
X135420398Y-91398121D01*
X135433579Y-91383579D01*
X135448121Y-91370398D01*
X135463886Y-91358706D01*
X135480721Y-91348616D01*
X135498463Y-91340224D01*
X135516943Y-91333612D01*
X135535982Y-91328843D01*
X135555397Y-91325963D01*
X135575000Y-91325000D01*
X135975000Y-91325000D01*
X135994603Y-91325963D01*
G37*
G36*
X134724603Y-91325963D02*
G01*
X134744018Y-91328843D01*
X134763057Y-91333612D01*
X134781537Y-91340224D01*
X134799279Y-91348616D01*
X134816114Y-91358706D01*
X134831879Y-91370398D01*
X134846421Y-91383579D01*
X134859602Y-91398121D01*
X134871294Y-91413886D01*
X134881384Y-91430721D01*
X134889776Y-91448463D01*
X134896388Y-91466943D01*
X134901157Y-91485982D01*
X134904037Y-91505397D01*
X134905000Y-91525000D01*
X134905000Y-93375000D01*
X134904037Y-93394603D01*
X134901157Y-93414018D01*
X134896388Y-93433057D01*
X134889776Y-93451537D01*
X134881384Y-93469279D01*
X134871294Y-93486114D01*
X134859602Y-93501879D01*
X134846421Y-93516421D01*
X134831879Y-93529602D01*
X134816114Y-93541294D01*
X134799279Y-93551384D01*
X134781537Y-93559776D01*
X134763057Y-93566388D01*
X134744018Y-93571157D01*
X134724603Y-93574037D01*
X134705000Y-93575000D01*
X134305000Y-93575000D01*
X134285397Y-93574037D01*
X134265982Y-93571157D01*
X134246943Y-93566388D01*
X134228463Y-93559776D01*
X134210721Y-93551384D01*
X134193886Y-93541294D01*
X134178121Y-93529602D01*
X134163579Y-93516421D01*
X134150398Y-93501879D01*
X134138706Y-93486114D01*
X134128616Y-93469279D01*
X134120224Y-93451537D01*
X134113612Y-93433057D01*
X134108843Y-93414018D01*
X134105963Y-93394603D01*
X134105000Y-93375000D01*
X134105000Y-91525000D01*
X134105963Y-91505397D01*
X134108843Y-91485982D01*
X134113612Y-91466943D01*
X134120224Y-91448463D01*
X134128616Y-91430721D01*
X134138706Y-91413886D01*
X134150398Y-91398121D01*
X134163579Y-91383579D01*
X134178121Y-91370398D01*
X134193886Y-91358706D01*
X134210721Y-91348616D01*
X134228463Y-91340224D01*
X134246943Y-91333612D01*
X134265982Y-91328843D01*
X134285397Y-91325963D01*
X134305000Y-91325000D01*
X134705000Y-91325000D01*
X134724603Y-91325963D01*
G37*
G36*
X133454603Y-91325963D02*
G01*
X133474018Y-91328843D01*
X133493057Y-91333612D01*
X133511537Y-91340224D01*
X133529279Y-91348616D01*
X133546114Y-91358706D01*
X133561879Y-91370398D01*
X133576421Y-91383579D01*
X133589602Y-91398121D01*
X133601294Y-91413886D01*
X133611384Y-91430721D01*
X133619776Y-91448463D01*
X133626388Y-91466943D01*
X133631157Y-91485982D01*
X133634037Y-91505397D01*
X133635000Y-91525000D01*
X133635000Y-93375000D01*
X133634037Y-93394603D01*
X133631157Y-93414018D01*
X133626388Y-93433057D01*
X133619776Y-93451537D01*
X133611384Y-93469279D01*
X133601294Y-93486114D01*
X133589602Y-93501879D01*
X133576421Y-93516421D01*
X133561879Y-93529602D01*
X133546114Y-93541294D01*
X133529279Y-93551384D01*
X133511537Y-93559776D01*
X133493057Y-93566388D01*
X133474018Y-93571157D01*
X133454603Y-93574037D01*
X133435000Y-93575000D01*
X133035000Y-93575000D01*
X133015397Y-93574037D01*
X132995982Y-93571157D01*
X132976943Y-93566388D01*
X132958463Y-93559776D01*
X132940721Y-93551384D01*
X132923886Y-93541294D01*
X132908121Y-93529602D01*
X132893579Y-93516421D01*
X132880398Y-93501879D01*
X132868706Y-93486114D01*
X132858616Y-93469279D01*
X132850224Y-93451537D01*
X132843612Y-93433057D01*
X132838843Y-93414018D01*
X132835963Y-93394603D01*
X132835000Y-93375000D01*
X132835000Y-91525000D01*
X132835963Y-91505397D01*
X132838843Y-91485982D01*
X132843612Y-91466943D01*
X132850224Y-91448463D01*
X132858616Y-91430721D01*
X132868706Y-91413886D01*
X132880398Y-91398121D01*
X132893579Y-91383579D01*
X132908121Y-91370398D01*
X132923886Y-91358706D01*
X132940721Y-91348616D01*
X132958463Y-91340224D01*
X132976943Y-91333612D01*
X132995982Y-91328843D01*
X133015397Y-91325963D01*
X133035000Y-91325000D01*
X133435000Y-91325000D01*
X133454603Y-91325963D01*
G37*
G36*
X132184603Y-91325963D02*
G01*
X132204018Y-91328843D01*
X132223057Y-91333612D01*
X132241537Y-91340224D01*
X132259279Y-91348616D01*
X132276114Y-91358706D01*
X132291879Y-91370398D01*
X132306421Y-91383579D01*
X132319602Y-91398121D01*
X132331294Y-91413886D01*
X132341384Y-91430721D01*
X132349776Y-91448463D01*
X132356388Y-91466943D01*
X132361157Y-91485982D01*
X132364037Y-91505397D01*
X132365000Y-91525000D01*
X132365000Y-93375000D01*
X132364037Y-93394603D01*
X132361157Y-93414018D01*
X132356388Y-93433057D01*
X132349776Y-93451537D01*
X132341384Y-93469279D01*
X132331294Y-93486114D01*
X132319602Y-93501879D01*
X132306421Y-93516421D01*
X132291879Y-93529602D01*
X132276114Y-93541294D01*
X132259279Y-93551384D01*
X132241537Y-93559776D01*
X132223057Y-93566388D01*
X132204018Y-93571157D01*
X132184603Y-93574037D01*
X132165000Y-93575000D01*
X131765000Y-93575000D01*
X131745397Y-93574037D01*
X131725982Y-93571157D01*
X131706943Y-93566388D01*
X131688463Y-93559776D01*
X131670721Y-93551384D01*
X131653886Y-93541294D01*
X131638121Y-93529602D01*
X131623579Y-93516421D01*
X131610398Y-93501879D01*
X131598706Y-93486114D01*
X131588616Y-93469279D01*
X131580224Y-93451537D01*
X131573612Y-93433057D01*
X131568843Y-93414018D01*
X131565963Y-93394603D01*
X131565000Y-93375000D01*
X131565000Y-91525000D01*
X131565963Y-91505397D01*
X131568843Y-91485982D01*
X131573612Y-91466943D01*
X131580224Y-91448463D01*
X131588616Y-91430721D01*
X131598706Y-91413886D01*
X131610398Y-91398121D01*
X131623579Y-91383579D01*
X131638121Y-91370398D01*
X131653886Y-91358706D01*
X131670721Y-91348616D01*
X131688463Y-91340224D01*
X131706943Y-91333612D01*
X131725982Y-91328843D01*
X131745397Y-91325963D01*
X131765000Y-91325000D01*
X132165000Y-91325000D01*
X132184603Y-91325963D01*
G37*
G36*
X130914603Y-91325963D02*
G01*
X130934018Y-91328843D01*
X130953057Y-91333612D01*
X130971537Y-91340224D01*
X130989279Y-91348616D01*
X131006114Y-91358706D01*
X131021879Y-91370398D01*
X131036421Y-91383579D01*
X131049602Y-91398121D01*
X131061294Y-91413886D01*
X131071384Y-91430721D01*
X131079776Y-91448463D01*
X131086388Y-91466943D01*
X131091157Y-91485982D01*
X131094037Y-91505397D01*
X131095000Y-91525000D01*
X131095000Y-93375000D01*
X131094037Y-93394603D01*
X131091157Y-93414018D01*
X131086388Y-93433057D01*
X131079776Y-93451537D01*
X131071384Y-93469279D01*
X131061294Y-93486114D01*
X131049602Y-93501879D01*
X131036421Y-93516421D01*
X131021879Y-93529602D01*
X131006114Y-93541294D01*
X130989279Y-93551384D01*
X130971537Y-93559776D01*
X130953057Y-93566388D01*
X130934018Y-93571157D01*
X130914603Y-93574037D01*
X130895000Y-93575000D01*
X130495000Y-93575000D01*
X130475397Y-93574037D01*
X130455982Y-93571157D01*
X130436943Y-93566388D01*
X130418463Y-93559776D01*
X130400721Y-93551384D01*
X130383886Y-93541294D01*
X130368121Y-93529602D01*
X130353579Y-93516421D01*
X130340398Y-93501879D01*
X130328706Y-93486114D01*
X130318616Y-93469279D01*
X130310224Y-93451537D01*
X130303612Y-93433057D01*
X130298843Y-93414018D01*
X130295963Y-93394603D01*
X130295000Y-93375000D01*
X130295000Y-91525000D01*
X130295963Y-91505397D01*
X130298843Y-91485982D01*
X130303612Y-91466943D01*
X130310224Y-91448463D01*
X130318616Y-91430721D01*
X130328706Y-91413886D01*
X130340398Y-91398121D01*
X130353579Y-91383579D01*
X130368121Y-91370398D01*
X130383886Y-91358706D01*
X130400721Y-91348616D01*
X130418463Y-91340224D01*
X130436943Y-91333612D01*
X130455982Y-91328843D01*
X130475397Y-91325963D01*
X130495000Y-91325000D01*
X130895000Y-91325000D01*
X130914603Y-91325963D01*
G37*
G36*
X129644603Y-91325963D02*
G01*
X129664018Y-91328843D01*
X129683057Y-91333612D01*
X129701537Y-91340224D01*
X129719279Y-91348616D01*
X129736114Y-91358706D01*
X129751879Y-91370398D01*
X129766421Y-91383579D01*
X129779602Y-91398121D01*
X129791294Y-91413886D01*
X129801384Y-91430721D01*
X129809776Y-91448463D01*
X129816388Y-91466943D01*
X129821157Y-91485982D01*
X129824037Y-91505397D01*
X129825000Y-91525000D01*
X129825000Y-93375000D01*
X129824037Y-93394603D01*
X129821157Y-93414018D01*
X129816388Y-93433057D01*
X129809776Y-93451537D01*
X129801384Y-93469279D01*
X129791294Y-93486114D01*
X129779602Y-93501879D01*
X129766421Y-93516421D01*
X129751879Y-93529602D01*
X129736114Y-93541294D01*
X129719279Y-93551384D01*
X129701537Y-93559776D01*
X129683057Y-93566388D01*
X129664018Y-93571157D01*
X129644603Y-93574037D01*
X129625000Y-93575000D01*
X129225000Y-93575000D01*
X129205397Y-93574037D01*
X129185982Y-93571157D01*
X129166943Y-93566388D01*
X129148463Y-93559776D01*
X129130721Y-93551384D01*
X129113886Y-93541294D01*
X129098121Y-93529602D01*
X129083579Y-93516421D01*
X129070398Y-93501879D01*
X129058706Y-93486114D01*
X129048616Y-93469279D01*
X129040224Y-93451537D01*
X129033612Y-93433057D01*
X129028843Y-93414018D01*
X129025963Y-93394603D01*
X129025000Y-93375000D01*
X129025000Y-91525000D01*
X129025963Y-91505397D01*
X129028843Y-91485982D01*
X129033612Y-91466943D01*
X129040224Y-91448463D01*
X129048616Y-91430721D01*
X129058706Y-91413886D01*
X129070398Y-91398121D01*
X129083579Y-91383579D01*
X129098121Y-91370398D01*
X129113886Y-91358706D01*
X129130721Y-91348616D01*
X129148463Y-91340224D01*
X129166943Y-91333612D01*
X129185982Y-91328843D01*
X129205397Y-91325963D01*
X129225000Y-91325000D01*
X129625000Y-91325000D01*
X129644603Y-91325963D01*
G37*
G36*
X128374603Y-91325963D02*
G01*
X128394018Y-91328843D01*
X128413057Y-91333612D01*
X128431537Y-91340224D01*
X128449279Y-91348616D01*
X128466114Y-91358706D01*
X128481879Y-91370398D01*
X128496421Y-91383579D01*
X128509602Y-91398121D01*
X128521294Y-91413886D01*
X128531384Y-91430721D01*
X128539776Y-91448463D01*
X128546388Y-91466943D01*
X128551157Y-91485982D01*
X128554037Y-91505397D01*
X128555000Y-91525000D01*
X128555000Y-93375000D01*
X128554037Y-93394603D01*
X128551157Y-93414018D01*
X128546388Y-93433057D01*
X128539776Y-93451537D01*
X128531384Y-93469279D01*
X128521294Y-93486114D01*
X128509602Y-93501879D01*
X128496421Y-93516421D01*
X128481879Y-93529602D01*
X128466114Y-93541294D01*
X128449279Y-93551384D01*
X128431537Y-93559776D01*
X128413057Y-93566388D01*
X128394018Y-93571157D01*
X128374603Y-93574037D01*
X128355000Y-93575000D01*
X127955000Y-93575000D01*
X127935397Y-93574037D01*
X127915982Y-93571157D01*
X127896943Y-93566388D01*
X127878463Y-93559776D01*
X127860721Y-93551384D01*
X127843886Y-93541294D01*
X127828121Y-93529602D01*
X127813579Y-93516421D01*
X127800398Y-93501879D01*
X127788706Y-93486114D01*
X127778616Y-93469279D01*
X127770224Y-93451537D01*
X127763612Y-93433057D01*
X127758843Y-93414018D01*
X127755963Y-93394603D01*
X127755000Y-93375000D01*
X127755000Y-91525000D01*
X127755963Y-91505397D01*
X127758843Y-91485982D01*
X127763612Y-91466943D01*
X127770224Y-91448463D01*
X127778616Y-91430721D01*
X127788706Y-91413886D01*
X127800398Y-91398121D01*
X127813579Y-91383579D01*
X127828121Y-91370398D01*
X127843886Y-91358706D01*
X127860721Y-91348616D01*
X127878463Y-91340224D01*
X127896943Y-91333612D01*
X127915982Y-91328843D01*
X127935397Y-91325963D01*
X127955000Y-91325000D01*
X128355000Y-91325000D01*
X128374603Y-91325963D01*
G37*
G36*
X127104603Y-91325963D02*
G01*
X127124018Y-91328843D01*
X127143057Y-91333612D01*
X127161537Y-91340224D01*
X127179279Y-91348616D01*
X127196114Y-91358706D01*
X127211879Y-91370398D01*
X127226421Y-91383579D01*
X127239602Y-91398121D01*
X127251294Y-91413886D01*
X127261384Y-91430721D01*
X127269776Y-91448463D01*
X127276388Y-91466943D01*
X127281157Y-91485982D01*
X127284037Y-91505397D01*
X127285000Y-91525000D01*
X127285000Y-93375000D01*
X127284037Y-93394603D01*
X127281157Y-93414018D01*
X127276388Y-93433057D01*
X127269776Y-93451537D01*
X127261384Y-93469279D01*
X127251294Y-93486114D01*
X127239602Y-93501879D01*
X127226421Y-93516421D01*
X127211879Y-93529602D01*
X127196114Y-93541294D01*
X127179279Y-93551384D01*
X127161537Y-93559776D01*
X127143057Y-93566388D01*
X127124018Y-93571157D01*
X127104603Y-93574037D01*
X127085000Y-93575000D01*
X126685000Y-93575000D01*
X126665397Y-93574037D01*
X126645982Y-93571157D01*
X126626943Y-93566388D01*
X126608463Y-93559776D01*
X126590721Y-93551384D01*
X126573886Y-93541294D01*
X126558121Y-93529602D01*
X126543579Y-93516421D01*
X126530398Y-93501879D01*
X126518706Y-93486114D01*
X126508616Y-93469279D01*
X126500224Y-93451537D01*
X126493612Y-93433057D01*
X126488843Y-93414018D01*
X126485963Y-93394603D01*
X126485000Y-93375000D01*
X126485000Y-91525000D01*
X126485963Y-91505397D01*
X126488843Y-91485982D01*
X126493612Y-91466943D01*
X126500224Y-91448463D01*
X126508616Y-91430721D01*
X126518706Y-91413886D01*
X126530398Y-91398121D01*
X126543579Y-91383579D01*
X126558121Y-91370398D01*
X126573886Y-91358706D01*
X126590721Y-91348616D01*
X126608463Y-91340224D01*
X126626943Y-91333612D01*
X126645982Y-91328843D01*
X126665397Y-91325963D01*
X126685000Y-91325000D01*
X127085000Y-91325000D01*
X127104603Y-91325963D01*
G37*
G36*
X125834603Y-91325963D02*
G01*
X125854018Y-91328843D01*
X125873057Y-91333612D01*
X125891537Y-91340224D01*
X125909279Y-91348616D01*
X125926114Y-91358706D01*
X125941879Y-91370398D01*
X125956421Y-91383579D01*
X125969602Y-91398121D01*
X125981294Y-91413886D01*
X125991384Y-91430721D01*
X125999776Y-91448463D01*
X126006388Y-91466943D01*
X126011157Y-91485982D01*
X126014037Y-91505397D01*
X126015000Y-91525000D01*
X126015000Y-93375000D01*
X126014037Y-93394603D01*
X126011157Y-93414018D01*
X126006388Y-93433057D01*
X125999776Y-93451537D01*
X125991384Y-93469279D01*
X125981294Y-93486114D01*
X125969602Y-93501879D01*
X125956421Y-93516421D01*
X125941879Y-93529602D01*
X125926114Y-93541294D01*
X125909279Y-93551384D01*
X125891537Y-93559776D01*
X125873057Y-93566388D01*
X125854018Y-93571157D01*
X125834603Y-93574037D01*
X125815000Y-93575000D01*
X125415000Y-93575000D01*
X125395397Y-93574037D01*
X125375982Y-93571157D01*
X125356943Y-93566388D01*
X125338463Y-93559776D01*
X125320721Y-93551384D01*
X125303886Y-93541294D01*
X125288121Y-93529602D01*
X125273579Y-93516421D01*
X125260398Y-93501879D01*
X125248706Y-93486114D01*
X125238616Y-93469279D01*
X125230224Y-93451537D01*
X125223612Y-93433057D01*
X125218843Y-93414018D01*
X125215963Y-93394603D01*
X125215000Y-93375000D01*
X125215000Y-91525000D01*
X125215963Y-91505397D01*
X125218843Y-91485982D01*
X125223612Y-91466943D01*
X125230224Y-91448463D01*
X125238616Y-91430721D01*
X125248706Y-91413886D01*
X125260398Y-91398121D01*
X125273579Y-91383579D01*
X125288121Y-91370398D01*
X125303886Y-91358706D01*
X125320721Y-91348616D01*
X125338463Y-91340224D01*
X125356943Y-91333612D01*
X125375982Y-91328843D01*
X125395397Y-91325963D01*
X125415000Y-91325000D01*
X125815000Y-91325000D01*
X125834603Y-91325963D01*
G37*
G36*
X124564603Y-91325963D02*
G01*
X124584018Y-91328843D01*
X124603057Y-91333612D01*
X124621537Y-91340224D01*
X124639279Y-91348616D01*
X124656114Y-91358706D01*
X124671879Y-91370398D01*
X124686421Y-91383579D01*
X124699602Y-91398121D01*
X124711294Y-91413886D01*
X124721384Y-91430721D01*
X124729776Y-91448463D01*
X124736388Y-91466943D01*
X124741157Y-91485982D01*
X124744037Y-91505397D01*
X124745000Y-91525000D01*
X124745000Y-93375000D01*
X124744037Y-93394603D01*
X124741157Y-93414018D01*
X124736388Y-93433057D01*
X124729776Y-93451537D01*
X124721384Y-93469279D01*
X124711294Y-93486114D01*
X124699602Y-93501879D01*
X124686421Y-93516421D01*
X124671879Y-93529602D01*
X124656114Y-93541294D01*
X124639279Y-93551384D01*
X124621537Y-93559776D01*
X124603057Y-93566388D01*
X124584018Y-93571157D01*
X124564603Y-93574037D01*
X124545000Y-93575000D01*
X124145000Y-93575000D01*
X124125397Y-93574037D01*
X124105982Y-93571157D01*
X124086943Y-93566388D01*
X124068463Y-93559776D01*
X124050721Y-93551384D01*
X124033886Y-93541294D01*
X124018121Y-93529602D01*
X124003579Y-93516421D01*
X123990398Y-93501879D01*
X123978706Y-93486114D01*
X123968616Y-93469279D01*
X123960224Y-93451537D01*
X123953612Y-93433057D01*
X123948843Y-93414018D01*
X123945963Y-93394603D01*
X123945000Y-93375000D01*
X123945000Y-91525000D01*
X123945963Y-91505397D01*
X123948843Y-91485982D01*
X123953612Y-91466943D01*
X123960224Y-91448463D01*
X123968616Y-91430721D01*
X123978706Y-91413886D01*
X123990398Y-91398121D01*
X124003579Y-91383579D01*
X124018121Y-91370398D01*
X124033886Y-91358706D01*
X124050721Y-91348616D01*
X124068463Y-91340224D01*
X124086943Y-91333612D01*
X124105982Y-91328843D01*
X124125397Y-91325963D01*
X124145000Y-91325000D01*
X124545000Y-91325000D01*
X124564603Y-91325963D01*
G37*
D16*
X87500000Y-84250000D03*
X83000000Y-84250000D03*
D11*
G36*
X88197543Y-91951414D02*
G01*
X88226058Y-91955644D01*
X88254021Y-91962649D01*
X88281163Y-91972360D01*
X88307223Y-91984686D01*
X88331949Y-91999506D01*
X88355103Y-92016678D01*
X88376463Y-92036037D01*
X88395822Y-92057397D01*
X88412994Y-92080551D01*
X88427814Y-92105277D01*
X88440140Y-92131337D01*
X88449851Y-92158479D01*
X88456856Y-92186442D01*
X88461086Y-92214957D01*
X88462500Y-92243750D01*
X88462500Y-93256250D01*
X88461086Y-93285043D01*
X88456856Y-93313558D01*
X88449851Y-93341521D01*
X88440140Y-93368663D01*
X88427814Y-93394723D01*
X88412994Y-93419449D01*
X88395822Y-93442603D01*
X88376463Y-93463963D01*
X88355103Y-93483322D01*
X88331949Y-93500494D01*
X88307223Y-93515314D01*
X88281163Y-93527640D01*
X88254021Y-93537351D01*
X88226058Y-93544356D01*
X88197543Y-93548586D01*
X88168750Y-93550000D01*
X87581250Y-93550000D01*
X87552457Y-93548586D01*
X87523942Y-93544356D01*
X87495979Y-93537351D01*
X87468837Y-93527640D01*
X87442777Y-93515314D01*
X87418051Y-93500494D01*
X87394897Y-93483322D01*
X87373537Y-93463963D01*
X87354178Y-93442603D01*
X87337006Y-93419449D01*
X87322186Y-93394723D01*
X87309860Y-93368663D01*
X87300149Y-93341521D01*
X87293144Y-93313558D01*
X87288914Y-93285043D01*
X87287500Y-93256250D01*
X87287500Y-92243750D01*
X87288914Y-92214957D01*
X87293144Y-92186442D01*
X87300149Y-92158479D01*
X87309860Y-92131337D01*
X87322186Y-92105277D01*
X87337006Y-92080551D01*
X87354178Y-92057397D01*
X87373537Y-92036037D01*
X87394897Y-92016678D01*
X87418051Y-91999506D01*
X87442777Y-91984686D01*
X87468837Y-91972360D01*
X87495979Y-91962649D01*
X87523942Y-91955644D01*
X87552457Y-91951414D01*
X87581250Y-91950000D01*
X88168750Y-91950000D01*
X88197543Y-91951414D01*
G37*
G36*
X86322543Y-91951414D02*
G01*
X86351058Y-91955644D01*
X86379021Y-91962649D01*
X86406163Y-91972360D01*
X86432223Y-91984686D01*
X86456949Y-91999506D01*
X86480103Y-92016678D01*
X86501463Y-92036037D01*
X86520822Y-92057397D01*
X86537994Y-92080551D01*
X86552814Y-92105277D01*
X86565140Y-92131337D01*
X86574851Y-92158479D01*
X86581856Y-92186442D01*
X86586086Y-92214957D01*
X86587500Y-92243750D01*
X86587500Y-93256250D01*
X86586086Y-93285043D01*
X86581856Y-93313558D01*
X86574851Y-93341521D01*
X86565140Y-93368663D01*
X86552814Y-93394723D01*
X86537994Y-93419449D01*
X86520822Y-93442603D01*
X86501463Y-93463963D01*
X86480103Y-93483322D01*
X86456949Y-93500494D01*
X86432223Y-93515314D01*
X86406163Y-93527640D01*
X86379021Y-93537351D01*
X86351058Y-93544356D01*
X86322543Y-93548586D01*
X86293750Y-93550000D01*
X85706250Y-93550000D01*
X85677457Y-93548586D01*
X85648942Y-93544356D01*
X85620979Y-93537351D01*
X85593837Y-93527640D01*
X85567777Y-93515314D01*
X85543051Y-93500494D01*
X85519897Y-93483322D01*
X85498537Y-93463963D01*
X85479178Y-93442603D01*
X85462006Y-93419449D01*
X85447186Y-93394723D01*
X85434860Y-93368663D01*
X85425149Y-93341521D01*
X85418144Y-93313558D01*
X85413914Y-93285043D01*
X85412500Y-93256250D01*
X85412500Y-92243750D01*
X85413914Y-92214957D01*
X85418144Y-92186442D01*
X85425149Y-92158479D01*
X85434860Y-92131337D01*
X85447186Y-92105277D01*
X85462006Y-92080551D01*
X85479178Y-92057397D01*
X85498537Y-92036037D01*
X85519897Y-92016678D01*
X85543051Y-91999506D01*
X85567777Y-91984686D01*
X85593837Y-91972360D01*
X85620979Y-91962649D01*
X85648942Y-91955644D01*
X85677457Y-91951414D01*
X85706250Y-91950000D01*
X86293750Y-91950000D01*
X86322543Y-91951414D01*
G37*
G36*
X88197543Y-89701414D02*
G01*
X88226058Y-89705644D01*
X88254021Y-89712649D01*
X88281163Y-89722360D01*
X88307223Y-89734686D01*
X88331949Y-89749506D01*
X88355103Y-89766678D01*
X88376463Y-89786037D01*
X88395822Y-89807397D01*
X88412994Y-89830551D01*
X88427814Y-89855277D01*
X88440140Y-89881337D01*
X88449851Y-89908479D01*
X88456856Y-89936442D01*
X88461086Y-89964957D01*
X88462500Y-89993750D01*
X88462500Y-91006250D01*
X88461086Y-91035043D01*
X88456856Y-91063558D01*
X88449851Y-91091521D01*
X88440140Y-91118663D01*
X88427814Y-91144723D01*
X88412994Y-91169449D01*
X88395822Y-91192603D01*
X88376463Y-91213963D01*
X88355103Y-91233322D01*
X88331949Y-91250494D01*
X88307223Y-91265314D01*
X88281163Y-91277640D01*
X88254021Y-91287351D01*
X88226058Y-91294356D01*
X88197543Y-91298586D01*
X88168750Y-91300000D01*
X87581250Y-91300000D01*
X87552457Y-91298586D01*
X87523942Y-91294356D01*
X87495979Y-91287351D01*
X87468837Y-91277640D01*
X87442777Y-91265314D01*
X87418051Y-91250494D01*
X87394897Y-91233322D01*
X87373537Y-91213963D01*
X87354178Y-91192603D01*
X87337006Y-91169449D01*
X87322186Y-91144723D01*
X87309860Y-91118663D01*
X87300149Y-91091521D01*
X87293144Y-91063558D01*
X87288914Y-91035043D01*
X87287500Y-91006250D01*
X87287500Y-89993750D01*
X87288914Y-89964957D01*
X87293144Y-89936442D01*
X87300149Y-89908479D01*
X87309860Y-89881337D01*
X87322186Y-89855277D01*
X87337006Y-89830551D01*
X87354178Y-89807397D01*
X87373537Y-89786037D01*
X87394897Y-89766678D01*
X87418051Y-89749506D01*
X87442777Y-89734686D01*
X87468837Y-89722360D01*
X87495979Y-89712649D01*
X87523942Y-89705644D01*
X87552457Y-89701414D01*
X87581250Y-89700000D01*
X88168750Y-89700000D01*
X88197543Y-89701414D01*
G37*
G36*
X86322543Y-89701414D02*
G01*
X86351058Y-89705644D01*
X86379021Y-89712649D01*
X86406163Y-89722360D01*
X86432223Y-89734686D01*
X86456949Y-89749506D01*
X86480103Y-89766678D01*
X86501463Y-89786037D01*
X86520822Y-89807397D01*
X86537994Y-89830551D01*
X86552814Y-89855277D01*
X86565140Y-89881337D01*
X86574851Y-89908479D01*
X86581856Y-89936442D01*
X86586086Y-89964957D01*
X86587500Y-89993750D01*
X86587500Y-91006250D01*
X86586086Y-91035043D01*
X86581856Y-91063558D01*
X86574851Y-91091521D01*
X86565140Y-91118663D01*
X86552814Y-91144723D01*
X86537994Y-91169449D01*
X86520822Y-91192603D01*
X86501463Y-91213963D01*
X86480103Y-91233322D01*
X86456949Y-91250494D01*
X86432223Y-91265314D01*
X86406163Y-91277640D01*
X86379021Y-91287351D01*
X86351058Y-91294356D01*
X86322543Y-91298586D01*
X86293750Y-91300000D01*
X85706250Y-91300000D01*
X85677457Y-91298586D01*
X85648942Y-91294356D01*
X85620979Y-91287351D01*
X85593837Y-91277640D01*
X85567777Y-91265314D01*
X85543051Y-91250494D01*
X85519897Y-91233322D01*
X85498537Y-91213963D01*
X85479178Y-91192603D01*
X85462006Y-91169449D01*
X85447186Y-91144723D01*
X85434860Y-91118663D01*
X85425149Y-91091521D01*
X85418144Y-91063558D01*
X85413914Y-91035043D01*
X85412500Y-91006250D01*
X85412500Y-89993750D01*
X85413914Y-89964957D01*
X85418144Y-89936442D01*
X85425149Y-89908479D01*
X85434860Y-89881337D01*
X85447186Y-89855277D01*
X85462006Y-89830551D01*
X85479178Y-89807397D01*
X85498537Y-89786037D01*
X85519897Y-89766678D01*
X85543051Y-89749506D01*
X85567777Y-89734686D01*
X85593837Y-89722360D01*
X85620979Y-89712649D01*
X85648942Y-89705644D01*
X85677457Y-89701414D01*
X85706250Y-89700000D01*
X86293750Y-89700000D01*
X86322543Y-89701414D01*
G37*
G36*
X81872543Y-89701414D02*
G01*
X81901058Y-89705644D01*
X81929021Y-89712649D01*
X81956163Y-89722360D01*
X81982223Y-89734686D01*
X82006949Y-89749506D01*
X82030103Y-89766678D01*
X82051463Y-89786037D01*
X82070822Y-89807397D01*
X82087994Y-89830551D01*
X82102814Y-89855277D01*
X82115140Y-89881337D01*
X82124851Y-89908479D01*
X82131856Y-89936442D01*
X82136086Y-89964957D01*
X82137500Y-89993750D01*
X82137500Y-91006250D01*
X82136086Y-91035043D01*
X82131856Y-91063558D01*
X82124851Y-91091521D01*
X82115140Y-91118663D01*
X82102814Y-91144723D01*
X82087994Y-91169449D01*
X82070822Y-91192603D01*
X82051463Y-91213963D01*
X82030103Y-91233322D01*
X82006949Y-91250494D01*
X81982223Y-91265314D01*
X81956163Y-91277640D01*
X81929021Y-91287351D01*
X81901058Y-91294356D01*
X81872543Y-91298586D01*
X81843750Y-91300000D01*
X81256250Y-91300000D01*
X81227457Y-91298586D01*
X81198942Y-91294356D01*
X81170979Y-91287351D01*
X81143837Y-91277640D01*
X81117777Y-91265314D01*
X81093051Y-91250494D01*
X81069897Y-91233322D01*
X81048537Y-91213963D01*
X81029178Y-91192603D01*
X81012006Y-91169449D01*
X80997186Y-91144723D01*
X80984860Y-91118663D01*
X80975149Y-91091521D01*
X80968144Y-91063558D01*
X80963914Y-91035043D01*
X80962500Y-91006250D01*
X80962500Y-89993750D01*
X80963914Y-89964957D01*
X80968144Y-89936442D01*
X80975149Y-89908479D01*
X80984860Y-89881337D01*
X80997186Y-89855277D01*
X81012006Y-89830551D01*
X81029178Y-89807397D01*
X81048537Y-89786037D01*
X81069897Y-89766678D01*
X81093051Y-89749506D01*
X81117777Y-89734686D01*
X81143837Y-89722360D01*
X81170979Y-89712649D01*
X81198942Y-89705644D01*
X81227457Y-89701414D01*
X81256250Y-89700000D01*
X81843750Y-89700000D01*
X81872543Y-89701414D01*
G37*
G36*
X83747543Y-89701414D02*
G01*
X83776058Y-89705644D01*
X83804021Y-89712649D01*
X83831163Y-89722360D01*
X83857223Y-89734686D01*
X83881949Y-89749506D01*
X83905103Y-89766678D01*
X83926463Y-89786037D01*
X83945822Y-89807397D01*
X83962994Y-89830551D01*
X83977814Y-89855277D01*
X83990140Y-89881337D01*
X83999851Y-89908479D01*
X84006856Y-89936442D01*
X84011086Y-89964957D01*
X84012500Y-89993750D01*
X84012500Y-91006250D01*
X84011086Y-91035043D01*
X84006856Y-91063558D01*
X83999851Y-91091521D01*
X83990140Y-91118663D01*
X83977814Y-91144723D01*
X83962994Y-91169449D01*
X83945822Y-91192603D01*
X83926463Y-91213963D01*
X83905103Y-91233322D01*
X83881949Y-91250494D01*
X83857223Y-91265314D01*
X83831163Y-91277640D01*
X83804021Y-91287351D01*
X83776058Y-91294356D01*
X83747543Y-91298586D01*
X83718750Y-91300000D01*
X83131250Y-91300000D01*
X83102457Y-91298586D01*
X83073942Y-91294356D01*
X83045979Y-91287351D01*
X83018837Y-91277640D01*
X82992777Y-91265314D01*
X82968051Y-91250494D01*
X82944897Y-91233322D01*
X82923537Y-91213963D01*
X82904178Y-91192603D01*
X82887006Y-91169449D01*
X82872186Y-91144723D01*
X82859860Y-91118663D01*
X82850149Y-91091521D01*
X82843144Y-91063558D01*
X82838914Y-91035043D01*
X82837500Y-91006250D01*
X82837500Y-89993750D01*
X82838914Y-89964957D01*
X82843144Y-89936442D01*
X82850149Y-89908479D01*
X82859860Y-89881337D01*
X82872186Y-89855277D01*
X82887006Y-89830551D01*
X82904178Y-89807397D01*
X82923537Y-89786037D01*
X82944897Y-89766678D01*
X82968051Y-89749506D01*
X82992777Y-89734686D01*
X83018837Y-89722360D01*
X83045979Y-89712649D01*
X83073942Y-89705644D01*
X83102457Y-89701414D01*
X83131250Y-89700000D01*
X83718750Y-89700000D01*
X83747543Y-89701414D01*
G37*
G36*
X83747543Y-91951414D02*
G01*
X83776058Y-91955644D01*
X83804021Y-91962649D01*
X83831163Y-91972360D01*
X83857223Y-91984686D01*
X83881949Y-91999506D01*
X83905103Y-92016678D01*
X83926463Y-92036037D01*
X83945822Y-92057397D01*
X83962994Y-92080551D01*
X83977814Y-92105277D01*
X83990140Y-92131337D01*
X83999851Y-92158479D01*
X84006856Y-92186442D01*
X84011086Y-92214957D01*
X84012500Y-92243750D01*
X84012500Y-93256250D01*
X84011086Y-93285043D01*
X84006856Y-93313558D01*
X83999851Y-93341521D01*
X83990140Y-93368663D01*
X83977814Y-93394723D01*
X83962994Y-93419449D01*
X83945822Y-93442603D01*
X83926463Y-93463963D01*
X83905103Y-93483322D01*
X83881949Y-93500494D01*
X83857223Y-93515314D01*
X83831163Y-93527640D01*
X83804021Y-93537351D01*
X83776058Y-93544356D01*
X83747543Y-93548586D01*
X83718750Y-93550000D01*
X83131250Y-93550000D01*
X83102457Y-93548586D01*
X83073942Y-93544356D01*
X83045979Y-93537351D01*
X83018837Y-93527640D01*
X82992777Y-93515314D01*
X82968051Y-93500494D01*
X82944897Y-93483322D01*
X82923537Y-93463963D01*
X82904178Y-93442603D01*
X82887006Y-93419449D01*
X82872186Y-93394723D01*
X82859860Y-93368663D01*
X82850149Y-93341521D01*
X82843144Y-93313558D01*
X82838914Y-93285043D01*
X82837500Y-93256250D01*
X82837500Y-92243750D01*
X82838914Y-92214957D01*
X82843144Y-92186442D01*
X82850149Y-92158479D01*
X82859860Y-92131337D01*
X82872186Y-92105277D01*
X82887006Y-92080551D01*
X82904178Y-92057397D01*
X82923537Y-92036037D01*
X82944897Y-92016678D01*
X82968051Y-91999506D01*
X82992777Y-91984686D01*
X83018837Y-91972360D01*
X83045979Y-91962649D01*
X83073942Y-91955644D01*
X83102457Y-91951414D01*
X83131250Y-91950000D01*
X83718750Y-91950000D01*
X83747543Y-91951414D01*
G37*
G36*
X81872543Y-91951414D02*
G01*
X81901058Y-91955644D01*
X81929021Y-91962649D01*
X81956163Y-91972360D01*
X81982223Y-91984686D01*
X82006949Y-91999506D01*
X82030103Y-92016678D01*
X82051463Y-92036037D01*
X82070822Y-92057397D01*
X82087994Y-92080551D01*
X82102814Y-92105277D01*
X82115140Y-92131337D01*
X82124851Y-92158479D01*
X82131856Y-92186442D01*
X82136086Y-92214957D01*
X82137500Y-92243750D01*
X82137500Y-93256250D01*
X82136086Y-93285043D01*
X82131856Y-93313558D01*
X82124851Y-93341521D01*
X82115140Y-93368663D01*
X82102814Y-93394723D01*
X82087994Y-93419449D01*
X82070822Y-93442603D01*
X82051463Y-93463963D01*
X82030103Y-93483322D01*
X82006949Y-93500494D01*
X81982223Y-93515314D01*
X81956163Y-93527640D01*
X81929021Y-93537351D01*
X81901058Y-93544356D01*
X81872543Y-93548586D01*
X81843750Y-93550000D01*
X81256250Y-93550000D01*
X81227457Y-93548586D01*
X81198942Y-93544356D01*
X81170979Y-93537351D01*
X81143837Y-93527640D01*
X81117777Y-93515314D01*
X81093051Y-93500494D01*
X81069897Y-93483322D01*
X81048537Y-93463963D01*
X81029178Y-93442603D01*
X81012006Y-93419449D01*
X80997186Y-93394723D01*
X80984860Y-93368663D01*
X80975149Y-93341521D01*
X80968144Y-93313558D01*
X80963914Y-93285043D01*
X80962500Y-93256250D01*
X80962500Y-92243750D01*
X80963914Y-92214957D01*
X80968144Y-92186442D01*
X80975149Y-92158479D01*
X80984860Y-92131337D01*
X80997186Y-92105277D01*
X81012006Y-92080551D01*
X81029178Y-92057397D01*
X81048537Y-92036037D01*
X81069897Y-92016678D01*
X81093051Y-91999506D01*
X81117777Y-91984686D01*
X81143837Y-91972360D01*
X81170979Y-91962649D01*
X81198942Y-91955644D01*
X81227457Y-91951414D01*
X81256250Y-91950000D01*
X81843750Y-91950000D01*
X81872543Y-91951414D01*
G37*
G36*
X92650000Y-80207934D02*
G01*
X93850000Y-81047934D01*
X93850000Y-81952066D01*
X92650000Y-82792066D01*
X92650000Y-80207934D01*
G37*
D24*
X91840300Y-81500000D03*
D25*
X94653800Y-80000000D03*
D26*
X94507300Y-81500000D03*
D25*
X94653800Y-83000000D03*
D11*
G36*
X91031800Y-82792992D02*
G01*
X89981800Y-82051816D01*
X89981800Y-80948184D01*
X91031800Y-80207008D01*
X91031800Y-82792992D01*
G37*
D27*
X107550000Y-69710000D03*
D28*
X107550000Y-72250000D03*
D11*
G36*
X98964603Y-75125963D02*
G01*
X98984018Y-75128843D01*
X99003057Y-75133612D01*
X99021537Y-75140224D01*
X99039279Y-75148616D01*
X99056114Y-75158706D01*
X99071879Y-75170398D01*
X99086421Y-75183579D01*
X99099602Y-75198121D01*
X99111294Y-75213886D01*
X99121384Y-75230721D01*
X99129776Y-75248463D01*
X99136388Y-75266943D01*
X99141157Y-75285982D01*
X99144037Y-75305397D01*
X99145000Y-75325000D01*
X99145000Y-77175000D01*
X99144037Y-77194603D01*
X99141157Y-77214018D01*
X99136388Y-77233057D01*
X99129776Y-77251537D01*
X99121384Y-77269279D01*
X99111294Y-77286114D01*
X99099602Y-77301879D01*
X99086421Y-77316421D01*
X99071879Y-77329602D01*
X99056114Y-77341294D01*
X99039279Y-77351384D01*
X99021537Y-77359776D01*
X99003057Y-77366388D01*
X98984018Y-77371157D01*
X98964603Y-77374037D01*
X98945000Y-77375000D01*
X98545000Y-77375000D01*
X98525397Y-77374037D01*
X98505982Y-77371157D01*
X98486943Y-77366388D01*
X98468463Y-77359776D01*
X98450721Y-77351384D01*
X98433886Y-77341294D01*
X98418121Y-77329602D01*
X98403579Y-77316421D01*
X98390398Y-77301879D01*
X98378706Y-77286114D01*
X98368616Y-77269279D01*
X98360224Y-77251537D01*
X98353612Y-77233057D01*
X98348843Y-77214018D01*
X98345963Y-77194603D01*
X98345000Y-77175000D01*
X98345000Y-75325000D01*
X98345963Y-75305397D01*
X98348843Y-75285982D01*
X98353612Y-75266943D01*
X98360224Y-75248463D01*
X98368616Y-75230721D01*
X98378706Y-75213886D01*
X98390398Y-75198121D01*
X98403579Y-75183579D01*
X98418121Y-75170398D01*
X98433886Y-75158706D01*
X98450721Y-75148616D01*
X98468463Y-75140224D01*
X98486943Y-75133612D01*
X98505982Y-75128843D01*
X98525397Y-75125963D01*
X98545000Y-75125000D01*
X98945000Y-75125000D01*
X98964603Y-75125963D01*
G37*
G36*
X100234603Y-75125963D02*
G01*
X100254018Y-75128843D01*
X100273057Y-75133612D01*
X100291537Y-75140224D01*
X100309279Y-75148616D01*
X100326114Y-75158706D01*
X100341879Y-75170398D01*
X100356421Y-75183579D01*
X100369602Y-75198121D01*
X100381294Y-75213886D01*
X100391384Y-75230721D01*
X100399776Y-75248463D01*
X100406388Y-75266943D01*
X100411157Y-75285982D01*
X100414037Y-75305397D01*
X100415000Y-75325000D01*
X100415000Y-77175000D01*
X100414037Y-77194603D01*
X100411157Y-77214018D01*
X100406388Y-77233057D01*
X100399776Y-77251537D01*
X100391384Y-77269279D01*
X100381294Y-77286114D01*
X100369602Y-77301879D01*
X100356421Y-77316421D01*
X100341879Y-77329602D01*
X100326114Y-77341294D01*
X100309279Y-77351384D01*
X100291537Y-77359776D01*
X100273057Y-77366388D01*
X100254018Y-77371157D01*
X100234603Y-77374037D01*
X100215000Y-77375000D01*
X99815000Y-77375000D01*
X99795397Y-77374037D01*
X99775982Y-77371157D01*
X99756943Y-77366388D01*
X99738463Y-77359776D01*
X99720721Y-77351384D01*
X99703886Y-77341294D01*
X99688121Y-77329602D01*
X99673579Y-77316421D01*
X99660398Y-77301879D01*
X99648706Y-77286114D01*
X99638616Y-77269279D01*
X99630224Y-77251537D01*
X99623612Y-77233057D01*
X99618843Y-77214018D01*
X99615963Y-77194603D01*
X99615000Y-77175000D01*
X99615000Y-75325000D01*
X99615963Y-75305397D01*
X99618843Y-75285982D01*
X99623612Y-75266943D01*
X99630224Y-75248463D01*
X99638616Y-75230721D01*
X99648706Y-75213886D01*
X99660398Y-75198121D01*
X99673579Y-75183579D01*
X99688121Y-75170398D01*
X99703886Y-75158706D01*
X99720721Y-75148616D01*
X99738463Y-75140224D01*
X99756943Y-75133612D01*
X99775982Y-75128843D01*
X99795397Y-75125963D01*
X99815000Y-75125000D01*
X100215000Y-75125000D01*
X100234603Y-75125963D01*
G37*
G36*
X101504603Y-75125963D02*
G01*
X101524018Y-75128843D01*
X101543057Y-75133612D01*
X101561537Y-75140224D01*
X101579279Y-75148616D01*
X101596114Y-75158706D01*
X101611879Y-75170398D01*
X101626421Y-75183579D01*
X101639602Y-75198121D01*
X101651294Y-75213886D01*
X101661384Y-75230721D01*
X101669776Y-75248463D01*
X101676388Y-75266943D01*
X101681157Y-75285982D01*
X101684037Y-75305397D01*
X101685000Y-75325000D01*
X101685000Y-77175000D01*
X101684037Y-77194603D01*
X101681157Y-77214018D01*
X101676388Y-77233057D01*
X101669776Y-77251537D01*
X101661384Y-77269279D01*
X101651294Y-77286114D01*
X101639602Y-77301879D01*
X101626421Y-77316421D01*
X101611879Y-77329602D01*
X101596114Y-77341294D01*
X101579279Y-77351384D01*
X101561537Y-77359776D01*
X101543057Y-77366388D01*
X101524018Y-77371157D01*
X101504603Y-77374037D01*
X101485000Y-77375000D01*
X101085000Y-77375000D01*
X101065397Y-77374037D01*
X101045982Y-77371157D01*
X101026943Y-77366388D01*
X101008463Y-77359776D01*
X100990721Y-77351384D01*
X100973886Y-77341294D01*
X100958121Y-77329602D01*
X100943579Y-77316421D01*
X100930398Y-77301879D01*
X100918706Y-77286114D01*
X100908616Y-77269279D01*
X100900224Y-77251537D01*
X100893612Y-77233057D01*
X100888843Y-77214018D01*
X100885963Y-77194603D01*
X100885000Y-77175000D01*
X100885000Y-75325000D01*
X100885963Y-75305397D01*
X100888843Y-75285982D01*
X100893612Y-75266943D01*
X100900224Y-75248463D01*
X100908616Y-75230721D01*
X100918706Y-75213886D01*
X100930398Y-75198121D01*
X100943579Y-75183579D01*
X100958121Y-75170398D01*
X100973886Y-75158706D01*
X100990721Y-75148616D01*
X101008463Y-75140224D01*
X101026943Y-75133612D01*
X101045982Y-75128843D01*
X101065397Y-75125963D01*
X101085000Y-75125000D01*
X101485000Y-75125000D01*
X101504603Y-75125963D01*
G37*
G36*
X102774603Y-75125963D02*
G01*
X102794018Y-75128843D01*
X102813057Y-75133612D01*
X102831537Y-75140224D01*
X102849279Y-75148616D01*
X102866114Y-75158706D01*
X102881879Y-75170398D01*
X102896421Y-75183579D01*
X102909602Y-75198121D01*
X102921294Y-75213886D01*
X102931384Y-75230721D01*
X102939776Y-75248463D01*
X102946388Y-75266943D01*
X102951157Y-75285982D01*
X102954037Y-75305397D01*
X102955000Y-75325000D01*
X102955000Y-77175000D01*
X102954037Y-77194603D01*
X102951157Y-77214018D01*
X102946388Y-77233057D01*
X102939776Y-77251537D01*
X102931384Y-77269279D01*
X102921294Y-77286114D01*
X102909602Y-77301879D01*
X102896421Y-77316421D01*
X102881879Y-77329602D01*
X102866114Y-77341294D01*
X102849279Y-77351384D01*
X102831537Y-77359776D01*
X102813057Y-77366388D01*
X102794018Y-77371157D01*
X102774603Y-77374037D01*
X102755000Y-77375000D01*
X102355000Y-77375000D01*
X102335397Y-77374037D01*
X102315982Y-77371157D01*
X102296943Y-77366388D01*
X102278463Y-77359776D01*
X102260721Y-77351384D01*
X102243886Y-77341294D01*
X102228121Y-77329602D01*
X102213579Y-77316421D01*
X102200398Y-77301879D01*
X102188706Y-77286114D01*
X102178616Y-77269279D01*
X102170224Y-77251537D01*
X102163612Y-77233057D01*
X102158843Y-77214018D01*
X102155963Y-77194603D01*
X102155000Y-77175000D01*
X102155000Y-75325000D01*
X102155963Y-75305397D01*
X102158843Y-75285982D01*
X102163612Y-75266943D01*
X102170224Y-75248463D01*
X102178616Y-75230721D01*
X102188706Y-75213886D01*
X102200398Y-75198121D01*
X102213579Y-75183579D01*
X102228121Y-75170398D01*
X102243886Y-75158706D01*
X102260721Y-75148616D01*
X102278463Y-75140224D01*
X102296943Y-75133612D01*
X102315982Y-75128843D01*
X102335397Y-75125963D01*
X102355000Y-75125000D01*
X102755000Y-75125000D01*
X102774603Y-75125963D01*
G37*
G36*
X104044603Y-75125963D02*
G01*
X104064018Y-75128843D01*
X104083057Y-75133612D01*
X104101537Y-75140224D01*
X104119279Y-75148616D01*
X104136114Y-75158706D01*
X104151879Y-75170398D01*
X104166421Y-75183579D01*
X104179602Y-75198121D01*
X104191294Y-75213886D01*
X104201384Y-75230721D01*
X104209776Y-75248463D01*
X104216388Y-75266943D01*
X104221157Y-75285982D01*
X104224037Y-75305397D01*
X104225000Y-75325000D01*
X104225000Y-77175000D01*
X104224037Y-77194603D01*
X104221157Y-77214018D01*
X104216388Y-77233057D01*
X104209776Y-77251537D01*
X104201384Y-77269279D01*
X104191294Y-77286114D01*
X104179602Y-77301879D01*
X104166421Y-77316421D01*
X104151879Y-77329602D01*
X104136114Y-77341294D01*
X104119279Y-77351384D01*
X104101537Y-77359776D01*
X104083057Y-77366388D01*
X104064018Y-77371157D01*
X104044603Y-77374037D01*
X104025000Y-77375000D01*
X103625000Y-77375000D01*
X103605397Y-77374037D01*
X103585982Y-77371157D01*
X103566943Y-77366388D01*
X103548463Y-77359776D01*
X103530721Y-77351384D01*
X103513886Y-77341294D01*
X103498121Y-77329602D01*
X103483579Y-77316421D01*
X103470398Y-77301879D01*
X103458706Y-77286114D01*
X103448616Y-77269279D01*
X103440224Y-77251537D01*
X103433612Y-77233057D01*
X103428843Y-77214018D01*
X103425963Y-77194603D01*
X103425000Y-77175000D01*
X103425000Y-75325000D01*
X103425963Y-75305397D01*
X103428843Y-75285982D01*
X103433612Y-75266943D01*
X103440224Y-75248463D01*
X103448616Y-75230721D01*
X103458706Y-75213886D01*
X103470398Y-75198121D01*
X103483579Y-75183579D01*
X103498121Y-75170398D01*
X103513886Y-75158706D01*
X103530721Y-75148616D01*
X103548463Y-75140224D01*
X103566943Y-75133612D01*
X103585982Y-75128843D01*
X103605397Y-75125963D01*
X103625000Y-75125000D01*
X104025000Y-75125000D01*
X104044603Y-75125963D01*
G37*
G36*
X105314603Y-75125963D02*
G01*
X105334018Y-75128843D01*
X105353057Y-75133612D01*
X105371537Y-75140224D01*
X105389279Y-75148616D01*
X105406114Y-75158706D01*
X105421879Y-75170398D01*
X105436421Y-75183579D01*
X105449602Y-75198121D01*
X105461294Y-75213886D01*
X105471384Y-75230721D01*
X105479776Y-75248463D01*
X105486388Y-75266943D01*
X105491157Y-75285982D01*
X105494037Y-75305397D01*
X105495000Y-75325000D01*
X105495000Y-77175000D01*
X105494037Y-77194603D01*
X105491157Y-77214018D01*
X105486388Y-77233057D01*
X105479776Y-77251537D01*
X105471384Y-77269279D01*
X105461294Y-77286114D01*
X105449602Y-77301879D01*
X105436421Y-77316421D01*
X105421879Y-77329602D01*
X105406114Y-77341294D01*
X105389279Y-77351384D01*
X105371537Y-77359776D01*
X105353057Y-77366388D01*
X105334018Y-77371157D01*
X105314603Y-77374037D01*
X105295000Y-77375000D01*
X104895000Y-77375000D01*
X104875397Y-77374037D01*
X104855982Y-77371157D01*
X104836943Y-77366388D01*
X104818463Y-77359776D01*
X104800721Y-77351384D01*
X104783886Y-77341294D01*
X104768121Y-77329602D01*
X104753579Y-77316421D01*
X104740398Y-77301879D01*
X104728706Y-77286114D01*
X104718616Y-77269279D01*
X104710224Y-77251537D01*
X104703612Y-77233057D01*
X104698843Y-77214018D01*
X104695963Y-77194603D01*
X104695000Y-77175000D01*
X104695000Y-75325000D01*
X104695963Y-75305397D01*
X104698843Y-75285982D01*
X104703612Y-75266943D01*
X104710224Y-75248463D01*
X104718616Y-75230721D01*
X104728706Y-75213886D01*
X104740398Y-75198121D01*
X104753579Y-75183579D01*
X104768121Y-75170398D01*
X104783886Y-75158706D01*
X104800721Y-75148616D01*
X104818463Y-75140224D01*
X104836943Y-75133612D01*
X104855982Y-75128843D01*
X104875397Y-75125963D01*
X104895000Y-75125000D01*
X105295000Y-75125000D01*
X105314603Y-75125963D01*
G37*
G36*
X106584603Y-75125963D02*
G01*
X106604018Y-75128843D01*
X106623057Y-75133612D01*
X106641537Y-75140224D01*
X106659279Y-75148616D01*
X106676114Y-75158706D01*
X106691879Y-75170398D01*
X106706421Y-75183579D01*
X106719602Y-75198121D01*
X106731294Y-75213886D01*
X106741384Y-75230721D01*
X106749776Y-75248463D01*
X106756388Y-75266943D01*
X106761157Y-75285982D01*
X106764037Y-75305397D01*
X106765000Y-75325000D01*
X106765000Y-77175000D01*
X106764037Y-77194603D01*
X106761157Y-77214018D01*
X106756388Y-77233057D01*
X106749776Y-77251537D01*
X106741384Y-77269279D01*
X106731294Y-77286114D01*
X106719602Y-77301879D01*
X106706421Y-77316421D01*
X106691879Y-77329602D01*
X106676114Y-77341294D01*
X106659279Y-77351384D01*
X106641537Y-77359776D01*
X106623057Y-77366388D01*
X106604018Y-77371157D01*
X106584603Y-77374037D01*
X106565000Y-77375000D01*
X106165000Y-77375000D01*
X106145397Y-77374037D01*
X106125982Y-77371157D01*
X106106943Y-77366388D01*
X106088463Y-77359776D01*
X106070721Y-77351384D01*
X106053886Y-77341294D01*
X106038121Y-77329602D01*
X106023579Y-77316421D01*
X106010398Y-77301879D01*
X105998706Y-77286114D01*
X105988616Y-77269279D01*
X105980224Y-77251537D01*
X105973612Y-77233057D01*
X105968843Y-77214018D01*
X105965963Y-77194603D01*
X105965000Y-77175000D01*
X105965000Y-75325000D01*
X105965963Y-75305397D01*
X105968843Y-75285982D01*
X105973612Y-75266943D01*
X105980224Y-75248463D01*
X105988616Y-75230721D01*
X105998706Y-75213886D01*
X106010398Y-75198121D01*
X106023579Y-75183579D01*
X106038121Y-75170398D01*
X106053886Y-75158706D01*
X106070721Y-75148616D01*
X106088463Y-75140224D01*
X106106943Y-75133612D01*
X106125982Y-75128843D01*
X106145397Y-75125963D01*
X106165000Y-75125000D01*
X106565000Y-75125000D01*
X106584603Y-75125963D01*
G37*
G36*
X107854603Y-75125963D02*
G01*
X107874018Y-75128843D01*
X107893057Y-75133612D01*
X107911537Y-75140224D01*
X107929279Y-75148616D01*
X107946114Y-75158706D01*
X107961879Y-75170398D01*
X107976421Y-75183579D01*
X107989602Y-75198121D01*
X108001294Y-75213886D01*
X108011384Y-75230721D01*
X108019776Y-75248463D01*
X108026388Y-75266943D01*
X108031157Y-75285982D01*
X108034037Y-75305397D01*
X108035000Y-75325000D01*
X108035000Y-77175000D01*
X108034037Y-77194603D01*
X108031157Y-77214018D01*
X108026388Y-77233057D01*
X108019776Y-77251537D01*
X108011384Y-77269279D01*
X108001294Y-77286114D01*
X107989602Y-77301879D01*
X107976421Y-77316421D01*
X107961879Y-77329602D01*
X107946114Y-77341294D01*
X107929279Y-77351384D01*
X107911537Y-77359776D01*
X107893057Y-77366388D01*
X107874018Y-77371157D01*
X107854603Y-77374037D01*
X107835000Y-77375000D01*
X107435000Y-77375000D01*
X107415397Y-77374037D01*
X107395982Y-77371157D01*
X107376943Y-77366388D01*
X107358463Y-77359776D01*
X107340721Y-77351384D01*
X107323886Y-77341294D01*
X107308121Y-77329602D01*
X107293579Y-77316421D01*
X107280398Y-77301879D01*
X107268706Y-77286114D01*
X107258616Y-77269279D01*
X107250224Y-77251537D01*
X107243612Y-77233057D01*
X107238843Y-77214018D01*
X107235963Y-77194603D01*
X107235000Y-77175000D01*
X107235000Y-75325000D01*
X107235963Y-75305397D01*
X107238843Y-75285982D01*
X107243612Y-75266943D01*
X107250224Y-75248463D01*
X107258616Y-75230721D01*
X107268706Y-75213886D01*
X107280398Y-75198121D01*
X107293579Y-75183579D01*
X107308121Y-75170398D01*
X107323886Y-75158706D01*
X107340721Y-75148616D01*
X107358463Y-75140224D01*
X107376943Y-75133612D01*
X107395982Y-75128843D01*
X107415397Y-75125963D01*
X107435000Y-75125000D01*
X107835000Y-75125000D01*
X107854603Y-75125963D01*
G37*
G36*
X109124603Y-75125963D02*
G01*
X109144018Y-75128843D01*
X109163057Y-75133612D01*
X109181537Y-75140224D01*
X109199279Y-75148616D01*
X109216114Y-75158706D01*
X109231879Y-75170398D01*
X109246421Y-75183579D01*
X109259602Y-75198121D01*
X109271294Y-75213886D01*
X109281384Y-75230721D01*
X109289776Y-75248463D01*
X109296388Y-75266943D01*
X109301157Y-75285982D01*
X109304037Y-75305397D01*
X109305000Y-75325000D01*
X109305000Y-77175000D01*
X109304037Y-77194603D01*
X109301157Y-77214018D01*
X109296388Y-77233057D01*
X109289776Y-77251537D01*
X109281384Y-77269279D01*
X109271294Y-77286114D01*
X109259602Y-77301879D01*
X109246421Y-77316421D01*
X109231879Y-77329602D01*
X109216114Y-77341294D01*
X109199279Y-77351384D01*
X109181537Y-77359776D01*
X109163057Y-77366388D01*
X109144018Y-77371157D01*
X109124603Y-77374037D01*
X109105000Y-77375000D01*
X108705000Y-77375000D01*
X108685397Y-77374037D01*
X108665982Y-77371157D01*
X108646943Y-77366388D01*
X108628463Y-77359776D01*
X108610721Y-77351384D01*
X108593886Y-77341294D01*
X108578121Y-77329602D01*
X108563579Y-77316421D01*
X108550398Y-77301879D01*
X108538706Y-77286114D01*
X108528616Y-77269279D01*
X108520224Y-77251537D01*
X108513612Y-77233057D01*
X108508843Y-77214018D01*
X108505963Y-77194603D01*
X108505000Y-77175000D01*
X108505000Y-75325000D01*
X108505963Y-75305397D01*
X108508843Y-75285982D01*
X108513612Y-75266943D01*
X108520224Y-75248463D01*
X108528616Y-75230721D01*
X108538706Y-75213886D01*
X108550398Y-75198121D01*
X108563579Y-75183579D01*
X108578121Y-75170398D01*
X108593886Y-75158706D01*
X108610721Y-75148616D01*
X108628463Y-75140224D01*
X108646943Y-75133612D01*
X108665982Y-75128843D01*
X108685397Y-75125963D01*
X108705000Y-75125000D01*
X109105000Y-75125000D01*
X109124603Y-75125963D01*
G37*
G36*
X110394603Y-75125963D02*
G01*
X110414018Y-75128843D01*
X110433057Y-75133612D01*
X110451537Y-75140224D01*
X110469279Y-75148616D01*
X110486114Y-75158706D01*
X110501879Y-75170398D01*
X110516421Y-75183579D01*
X110529602Y-75198121D01*
X110541294Y-75213886D01*
X110551384Y-75230721D01*
X110559776Y-75248463D01*
X110566388Y-75266943D01*
X110571157Y-75285982D01*
X110574037Y-75305397D01*
X110575000Y-75325000D01*
X110575000Y-77175000D01*
X110574037Y-77194603D01*
X110571157Y-77214018D01*
X110566388Y-77233057D01*
X110559776Y-77251537D01*
X110551384Y-77269279D01*
X110541294Y-77286114D01*
X110529602Y-77301879D01*
X110516421Y-77316421D01*
X110501879Y-77329602D01*
X110486114Y-77341294D01*
X110469279Y-77351384D01*
X110451537Y-77359776D01*
X110433057Y-77366388D01*
X110414018Y-77371157D01*
X110394603Y-77374037D01*
X110375000Y-77375000D01*
X109975000Y-77375000D01*
X109955397Y-77374037D01*
X109935982Y-77371157D01*
X109916943Y-77366388D01*
X109898463Y-77359776D01*
X109880721Y-77351384D01*
X109863886Y-77341294D01*
X109848121Y-77329602D01*
X109833579Y-77316421D01*
X109820398Y-77301879D01*
X109808706Y-77286114D01*
X109798616Y-77269279D01*
X109790224Y-77251537D01*
X109783612Y-77233057D01*
X109778843Y-77214018D01*
X109775963Y-77194603D01*
X109775000Y-77175000D01*
X109775000Y-75325000D01*
X109775963Y-75305397D01*
X109778843Y-75285982D01*
X109783612Y-75266943D01*
X109790224Y-75248463D01*
X109798616Y-75230721D01*
X109808706Y-75213886D01*
X109820398Y-75198121D01*
X109833579Y-75183579D01*
X109848121Y-75170398D01*
X109863886Y-75158706D01*
X109880721Y-75148616D01*
X109898463Y-75140224D01*
X109916943Y-75133612D01*
X109935982Y-75128843D01*
X109955397Y-75125963D01*
X109975000Y-75125000D01*
X110375000Y-75125000D01*
X110394603Y-75125963D01*
G37*
G36*
X111664603Y-75125963D02*
G01*
X111684018Y-75128843D01*
X111703057Y-75133612D01*
X111721537Y-75140224D01*
X111739279Y-75148616D01*
X111756114Y-75158706D01*
X111771879Y-75170398D01*
X111786421Y-75183579D01*
X111799602Y-75198121D01*
X111811294Y-75213886D01*
X111821384Y-75230721D01*
X111829776Y-75248463D01*
X111836388Y-75266943D01*
X111841157Y-75285982D01*
X111844037Y-75305397D01*
X111845000Y-75325000D01*
X111845000Y-77175000D01*
X111844037Y-77194603D01*
X111841157Y-77214018D01*
X111836388Y-77233057D01*
X111829776Y-77251537D01*
X111821384Y-77269279D01*
X111811294Y-77286114D01*
X111799602Y-77301879D01*
X111786421Y-77316421D01*
X111771879Y-77329602D01*
X111756114Y-77341294D01*
X111739279Y-77351384D01*
X111721537Y-77359776D01*
X111703057Y-77366388D01*
X111684018Y-77371157D01*
X111664603Y-77374037D01*
X111645000Y-77375000D01*
X111245000Y-77375000D01*
X111225397Y-77374037D01*
X111205982Y-77371157D01*
X111186943Y-77366388D01*
X111168463Y-77359776D01*
X111150721Y-77351384D01*
X111133886Y-77341294D01*
X111118121Y-77329602D01*
X111103579Y-77316421D01*
X111090398Y-77301879D01*
X111078706Y-77286114D01*
X111068616Y-77269279D01*
X111060224Y-77251537D01*
X111053612Y-77233057D01*
X111048843Y-77214018D01*
X111045963Y-77194603D01*
X111045000Y-77175000D01*
X111045000Y-75325000D01*
X111045963Y-75305397D01*
X111048843Y-75285982D01*
X111053612Y-75266943D01*
X111060224Y-75248463D01*
X111068616Y-75230721D01*
X111078706Y-75213886D01*
X111090398Y-75198121D01*
X111103579Y-75183579D01*
X111118121Y-75170398D01*
X111133886Y-75158706D01*
X111150721Y-75148616D01*
X111168463Y-75140224D01*
X111186943Y-75133612D01*
X111205982Y-75128843D01*
X111225397Y-75125963D01*
X111245000Y-75125000D01*
X111645000Y-75125000D01*
X111664603Y-75125963D01*
G37*
G36*
X112934603Y-75125963D02*
G01*
X112954018Y-75128843D01*
X112973057Y-75133612D01*
X112991537Y-75140224D01*
X113009279Y-75148616D01*
X113026114Y-75158706D01*
X113041879Y-75170398D01*
X113056421Y-75183579D01*
X113069602Y-75198121D01*
X113081294Y-75213886D01*
X113091384Y-75230721D01*
X113099776Y-75248463D01*
X113106388Y-75266943D01*
X113111157Y-75285982D01*
X113114037Y-75305397D01*
X113115000Y-75325000D01*
X113115000Y-77175000D01*
X113114037Y-77194603D01*
X113111157Y-77214018D01*
X113106388Y-77233057D01*
X113099776Y-77251537D01*
X113091384Y-77269279D01*
X113081294Y-77286114D01*
X113069602Y-77301879D01*
X113056421Y-77316421D01*
X113041879Y-77329602D01*
X113026114Y-77341294D01*
X113009279Y-77351384D01*
X112991537Y-77359776D01*
X112973057Y-77366388D01*
X112954018Y-77371157D01*
X112934603Y-77374037D01*
X112915000Y-77375000D01*
X112515000Y-77375000D01*
X112495397Y-77374037D01*
X112475982Y-77371157D01*
X112456943Y-77366388D01*
X112438463Y-77359776D01*
X112420721Y-77351384D01*
X112403886Y-77341294D01*
X112388121Y-77329602D01*
X112373579Y-77316421D01*
X112360398Y-77301879D01*
X112348706Y-77286114D01*
X112338616Y-77269279D01*
X112330224Y-77251537D01*
X112323612Y-77233057D01*
X112318843Y-77214018D01*
X112315963Y-77194603D01*
X112315000Y-77175000D01*
X112315000Y-75325000D01*
X112315963Y-75305397D01*
X112318843Y-75285982D01*
X112323612Y-75266943D01*
X112330224Y-75248463D01*
X112338616Y-75230721D01*
X112348706Y-75213886D01*
X112360398Y-75198121D01*
X112373579Y-75183579D01*
X112388121Y-75170398D01*
X112403886Y-75158706D01*
X112420721Y-75148616D01*
X112438463Y-75140224D01*
X112456943Y-75133612D01*
X112475982Y-75128843D01*
X112495397Y-75125963D01*
X112515000Y-75125000D01*
X112915000Y-75125000D01*
X112934603Y-75125963D01*
G37*
G36*
X114204603Y-75125963D02*
G01*
X114224018Y-75128843D01*
X114243057Y-75133612D01*
X114261537Y-75140224D01*
X114279279Y-75148616D01*
X114296114Y-75158706D01*
X114311879Y-75170398D01*
X114326421Y-75183579D01*
X114339602Y-75198121D01*
X114351294Y-75213886D01*
X114361384Y-75230721D01*
X114369776Y-75248463D01*
X114376388Y-75266943D01*
X114381157Y-75285982D01*
X114384037Y-75305397D01*
X114385000Y-75325000D01*
X114385000Y-77175000D01*
X114384037Y-77194603D01*
X114381157Y-77214018D01*
X114376388Y-77233057D01*
X114369776Y-77251537D01*
X114361384Y-77269279D01*
X114351294Y-77286114D01*
X114339602Y-77301879D01*
X114326421Y-77316421D01*
X114311879Y-77329602D01*
X114296114Y-77341294D01*
X114279279Y-77351384D01*
X114261537Y-77359776D01*
X114243057Y-77366388D01*
X114224018Y-77371157D01*
X114204603Y-77374037D01*
X114185000Y-77375000D01*
X113785000Y-77375000D01*
X113765397Y-77374037D01*
X113745982Y-77371157D01*
X113726943Y-77366388D01*
X113708463Y-77359776D01*
X113690721Y-77351384D01*
X113673886Y-77341294D01*
X113658121Y-77329602D01*
X113643579Y-77316421D01*
X113630398Y-77301879D01*
X113618706Y-77286114D01*
X113608616Y-77269279D01*
X113600224Y-77251537D01*
X113593612Y-77233057D01*
X113588843Y-77214018D01*
X113585963Y-77194603D01*
X113585000Y-77175000D01*
X113585000Y-75325000D01*
X113585963Y-75305397D01*
X113588843Y-75285982D01*
X113593612Y-75266943D01*
X113600224Y-75248463D01*
X113608616Y-75230721D01*
X113618706Y-75213886D01*
X113630398Y-75198121D01*
X113643579Y-75183579D01*
X113658121Y-75170398D01*
X113673886Y-75158706D01*
X113690721Y-75148616D01*
X113708463Y-75140224D01*
X113726943Y-75133612D01*
X113745982Y-75128843D01*
X113765397Y-75125963D01*
X113785000Y-75125000D01*
X114185000Y-75125000D01*
X114204603Y-75125963D01*
G37*
G36*
X115474603Y-75125963D02*
G01*
X115494018Y-75128843D01*
X115513057Y-75133612D01*
X115531537Y-75140224D01*
X115549279Y-75148616D01*
X115566114Y-75158706D01*
X115581879Y-75170398D01*
X115596421Y-75183579D01*
X115609602Y-75198121D01*
X115621294Y-75213886D01*
X115631384Y-75230721D01*
X115639776Y-75248463D01*
X115646388Y-75266943D01*
X115651157Y-75285982D01*
X115654037Y-75305397D01*
X115655000Y-75325000D01*
X115655000Y-77175000D01*
X115654037Y-77194603D01*
X115651157Y-77214018D01*
X115646388Y-77233057D01*
X115639776Y-77251537D01*
X115631384Y-77269279D01*
X115621294Y-77286114D01*
X115609602Y-77301879D01*
X115596421Y-77316421D01*
X115581879Y-77329602D01*
X115566114Y-77341294D01*
X115549279Y-77351384D01*
X115531537Y-77359776D01*
X115513057Y-77366388D01*
X115494018Y-77371157D01*
X115474603Y-77374037D01*
X115455000Y-77375000D01*
X115055000Y-77375000D01*
X115035397Y-77374037D01*
X115015982Y-77371157D01*
X114996943Y-77366388D01*
X114978463Y-77359776D01*
X114960721Y-77351384D01*
X114943886Y-77341294D01*
X114928121Y-77329602D01*
X114913579Y-77316421D01*
X114900398Y-77301879D01*
X114888706Y-77286114D01*
X114878616Y-77269279D01*
X114870224Y-77251537D01*
X114863612Y-77233057D01*
X114858843Y-77214018D01*
X114855963Y-77194603D01*
X114855000Y-77175000D01*
X114855000Y-75325000D01*
X114855963Y-75305397D01*
X114858843Y-75285982D01*
X114863612Y-75266943D01*
X114870224Y-75248463D01*
X114878616Y-75230721D01*
X114888706Y-75213886D01*
X114900398Y-75198121D01*
X114913579Y-75183579D01*
X114928121Y-75170398D01*
X114943886Y-75158706D01*
X114960721Y-75148616D01*
X114978463Y-75140224D01*
X114996943Y-75133612D01*
X115015982Y-75128843D01*
X115035397Y-75125963D01*
X115055000Y-75125000D01*
X115455000Y-75125000D01*
X115474603Y-75125963D01*
G37*
G36*
X115474603Y-84425963D02*
G01*
X115494018Y-84428843D01*
X115513057Y-84433612D01*
X115531537Y-84440224D01*
X115549279Y-84448616D01*
X115566114Y-84458706D01*
X115581879Y-84470398D01*
X115596421Y-84483579D01*
X115609602Y-84498121D01*
X115621294Y-84513886D01*
X115631384Y-84530721D01*
X115639776Y-84548463D01*
X115646388Y-84566943D01*
X115651157Y-84585982D01*
X115654037Y-84605397D01*
X115655000Y-84625000D01*
X115655000Y-86475000D01*
X115654037Y-86494603D01*
X115651157Y-86514018D01*
X115646388Y-86533057D01*
X115639776Y-86551537D01*
X115631384Y-86569279D01*
X115621294Y-86586114D01*
X115609602Y-86601879D01*
X115596421Y-86616421D01*
X115581879Y-86629602D01*
X115566114Y-86641294D01*
X115549279Y-86651384D01*
X115531537Y-86659776D01*
X115513057Y-86666388D01*
X115494018Y-86671157D01*
X115474603Y-86674037D01*
X115455000Y-86675000D01*
X115055000Y-86675000D01*
X115035397Y-86674037D01*
X115015982Y-86671157D01*
X114996943Y-86666388D01*
X114978463Y-86659776D01*
X114960721Y-86651384D01*
X114943886Y-86641294D01*
X114928121Y-86629602D01*
X114913579Y-86616421D01*
X114900398Y-86601879D01*
X114888706Y-86586114D01*
X114878616Y-86569279D01*
X114870224Y-86551537D01*
X114863612Y-86533057D01*
X114858843Y-86514018D01*
X114855963Y-86494603D01*
X114855000Y-86475000D01*
X114855000Y-84625000D01*
X114855963Y-84605397D01*
X114858843Y-84585982D01*
X114863612Y-84566943D01*
X114870224Y-84548463D01*
X114878616Y-84530721D01*
X114888706Y-84513886D01*
X114900398Y-84498121D01*
X114913579Y-84483579D01*
X114928121Y-84470398D01*
X114943886Y-84458706D01*
X114960721Y-84448616D01*
X114978463Y-84440224D01*
X114996943Y-84433612D01*
X115015982Y-84428843D01*
X115035397Y-84425963D01*
X115055000Y-84425000D01*
X115455000Y-84425000D01*
X115474603Y-84425963D01*
G37*
G36*
X114204603Y-84425963D02*
G01*
X114224018Y-84428843D01*
X114243057Y-84433612D01*
X114261537Y-84440224D01*
X114279279Y-84448616D01*
X114296114Y-84458706D01*
X114311879Y-84470398D01*
X114326421Y-84483579D01*
X114339602Y-84498121D01*
X114351294Y-84513886D01*
X114361384Y-84530721D01*
X114369776Y-84548463D01*
X114376388Y-84566943D01*
X114381157Y-84585982D01*
X114384037Y-84605397D01*
X114385000Y-84625000D01*
X114385000Y-86475000D01*
X114384037Y-86494603D01*
X114381157Y-86514018D01*
X114376388Y-86533057D01*
X114369776Y-86551537D01*
X114361384Y-86569279D01*
X114351294Y-86586114D01*
X114339602Y-86601879D01*
X114326421Y-86616421D01*
X114311879Y-86629602D01*
X114296114Y-86641294D01*
X114279279Y-86651384D01*
X114261537Y-86659776D01*
X114243057Y-86666388D01*
X114224018Y-86671157D01*
X114204603Y-86674037D01*
X114185000Y-86675000D01*
X113785000Y-86675000D01*
X113765397Y-86674037D01*
X113745982Y-86671157D01*
X113726943Y-86666388D01*
X113708463Y-86659776D01*
X113690721Y-86651384D01*
X113673886Y-86641294D01*
X113658121Y-86629602D01*
X113643579Y-86616421D01*
X113630398Y-86601879D01*
X113618706Y-86586114D01*
X113608616Y-86569279D01*
X113600224Y-86551537D01*
X113593612Y-86533057D01*
X113588843Y-86514018D01*
X113585963Y-86494603D01*
X113585000Y-86475000D01*
X113585000Y-84625000D01*
X113585963Y-84605397D01*
X113588843Y-84585982D01*
X113593612Y-84566943D01*
X113600224Y-84548463D01*
X113608616Y-84530721D01*
X113618706Y-84513886D01*
X113630398Y-84498121D01*
X113643579Y-84483579D01*
X113658121Y-84470398D01*
X113673886Y-84458706D01*
X113690721Y-84448616D01*
X113708463Y-84440224D01*
X113726943Y-84433612D01*
X113745982Y-84428843D01*
X113765397Y-84425963D01*
X113785000Y-84425000D01*
X114185000Y-84425000D01*
X114204603Y-84425963D01*
G37*
G36*
X112934603Y-84425963D02*
G01*
X112954018Y-84428843D01*
X112973057Y-84433612D01*
X112991537Y-84440224D01*
X113009279Y-84448616D01*
X113026114Y-84458706D01*
X113041879Y-84470398D01*
X113056421Y-84483579D01*
X113069602Y-84498121D01*
X113081294Y-84513886D01*
X113091384Y-84530721D01*
X113099776Y-84548463D01*
X113106388Y-84566943D01*
X113111157Y-84585982D01*
X113114037Y-84605397D01*
X113115000Y-84625000D01*
X113115000Y-86475000D01*
X113114037Y-86494603D01*
X113111157Y-86514018D01*
X113106388Y-86533057D01*
X113099776Y-86551537D01*
X113091384Y-86569279D01*
X113081294Y-86586114D01*
X113069602Y-86601879D01*
X113056421Y-86616421D01*
X113041879Y-86629602D01*
X113026114Y-86641294D01*
X113009279Y-86651384D01*
X112991537Y-86659776D01*
X112973057Y-86666388D01*
X112954018Y-86671157D01*
X112934603Y-86674037D01*
X112915000Y-86675000D01*
X112515000Y-86675000D01*
X112495397Y-86674037D01*
X112475982Y-86671157D01*
X112456943Y-86666388D01*
X112438463Y-86659776D01*
X112420721Y-86651384D01*
X112403886Y-86641294D01*
X112388121Y-86629602D01*
X112373579Y-86616421D01*
X112360398Y-86601879D01*
X112348706Y-86586114D01*
X112338616Y-86569279D01*
X112330224Y-86551537D01*
X112323612Y-86533057D01*
X112318843Y-86514018D01*
X112315963Y-86494603D01*
X112315000Y-86475000D01*
X112315000Y-84625000D01*
X112315963Y-84605397D01*
X112318843Y-84585982D01*
X112323612Y-84566943D01*
X112330224Y-84548463D01*
X112338616Y-84530721D01*
X112348706Y-84513886D01*
X112360398Y-84498121D01*
X112373579Y-84483579D01*
X112388121Y-84470398D01*
X112403886Y-84458706D01*
X112420721Y-84448616D01*
X112438463Y-84440224D01*
X112456943Y-84433612D01*
X112475982Y-84428843D01*
X112495397Y-84425963D01*
X112515000Y-84425000D01*
X112915000Y-84425000D01*
X112934603Y-84425963D01*
G37*
G36*
X111664603Y-84425963D02*
G01*
X111684018Y-84428843D01*
X111703057Y-84433612D01*
X111721537Y-84440224D01*
X111739279Y-84448616D01*
X111756114Y-84458706D01*
X111771879Y-84470398D01*
X111786421Y-84483579D01*
X111799602Y-84498121D01*
X111811294Y-84513886D01*
X111821384Y-84530721D01*
X111829776Y-84548463D01*
X111836388Y-84566943D01*
X111841157Y-84585982D01*
X111844037Y-84605397D01*
X111845000Y-84625000D01*
X111845000Y-86475000D01*
X111844037Y-86494603D01*
X111841157Y-86514018D01*
X111836388Y-86533057D01*
X111829776Y-86551537D01*
X111821384Y-86569279D01*
X111811294Y-86586114D01*
X111799602Y-86601879D01*
X111786421Y-86616421D01*
X111771879Y-86629602D01*
X111756114Y-86641294D01*
X111739279Y-86651384D01*
X111721537Y-86659776D01*
X111703057Y-86666388D01*
X111684018Y-86671157D01*
X111664603Y-86674037D01*
X111645000Y-86675000D01*
X111245000Y-86675000D01*
X111225397Y-86674037D01*
X111205982Y-86671157D01*
X111186943Y-86666388D01*
X111168463Y-86659776D01*
X111150721Y-86651384D01*
X111133886Y-86641294D01*
X111118121Y-86629602D01*
X111103579Y-86616421D01*
X111090398Y-86601879D01*
X111078706Y-86586114D01*
X111068616Y-86569279D01*
X111060224Y-86551537D01*
X111053612Y-86533057D01*
X111048843Y-86514018D01*
X111045963Y-86494603D01*
X111045000Y-86475000D01*
X111045000Y-84625000D01*
X111045963Y-84605397D01*
X111048843Y-84585982D01*
X111053612Y-84566943D01*
X111060224Y-84548463D01*
X111068616Y-84530721D01*
X111078706Y-84513886D01*
X111090398Y-84498121D01*
X111103579Y-84483579D01*
X111118121Y-84470398D01*
X111133886Y-84458706D01*
X111150721Y-84448616D01*
X111168463Y-84440224D01*
X111186943Y-84433612D01*
X111205982Y-84428843D01*
X111225397Y-84425963D01*
X111245000Y-84425000D01*
X111645000Y-84425000D01*
X111664603Y-84425963D01*
G37*
G36*
X110394603Y-84425963D02*
G01*
X110414018Y-84428843D01*
X110433057Y-84433612D01*
X110451537Y-84440224D01*
X110469279Y-84448616D01*
X110486114Y-84458706D01*
X110501879Y-84470398D01*
X110516421Y-84483579D01*
X110529602Y-84498121D01*
X110541294Y-84513886D01*
X110551384Y-84530721D01*
X110559776Y-84548463D01*
X110566388Y-84566943D01*
X110571157Y-84585982D01*
X110574037Y-84605397D01*
X110575000Y-84625000D01*
X110575000Y-86475000D01*
X110574037Y-86494603D01*
X110571157Y-86514018D01*
X110566388Y-86533057D01*
X110559776Y-86551537D01*
X110551384Y-86569279D01*
X110541294Y-86586114D01*
X110529602Y-86601879D01*
X110516421Y-86616421D01*
X110501879Y-86629602D01*
X110486114Y-86641294D01*
X110469279Y-86651384D01*
X110451537Y-86659776D01*
X110433057Y-86666388D01*
X110414018Y-86671157D01*
X110394603Y-86674037D01*
X110375000Y-86675000D01*
X109975000Y-86675000D01*
X109955397Y-86674037D01*
X109935982Y-86671157D01*
X109916943Y-86666388D01*
X109898463Y-86659776D01*
X109880721Y-86651384D01*
X109863886Y-86641294D01*
X109848121Y-86629602D01*
X109833579Y-86616421D01*
X109820398Y-86601879D01*
X109808706Y-86586114D01*
X109798616Y-86569279D01*
X109790224Y-86551537D01*
X109783612Y-86533057D01*
X109778843Y-86514018D01*
X109775963Y-86494603D01*
X109775000Y-86475000D01*
X109775000Y-84625000D01*
X109775963Y-84605397D01*
X109778843Y-84585982D01*
X109783612Y-84566943D01*
X109790224Y-84548463D01*
X109798616Y-84530721D01*
X109808706Y-84513886D01*
X109820398Y-84498121D01*
X109833579Y-84483579D01*
X109848121Y-84470398D01*
X109863886Y-84458706D01*
X109880721Y-84448616D01*
X109898463Y-84440224D01*
X109916943Y-84433612D01*
X109935982Y-84428843D01*
X109955397Y-84425963D01*
X109975000Y-84425000D01*
X110375000Y-84425000D01*
X110394603Y-84425963D01*
G37*
G36*
X109124603Y-84425963D02*
G01*
X109144018Y-84428843D01*
X109163057Y-84433612D01*
X109181537Y-84440224D01*
X109199279Y-84448616D01*
X109216114Y-84458706D01*
X109231879Y-84470398D01*
X109246421Y-84483579D01*
X109259602Y-84498121D01*
X109271294Y-84513886D01*
X109281384Y-84530721D01*
X109289776Y-84548463D01*
X109296388Y-84566943D01*
X109301157Y-84585982D01*
X109304037Y-84605397D01*
X109305000Y-84625000D01*
X109305000Y-86475000D01*
X109304037Y-86494603D01*
X109301157Y-86514018D01*
X109296388Y-86533057D01*
X109289776Y-86551537D01*
X109281384Y-86569279D01*
X109271294Y-86586114D01*
X109259602Y-86601879D01*
X109246421Y-86616421D01*
X109231879Y-86629602D01*
X109216114Y-86641294D01*
X109199279Y-86651384D01*
X109181537Y-86659776D01*
X109163057Y-86666388D01*
X109144018Y-86671157D01*
X109124603Y-86674037D01*
X109105000Y-86675000D01*
X108705000Y-86675000D01*
X108685397Y-86674037D01*
X108665982Y-86671157D01*
X108646943Y-86666388D01*
X108628463Y-86659776D01*
X108610721Y-86651384D01*
X108593886Y-86641294D01*
X108578121Y-86629602D01*
X108563579Y-86616421D01*
X108550398Y-86601879D01*
X108538706Y-86586114D01*
X108528616Y-86569279D01*
X108520224Y-86551537D01*
X108513612Y-86533057D01*
X108508843Y-86514018D01*
X108505963Y-86494603D01*
X108505000Y-86475000D01*
X108505000Y-84625000D01*
X108505963Y-84605397D01*
X108508843Y-84585982D01*
X108513612Y-84566943D01*
X108520224Y-84548463D01*
X108528616Y-84530721D01*
X108538706Y-84513886D01*
X108550398Y-84498121D01*
X108563579Y-84483579D01*
X108578121Y-84470398D01*
X108593886Y-84458706D01*
X108610721Y-84448616D01*
X108628463Y-84440224D01*
X108646943Y-84433612D01*
X108665982Y-84428843D01*
X108685397Y-84425963D01*
X108705000Y-84425000D01*
X109105000Y-84425000D01*
X109124603Y-84425963D01*
G37*
G36*
X107854603Y-84425963D02*
G01*
X107874018Y-84428843D01*
X107893057Y-84433612D01*
X107911537Y-84440224D01*
X107929279Y-84448616D01*
X107946114Y-84458706D01*
X107961879Y-84470398D01*
X107976421Y-84483579D01*
X107989602Y-84498121D01*
X108001294Y-84513886D01*
X108011384Y-84530721D01*
X108019776Y-84548463D01*
X108026388Y-84566943D01*
X108031157Y-84585982D01*
X108034037Y-84605397D01*
X108035000Y-84625000D01*
X108035000Y-86475000D01*
X108034037Y-86494603D01*
X108031157Y-86514018D01*
X108026388Y-86533057D01*
X108019776Y-86551537D01*
X108011384Y-86569279D01*
X108001294Y-86586114D01*
X107989602Y-86601879D01*
X107976421Y-86616421D01*
X107961879Y-86629602D01*
X107946114Y-86641294D01*
X107929279Y-86651384D01*
X107911537Y-86659776D01*
X107893057Y-86666388D01*
X107874018Y-86671157D01*
X107854603Y-86674037D01*
X107835000Y-86675000D01*
X107435000Y-86675000D01*
X107415397Y-86674037D01*
X107395982Y-86671157D01*
X107376943Y-86666388D01*
X107358463Y-86659776D01*
X107340721Y-86651384D01*
X107323886Y-86641294D01*
X107308121Y-86629602D01*
X107293579Y-86616421D01*
X107280398Y-86601879D01*
X107268706Y-86586114D01*
X107258616Y-86569279D01*
X107250224Y-86551537D01*
X107243612Y-86533057D01*
X107238843Y-86514018D01*
X107235963Y-86494603D01*
X107235000Y-86475000D01*
X107235000Y-84625000D01*
X107235963Y-84605397D01*
X107238843Y-84585982D01*
X107243612Y-84566943D01*
X107250224Y-84548463D01*
X107258616Y-84530721D01*
X107268706Y-84513886D01*
X107280398Y-84498121D01*
X107293579Y-84483579D01*
X107308121Y-84470398D01*
X107323886Y-84458706D01*
X107340721Y-84448616D01*
X107358463Y-84440224D01*
X107376943Y-84433612D01*
X107395982Y-84428843D01*
X107415397Y-84425963D01*
X107435000Y-84425000D01*
X107835000Y-84425000D01*
X107854603Y-84425963D01*
G37*
G36*
X106584603Y-84425963D02*
G01*
X106604018Y-84428843D01*
X106623057Y-84433612D01*
X106641537Y-84440224D01*
X106659279Y-84448616D01*
X106676114Y-84458706D01*
X106691879Y-84470398D01*
X106706421Y-84483579D01*
X106719602Y-84498121D01*
X106731294Y-84513886D01*
X106741384Y-84530721D01*
X106749776Y-84548463D01*
X106756388Y-84566943D01*
X106761157Y-84585982D01*
X106764037Y-84605397D01*
X106765000Y-84625000D01*
X106765000Y-86475000D01*
X106764037Y-86494603D01*
X106761157Y-86514018D01*
X106756388Y-86533057D01*
X106749776Y-86551537D01*
X106741384Y-86569279D01*
X106731294Y-86586114D01*
X106719602Y-86601879D01*
X106706421Y-86616421D01*
X106691879Y-86629602D01*
X106676114Y-86641294D01*
X106659279Y-86651384D01*
X106641537Y-86659776D01*
X106623057Y-86666388D01*
X106604018Y-86671157D01*
X106584603Y-86674037D01*
X106565000Y-86675000D01*
X106165000Y-86675000D01*
X106145397Y-86674037D01*
X106125982Y-86671157D01*
X106106943Y-86666388D01*
X106088463Y-86659776D01*
X106070721Y-86651384D01*
X106053886Y-86641294D01*
X106038121Y-86629602D01*
X106023579Y-86616421D01*
X106010398Y-86601879D01*
X105998706Y-86586114D01*
X105988616Y-86569279D01*
X105980224Y-86551537D01*
X105973612Y-86533057D01*
X105968843Y-86514018D01*
X105965963Y-86494603D01*
X105965000Y-86475000D01*
X105965000Y-84625000D01*
X105965963Y-84605397D01*
X105968843Y-84585982D01*
X105973612Y-84566943D01*
X105980224Y-84548463D01*
X105988616Y-84530721D01*
X105998706Y-84513886D01*
X106010398Y-84498121D01*
X106023579Y-84483579D01*
X106038121Y-84470398D01*
X106053886Y-84458706D01*
X106070721Y-84448616D01*
X106088463Y-84440224D01*
X106106943Y-84433612D01*
X106125982Y-84428843D01*
X106145397Y-84425963D01*
X106165000Y-84425000D01*
X106565000Y-84425000D01*
X106584603Y-84425963D01*
G37*
G36*
X105314603Y-84425963D02*
G01*
X105334018Y-84428843D01*
X105353057Y-84433612D01*
X105371537Y-84440224D01*
X105389279Y-84448616D01*
X105406114Y-84458706D01*
X105421879Y-84470398D01*
X105436421Y-84483579D01*
X105449602Y-84498121D01*
X105461294Y-84513886D01*
X105471384Y-84530721D01*
X105479776Y-84548463D01*
X105486388Y-84566943D01*
X105491157Y-84585982D01*
X105494037Y-84605397D01*
X105495000Y-84625000D01*
X105495000Y-86475000D01*
X105494037Y-86494603D01*
X105491157Y-86514018D01*
X105486388Y-86533057D01*
X105479776Y-86551537D01*
X105471384Y-86569279D01*
X105461294Y-86586114D01*
X105449602Y-86601879D01*
X105436421Y-86616421D01*
X105421879Y-86629602D01*
X105406114Y-86641294D01*
X105389279Y-86651384D01*
X105371537Y-86659776D01*
X105353057Y-86666388D01*
X105334018Y-86671157D01*
X105314603Y-86674037D01*
X105295000Y-86675000D01*
X104895000Y-86675000D01*
X104875397Y-86674037D01*
X104855982Y-86671157D01*
X104836943Y-86666388D01*
X104818463Y-86659776D01*
X104800721Y-86651384D01*
X104783886Y-86641294D01*
X104768121Y-86629602D01*
X104753579Y-86616421D01*
X104740398Y-86601879D01*
X104728706Y-86586114D01*
X104718616Y-86569279D01*
X104710224Y-86551537D01*
X104703612Y-86533057D01*
X104698843Y-86514018D01*
X104695963Y-86494603D01*
X104695000Y-86475000D01*
X104695000Y-84625000D01*
X104695963Y-84605397D01*
X104698843Y-84585982D01*
X104703612Y-84566943D01*
X104710224Y-84548463D01*
X104718616Y-84530721D01*
X104728706Y-84513886D01*
X104740398Y-84498121D01*
X104753579Y-84483579D01*
X104768121Y-84470398D01*
X104783886Y-84458706D01*
X104800721Y-84448616D01*
X104818463Y-84440224D01*
X104836943Y-84433612D01*
X104855982Y-84428843D01*
X104875397Y-84425963D01*
X104895000Y-84425000D01*
X105295000Y-84425000D01*
X105314603Y-84425963D01*
G37*
G36*
X104044603Y-84425963D02*
G01*
X104064018Y-84428843D01*
X104083057Y-84433612D01*
X104101537Y-84440224D01*
X104119279Y-84448616D01*
X104136114Y-84458706D01*
X104151879Y-84470398D01*
X104166421Y-84483579D01*
X104179602Y-84498121D01*
X104191294Y-84513886D01*
X104201384Y-84530721D01*
X104209776Y-84548463D01*
X104216388Y-84566943D01*
X104221157Y-84585982D01*
X104224037Y-84605397D01*
X104225000Y-84625000D01*
X104225000Y-86475000D01*
X104224037Y-86494603D01*
X104221157Y-86514018D01*
X104216388Y-86533057D01*
X104209776Y-86551537D01*
X104201384Y-86569279D01*
X104191294Y-86586114D01*
X104179602Y-86601879D01*
X104166421Y-86616421D01*
X104151879Y-86629602D01*
X104136114Y-86641294D01*
X104119279Y-86651384D01*
X104101537Y-86659776D01*
X104083057Y-86666388D01*
X104064018Y-86671157D01*
X104044603Y-86674037D01*
X104025000Y-86675000D01*
X103625000Y-86675000D01*
X103605397Y-86674037D01*
X103585982Y-86671157D01*
X103566943Y-86666388D01*
X103548463Y-86659776D01*
X103530721Y-86651384D01*
X103513886Y-86641294D01*
X103498121Y-86629602D01*
X103483579Y-86616421D01*
X103470398Y-86601879D01*
X103458706Y-86586114D01*
X103448616Y-86569279D01*
X103440224Y-86551537D01*
X103433612Y-86533057D01*
X103428843Y-86514018D01*
X103425963Y-86494603D01*
X103425000Y-86475000D01*
X103425000Y-84625000D01*
X103425963Y-84605397D01*
X103428843Y-84585982D01*
X103433612Y-84566943D01*
X103440224Y-84548463D01*
X103448616Y-84530721D01*
X103458706Y-84513886D01*
X103470398Y-84498121D01*
X103483579Y-84483579D01*
X103498121Y-84470398D01*
X103513886Y-84458706D01*
X103530721Y-84448616D01*
X103548463Y-84440224D01*
X103566943Y-84433612D01*
X103585982Y-84428843D01*
X103605397Y-84425963D01*
X103625000Y-84425000D01*
X104025000Y-84425000D01*
X104044603Y-84425963D01*
G37*
G36*
X102774603Y-84425963D02*
G01*
X102794018Y-84428843D01*
X102813057Y-84433612D01*
X102831537Y-84440224D01*
X102849279Y-84448616D01*
X102866114Y-84458706D01*
X102881879Y-84470398D01*
X102896421Y-84483579D01*
X102909602Y-84498121D01*
X102921294Y-84513886D01*
X102931384Y-84530721D01*
X102939776Y-84548463D01*
X102946388Y-84566943D01*
X102951157Y-84585982D01*
X102954037Y-84605397D01*
X102955000Y-84625000D01*
X102955000Y-86475000D01*
X102954037Y-86494603D01*
X102951157Y-86514018D01*
X102946388Y-86533057D01*
X102939776Y-86551537D01*
X102931384Y-86569279D01*
X102921294Y-86586114D01*
X102909602Y-86601879D01*
X102896421Y-86616421D01*
X102881879Y-86629602D01*
X102866114Y-86641294D01*
X102849279Y-86651384D01*
X102831537Y-86659776D01*
X102813057Y-86666388D01*
X102794018Y-86671157D01*
X102774603Y-86674037D01*
X102755000Y-86675000D01*
X102355000Y-86675000D01*
X102335397Y-86674037D01*
X102315982Y-86671157D01*
X102296943Y-86666388D01*
X102278463Y-86659776D01*
X102260721Y-86651384D01*
X102243886Y-86641294D01*
X102228121Y-86629602D01*
X102213579Y-86616421D01*
X102200398Y-86601879D01*
X102188706Y-86586114D01*
X102178616Y-86569279D01*
X102170224Y-86551537D01*
X102163612Y-86533057D01*
X102158843Y-86514018D01*
X102155963Y-86494603D01*
X102155000Y-86475000D01*
X102155000Y-84625000D01*
X102155963Y-84605397D01*
X102158843Y-84585982D01*
X102163612Y-84566943D01*
X102170224Y-84548463D01*
X102178616Y-84530721D01*
X102188706Y-84513886D01*
X102200398Y-84498121D01*
X102213579Y-84483579D01*
X102228121Y-84470398D01*
X102243886Y-84458706D01*
X102260721Y-84448616D01*
X102278463Y-84440224D01*
X102296943Y-84433612D01*
X102315982Y-84428843D01*
X102335397Y-84425963D01*
X102355000Y-84425000D01*
X102755000Y-84425000D01*
X102774603Y-84425963D01*
G37*
G36*
X101504603Y-84425963D02*
G01*
X101524018Y-84428843D01*
X101543057Y-84433612D01*
X101561537Y-84440224D01*
X101579279Y-84448616D01*
X101596114Y-84458706D01*
X101611879Y-84470398D01*
X101626421Y-84483579D01*
X101639602Y-84498121D01*
X101651294Y-84513886D01*
X101661384Y-84530721D01*
X101669776Y-84548463D01*
X101676388Y-84566943D01*
X101681157Y-84585982D01*
X101684037Y-84605397D01*
X101685000Y-84625000D01*
X101685000Y-86475000D01*
X101684037Y-86494603D01*
X101681157Y-86514018D01*
X101676388Y-86533057D01*
X101669776Y-86551537D01*
X101661384Y-86569279D01*
X101651294Y-86586114D01*
X101639602Y-86601879D01*
X101626421Y-86616421D01*
X101611879Y-86629602D01*
X101596114Y-86641294D01*
X101579279Y-86651384D01*
X101561537Y-86659776D01*
X101543057Y-86666388D01*
X101524018Y-86671157D01*
X101504603Y-86674037D01*
X101485000Y-86675000D01*
X101085000Y-86675000D01*
X101065397Y-86674037D01*
X101045982Y-86671157D01*
X101026943Y-86666388D01*
X101008463Y-86659776D01*
X100990721Y-86651384D01*
X100973886Y-86641294D01*
X100958121Y-86629602D01*
X100943579Y-86616421D01*
X100930398Y-86601879D01*
X100918706Y-86586114D01*
X100908616Y-86569279D01*
X100900224Y-86551537D01*
X100893612Y-86533057D01*
X100888843Y-86514018D01*
X100885963Y-86494603D01*
X100885000Y-86475000D01*
X100885000Y-84625000D01*
X100885963Y-84605397D01*
X100888843Y-84585982D01*
X100893612Y-84566943D01*
X100900224Y-84548463D01*
X100908616Y-84530721D01*
X100918706Y-84513886D01*
X100930398Y-84498121D01*
X100943579Y-84483579D01*
X100958121Y-84470398D01*
X100973886Y-84458706D01*
X100990721Y-84448616D01*
X101008463Y-84440224D01*
X101026943Y-84433612D01*
X101045982Y-84428843D01*
X101065397Y-84425963D01*
X101085000Y-84425000D01*
X101485000Y-84425000D01*
X101504603Y-84425963D01*
G37*
G36*
X100234603Y-84425963D02*
G01*
X100254018Y-84428843D01*
X100273057Y-84433612D01*
X100291537Y-84440224D01*
X100309279Y-84448616D01*
X100326114Y-84458706D01*
X100341879Y-84470398D01*
X100356421Y-84483579D01*
X100369602Y-84498121D01*
X100381294Y-84513886D01*
X100391384Y-84530721D01*
X100399776Y-84548463D01*
X100406388Y-84566943D01*
X100411157Y-84585982D01*
X100414037Y-84605397D01*
X100415000Y-84625000D01*
X100415000Y-86475000D01*
X100414037Y-86494603D01*
X100411157Y-86514018D01*
X100406388Y-86533057D01*
X100399776Y-86551537D01*
X100391384Y-86569279D01*
X100381294Y-86586114D01*
X100369602Y-86601879D01*
X100356421Y-86616421D01*
X100341879Y-86629602D01*
X100326114Y-86641294D01*
X100309279Y-86651384D01*
X100291537Y-86659776D01*
X100273057Y-86666388D01*
X100254018Y-86671157D01*
X100234603Y-86674037D01*
X100215000Y-86675000D01*
X99815000Y-86675000D01*
X99795397Y-86674037D01*
X99775982Y-86671157D01*
X99756943Y-86666388D01*
X99738463Y-86659776D01*
X99720721Y-86651384D01*
X99703886Y-86641294D01*
X99688121Y-86629602D01*
X99673579Y-86616421D01*
X99660398Y-86601879D01*
X99648706Y-86586114D01*
X99638616Y-86569279D01*
X99630224Y-86551537D01*
X99623612Y-86533057D01*
X99618843Y-86514018D01*
X99615963Y-86494603D01*
X99615000Y-86475000D01*
X99615000Y-84625000D01*
X99615963Y-84605397D01*
X99618843Y-84585982D01*
X99623612Y-84566943D01*
X99630224Y-84548463D01*
X99638616Y-84530721D01*
X99648706Y-84513886D01*
X99660398Y-84498121D01*
X99673579Y-84483579D01*
X99688121Y-84470398D01*
X99703886Y-84458706D01*
X99720721Y-84448616D01*
X99738463Y-84440224D01*
X99756943Y-84433612D01*
X99775982Y-84428843D01*
X99795397Y-84425963D01*
X99815000Y-84425000D01*
X100215000Y-84425000D01*
X100234603Y-84425963D01*
G37*
G36*
X98964603Y-84425963D02*
G01*
X98984018Y-84428843D01*
X99003057Y-84433612D01*
X99021537Y-84440224D01*
X99039279Y-84448616D01*
X99056114Y-84458706D01*
X99071879Y-84470398D01*
X99086421Y-84483579D01*
X99099602Y-84498121D01*
X99111294Y-84513886D01*
X99121384Y-84530721D01*
X99129776Y-84548463D01*
X99136388Y-84566943D01*
X99141157Y-84585982D01*
X99144037Y-84605397D01*
X99145000Y-84625000D01*
X99145000Y-86475000D01*
X99144037Y-86494603D01*
X99141157Y-86514018D01*
X99136388Y-86533057D01*
X99129776Y-86551537D01*
X99121384Y-86569279D01*
X99111294Y-86586114D01*
X99099602Y-86601879D01*
X99086421Y-86616421D01*
X99071879Y-86629602D01*
X99056114Y-86641294D01*
X99039279Y-86651384D01*
X99021537Y-86659776D01*
X99003057Y-86666388D01*
X98984018Y-86671157D01*
X98964603Y-86674037D01*
X98945000Y-86675000D01*
X98545000Y-86675000D01*
X98525397Y-86674037D01*
X98505982Y-86671157D01*
X98486943Y-86666388D01*
X98468463Y-86659776D01*
X98450721Y-86651384D01*
X98433886Y-86641294D01*
X98418121Y-86629602D01*
X98403579Y-86616421D01*
X98390398Y-86601879D01*
X98378706Y-86586114D01*
X98368616Y-86569279D01*
X98360224Y-86551537D01*
X98353612Y-86533057D01*
X98348843Y-86514018D01*
X98345963Y-86494603D01*
X98345000Y-86475000D01*
X98345000Y-84625000D01*
X98345963Y-84605397D01*
X98348843Y-84585982D01*
X98353612Y-84566943D01*
X98360224Y-84548463D01*
X98368616Y-84530721D01*
X98378706Y-84513886D01*
X98390398Y-84498121D01*
X98403579Y-84483579D01*
X98418121Y-84470398D01*
X98433886Y-84458706D01*
X98450721Y-84448616D01*
X98468463Y-84440224D01*
X98486943Y-84433612D01*
X98505982Y-84428843D01*
X98525397Y-84425963D01*
X98545000Y-84425000D01*
X98945000Y-84425000D01*
X98964603Y-84425963D01*
G37*
D22*
X122500000Y-111100000D03*
X121550000Y-109100000D03*
X123450000Y-109100000D03*
X99100000Y-107700000D03*
X98150000Y-105700000D03*
X100050000Y-105700000D03*
D14*
X136850000Y-99800000D03*
X136850000Y-102300000D03*
D11*
G36*
X137672975Y-103851345D02*
G01*
X137700099Y-103855369D01*
X137726697Y-103862031D01*
X137752514Y-103871269D01*
X137777302Y-103882993D01*
X137800821Y-103897089D01*
X137822845Y-103913424D01*
X137843162Y-103931838D01*
X137861576Y-103952155D01*
X137877911Y-103974179D01*
X137892007Y-103997698D01*
X137903731Y-104022486D01*
X137912969Y-104048303D01*
X137919631Y-104074901D01*
X137923655Y-104102025D01*
X137925000Y-104129412D01*
X137925000Y-105470588D01*
X137923655Y-105497975D01*
X137919631Y-105525099D01*
X137912969Y-105551697D01*
X137903731Y-105577514D01*
X137892007Y-105602302D01*
X137877911Y-105625821D01*
X137861576Y-105647845D01*
X137843162Y-105668162D01*
X137822845Y-105686576D01*
X137800821Y-105702911D01*
X137777302Y-105717007D01*
X137752514Y-105728731D01*
X137726697Y-105737969D01*
X137700099Y-105744631D01*
X137672975Y-105748655D01*
X137645588Y-105750000D01*
X136054412Y-105750000D01*
X136027025Y-105748655D01*
X135999901Y-105744631D01*
X135973303Y-105737969D01*
X135947486Y-105728731D01*
X135922698Y-105717007D01*
X135899179Y-105702911D01*
X135877155Y-105686576D01*
X135856838Y-105668162D01*
X135838424Y-105647845D01*
X135822089Y-105625821D01*
X135807993Y-105602302D01*
X135796269Y-105577514D01*
X135787031Y-105551697D01*
X135780369Y-105525099D01*
X135776345Y-105497975D01*
X135775000Y-105470588D01*
X135775000Y-104129412D01*
X135776345Y-104102025D01*
X135780369Y-104074901D01*
X135787031Y-104048303D01*
X135796269Y-104022486D01*
X135807993Y-103997698D01*
X135822089Y-103974179D01*
X135838424Y-103952155D01*
X135856838Y-103931838D01*
X135877155Y-103913424D01*
X135899179Y-103897089D01*
X135922698Y-103882993D01*
X135947486Y-103871269D01*
X135973303Y-103862031D01*
X135999901Y-103855369D01*
X136027025Y-103851345D01*
X136054412Y-103850000D01*
X137645588Y-103850000D01*
X137672975Y-103851345D01*
G37*
D14*
X128850000Y-97300000D03*
X128850000Y-99800000D03*
X128850000Y-102300000D03*
D11*
G36*
X129672975Y-103851345D02*
G01*
X129700099Y-103855369D01*
X129726697Y-103862031D01*
X129752514Y-103871269D01*
X129777302Y-103882993D01*
X129800821Y-103897089D01*
X129822845Y-103913424D01*
X129843162Y-103931838D01*
X129861576Y-103952155D01*
X129877911Y-103974179D01*
X129892007Y-103997698D01*
X129903731Y-104022486D01*
X129912969Y-104048303D01*
X129919631Y-104074901D01*
X129923655Y-104102025D01*
X129925000Y-104129412D01*
X129925000Y-105470588D01*
X129923655Y-105497975D01*
X129919631Y-105525099D01*
X129912969Y-105551697D01*
X129903731Y-105577514D01*
X129892007Y-105602302D01*
X129877911Y-105625821D01*
X129861576Y-105647845D01*
X129843162Y-105668162D01*
X129822845Y-105686576D01*
X129800821Y-105702911D01*
X129777302Y-105717007D01*
X129752514Y-105728731D01*
X129726697Y-105737969D01*
X129700099Y-105744631D01*
X129672975Y-105748655D01*
X129645588Y-105750000D01*
X128054412Y-105750000D01*
X128027025Y-105748655D01*
X127999901Y-105744631D01*
X127973303Y-105737969D01*
X127947486Y-105728731D01*
X127922698Y-105717007D01*
X127899179Y-105702911D01*
X127877155Y-105686576D01*
X127856838Y-105668162D01*
X127838424Y-105647845D01*
X127822089Y-105625821D01*
X127807993Y-105602302D01*
X127796269Y-105577514D01*
X127787031Y-105551697D01*
X127780369Y-105525099D01*
X127776345Y-105497975D01*
X127775000Y-105470588D01*
X127775000Y-104129412D01*
X127776345Y-104102025D01*
X127780369Y-104074901D01*
X127787031Y-104048303D01*
X127796269Y-104022486D01*
X127807993Y-103997698D01*
X127822089Y-103974179D01*
X127838424Y-103952155D01*
X127856838Y-103931838D01*
X127877155Y-103913424D01*
X127899179Y-103897089D01*
X127922698Y-103882993D01*
X127947486Y-103871269D01*
X127973303Y-103862031D01*
X127999901Y-103855369D01*
X128027025Y-103851345D01*
X128054412Y-103850000D01*
X129645588Y-103850000D01*
X129672975Y-103851345D01*
G37*
D29*
X94535000Y-112395000D03*
X92035000Y-112395000D03*
D11*
G36*
X90232975Y-111321345D02*
G01*
X90260099Y-111325369D01*
X90286697Y-111332031D01*
X90312514Y-111341269D01*
X90337302Y-111352993D01*
X90360821Y-111367089D01*
X90382845Y-111383424D01*
X90403162Y-111401838D01*
X90421576Y-111422155D01*
X90437911Y-111444179D01*
X90452007Y-111467698D01*
X90463731Y-111492486D01*
X90472969Y-111518303D01*
X90479631Y-111544901D01*
X90483655Y-111572025D01*
X90485000Y-111599412D01*
X90485000Y-113190588D01*
X90483655Y-113217975D01*
X90479631Y-113245099D01*
X90472969Y-113271697D01*
X90463731Y-113297514D01*
X90452007Y-113322302D01*
X90437911Y-113345821D01*
X90421576Y-113367845D01*
X90403162Y-113388162D01*
X90382845Y-113406576D01*
X90360821Y-113422911D01*
X90337302Y-113437007D01*
X90312514Y-113448731D01*
X90286697Y-113457969D01*
X90260099Y-113464631D01*
X90232975Y-113468655D01*
X90205588Y-113470000D01*
X88864412Y-113470000D01*
X88837025Y-113468655D01*
X88809901Y-113464631D01*
X88783303Y-113457969D01*
X88757486Y-113448731D01*
X88732698Y-113437007D01*
X88709179Y-113422911D01*
X88687155Y-113406576D01*
X88666838Y-113388162D01*
X88648424Y-113367845D01*
X88632089Y-113345821D01*
X88617993Y-113322302D01*
X88606269Y-113297514D01*
X88597031Y-113271697D01*
X88590369Y-113245099D01*
X88586345Y-113217975D01*
X88585000Y-113190588D01*
X88585000Y-111599412D01*
X88586345Y-111572025D01*
X88590369Y-111544901D01*
X88597031Y-111518303D01*
X88606269Y-111492486D01*
X88617993Y-111467698D01*
X88632089Y-111444179D01*
X88648424Y-111422155D01*
X88666838Y-111401838D01*
X88687155Y-111383424D01*
X88709179Y-111367089D01*
X88732698Y-111352993D01*
X88757486Y-111341269D01*
X88783303Y-111332031D01*
X88809901Y-111325369D01*
X88837025Y-111321345D01*
X88864412Y-111320000D01*
X90205588Y-111320000D01*
X90232975Y-111321345D01*
G37*
D29*
X112870000Y-112395000D03*
X110370000Y-112395000D03*
X107870000Y-112395000D03*
X105370000Y-112395000D03*
D11*
G36*
X103567975Y-111321345D02*
G01*
X103595099Y-111325369D01*
X103621697Y-111332031D01*
X103647514Y-111341269D01*
X103672302Y-111352993D01*
X103695821Y-111367089D01*
X103717845Y-111383424D01*
X103738162Y-111401838D01*
X103756576Y-111422155D01*
X103772911Y-111444179D01*
X103787007Y-111467698D01*
X103798731Y-111492486D01*
X103807969Y-111518303D01*
X103814631Y-111544901D01*
X103818655Y-111572025D01*
X103820000Y-111599412D01*
X103820000Y-113190588D01*
X103818655Y-113217975D01*
X103814631Y-113245099D01*
X103807969Y-113271697D01*
X103798731Y-113297514D01*
X103787007Y-113322302D01*
X103772911Y-113345821D01*
X103756576Y-113367845D01*
X103738162Y-113388162D01*
X103717845Y-113406576D01*
X103695821Y-113422911D01*
X103672302Y-113437007D01*
X103647514Y-113448731D01*
X103621697Y-113457969D01*
X103595099Y-113464631D01*
X103567975Y-113468655D01*
X103540588Y-113470000D01*
X102199412Y-113470000D01*
X102172025Y-113468655D01*
X102144901Y-113464631D01*
X102118303Y-113457969D01*
X102092486Y-113448731D01*
X102067698Y-113437007D01*
X102044179Y-113422911D01*
X102022155Y-113406576D01*
X102001838Y-113388162D01*
X101983424Y-113367845D01*
X101967089Y-113345821D01*
X101952993Y-113322302D01*
X101941269Y-113297514D01*
X101932031Y-113271697D01*
X101925369Y-113245099D01*
X101921345Y-113217975D01*
X101920000Y-113190588D01*
X101920000Y-111599412D01*
X101921345Y-111572025D01*
X101925369Y-111544901D01*
X101932031Y-111518303D01*
X101941269Y-111492486D01*
X101952993Y-111467698D01*
X101967089Y-111444179D01*
X101983424Y-111422155D01*
X102001838Y-111401838D01*
X102022155Y-111383424D01*
X102044179Y-111367089D01*
X102067698Y-111352993D01*
X102092486Y-111341269D01*
X102118303Y-111332031D01*
X102144901Y-111325369D01*
X102172025Y-111321345D01*
X102199412Y-111320000D01*
X103540588Y-111320000D01*
X103567975Y-111321345D01*
G37*
D27*
X135180000Y-63050000D03*
X135180000Y-65590000D03*
X132640000Y-63050000D03*
X132640000Y-65590000D03*
X130100000Y-63050000D03*
X130100000Y-65590000D03*
X127560000Y-63050000D03*
X127560000Y-65590000D03*
X125020000Y-63050000D03*
X125020000Y-65590000D03*
X122480000Y-63050000D03*
X122480000Y-65590000D03*
X119940000Y-63050000D03*
X119940000Y-65590000D03*
X117400000Y-63050000D03*
X117400000Y-65590000D03*
X114860000Y-63050000D03*
X114860000Y-65590000D03*
X112320000Y-63050000D03*
X112320000Y-65590000D03*
X109780000Y-63050000D03*
X109780000Y-65590000D03*
X107240000Y-63050000D03*
X107240000Y-65590000D03*
X104700000Y-63050000D03*
X104700000Y-65590000D03*
X102160000Y-63050000D03*
X102160000Y-65590000D03*
X99620000Y-63050000D03*
X99620000Y-65590000D03*
X97080000Y-63050000D03*
X97080000Y-65590000D03*
X94540000Y-63050000D03*
X94540000Y-65590000D03*
X92000000Y-63050000D03*
X92000000Y-65590000D03*
X89460000Y-63050000D03*
X89460000Y-65590000D03*
X86920000Y-63050000D03*
D28*
X86920000Y-65590000D03*
D30*
X93250000Y-69450000D03*
X95250000Y-68500000D03*
X95250000Y-70400000D03*
D31*
X82040000Y-64310000D03*
X140040000Y-64330000D03*
X82040000Y-113320000D03*
X140030000Y-113310000D03*
D32*
X116300000Y-72540000D03*
X116300000Y-71270000D03*
X116300000Y-70000000D03*
X116300000Y-68730000D03*
X110900000Y-68730000D03*
X110900000Y-70000000D03*
X110900000Y-71270000D03*
X110900000Y-72540000D03*
M02*
