M48
; DRILL file {KiCad 5.1.5-52549c5~84~ubuntu19.10.1} date Di 07 Jan 2020 17:32:59 CET
; FORMAT={-:-/ absolute / inch / decimal}
; #@! TF.CreationDate,2020-01-07T17:32:59+01:00
; #@! TF.GenerationSoftware,Kicad,Pcbnew,5.1.5-52549c5~84~ubuntu19.10.1
; #@! TF.FileFunction,Plated,1,2,PTH
FMAT,2
INCH
T1C0.0079
T2C0.0374
T3C0.0394
T4C0.0512
T5C0.0787
T6C0.0866
%
G90
G05
T1
X3.1317Y-2.9724
X3.1514Y-2.9528
X3.1711Y-2.9331
X3.1909Y-2.9134
X3.2205Y-3.5118
X3.2205Y-3.7047
X3.511Y-3.0489
X3.5118Y-2.694
X3.5212Y-3.0286
X3.5396Y-3.7754
X3.5512Y-3.622
X3.5551Y-3.1339
X3.5669Y-2.694
X3.5748Y-3.1339
X3.5945Y-3.1339
X3.6142Y-3.3504
X3.622Y-3.6772
X3.6417Y-3.4134
X3.6457Y-3.8661
X3.6575Y-3.7874
X3.6885Y-3.6191
X3.6929Y-3.3661
X3.6929Y-3.5945
X3.716Y-3.3438
X3.7274Y-3.8237
X3.748Y-3.0315
X3.7501Y-3.8215
X3.752Y-2.7283
X3.7638Y-3.0472
X3.7795Y-3.063
X3.7795Y-3.8543
X3.7835Y-4.2795
X3.7888Y-3.5511
X3.8146Y-4.1689
X3.8228Y-4.1142
X3.8248Y-3.0197
X3.8386Y-3.9449
X3.8427Y-3.0551
X3.8465Y-3.6575
X3.8488Y-3.7425
X3.853Y-2.9213
X3.8605Y-3.015
X3.8622Y-3.2323
X3.8622Y-3.252
X3.8622Y-3.2717
X3.8661Y-2.7362
X3.8688Y-2.9055
X3.878Y-3.5787
X3.8819Y-3.6772
X3.8845Y-2.8898
X3.8898Y-2.7362
X3.9055Y-4.2076
X3.9173Y-3.7362
X3.9291Y-3.6142
X3.9291Y-4.0906
X3.9327Y-2.8898
X3.9409Y-2.6417
X3.9764Y-3.6772
X3.9764Y-3.9055
X3.9894Y-2.6421
X4.0Y-4.1811
X4.0Y-4.2677
X4.1063Y-2.9213
X4.1139Y-3.8426
X4.1142Y-2.7598
X4.126Y-2.9213
X4.1457Y-2.9213
X4.1614Y-3.063
X4.2026Y-3.9921
X4.2205Y-3.8937
X4.2362Y-3.0591
X4.254Y-3.0827
X4.267Y-3.1063
X4.2799Y-3.1339
X4.2977Y-3.1575
X4.2992Y-3.185
X4.311Y-2.8031
X4.3112Y-3.2249
X4.315Y-3.9528
X4.3268Y-3.2677
X4.3382Y-3.2444
X4.3465Y-3.2008
X4.3568Y-4.1373
X4.357Y-3.3099
X4.3583Y-4.0709
X4.3583Y-4.0984
X4.3583Y-4.1654
X4.3622Y-3.8268
X4.3622Y-3.8622
X4.3629Y-3.8025
X4.3661Y-3.7677
X4.378Y-3.6654
X4.3937Y-3.0906
X4.4055Y-2.8307
X4.4312Y-3.9724
X4.437Y-2.7244
X4.4377Y-2.8339
X4.4775Y-3.2788
X4.5197Y-2.752
X4.5276Y-2.8504
X4.5354Y-3.315
X4.5354Y-3.5709
X4.5354Y-3.6535
X4.5433Y-2.6417
X4.5618Y-3.5641
X4.563Y-2.9745
X4.5672Y-3.5421
X4.5748Y-3.1654
X4.5787Y-2.6614
X4.5872Y-3.5312
X4.5945Y-4.2071
X4.5945Y-4.3504
X4.6102Y-3.378
X4.626Y-4.1063
X4.6308Y-3.7047
X4.6339Y-2.9843
X4.6383Y-3.0066
X4.6417Y-4.122
X4.6457Y-4.2441
X4.6575Y-3.3858
X4.6575Y-4.1378
X4.6732Y-4.2874
X4.6811Y-3.937
X4.6826Y-3.8713
X4.6837Y-3.9039
X4.6842Y-3.8465
X4.6911Y-2.6378
X4.7047Y-4.3307
X4.7165Y-2.9213
X4.7362Y-3.5433
X4.7402Y-2.9134
X4.7441Y-4.4134
X4.7559Y-2.8976
X4.7717Y-3.3858
X4.7835Y-3.5276
X4.8039Y-3.5079
X4.8168Y-3.4843
X4.8174Y-4.3292
X4.8228Y-3.8071
X4.8307Y-3.4656
X4.8504Y-3.4509
X4.8622Y-2.5315
X4.9016Y-4.1811
X4.9055Y-4.0709
X4.9094Y-3.7087
X4.9173Y-4.1654
X4.9295Y-3.539
X4.9331Y-4.1496
X4.9449Y-3.7265
X4.9528Y-3.5212
X4.9633Y-4.0092
X4.9661Y-3.9815
X4.9674Y-4.0468
X4.9961Y-3.7619
X5.0Y-3.8504
X5.0433Y-3.7501
X5.0669Y-4.2638
X5.1299Y-3.8031
X5.2323Y-3.8465
X5.2687Y-3.7016
X5.2807Y-3.7319
X5.2835Y-4.2224
X5.2847Y-4.0406
X5.2874Y-4.1417
X5.2876Y-4.0181
X5.2927Y-4.2017
X5.301Y-4.1805
X5.3386Y-3.6969
X5.4016Y-3.7008
X5.4685Y-3.8031
X5.5236Y-3.3543
X5.5722Y-3.2441
T2
X3.525Y-4.425
X3.6234Y-4.425
X3.7219Y-4.425
X5.0728Y-3.8307
X5.0728Y-3.9291
X5.0728Y-4.0276
X5.0728Y-4.126
X5.2047Y-2.7913
X5.2047Y-2.8898
X5.2047Y-2.9882
X4.05Y-4.425
X4.1484Y-4.425
X4.2469Y-4.425
X4.3453Y-4.425
X4.4437Y-4.425
X5.5157Y-2.7913
X5.5157Y-2.8898
X5.5157Y-2.9882
X4.1659Y-3.6348
X4.1659Y-3.7333
X4.1659Y-3.8317
X4.1659Y-3.9301
X4.1659Y-4.0285
X4.1659Y-4.127
X5.3878Y-3.9291
X5.3878Y-4.0276
X5.3878Y-4.126
X4.7677Y-3.8307
X4.7677Y-3.9291
X4.7677Y-4.0276
X4.7677Y-4.126
X4.4744Y-3.6348
X4.4744Y-3.7333
X4.4744Y-3.8317
X4.4744Y-3.9301
X4.4744Y-4.0285
X4.4744Y-4.127
T3
X3.422Y-2.4823
X3.422Y-2.5823
X3.522Y-2.4823
X3.522Y-2.5823
X3.622Y-2.4823
X3.622Y-2.5823
X3.722Y-2.4823
X3.722Y-2.5823
X3.822Y-2.4823
X3.822Y-2.5823
X3.922Y-2.4823
X3.922Y-2.5823
X4.022Y-2.4823
X4.022Y-2.5823
X4.122Y-2.4823
X4.122Y-2.5823
X4.222Y-2.4823
X4.222Y-2.5823
X4.322Y-2.4823
X4.322Y-2.5823
X4.422Y-2.4823
X4.422Y-2.5823
X4.522Y-2.4823
X4.522Y-2.5823
X4.622Y-2.4823
X4.622Y-2.5823
X4.722Y-2.4823
X4.722Y-2.5823
X4.822Y-2.4823
X4.822Y-2.5823
X4.922Y-2.4823
X4.922Y-2.5823
X5.022Y-2.4823
X5.022Y-2.5823
X5.122Y-2.4823
X5.122Y-2.5823
X5.222Y-2.4823
X5.222Y-2.5823
X5.322Y-2.4823
X5.322Y-2.5823
X4.2343Y-2.7445
X4.2343Y-2.8445
X4.874Y-2.8157
X4.874Y-2.9157
X4.874Y-3.0157
X3.2598Y-2.9134
X3.3598Y-2.9134
X3.4598Y-2.9134
T4
X5.0433Y-4.4213
X5.2402Y-4.4213
T5
X3.4449Y-3.3169
X3.4449Y-3.8976
T6
X3.2677Y-3.3169
X3.2677Y-3.8976
T0
M30
